<svg xmlns="http://www.w3.org/2000/svg" viewBox="0 0 140 140">
    <rect class="cls-1" x="90" y="100" width="10" height="10" fill="#1b3032" />
    <rect class="cls-1" x="40" y="100" width="10" height="10" fill="#1b3032" />
    <rect class="cls-1" x="90" y="90" width="10" height="10" fill="#1b3032" />
    <polygon class="cls-2"
        points="0 0 0 140 30 140 30 120 40 120 40 30 50 30 50 20 90 20 90 30 100 30 100 120 110 120 110 140 140 140 140 0 0 0"
        fill="#9d9d9d" />
    <rect class="cls-1" x="80" y="90" width="10" height="10" fill="#1b3032" />
    <polygon class="cls-1"
        points="60 100 60 90 50 90 50 60 90 60 90 90 100 90 100 30 90 30 90 20 50 20 50 30 40 30 40 100 60 100"
        fill="#1b3032" />
    <polygon class="cls-3" points="60 100 50 100 50 110 40 110 40 120 30 120 30 140 60 140 60 100"
        fill="#c3377f" />
    <polygon class="cls-3"
        points="100 110 90 110 90 100 80 100 80 140 110 140 110 120 100 120 100 110"
        fill="#c3377f" />
    <rect class="cls-3" x="60" y="70" width="20" height="10" fill="#c3377f" />
    <rect class="cls-4" x="60" y="90" width="20" height="10" fill="#c7a856" />
    <rect class="cls-4" x="50" y="60" width="40" height="10" fill="#c7a856" />
    <rect class="cls-5" x="60" y="130" width="20" height="10" fill="#fff" />
    <rect class="cls-6" x="60" y="100" width="20" height="30" fill="#f7d06b" />
    <polygon class="cls-6" points="90 90 90 70 80 70 80 80 60 80 60 70 50 70 50 90 90 90"
        fill="#f7d06b" />
</svg>