<svg xmlns="http://www.w3.org/2000/svg" viewBox="0 0 140 140">
    <polygon class="cls-1"
        points="0 0 0 140 20 140 20 120 40 120 40 110 50 110 50 100 40 100 40 70 30 70 30 50 40 50 40 30 50 30 50 10 90 10 90 20 100 20 100 110 110 110 110 120 120 120 120 140 140 140 140 0 0 0"
        fill="#1b3032" />
    <polygon class="cls-2" points="70 110 70 140 80 140 80 120 110 120 110 110 70 110"
        fill="#c3377f" />
    <rect class="cls-2" x="40" y="110" width="10" height="30" fill="#c3377f" />
    <rect class="cls-2" x="40" y="80" width="20" height="10" fill="#c3377f" />
    <polygon class="cls-2" points="60 10 60 30 90 30 90 40 100 40 100 20 90 20 90 10 60 10"
        fill="#c3377f" />
    <rect class="cls-3" x="80" y="120" width="40" height="20" fill="#e78dca" />
    <rect class="cls-3" x="20" y="120" width="20" height="20" fill="#e78dca" />
    <polygon class="cls-3" points="30 50 30 70 40 70 40 60 50 60 50 70 70 70 70 50 30 50"
        fill="#e78dca" />
    <rect class="cls-3" x="50" y="10" width="10" height="30" fill="#e78dca" />
    <polygon class="cls-4"
        points="80 40 40 40 40 50 70 50 70 70 50 70 50 60 40 60 40 80 60 80 60 90 40 90 40 100 80 100 80 70 90 70 90 60 80 60 80 40"
        fill="#fff" />
    <polygon class="cls-5"
        points="90 100 100 100 100 40 90 40 90 30 60 30 60 40 80 40 80 60 90 60 90 70 80 70 80 80 90 80 90 100"
        fill="#f7d06b" />
    <rect class="cls-5" x="40" y="30" width="10" height="10" fill="#f7d06b" />
    <polygon class="cls-6"
        points="90 80 80 80 80 100 50 100 50 140 70 140 70 110 100 110 100 100 90 100 90 80"
        fill="#b1f7f2" />
</svg>