<svg xmlns="http://www.w3.org/2000/svg" viewBox="0 0 140 140">
    <rect class="cls-1" x="70" y="80" width="10" height="10" fill="#eb6831" />
    <rect class="cls-1" x="60" y="80" width="10" height="10" fill="#eb6831" />
    <rect class="cls-1" x="100" y="60" width="10" height="10" fill="#eb6831" />
    <rect class="cls-1" x="30" y="60" width="10" height="10" fill="#eb6831" />
    <rect class="cls-1" x="100" y="50" width="10" height="10" fill="#eb6831" />
    <rect class="cls-1" x="30" y="50" width="10" height="10" fill="#eb6831" />
    <rect class="cls-2" x="60" y="70" width="20" height="10" fill="#c3377f" />
    <rect class="cls-3" x="80" y="50" width="20" height="10" fill="#2b3b49" />
    <rect class="cls-3" x="40" y="50" width="20" height="10" fill="#2b3b49" />
    <polygon class="cls-4"
        points="0 0 0 140 30 140 30 110 50 110 50 100 60 100 60 80 40 80 40 70 30 70 30 30 40 30 40 20 50 20 50 10 90 10 90 20 100 20 100 30 110 30 110 70 100 70 100 80 80 80 80 100 90 100 90 110 110 110 110 140 140 140 140 0 0 0"
        fill="#31f2ea" />
    <polygon class="cls-5" points="80 110 60 110 60 100 50 100 50 120 90 120 90 100 80 100 80 110"
        fill="#008475" />
    <rect class="cls-6" x="60" y="90" width="20" height="20" fill="#7299ed" />
    <polygon class="cls-6"
        points="90 30 50 30 50 40 40 40 40 50 60 50 60 60 40 60 40 80 60 80 60 70 80 70 80 80 100 80 100 60 80 60 80 50 100 50 100 40 90 40 90 30"
        fill="#7299ed" />
    <polygon class="cls-7"
        points="100 20 90 20 90 10 50 10 50 20 40 20 40 30 30 30 30 50 40 50 40 40 50 40 50 30 90 30 90 40 100 40 100 50 110 50 110 30 100 30 100 20"
        fill="#f7d06b" />
    <polygon class="cls-8" points="30 110 30 140 110 140 110 110 90 110 90 120 50 120 50 110 30 110"
        fill="#b1f7f2" />
</svg>