<svg xmlns="http://www.w3.org/2000/svg" viewBox="0 0 140 140">
    <rect class="cls-1" x="100" y="70" width="10" height="10" fill="#1b3032" />
    <rect class="cls-1" x="30" y="70" width="10" height="10" fill="#1b3032" />
    <polygon class="cls-2" points="80 90 60 90 60 100 70 100 70 110 90 110 90 100 80 100 80 90"
        fill="#54388c" />
    <rect class="cls-1" x="80" y="60" width="10" height="10" fill="#1b3032" />
    <rect class="cls-1" x="50" y="60" width="10" height="10" fill="#1b3032" />
    <polygon class="cls-1"
        points="30 60 40 60 40 50 50 50 50 40 90 40 90 50 100 50 100 60 110 60 110 70 120 70 120 40 110 40 110 20 90 20 90 10 50 10 50 20 30 20 30 40 20 40 20 70 30 70 30 60"
        fill="#1b3032" />
    <polygon class="cls-3"
        points="70 110 70 100 30 100 30 140 40 140 40 110 50 110 50 120 60 120 60 130 80 130 80 120 90 120 90 110 70 110"
        fill="#85689c" />
    <polygon class="cls-3" points="90 100 90 110 100 110 100 140 110 140 110 100 90 100"
        fill="#85689c" />
    <path class="cls-3"
        d="M100,50H90V40H50V50H40V60H30V70H40V90h60V70h10V60H100ZM90,70H80V80H60V70H50V60H60V70H80V60H90Z"
        fill="#85689c" />
    <rect class="cls-4" x="60" y="70" width="20" height="10" fill="#e78dca" />
    <polygon class="cls-5"
        points="0 0 0 140 30 140 30 100 60 100 60 90 40 90 40 80 30 80 30 70 20 70 20 40 30 40 30 20 50 20 50 10 90 10 90 20 110 20 110 40 120 40 120 70 110 70 110 80 100 80 100 90 80 90 80 100 110 100 110 140 140 140 140 0 0 0"
        fill="#7299ed" />
    <polygon class="cls-6"
        points="90 120 80 120 80 130 60 130 60 120 50 120 50 110 40 110 40 140 100 140 100 110 90 110 90 120"
        fill="#b1f7f2" />
</svg>