<svg xmlns="http://www.w3.org/2000/svg" viewBox="0 0 140 140">
    <polygon class="cls-1" points="50 100 60 100 60 110 80 110 80 100 90 100 90 90 50 90 50 100"
        fill="#54388c" />
    <rect class="cls-2" x="60" y="110" width="20" height="30" fill="#1b3032" />
    <rect class="cls-2" x="80" y="50" width="10" height="10" fill="#1b3032" />
    <rect class="cls-2" x="50" y="50" width="10" height="10" fill="#1b3032" />
    <path class="cls-3"
        d="M100,50H90V60H80V50H90V30H50V50H60V60H50V50H40V40H30V60H40V80H50V90H90V80h10V60h10V40H100ZM80,80H60V70H80Z"
        fill="#85689c" />
    <rect class="cls-4" x="60" y="70" width="20" height="10" fill="#e78dca" />
    <polygon class="cls-5"
        points="0 140 10 140 10 120 20 120 20 110 40 110 40 100 50 100 50 90 40 90 40 80 30 80 30 30 40 30 40 20 50 20 50 10 90 10 90 20 100 20 100 30 110 30 110 80 100 80 100 90 90 90 90 100 100 100 100 110 120 110 120 120 130 120 130 140 140 140 140 0 0 0 0 140"
        fill="#31f2ea" />
    <rect class="cls-6" x="90" y="80" width="10" height="10" fill="#f7d06b" />
    <rect class="cls-6" x="40" y="80" width="10" height="10" fill="#f7d06b" />
    <rect class="cls-6" x="100" y="60" width="10" height="20" fill="#f7d06b" />
    <rect class="cls-6" x="30" y="60" width="10" height="20" fill="#f7d06b" />
    <polygon class="cls-6"
        points="40 50 50 50 50 30 90 30 90 50 100 50 100 40 110 40 110 30 100 30 100 20 90 20 90 10 50 10 50 20 40 20 40 30 30 30 30 40 40 40 40 50"
        fill="#f7d06b" />
    <polygon class="cls-7"
        points="130 120 120 120 120 110 100 110 100 100 80 100 80 140 130 140 130 120"
        fill="#b1f7f2" />
    <polygon class="cls-7" points="60 100 40 100 40 110 20 110 20 120 10 120 10 140 60 140 60 100"
        fill="#b1f7f2" />
</svg>