<svg xmlns="http://www.w3.org/2000/svg" viewBox="0 0 140 140">
    <rect class="cls-1" x="80" y="130" width="10" height="10" fill="#c25656" />
    <rect class="cls-1" x="60" y="130" width="10" height="10" fill="#c25656" />
    <rect class="cls-2" x="60" y="90" width="30" height="10" fill="#54388c" />
    <rect class="cls-3" x="50" y="90" width="10" height="30" fill="#1b3032" />
    <rect class="cls-3" x="80" y="60" width="10" height="10" fill="#1b3032" />
    <rect class="cls-3" x="50" y="60" width="10" height="10" fill="#1b3032" />
    <polygon class="cls-4" points="60 100 60 130 70 130 70 140 80 140 80 130 90 130 90 100 60 100"
        fill="#85689c" />
    <polygon class="cls-4"
        points="80 40 70 40 70 50 60 50 60 70 50 70 50 90 60 90 60 80 80 80 80 90 90 90 90 70 80 70 80 60 90 60 90 50 80 50 80 40"
        fill="#85689c" />
    <rect class="cls-5" x="50" y="120" width="10" height="20" fill="#e78dca" />
    <rect class="cls-5" x="60" y="80" width="20" height="10" fill="#e78dca" />
    <polygon class="cls-6"
        points="110 20 90 20 90 10 60 10 60 20 40 20 40 40 30 40 30 140 50 140 50 60 60 60 60 50 70 50 70 40 80 40 80 50 90 50 90 140 120 140 120 40 110 40 110 20"
        fill="#2b3b49" />
    <polygon class="cls-7"
        points="0 0 0 140 30 140 30 40 40 40 40 20 60 20 60 10 90 10 90 20 110 20 110 40 120 40 120 140 140 140 140 0 0 0"
        fill="#b1f7f2" />
</svg>