<svg xmlns="http://www.w3.org/2000/svg" viewBox="0 0 140 140">
    <rect class="cls-1" x="70" y="60" width="10" height="10" fill="#bfb601" />
    <polygon class="cls-1"
        points="100 30 90 30 90 20 80 20 80 10 50 10 50 20 40 20 40 30 30 30 30 60 20 60 20 110 50 110 50 40 60 40 60 30 80 30 80 40 90 40 90 110 110 110 110 40 100 40 100 30"
        fill="#c3377f" />
    <rect class="cls-2" x="60" y="80" width="20" height="10" fill="#85689c" />
    <rect class="cls-3" x="80" y="80" width="10" height="20" fill="#2b3b49" />
    <rect class="cls-3" x="50" y="80" width="10" height="20" fill="#2b3b49" />
    <rect class="cls-3" x="80" y="50" width="10" height="10" fill="#2b3b49" />
    <rect class="cls-3" x="50" y="50" width="10" height="10" fill="#2b3b49" />
    <rect class="cls-4" x="90" y="130" width="10" height="10" fill="#31f2ea" />
    <rect class="cls-4" x="40" y="130" width="10" height="10" fill="#31f2ea" />
    <polygon class="cls-4"
        points="90 120 100 120 100 110 90 110 90 100 80 100 80 120 70 120 70 110 60 110 60 100 50 100 50 110 40 110 40 120 50 120 50 130 90 130 90 120"
        fill="#31f2ea" />
    <rect class="cls-5" x="50" y="130" width="40" height="10" fill="#008475" />
    <rect class="cls-5" x="90" y="120" width="10" height="10" fill="#008475" />
    <rect class="cls-5" x="40" y="120" width="10" height="10" fill="#008475" />
    <polygon class="cls-6" points="80 120 80 90 60 90 60 110 70 110 70 120 80 120" fill="#7299ed" />
    <polygon class="cls-6"
        points="90 60 80 60 80 70 70 70 70 60 80 60 80 50 90 50 90 40 80 40 80 30 60 30 60 40 50 40 50 50 60 50 60 60 50 60 50 80 90 80 90 60"
        fill="#7299ed" />
    <polygon class="cls-7"
        points="0 140 40 140 40 110 20 110 20 60 30 60 30 30 40 30 40 20 50 20 50 10 80 10 80 20 90 20 90 30 100 30 100 40 110 40 110 110 100 110 100 140 140 140 140 0 0 0 0 140"
        fill="#b1f7f2" />
</svg>