<svg xmlns="http://www.w3.org/2000/svg" viewBox="0 0 140 140">
    <polygon class="cls-1" points="60 30 60 10 40 10 40 40 70 40 70 30 60 30" fill="#be2675" />
    <polygon class="cls-2"
        points="0 0 0 140 10 140 10 120 30 120 30 110 40 110 40 100 50 100 50 70 40 70 40 60 30 60 30 50 40 50 40 10 100 10 100 30 120 30 120 40 100 40 100 70 90 70 90 100 100 100 100 110 110 110 110 120 130 120 130 140 140 140 140 0 0 0"
        fill="#9d9d9d" />
    <rect class="cls-3" x="60" y="80" width="30" height="10" fill="#54388c" />
    <polygon class="cls-3" points="60 50 50 50 50 40 40 40 40 70 60 70 60 50" fill="#54388c" />
    <polygon class="cls-4" points="70 140 70 100 40 100 40 110 30 110 30 120 10 120 10 140 70 140"
        fill="#1b3032" />
    <polygon class="cls-4"
        points="110 120 110 110 100 110 100 100 80 100 80 140 130 140 130 120 110 120"
        fill="#1b3032" />
    <polygon class="cls-5" points="100 30 100 10 60 10 60 30 70 30 70 40 120 40 120 30 100 30"
        fill="#c3377f" />
    <polygon class="cls-6" points="60 70 50 70 50 100 70 100 70 90 60 90 60 70" fill="#85689c" />
    <rect class="cls-6" x="50" y="40" width="50" height="10" fill="#85689c" />
    <rect class="cls-7" x="70" y="50" width="20" height="10" fill="#fff" />
    <polygon class="cls-8" points="70 90 70 120 80 120 80 100 90 100 90 90 70 90" fill="#7299ed" />
    <polygon class="cls-8"
        points="90 60 70 60 70 50 60 50 60 80 90 80 90 70 100 70 100 50 90 50 90 60"
        fill="#7299ed" />
    <rect class="cls-8" x="30" y="50" width="10" height="10" fill="#7299ed" />
    <rect class="cls-9" x="70" y="120" width="10" height="20" fill="#b1f7f2" />
</svg>