<svg xmlns="http://www.w3.org/2000/svg" viewBox="0 0 140 140">
    <rect class="cls-1" x="40" y="90" width="30" height="10" fill="#54388c" />
    <rect class="cls-1" x="40" y="10" width="30" height="20" fill="#54388c" />
    <polygon class="cls-2" points="80 80 70 80 70 100 80 100 80 90 90 90 90 60 80 60 80 80"
        fill="#85689c" />
    <polygon class="cls-2" points="70 10 70 30 80 30 80 40 90 40 90 10 70 10" fill="#85689c" />
    <polygon class="cls-3"
        points="120 130 120 120 110 120 110 110 90 110 90 90 80 90 80 100 40 100 40 110 30 110 30 120 20 120 20 130 10 130 10 140 130 140 130 130 120 130"
        fill="#2b3b49" />
    <path class="cls-3"
        d="M70,90V80H80V60h20V40H80V30H40V40H50V50H40V60H70V70H40V90ZM60,50V40H70V50Z"
        fill="#2b3b49" />
    <rect class="cls-4" x="40" y="60" width="30" height="10" fill="#fff" />
    <rect class="cls-4" x="60" y="40" width="10" height="10" fill="#fff" />
    <rect class="cls-4" x="40" y="40" width="10" height="10" fill="#fff" />
    <polygon class="cls-5"
        points="0 0 0 140 10 140 10 130 20 130 20 120 30 120 30 110 40 110 40 10 90 10 90 40 100 40 100 60 90 60 90 110 110 110 110 120 120 120 120 130 130 130 130 140 140 140 140 0 0 0"
        fill="#7299ed" />
</svg>