<svg xmlns="http://www.w3.org/2000/svg" viewBox="0 0 140 140">
    <polygon class="cls-1" points="50 80 50 100 60 100 60 90 80 90 80 80 50 80" fill="#e06fbc" />
    <polygon class="cls-1" points="50 40 30 40 30 60 40 60 40 80 50 80 50 40" fill="#e06fbc" />
    <rect class="cls-2" x="100" y="110" width="10" height="30" fill="#9d9d9d" />
    <rect class="cls-2" x="20" y="110" width="20" height="30" fill="#9d9d9d" />
    <polygon class="cls-2"
        points="80 100 70 100 70 110 60 110 60 100 50 100 50 90 40 90 40 110 50 110 50 140 90 140 90 90 80 90 80 100"
        fill="#9d9d9d" />
    <polygon class="cls-3" points="60 90 60 110 70 110 70 100 80 100 80 90 60 90" fill="#e78dca" />
    <path class="cls-3" d="M90,50H80V40H90V30H50V40H60V50H50V80H90V60h10V40H90ZM80,70H60V60H80Z"
        fill="#e78dca" />
    <rect class="cls-4" x="60" y="10" width="50" height="10" fill="#31f2ea" />
    <rect class="cls-5" x="60" y="60" width="20" height="10" fill="#fff" />
    <rect class="cls-6" x="40" y="110" width="10" height="30" fill="#008475" />
    <rect class="cls-6" x="90" y="100" width="10" height="40" fill="#008475" />
    <rect class="cls-6" x="30" y="100" width="10" height="10" fill="#008475" />
    <rect class="cls-6" x="30" y="60" width="10" height="10" fill="#008475" />
    <rect class="cls-6" x="80" y="40" width="10" height="10" fill="#008475" />
    <rect class="cls-6" x="50" y="40" width="10" height="10" fill="#008475" />
    <polygon class="cls-6"
        points="60 20 60 10 40 10 40 20 30 20 30 40 50 40 50 30 100 30 100 20 60 20"
        fill="#008475" />
    <polygon class="cls-7"
        points="0 0 0 140 20 140 20 110 30 110 30 100 40 100 40 90 50 90 50 80 40 80 40 70 30 70 30 20 40 20 40 10 110 10 110 20 100 20 100 30 90 30 90 40 100 40 100 60 90 60 90 80 80 80 80 90 90 90 90 100 100 100 100 110 110 110 110 140 140 140 140 0 0 0"
        fill="#f7d06b" />
</svg>