<svg xmlns="http://www.w3.org/2000/svg" viewBox="0 0 140 140">
    <polygon class="cls-1"
        points="100 20 90 20 90 10 50 10 50 20 40 20 40 30 30 30 30 70 40 70 40 80 60 80 60 70 50 70 50 50 60 50 60 40 80 40 80 50 90 50 90 70 80 70 80 80 100 80 100 70 110 70 110 30 100 30 100 20"
        fill="#1b3032" />
    <rect class="cls-2" x="90" y="100" width="10" height="40" fill="#c7a856" />
    <rect class="cls-2" x="50" y="100" width="10" height="40" fill="#c7a856" />
    <rect class="cls-3" x="60" y="60" width="20" height="10" fill="#e78dca" />
    <polygon class="cls-4" points="60 70 60 90 70 90 70 100 80 100 80 70 60 70" fill="#2b3b49" />
    <polygon class="cls-4"
        points="80 40 60 40 60 50 50 50 50 70 60 70 60 60 80 60 80 70 90 70 90 50 80 50 80 40"
        fill="#2b3b49" />
    <rect class="cls-5" x="70" y="100" width="10" height="40" fill="#fff" />
    <rect class="cls-6" x="40" y="110" width="10" height="10" fill="#7299ed" />
    <rect class="cls-7" x="40" y="120" width="10" height="20" fill="#f7d06b" />
    <rect class="cls-7" x="40" y="100" width="10" height="10" fill="#f7d06b" />
    <rect class="cls-7" x="80" y="90" width="10" height="50" fill="#f7d06b" />
    <polygon class="cls-7" points="50 90 50 100 60 100 60 140 70 140 70 90 50 90" fill="#f7d06b" />
    <polygon class="cls-8"
        points="0 0 0 140 40 140 40 100 50 100 50 90 60 90 60 80 40 80 40 70 30 70 30 30 40 30 40 20 50 20 50 10 90 10 90 20 100 20 100 30 110 30 110 70 100 70 100 80 80 80 80 90 90 90 90 100 100 100 100 140 140 140 140 0 0 0"
        fill="#b1f7f2" />
</svg>