<svg xmlns="http://www.w3.org/2000/svg" viewBox="0 0 140 140">
    <rect class="cls-1" x="90" y="80" width="10" height="10" fill="#1b3032" />
    <rect class="cls-1" x="50" y="80" width="10" height="10" fill="#1b3032" />
    <rect class="cls-1" x="60" y="70" width="30" height="10" fill="#1b3032" />
    <polygon class="cls-1"
        points="50 60 70 60 70 50 80 50 80 60 100 60 100 40 40 40 40 50 50 50 50 60"
        fill="#1b3032" />
    <polygon class="cls-2"
        points="40 80 40 100 60 100 60 110 90 110 90 100 70 100 70 90 50 90 50 80 40 80"
        fill="#85689c" />
    <polygon class="cls-3" points="60 10 60 30 70 30 70 20 90 20 90 30 100 30 100 10 60 10"
        fill="#31f2ea" />
    <polygon class="cls-4" points="100 120 100 110 90 110 90 140 120 140 120 120 100 120"
        fill="#008475" />
    <polygon class="cls-4" points="30 110 30 120 10 120 10 140 50 140 50 110 30 110"
        fill="#008475" />
    <polygon class="cls-4" points="60 30 60 10 50 10 50 20 40 20 40 40 120 40 120 30 60 30"
        fill="#008475" />
    <polygon class="cls-5" points="90 140 90 110 60 110 60 100 40 100 40 110 50 110 50 140 90 140"
        fill="#7299ed" />
    <polygon class="cls-5" points="70 90 70 100 100 100 100 90 90 90 90 80 60 80 60 90 70 90"
        fill="#7299ed" />
    <polygon class="cls-5"
        points="40 80 60 80 60 70 90 70 90 60 80 60 80 50 70 50 70 60 50 60 50 50 30 50 30 70 40 70 40 80"
        fill="#7299ed" />
    <rect class="cls-6" x="70" y="20" width="20" height="10" fill="#f7d06b" />
    <polygon class="cls-7"
        points="0 0 0 140 10 140 10 120 30 120 30 110 40 110 40 70 30 70 30 50 40 50 40 20 50 20 50 10 100 10 100 30 120 30 120 40 100 40 100 60 90 60 90 80 100 80 100 100 90 100 90 110 100 110 100 120 120 120 120 140 140 140 140 0 0 0"
        fill="#b1f7f2" />
</svg>