<svg xmlns="http://www.w3.org/2000/svg" viewBox="0 0 140 140">
    <rect class="cls-1" x="60" y="90" width="30" height="20" fill="#1b3032" />
    <polygon class="cls-1"
        points="100 70 110 70 110 60 120 60 120 30 110 30 110 20 100 20 100 10 50 10 50 20 40 20 40 50 50 50 50 40 70 40 70 50 80 50 80 40 100 40 100 60 90 60 90 80 100 80 100 70"
        fill="#1b3032" />
    <polygon class="cls-2"
        points="100 110 90 110 90 120 80 120 80 130 70 130 70 120 60 120 60 110 50 110 50 120 40 120 40 140 110 140 110 120 100 120 100 110"
        fill="#c3377f" />
    <rect class="cls-2" x="50" y="50" width="20" height="10" fill="#c3377f" />
    <polygon class="cls-3" points="80 80 60 80 60 90 90 90 90 70 80 70 80 80" fill="#c7a856" />
    <polygon class="cls-4"
        points="0 0 0 140 40 140 40 120 50 120 50 110 60 110 60 80 40 80 40 20 50 20 50 10 100 10 100 20 110 20 110 30 120 30 120 60 110 60 110 70 100 70 100 80 90 80 90 110 100 110 100 120 110 120 110 140 140 140 140 0 0 0"
        fill="#e78dca" />
    <polygon class="cls-5" points="80 130 80 120 90 120 90 110 60 110 60 120 70 120 70 130 80 130"
        fill="#f7d06b" />
    <polygon class="cls-5"
        points="80 80 80 70 90 70 90 60 100 60 100 40 80 40 80 50 70 50 70 60 50 60 50 50 40 50 40 80 80 80"
        fill="#f7d06b" />
    <rect class="cls-5" x="50" y="40" width="20" height="10" fill="#f7d06b" />
</svg>