<svg xmlns="http://www.w3.org/2000/svg" viewBox="0 0 140 140">
    <rect class="cls-1" x="50" y="60" width="20" height="10" fill="#e78dca" />
    <rect class="cls-2" x="70" y="30" width="10" height="20" fill="#31f2ea" />
    <rect class="cls-2" x="50" y="30" width="10" height="20" fill="#31f2ea" />
    <polygon class="cls-3"
        points="110 90 110 30 100 30 100 20 90 20 90 10 40 10 40 40 50 40 50 20 70 20 70 30 80 30 80 80 90 80 90 100 80 100 80 110 70 110 70 120 60 120 60 80 50 80 50 110 40 110 40 140 120 140 120 90 110 90"
        fill="#39446e" />
    <polygon class="cls-4"
        points="0 0 0 140 40 140 40 110 50 110 50 40 40 40 40 10 90 10 90 20 100 20 100 30 110 30 110 90 120 90 120 140 140 140 140 0 0 0"
        fill="#8da8a5" />
    <polygon class="cls-5"
        points="80 50 70 50 70 20 50 20 50 30 60 30 60 50 50 50 50 60 70 60 70 70 50 70 50 80 60 80 60 120 70 120 70 110 80 110 80 100 90 100 90 80 80 80 80 50"
        fill="#b1f7f2" />
</svg>