<svg xmlns="http://www.w3.org/2000/svg" viewBox="0 0 140 140">
    <rect class="cls-1" x="50" y="50" width="40" height="10" fill="#1b3032" />
    <polygon class="cls-2"
        points="100 20 90 20 90 10 50 10 50 20 40 20 40 50 50 50 50 30 80 30 80 40 90 40 90 50 110 50 110 30 100 30 100 20"
        fill="#c3377f" />
    <rect class="cls-3" x="60" y="90" width="30" height="10" fill="#85689c" />
    <polygon class="cls-4"
        points="90 140 90 120 100 120 100 90 90 90 90 110 60 110 60 90 50 90 50 140 90 140"
        fill="#31f2ea" />
    <rect class="cls-5" x="60" y="70" width="20" height="10" fill="#fff" />
    <polygon class="cls-6" points="50 100 40 100 40 110 30 110 30 140 50 140 50 100"
        fill="#008475" />
    <polygon class="cls-6"
        points="110 100 100 100 100 120 90 120 90 140 120 140 120 110 110 110 110 100"
        fill="#008475" />
    <rect class="cls-7" x="60" y="100" width="30" height="10" fill="#7299ed" />
    <polygon class="cls-7"
        points="50 60 50 80 60 80 60 70 80 70 80 80 60 80 60 90 90 90 90 80 100 80 100 60 110 60 110 50 90 50 90 60 50 60"
        fill="#7299ed" />
    <rect class="cls-7" x="40" y="50" width="10" height="10" fill="#7299ed" />
    <polygon class="cls-7" points="50 50 90 50 90 40 80 40 80 30 50 30 50 50" fill="#7299ed" />
    <polygon class="cls-8"
        points="0 0 0 140 30 140 30 110 40 110 40 100 50 100 50 90 60 90 60 80 50 80 50 60 40 60 40 20 50 20 50 10 90 10 90 20 100 20 100 30 110 30 110 60 100 60 100 80 90 80 90 90 100 90 100 100 110 100 110 110 120 110 120 140 140 140 140 0 0 0"
        fill="#f7d06b" />
</svg>