<svg xmlns="http://www.w3.org/2000/svg" viewBox="0 0 140 140">
    <rect class="cls-1" x="60" y="60" width="20" height="10" fill="#1b3032" />
    <polygon class="cls-1"
        points="90 20 90 10 50 10 50 20 30 20 30 60 40 60 40 80 50 80 50 60 60 60 60 50 80 50 80 60 90 60 90 80 100 80 100 60 110 60 110 20 90 20"
        fill="#1b3032" />
    <rect class="cls-2" x="60" y="80" width="20" height="10" fill="#c7a856" />
    <path class="cls-3" d="M110,140V110H100V100H90v10H50V100H40v10H30v30ZM40,120h60v10H40Z"
        fill="#31f2ea" />
    <rect class="cls-4" x="50" y="90" width="10" height="20" fill="#fff" />
    <rect class="cls-4" x="80" y="90" width="10" height="20" fill="#fff" />
    <rect class="cls-5" x="60" y="90" width="20" height="20" fill="#f7d06b" />
    <polygon class="cls-5" points="90 80 90 60 80 60 80 70 60 70 60 60 50 60 50 80 90 80"
        fill="#f7d06b" />
    <rect class="cls-5" x="60" y="50" width="20" height="10" fill="#f7d06b" />
    <rect class="cls-6" x="40" y="120" width="60" height="10" fill="#b1f7f2" />
    <polygon class="cls-6"
        points="0 0 0 140 30 140 30 110 40 110 40 100 50 100 50 90 60 90 60 80 40 80 40 60 30 60 30 20 50 20 50 10 90 10 90 20 110 20 110 60 100 60 100 80 80 80 80 90 90 90 90 100 100 100 100 110 110 110 110 140 140 140 140 0 0 0"
        fill="#b1f7f2" />
</svg>