<svg xmlns="http://www.w3.org/2000/svg" viewBox="0 0 140 140">
    <rect class="cls-1" x="70" y="20" width="10" height="10" fill="#1b3032" />
    <rect class="cls-1" x="60" y="20" width="10" height="10" fill="#1b3032" />
    <rect class="cls-1" x="70" y="10" width="10" height="10" fill="#1b3032" />
    <rect class="cls-1" x="60" y="10" width="10" height="10" fill="#1b3032" />
    <rect class="cls-1" x="50" y="10" width="10" height="10" fill="#1b3032" />
    <polygon class="cls-2" points="80 90 60 90 60 80 50 80 50 100 90 100 90 80 80 80 80 90"
        fill="#54388c" />
    <rect class="cls-1" x="60" y="80" width="20" height="10" fill="#1b3032" />
    <rect class="cls-1" x="80" y="50" width="10" height="10" fill="#1b3032" />
    <rect class="cls-1" x="50" y="50" width="10" height="10" fill="#1b3032" />
    <polygon class="cls-1" points="100 40 100 20 90 20 90 10 80 10 80 30 90 30 90 40 100 40"
        fill="#1b3032" />
    <polygon class="cls-1" points="50 30 60 30 60 20 40 20 40 40 50 40 50 30" fill="#1b3032" />
    <polygon class="cls-3"
        points="120 120 110 120 110 110 100 110 100 140 130 140 130 130 120 130 120 120"
        fill="#85689c" />
    <polygon class="cls-3" points="80 130 80 120 90 120 90 100 50 100 50 120 60 120 60 130 80 130"
        fill="#85689c" />
    <polygon class="cls-3" points="30 120 20 120 20 130 10 130 10 140 40 140 40 110 30 110 30 120"
        fill="#85689c" />
    <path class="cls-3"
        d="M40,80h60V60h10V40H90V30H50V40H30V60H40ZM50,50H60V60H80V50H90V60H80V70H60V60H50Z"
        fill="#85689c" />
    <rect class="cls-4" x="60" y="60" width="20" height="10" fill="#e78dca" />
    <polygon class="cls-5"
        points="0 0 0 140 10 140 10 130 20 130 20 120 30 120 30 110 50 110 50 80 40 80 40 60 30 60 30 40 40 40 40 20 50 20 50 10 90 10 90 20 100 20 100 40 110 40 110 60 100 60 100 80 90 80 90 110 110 110 110 120 120 120 120 130 130 130 130 140 140 140 140 0 0 0"
        fill="#31f2ea" />
    <polygon class="cls-6"
        points="40 110 40 140 100 140 100 110 90 110 90 120 80 120 80 130 60 130 60 120 50 120 50 110 40 110"
        fill="#b1f7f2" />
</svg>