<svg xmlns="http://www.w3.org/2000/svg" viewBox="0 0 140 140">
    <rect class="cls-1" x="90" y="110" width="10" height="20" fill="#9d9d9d" />
    <rect class="cls-1" x="50" y="110" width="10" height="20" fill="#9d9d9d" />
    <polygon class="cls-2"
        points="90 90 90 80 100 80 100 70 80 70 80 80 60 80 60 70 50 70 50 90 90 90"
        fill="#2b3b49" />
    <rect class="cls-2" x="80" y="50" width="10" height="10" fill="#2b3b49" />
    <rect class="cls-2" x="50" y="50" width="10" height="10" fill="#2b3b49" />
    <rect class="cls-3" x="60" y="70" width="20" height="10" fill="#fff" />
    <path class="cls-4"
        d="M110,100H100V90H90v10H80v10H70V100H40v10H30v30h90V110H110ZM50,130V110H60v20Zm50,0H90V110h10Z"
        fill="#008475" />
    <polygon class="cls-4"
        points="60 30 90 30 90 40 100 40 100 50 110 50 110 20 100 20 100 10 60 10 60 20 50 20 50 40 60 40 60 30"
        fill="#008475" />
    <polygon class="cls-5" points="80 110 80 100 90 100 90 90 60 90 60 100 70 100 70 110 80 110"
        fill="#7299ed" />
    <path class="cls-5" d="M50,60V70h50V60h10V50H100V40H90V30H60V40H50V50H60V60Zm40,0H80V50H90Z"
        fill="#7299ed" />
    <polygon class="cls-6"
        points="0 0 0 140 30 140 30 110 40 110 40 100 60 100 60 90 50 90 50 20 60 20 60 10 100 10 100 20 110 20 110 60 100 60 100 80 90 80 90 90 100 90 100 100 110 100 110 110 120 110 120 140 140 140 140 0 0 0"
        fill="#b1f7f2" />
</svg>