<svg xmlns="http://www.w3.org/2000/svg" viewBox="0 0 140 140">
    <rect class="cls-1" x="70" y="130" width="10" height="10" fill="#71f0e7" />
    <rect class="cls-1" x="50" y="130" width="10" height="10" fill="#71f0e7" />
    <rect class="cls-2" x="80" y="40" width="20" height="10" fill="#1b3032" />
    <rect class="cls-2" x="40" y="40" width="20" height="10" fill="#1b3032" />
    <rect class="cls-3" x="50" y="60" width="30" height="20" fill="#c3377f" />
    <polygon class="cls-4" points="40 70 30 70 30 100 50 100 50 90 40 90 40 70" fill="#2b3b49" />
    <polygon class="cls-4"
        points="100 10 50 10 50 20 40 20 40 30 30 30 30 60 40 60 40 40 50 40 50 30 70 30 70 20 80 20 80 30 90 30 90 40 100 40 100 70 90 70 90 90 80 90 80 100 110 100 110 20 100 20 100 10"
        fill="#2b3b49" />
    <rect class="cls-5" x="80" y="120" width="20" height="20" fill="#31f2ea" />
    <rect class="cls-5" x="40" y="120" width="10" height="20" fill="#31f2ea" />
    <path class="cls-6"
        d="M80,50V40H90V30H80V20H70V30H50V40H60V50H40V60H30V70H40V90H50v10H60v40H70V110H80V90H90V70h10V50Zm0,30H50V60H80Z"
        fill="#7299ed" />
    <polygon class="cls-7"
        points="0 0 0 140 40 140 40 120 50 120 50 110 60 110 60 100 30 100 30 30 40 30 40 20 50 20 50 10 100 10 100 20 110 20 110 100 80 100 80 110 90 110 90 120 100 120 100 140 140 140 140 0 0 0"
        fill="#f7d06b" />
    <polygon class="cls-8" points="70 110 70 130 80 130 80 120 90 120 90 110 70 110"
        fill="#b1f7f2" />
    <rect class="cls-8" x="50" y="110" width="10" height="20" fill="#b1f7f2" />
</svg>