<svg xmlns="http://www.w3.org/2000/svg" viewBox="0 0 140 140">
    <polygon class="cls-1"
        points="100 30 100 20 90 20 90 10 50 10 50 20 40 20 40 30 30 30 30 80 40 80 40 100 50 100 50 40 70 40 70 50 90 50 90 100 100 100 100 80 110 80 110 30 100 30"
        fill="#54388c" />
    <polygon class="cls-2"
        points="100 140 100 110 90 110 90 120 80 120 80 130 60 130 60 120 50 120 50 110 40 110 40 140 100 140"
        fill="#c3377f" />
    <rect class="cls-3" x="60" y="80" width="20" height="10" fill="#85689c" />
    <rect class="cls-4" x="80" y="80" width="10" height="20" fill="#2b3b49" />
    <rect class="cls-4" x="50" y="80" width="10" height="20" fill="#2b3b49" />
    <rect class="cls-4" x="80" y="50" width="10" height="10" fill="#2b3b49" />
    <rect class="cls-4" x="50" y="50" width="10" height="10" fill="#2b3b49" />
    <rect class="cls-5" x="60" y="60" width="20" height="10" fill="#fff" />
    <polygon class="cls-6"
        points="60 130 80 130 80 120 90 120 90 110 80 110 80 90 60 90 60 110 50 110 50 120 60 120 60 130"
        fill="#7299ed" />
    <polygon class="cls-6" points="90 80 90 60 80 60 80 70 60 70 60 60 50 60 50 80 90 80"
        fill="#7299ed" />
    <polygon class="cls-6" points="80 60 80 50 70 50 70 40 50 40 50 50 60 50 60 60 80 60"
        fill="#7299ed" />
    <polygon class="cls-7"
        points="0 0 0 140 40 140 40 110 60 110 60 100 40 100 40 80 30 80 30 30 40 30 40 20 50 20 50 10 90 10 90 20 100 20 100 30 110 30 110 80 100 80 100 100 80 100 80 110 100 110 100 140 140 140 140 0 0 0"
        fill="#f7d06b" />
</svg>