<svg xmlns="http://www.w3.org/2000/svg" viewBox="0 0 140 140">
    <polygon class="cls-1"
        points="0 0 0 140 30 140 30 110 40 110 40 100 50 100 50 90 60 90 60 70 50 70 50 10 100 10 100 60 90 60 90 80 100 80 100 100 110 100 110 110 120 110 120 140 140 140 140 0 0 0"
        fill="#9d9d9d" />
    <polygon class="cls-2" points="80 70 60 70 60 80 90 80 90 60 80 60 80 70" fill="#54388c" />
    <rect class="cls-3" x="70" y="40" width="10" height="10" fill="#1b3032" />
    <rect class="cls-3" x="50" y="40" width="10" height="10" fill="#1b3032" />
    <rect class="cls-3" x="50" y="10" width="20" height="20" fill="#1b3032" />
    <polygon class="cls-3" points="80 10 80 30 90 30 90 40 100 40 100 10 80 10" fill="#1b3032" />
    <polygon class="cls-4" points="80 110 80 90 90 90 90 80 60 80 60 110 80 110" fill="#85689c" />
    <path class="cls-4" d="M90,30H50V40H60V50H50V60H70V70H80V60h20V40H90ZM80,50H70V40H80Z"
        fill="#85689c" />
    <rect class="cls-5" x="50" y="60" width="20" height="10" fill="#e78dca" />
    <rect class="cls-5" x="70" y="10" width="10" height="20" fill="#e78dca" />
    <rect class="cls-6" x="60" y="110" width="20" height="30" fill="#f7d06b" />
    <polygon class="cls-7"
        points="110 100 100 100 100 80 90 80 90 90 80 90 80 140 120 140 120 110 110 110 110 100"
        fill="#b1f7f2" />
    <polygon class="cls-7" points="50 100 40 100 40 110 30 110 30 140 60 140 60 90 50 90 50 100"
        fill="#b1f7f2" />
</svg>