<svg xmlns="http://www.w3.org/2000/svg" viewBox="0 0 140 140">
    <rect class="cls-1" x="60" y="60" width="20" height="10" fill="#c3377f" />
    <polygon class="cls-1"
        points="0 0 0 140 40 140 40 120 50 120 50 110 60 110 60 100 40 100 40 90 30 90 30 70 20 70 20 40 30 40 30 20 50 20 50 10 90 10 90 20 100 20 100 30 110 30 110 70 100 70 100 100 80 100 80 110 90 110 90 120 100 120 100 140 140 140 140 0 0 0"
        fill="#c3377f" />
    <rect class="cls-2" x="60" y="80" width="20" height="10" fill="#85689c" />
    <rect class="cls-3" x="80" y="80" width="10" height="20" fill="#c7a856" />
    <rect class="cls-3" x="50" y="80" width="10" height="20" fill="#c7a856" />
    <polygon class="cls-4"
        points="70 130 70 120 60 120 60 110 50 110 50 120 40 120 40 130 50 130 50 140 100 140 100 130 70 130"
        fill="#fff" />
    <rect class="cls-5" x="80" y="50" width="10" height="10" fill="#008475" />
    <rect class="cls-5" x="50" y="50" width="10" height="10" fill="#008475" />
    <rect class="cls-6" x="40" y="130" width="10" height="10" fill="#7299ed" />
    <polygon class="cls-6"
        points="100 130 100 120 90 120 90 110 80 110 80 90 60 90 60 120 70 120 70 130 100 130"
        fill="#7299ed" />
    <polygon class="cls-6" points="90 80 90 60 80 60 80 70 60 70 60 60 50 60 50 80 90 80"
        fill="#7299ed" />
    <rect class="cls-6" x="60" y="50" width="20" height="10" fill="#7299ed" />
    <polygon class="cls-7"
        points="30 90 40 90 40 100 50 100 50 50 90 50 90 100 100 100 100 70 110 70 110 30 100 30 100 20 90 20 90 10 50 10 50 20 30 20 30 40 20 40 20 70 30 70 30 90"
        fill="#f7d06b" />
</svg>