<svg xmlns="http://www.w3.org/2000/svg" viewBox="0 0 140 140">
    <rect class="cls-1" x="50" y="80" width="10" height="20" fill="#c7a856" />
    <rect class="cls-1" x="80" y="80" width="10" height="20" fill="#c7a856" />
    <rect class="cls-2" x="60" y="60" width="20" height="10" fill="#e78dca" />
    <path class="cls-3" d="M60,130H80V80H90V50H50V80H60Zm0-70H80V70H60Z" fill="#2b3b49" />
    <polygon class="cls-4" points="90 110 80 110 80 140 110 140 110 120 90 120 90 110"
        fill="#31f2ea" />
    <polygon class="cls-4" points="60 110 50 110 50 120 30 120 30 140 60 140 60 110"
        fill="#31f2ea" />
    <polygon class="cls-5"
        points="0 140 30 140 30 120 50 120 50 110 60 110 60 100 30 100 30 60 40 60 40 30 50 30 50 20 90 20 90 30 100 30 100 60 110 60 110 100 80 100 80 110 90 110 90 120 110 120 110 140 140 140 140 0 0 0 0 140"
        fill="#7299ed" />
    <polygon class="cls-6"
        points="50 50 90 50 90 100 110 100 110 60 100 60 100 30 90 30 90 20 50 20 50 30 40 30 40 60 30 60 30 100 50 100 50 50"
        fill="#f7d06b" />
    <rect class="cls-7" x="60" y="130" width="20" height="10" fill="#b1f7f2" />
</svg>