<svg xmlns="http://www.w3.org/2000/svg" viewBox="0 0 140 140">
    <rect class="cls-1" x="50" y="30" width="50" height="10" fill="#85689c" />
    <polygon class="cls-2" points="80 100 70 100 70 90 60 90 60 110 90 110 90 90 80 90 80 100"
        fill="#c7a856" />
    <rect class="cls-3" x="70" y="90" width="10" height="10" fill="#2b3b49" />
    <rect class="cls-3" x="90" y="80" width="10" height="10" fill="#2b3b49" />
    <rect class="cls-3" x="50" y="80" width="10" height="10" fill="#2b3b49" />
    <polygon class="cls-3" points="70 60 70 50 80 50 80 60 100 60 100 40 50 40 50 60 70 60"
        fill="#2b3b49" />
    <polygon class="cls-3" points="100 30 100 20 90 20 90 10 60 10 60 20 50 20 50 30 100 30"
        fill="#2b3b49" />
    <path class="cls-4" d="M100,100H90v10H80v30h30V110H100Zm0,30H90V120h10Z" fill="#31f2ea" />
    <path class="cls-4" d="M60,100H50v10H40v30H70V110H60Zm0,30H50V120H60Z" fill="#31f2ea" />
    <rect class="cls-5" x="70" y="70" width="10" height="10" fill="#fff" />
    <rect class="cls-6" x="90" y="120" width="10" height="10" fill="#008475" />
    <rect class="cls-6" x="50" y="120" width="10" height="10" fill="#008475" />
    <rect class="cls-6" x="110" y="110" width="10" height="30" fill="#008475" />
    <rect class="cls-6" x="70" y="110" width="10" height="30" fill="#008475" />
    <rect class="cls-6" x="30" y="110" width="10" height="30" fill="#008475" />
    <polygon class="cls-7"
        points="0 0 0 140 30 140 30 110 50 110 50 100 60 100 60 90 50 90 50 60 40 60 40 40 50 40 50 20 60 20 60 10 90 10 90 20 100 20 100 40 110 40 110 60 100 60 100 90 90 90 90 100 100 100 100 110 120 110 120 140 140 140 140 0 0 0"
        fill="#7299ed" />
    <path class="cls-8" d="M50,80H60V90H90V80h10V60H80V50H70V60H50ZM80,70V80H70V70Z"
        fill="#f7d06b" />
    <rect class="cls-8" x="100" y="40" width="10" height="20" fill="#f7d06b" />
    <rect class="cls-8" x="40" y="40" width="10" height="20" fill="#f7d06b" />
</svg>