<svg xmlns="http://www.w3.org/2000/svg" viewBox="0 0 140 140">
    <rect class="cls-1" x="80" y="80" width="10" height="10" fill="#1b3032" />
    <rect class="cls-1" x="50" y="80" width="10" height="10" fill="#1b3032" />
    <polygon class="cls-2" points="60 80 60 100 70 100 70 90 80 90 80 80 60 80" fill="#85689c" />
    <rect class="cls-2" x="50" y="50" width="40" height="10" fill="#85689c" />
    <rect class="cls-3" x="50" y="130" width="40" height="10" fill="#31f2ea" />
    <rect class="cls-3" x="90" y="120" width="10" height="10" fill="#31f2ea" />
    <rect class="cls-3" x="40" y="120" width="10" height="10" fill="#31f2ea" />
    <polygon class="cls-3"
        points="0 0 0 140 30 140 30 100 60 100 60 90 20 90 20 50 30 50 30 30 40 30 40 20 50 20 50 10 90 10 90 20 100 20 100 30 110 30 110 50 120 50 120 90 80 90 80 100 110 100 110 140 140 140 140 0 0 0"
        fill="#31f2ea" />
    <rect class="cls-4" x="60" y="60" width="20" height="10" fill="#fff" />
    <polygon class="cls-5"
        points="110 30 100 30 100 20 90 20 90 10 50 10 50 20 40 20 40 30 30 30 30 50 20 50 20 90 50 90 50 50 90 50 90 90 120 90 120 50 110 50 110 30"
        fill="#008475" />
    <polygon class="cls-6" points="70 90 70 100 50 100 50 110 90 110 90 100 80 100 80 90 70 90"
        fill="#7299ed" />
    <polygon class="cls-6" points="90 60 80 60 80 70 60 70 60 60 50 60 50 80 90 80 90 60"
        fill="#7299ed" />
    <polygon class="cls-7"
        points="50 110 50 100 30 100 30 140 50 140 50 130 40 130 40 120 50 120 50 130 90 130 90 120 100 120 100 130 90 130 90 140 110 140 110 100 90 100 90 110 50 110"
        fill="#b1f7f2" />
</svg>