<svg xmlns="http://www.w3.org/2000/svg" viewBox="0 0 140 140">
    <polygon class="cls-1"
        points="100 80 100 30 90 30 90 20 50 20 50 30 40 30 40 80 50 80 50 70 60 70 60 60 50 60 50 40 60 40 60 50 70 50 70 60 80 60 80 70 90 70 90 80 100 80"
        fill="#1b3032" />
    <rect class="cls-2" x="60" y="90" width="20" height="30" fill="#85689c" />
    <polygon class="cls-2"
        points="50 70 50 90 60 90 60 80 80 80 80 90 90 90 90 70 80 70 80 60 70 60 70 50 60 50 60 40 50 40 50 60 60 60 60 70 50 70"
        fill="#85689c" />
    <rect class="cls-3" x="60" y="80" width="20" height="10" fill="#e78dca" />
    <polygon class="cls-4"
        points="0 0 0 140 40 140 40 120 50 120 50 110 60 110 60 90 50 90 50 80 40 80 40 30 50 30 50 20 90 20 90 30 100 30 100 80 90 80 90 90 80 90 80 110 90 110 90 120 100 120 100 140 140 140 140 0 0 0"
        fill="#31f2ea" />
    <rect class="cls-5" x="40" y="130" width="60" height="10" fill="#fff" />
    <polygon class="cls-6"
        points="90 110 80 110 80 120 60 120 60 110 50 110 50 120 40 120 40 130 100 130 100 120 90 120 90 110"
        fill="#b1f7f2" />
</svg>