<svg xmlns="http://www.w3.org/2000/svg" viewBox="0 0 140 140">
    <polygon class="cls-1" points="60 80 60 90 70 90 70 100 80 100 80 80 60 80" fill="#9d9d9d" />
    <polygon class="cls-1"
        points="0 0 0 140 30 140 30 40 40 40 40 30 50 30 50 20 90 20 90 30 100 30 100 40 110 40 110 140 140 140 140 0 0 0"
        fill="#9d9d9d" />
    <path class="cls-2"
        d="M100,30H90V20H50V30H40V40H30V140H40V110H50V100H60V80H50V60H90V80H80v20H90v10h10v30h10V40H100ZM90,50H80V40H90Z"
        fill="#1b3032" />
    <polygon class="cls-3"
        points="90 100 80 100 80 110 60 110 60 100 50 100 50 110 40 110 40 140 100 140 100 110 90 110 90 100"
        fill="#c3377f" />
    <rect class="cls-4" x="60" y="70" width="20" height="10" fill="#e78dca" />
    <rect class="cls-4" x="80" y="40" width="10" height="10" fill="#e78dca" />
    <polygon class="cls-5" points="70 90 60 90 60 110 80 110 80 100 70 100 70 90" fill="#fff" />
    <polygon class="cls-5" points="50 60 50 80 60 80 60 70 80 70 80 80 90 80 90 60 50 60"
        fill="#fff" />
</svg>