<svg xmlns="http://www.w3.org/2000/svg" viewBox="0 0 140 140">
    <rect class="cls-1" x="50" y="100" width="30" height="10" fill="#1b3032" />
    <rect class="cls-1" x="80" y="60" width="10" height="10" fill="#1b3032" />
    <rect class="cls-1" x="50" y="60" width="10" height="10" fill="#1b3032" />
    <polygon class="cls-2"
        points="110 130 110 120 100 120 100 110 80 110 80 140 120 140 120 130 110 130"
        fill="#e78dca" />
    <polygon class="cls-2" points="50 110 30 110 30 130 20 130 20 140 50 140 50 110"
        fill="#e78dca" />
    <rect class="cls-2" x="70" y="80" width="20" height="10" fill="#e78dca" />
    <rect class="cls-3" x="50" y="130" width="30" height="10" fill="#fff" />
    <rect class="cls-4" x="50" y="110" width="30" height="20" fill="#7299ed" />
    <path class="cls-4"
        d="M90,60V30H50V50H30V70H40V80H50v20h50V70H80V60ZM50,60H60V70H50ZM90,80V90H70V80Z"
        fill="#7299ed" />
    <polygon class="cls-5"
        points="90 30 90 20 80 20 80 10 50 10 50 20 40 20 40 50 50 50 50 30 90 30" fill="#f7d06b" />
    <polygon class="cls-6"
        points="0 0 0 140 20 140 20 130 30 130 30 110 50 110 50 80 40 80 40 70 30 70 30 50 40 50 40 20 50 20 50 10 80 10 80 20 90 20 90 70 100 70 100 100 80 100 80 110 100 110 100 120 110 120 110 130 120 130 120 140 140 140 140 0 0 0"
        fill="#b1f7f2" />
</svg>