<svg xmlns="http://www.w3.org/2000/svg" viewBox="0 0 140 140">
    <polygon class="cls-1"
        points="90 120 90 130 80 130 80 120 90 120 90 110 50 110 50 120 60 120 60 130 50 130 50 120 40 120 40 140 100 140 100 120 90 120"
        fill="#bfb601" />
    <rect class="cls-2" x="60" y="90" width="20" height="10" fill="#85689c" />
    <rect class="cls-3" x="80" y="60" width="10" height="10" fill="#2b3b49" />
    <rect class="cls-3" x="50" y="60" width="10" height="10" fill="#2b3b49" />
    <rect class="cls-4" x="80" y="120" width="10" height="10" fill="#fff" />
    <rect class="cls-4" x="50" y="120" width="10" height="10" fill="#fff" />
    <rect class="cls-4" x="60" y="70" width="20" height="10" fill="#fff" />
    <rect class="cls-5" x="60" y="100" width="20" height="10" fill="#7299ed" />
    <polygon class="cls-5" points="80 80 60 80 60 70 50 70 50 90 90 90 90 70 80 70 80 80"
        fill="#7299ed" />
    <rect class="cls-5" x="90" y="60" width="10" height="10" fill="#7299ed" />
    <polygon class="cls-5"
        points="60 70 80 70 80 50 70 50 70 40 60 40 60 50 50 50 50 60 60 60 60 70" fill="#7299ed" />
    <rect class="cls-5" x="40" y="60" width="10" height="10" fill="#7299ed" />
    <polygon class="cls-6"
        points="50 50 60 50 60 40 70 40 70 50 80 50 80 60 100 60 100 30 90 30 90 20 50 20 50 30 40 30 40 60 50 60 50 50"
        fill="#f7d06b" />
    <polygon class="cls-7"
        points="0 140 40 140 40 120 50 120 50 110 60 110 60 90 50 90 50 70 40 70 40 30 50 30 50 20 90 20 90 30 100 30 100 70 90 70 90 90 80 90 80 110 90 110 90 120 100 120 100 140 140 140 140 0 0 0 0 140"
        fill="#b1f7f2" />
</svg>