<svg width="42" height="41" viewBox="0 0 42 41" fill="none" xmlns="http://www.w3.org/2000/svg">
    <path
        d="M2.88361 28.3256V30.3488H4.90686V34.3953H6.93012V36.4186H10.9766V38.4419H15.0231V40.4651H27.1627V38.4419H31.2092V36.4186H35.2557V34.3953H37.279V30.3488H39.3022V26.3023H41.3255V14.1628H39.3022V10.1163H37.279V6.06977H35.2557V4.04651H31.2092V2.02326H27.1627V0H15.0231V2.02326H10.9766V4.04651H6.93012V6.06977H4.90686V10.1163H2.88361V14.1628H0.860352V26.3023H2.88361V28.3256ZM10.9766 12.1395H15.0231V20.2326H10.9766V12.1395ZM31.2092 14.1628V20.2326H27.1627V12.1395H31.2092V14.1628Z"
        fill="#FFA3CE" />
    <path
        d="M29.8604 30V28H26.8604H23.8604H20.8604H17.8604H14.8604H11.8604V30H14.8604H17.8604H20.8604H23.8604H26.8604H29.8604Z"
        fill="#612850" />
    <path
        d="M10.9766 18.2094V20.2327H12.9998H15.0231V18.2094V16.1862V14.1629V12.1396H12.9998H10.9766V14.1629V16.1862V18.2094Z"
        fill="#612850" />
    <path
        d="M27.1626 12.1396V14.1629V16.1862V18.2094V20.2327H29.1859H31.2091V18.2094V16.1862V14.1629V12.1396H29.1859H27.1626Z"
        fill="#612850" />
</svg>
