<svg width="42" height="41" viewBox="0 0 42 41" fill="none" xmlns="http://www.w3.org/2000/svg">
    <path
        d="M31.2785 30.3492V28.326V26.3027H29.2552H27.2319H25.2087H23.1854H21.1622H19.1389H17.1157H15.0924H13.0692H11.0459V28.326V30.3492H13.0692V32.3725H15.0924V34.3958H17.1157H19.1389H21.1622H23.1854H25.2087H27.2319V32.3725H29.2552V30.3492H31.2785Z"
        fill="#612850" />
    <path d="M31.2781 20.2324H29.2549V22.2557H31.2781V20.2324Z" fill="#D9198C" />
    <path d="M13.0692 20.2324H11.0459V22.2557H13.0692V20.2324Z" fill="#D9198C" />
    <path d="M33.3016 18.209H31.2783V20.2322H33.3016V18.209Z" fill="#D9198C" />
    <path d="M29.2552 18.209H27.2319V20.2322H29.2552V18.209Z" fill="#D9198C" />
    <path d="M15.0921 18.209H13.0688V20.2322H15.0921V18.209Z" fill="#D9198C" />
    <path d="M11.0457 18.209H9.02246V20.2322H11.0457V18.209Z" fill="#D9198C" />
    <path d="M35.325 16.1865H33.3018V18.2098H35.325V16.1865Z" fill="#D9198C" />
    <path d="M27.2318 16.1865H25.2085V18.2098H27.2318V16.1865Z" fill="#D9198C" />
    <path d="M17.1155 16.1865H15.0923V18.2098H17.1155V16.1865Z" fill="#D9198C" />
    <path d="M9.02277 16.1865H6.99951V18.2098H9.02277V16.1865Z" fill="#D9198C" />
    <path d="M27.2318 14.1629H29.255V12.1396H27.2318H25.2085V14.1629V16.1862H27.2318V14.1629Z"
        fill="#FFDFEE" />
    <path d="M17.1157 16.1862H19.139V14.1629V12.1396H17.1157V14.1629V16.1862Z" fill="#D9198C" />
    <path
        d="M11.0457 14.1629H9.02246V16.1862V18.2094H11.0457V20.2327H13.069V18.2094H15.0922V16.1862H17.1155V14.1629V12.1396H15.0922H13.069V14.1629H11.0457Z"
        fill="#D9198C" />
    <path d="M6.99951 16.1862H9.02277V14.1629H11.046V12.1396H9.02277H6.99951V14.1629V16.1862Z"
        fill="#FFDFEE" />
    <path d="M6.99933 16.1862V14.1629V12.1396H4.97607V14.1629V16.1862H6.99933Z" fill="#D9198C" />
    <path
        d="M39.3715 12.1395V10.1163H37.3483V6.06977H35.325V4.04651H31.2785V2.02326H27.232V0H15.0925V2.02326H11.046V4.04651H6.99945V6.06977H4.9762V10.1163H2.95294V14.1628H0.929688V26.3023H2.95294V30.3488H4.9762V34.3953H6.99945V36.4186H11.046V38.4419H15.0925V40.4651H27.232V38.4419H31.2785V36.4186H35.325V34.3953H37.3483V30.3488H39.3715V26.3023H41.3948V14.1628H39.3715V12.1395ZM27.232 32.3721V34.3953H15.0925V32.3721H13.0692V30.3488H11.046V26.3023H31.2785V30.3488H29.2553V32.3721H27.232ZM4.9762 12.1395H6.99945V10.1163H11.046V12.1395H13.0692V10.1163H17.1157V12.1395H19.139V16.186H17.1157V18.2093H15.0925V20.2326H13.0692V22.2558H11.046V20.2326H9.02271V18.2093H6.99945V16.186H4.9762V12.1395ZM37.3483 16.186H35.325V18.2093H33.3018V20.2326H31.2785V22.2558H29.2553V20.2326H27.232V18.2093H25.2088V16.186H23.1855V12.1395H25.2088V10.1163H29.2553V12.1395H31.2785V10.1163H35.325V12.1395H37.3483V16.186Z"
        fill="#FFA3CE" />
    <path d="M35.3247 12.1396V14.1629V16.1862H37.348V14.1629V12.1396H35.3247Z" fill="#D9198C" />
    <path
        d="M35.325 12.1396H33.3017H31.2784V14.1629H29.2552H27.2319V16.1862V18.2094H29.2552V20.2327H31.2784V18.2094H33.3017V16.1862H35.325V14.1629V12.1396Z"
        fill="#D9198C" />
    <path d="M31.2781 12.1396H29.2549V14.1629H31.2781V12.1396Z" fill="#D9198C" />
    <path d="M25.2088 12.1396H23.1855V14.1629V16.1862H25.2088V14.1629V12.1396Z" fill="#D9198C" />
    <path d="M13.0692 12.1396H11.0459V14.1629H13.0692V12.1396Z" fill="#D9198C" />
    <path d="M35.3248 12.1395V10.1162H33.3016H31.2783V12.1395H33.3016H35.3248Z" fill="#D9198C" />
    <path d="M29.255 12.1395V10.1162H27.2318H25.2085V12.1395H27.2318H29.255Z" fill="#D9198C" />
    <path d="M17.1154 12.1395V10.1162H15.0921H13.0688V12.1395H15.0921H17.1154Z" fill="#D9198C" />
    <path d="M11.046 12.1395V10.1162H9.02277H6.99951V12.1395H9.02277H11.046Z" fill="#D9198C" />
</svg>
