<svg width="42" height="41" viewBox="0 0 42 41" fill="none" xmlns="http://www.w3.org/2000/svg">
    <path d="M31.3021 28.8604H29.2788V30.8836H31.3021V28.8604Z" fill="#612850" />
    <path d="M13.0926 28.8604H11.0693V30.8836H13.0926V28.8604Z" fill="#612850" />
    <path
        d="M27.2556 26.8367V24.8135H25.2323H23.2091H21.1858H19.1625H17.1393H15.116V26.8367H13.0928V28.86H15.116H17.1393H19.1625H21.1858H23.2091H25.2323H27.2556H29.2788V26.8367H27.2556Z"
        fill="#612850" />
    <path
        d="M39.395 12.6747V10.6514H37.3717V6.60492H35.3485V4.58167H31.302V2.55841H27.2555V0.535156H15.1159V2.55841H11.0694V4.58167H7.02289V6.60492H4.99964V10.6514H2.97638V14.6979H0.953125V26.8375H2.97638V30.884H4.99964V34.9305H7.02289V36.9538H11.0694V38.977H15.1159V41.0003H27.2555V38.977H31.302V36.9538H35.3485V34.9305H37.3717V30.884H39.395V26.8375H41.4182V14.6979H39.395V12.6747ZM9.04615 10.6514H13.0927V12.6747H17.1392V14.6979H15.1159V20.7677H11.0694V12.6747H9.04615V10.6514ZM33.3252 12.6747H31.302V20.7677H27.2555V14.6979H25.2322V12.6747H29.2787V10.6514H33.3252V12.6747ZM31.302 30.884H29.2787V28.8607H13.0927V30.884H11.0694V28.8607H13.0927V26.8375H15.1159V24.8142H27.2555V26.8375H29.2787V28.8607H31.302V30.884Z"
        fill="#FFA3CE" />
    <path
        d="M11.0696 14.6979V16.7211V18.7444V20.7676H13.0929H15.1162V18.7444V16.7211V14.6979H17.1394V12.6746H15.1162H13.0929V10.6514H11.0696H9.04639V12.6746H11.0696V14.6979Z"
        fill="#612850" />
    <path
        d="M29.2789 10.6514V12.6746H27.2557H25.2324V14.6979H27.2557V16.7211V18.7444V20.7676H29.2789H31.3022V18.7444V16.7211V14.6979V12.6746H33.3254V10.6514H31.3022H29.2789Z"
        fill="#612850" />
</svg>
