<svg width="41" height="47" viewBox="0 0 41 47" fill="none" xmlns="http://www.w3.org/2000/svg">
    <path
        d="M22.2562 42.4882V40.4649V38.4417V36.4184V34.3951V32.3719V30.3486H20.2329V32.3719V34.3951V36.4184V38.4417V40.4649V42.4882V44.5114V46.5347H22.2562V44.5114V42.4882Z"
        fill="#00A651" />
    <path
        d="M20.2327 42.4882V40.4649V38.4417V36.4184V34.3951V32.3719V30.3486H18.2095V32.3719V34.3951V36.4184V38.4417V40.4649V42.4882V44.5114V46.5347H20.2327V44.5114V42.4882Z"
        fill="#64CF66" />
    <path
        d="M18.2093 42.4883V40.4651V38.4418V36.4186V34.3953V32.3721H16.186V34.3953V36.4186V38.4418V40.4651V42.4883V44.5116V46.5349H18.2093V44.5116V42.4883Z"
        fill="#00A651" />
    <path
        d="M24.2791 36.4186V34.3953V32.3721H22.2559V34.3953V36.4186V38.4418V40.4651V42.4883V44.5116V46.5349H24.2791V44.5116V42.4883V40.4651V38.4418V36.4186Z"
        fill="#00A651" />
    <path
        d="M18.2096 32.3723V30.3491H20.2329H22.2561V32.3723H24.2794V34.3956H26.3026V32.3723V30.3491V28.3258V26.3026H24.2794V24.2793H22.2561H20.2329H18.2096H16.1863V26.3026H14.1631V28.3258V30.3491V32.3723V34.3956H16.1863V32.3723H18.2096Z"
        fill="#612850" />
    <path d="M34.3953 16.1865H32.3721V18.2098H34.3953V16.1865Z" fill="#612850" />
    <path d="M26.3026 16.1865H24.2793V18.2098H26.3026V16.1865Z" fill="#612850" />
    <path d="M16.1863 16.1865H14.1631V18.2098H16.1863V16.1865Z" fill="#612850" />
    <path d="M8.09308 16.1865H6.06982V18.2098H8.09308V16.1865Z" fill="#612850" />
    <path d="M30.3492 14.1631H28.326H26.3027V16.1863H28.326H30.3492H32.3725V14.1631H30.3492Z"
        fill="#612850" />
    <path d="M12.1398 16.1863H14.163V14.1631H12.1398H10.1165H8.09326V16.1863H10.1165H12.1398Z"
        fill="#612850" />
    <path
        d="M38.4419 12.1395V10.1163H36.4186V6.06977H34.3953V4.04651H30.3488V2.02326H26.3023V0H14.1628V2.02326H10.1163V4.04651H6.06977V6.06977H4.04651V10.1163H2.02326V14.1628H0V26.3023H2.02326V30.3488H4.04651V34.3953H6.06977V36.4186H10.1163V38.4419H14.1628V40.4651H16.186V34.3953H14.1628V26.3023H16.186V24.2791H24.2791V26.3023H26.3023V34.3953H24.2791V40.4651H26.3023V38.4419H30.3488V36.4186H34.3953V34.3953H36.4186V30.3488H38.4419V26.3023H40.4651V14.1628H38.4419V12.1395ZM34.3953 16.186V18.2093H32.3721V16.186H26.3023V18.2093H24.2791V16.186H26.3023V14.1628H32.3721V16.186H34.3953ZM8.09302 16.186V14.1628H14.1628V16.186H16.186V18.2093H14.1628V16.186H8.09302V18.2093H6.06977V16.186H8.09302Z"
        fill="#FFA3CE" />
    <path
        d="M16.1863 39.5951V38.1586V36.7018V35.2653V33.8086V32.3721H14.1631V33.8086V35.2653V36.7018V38.1586V39.5951V41.0518V42.4883H16.1863V41.0518V39.5951Z"
        fill="#00A651" />
    <path
        d="M26.3026 38.4418V37.4302V36.4186V35.407V34.3953V33.3837V32.3721H24.2793V33.3837V34.3953V35.407V36.4186V37.4302V38.4418V39.4535V40.4651H26.3026V39.4535V38.4418Z"
        fill="#64CF66" />
    <path d="M14.1629 30.3486H12.1396V32.3719H14.1629V30.3486Z" fill="#612850" />
    <path d="M28.326 30.3486H26.3027V32.3719H28.326V30.3486Z" fill="#612850" />
</svg>
