<svg width="41" height="41" viewBox="0 0 41 41" fill="none" xmlns="http://www.w3.org/2000/svg">
    <path
        d="M20.6975 32.3719H18.6743V30.3486H16.651H14.6277H12.6045V32.3719H14.6277V34.3951H16.651H18.6743H20.6975H22.7208V32.3719H20.6975Z"
        fill="#E03A80" />
    <path d="M20.6976 32.3719H22.7208V30.3486H20.6976H18.6743V32.3719H20.6976Z" fill="#E03A80" />
    <path
        d="M30.8139 26.3027H28.7907H26.7674H24.7442H22.7209H20.6976H18.6744H16.6511H14.6279H12.6046H10.5814H8.55811V28.326H10.5814V30.3492H12.6046H14.6279H16.6511H18.6744H20.6976H22.7209V32.3725V34.3958H24.7442H26.7674V32.3725H28.7907V30.3492H30.8139V28.326H32.8372V26.3027H30.8139Z"
        fill="#612850" />
    <path
        d="M10.5811 18.2094V20.2327H12.6043H14.6276V18.2094V16.1862V14.1629V12.1396H12.6043H10.5811V14.1629V16.1862V18.2094Z"
        fill="#612850" />
    <path
        d="M38.9067 12.1395V10.1163H36.8834V6.06977H34.8602V4.04651H30.8137V2.02326H26.7672V0H14.6276V2.02326H10.5811V4.04651H6.53461V6.06977H4.51136V10.1163H2.4881V14.1628H0.464844V26.3023H2.4881V30.3488H4.51136V34.3953H6.53461V36.4186H10.5811V38.4419H14.6276V40.4651H26.7672V38.4419H30.8137V36.4186H34.8602V34.3953H36.8834V30.3488H38.9067V26.3023H40.93V14.1628H38.9067V12.1395ZM30.8137 28.3256V30.3488H28.7904V32.3721H26.7672V34.3953H14.6276V32.3721H12.6044V30.3488H10.5811V28.3256H8.55787V26.3023H32.8369V28.3256H30.8137ZM10.5811 12.1395H14.6276V20.2326H10.5811V12.1395ZM30.8137 14.1628V20.2326H26.7672V12.1395H30.8137V14.1628Z"
        fill="#FFA3CE" />
    <path
        d="M26.7671 12.1396V14.1629V16.1862V18.2094V20.2327H28.7903H30.8136V18.2094V16.1862V14.1629V12.1396H28.7903H26.7671Z"
        fill="#612850" />
</svg>
