<svg width="41" height="41" viewBox="0 0 41 41" fill="none" xmlns="http://www.w3.org/2000/svg">
    <path
        d="M14.1624 30.3485V32.3717H16.1857H18.2089H20.2322H22.2554H24.2787H26.302V30.3485H28.3252V28.3252H26.302H24.2787H22.2554H20.2322H18.2089H16.1857H14.1624H12.1392V30.3485H14.1624Z"
        fill="#612850" />
    <path d="M30.3485 26.3027H28.3252V28.326H30.3485V26.3027Z" fill="#612850" />
    <path d="M12.1395 26.3027H10.1162V28.326H12.1395V26.3027Z" fill="#612850" />
    <path
        d="M30.3488 20.2327V18.2094V16.1862V14.1629V12.1396H28.3255H26.3022V14.1629V16.1862V18.2094V20.2327H28.3255H30.3488Z"
        fill="#612850" />
    <path
        d="M14.1627 20.2327V18.2094V16.1862V14.1629V12.1396H12.1395H10.1162V14.1629V16.1862V18.2094V20.2327H12.1395H14.1627Z"
        fill="#612850" />
    <path
        d="M2.02326 28.3256V30.3488H4.04651V34.3953H6.06977V36.4186H10.1163V38.4419H14.1628V40.4651H26.3023V38.4419H30.3488V36.4186H34.3953V34.3953H36.4186V30.3488H38.4419V26.3023H40.4651V14.1628H38.4419V10.1163H36.4186V6.06977H34.3953V4.04651H30.3488V2.02326H26.3023V0H14.1628V2.02326H10.1163V4.04651H6.06977V6.06977H4.04651V10.1163H2.02326V14.1628H0V26.3023H2.02326V28.3256ZM26.3023 18.2093V12.1395H30.3488V20.2326H26.3023V18.2093ZM10.1163 18.2093V12.1395H14.1628V20.2326H10.1163V18.2093ZM10.1163 26.3023H12.1395V28.3256H28.3256V26.3023H30.3488V28.3256H28.3256V30.3488H26.3023V32.3721H14.1628V30.3488H12.1395V28.3256H10.1163V26.3023Z"
        fill="#FFA3CE" />
</svg>
