<svg width="41" height="41" viewBox="0 0 41 41" fill="none" xmlns="http://www.w3.org/2000/svg">
    <path
        d="M28.5108 28.326H26.4875V26.3027H24.4642H22.441H20.4177H18.3945H16.3712H14.348V28.326H12.3247V30.3492V32.3725H14.348V30.3492H16.3712V28.326H18.3945H20.4177H22.441H24.4642V30.3492H26.4875V32.3725H28.5108V30.3492V28.326Z"
        fill="#612850" />
    <path
        d="M2.2088 28.3256V30.3488H4.23206V34.3953H6.25531V36.4186H10.3018V38.4419H14.3483V40.4651H26.4879V38.4419H30.5344V36.4186H34.5809V34.3953H36.6042V30.3488H38.6274V26.3023H40.6507V14.1628H38.6274V10.1163H36.6042V6.06977H34.5809V4.04651H30.5344V2.02326H26.4879V0H14.3483V2.02326H10.3018V4.04651H6.25531V6.06977H4.23206V10.1163H2.2088V14.1628H0.185547V26.3023H2.2088V28.3256ZM10.3018 12.1395H14.3483V20.2326H10.3018V12.1395ZM30.5344 14.1628V20.2326H26.4879V12.1395H30.5344V14.1628ZM26.4879 32.3721V30.3488H24.4646V28.3256H16.3716V30.3488H14.3483V32.3721H12.3251V28.3256H14.3483V26.3023H26.4879V28.3256H28.5111V32.3721H26.4879Z"
        fill="#FFA3CE" />
    <path
        d="M10.3018 18.2094V20.2327H12.325H14.3483V18.2094V16.1862V14.1629V12.1396H12.325H10.3018V14.1629V16.1862V18.2094Z"
        fill="#612850" />
    <path
        d="M26.4878 12.1396V14.1629V16.1862V18.2094V20.2327H28.511H30.5343V18.2094V16.1862V14.1629V12.1396H28.511H26.4878Z"
        fill="#612850" />
</svg>
