<svg width="41" height="41" viewBox="0 0 41 41" fill="none" xmlns="http://www.w3.org/2000/svg">
    <path
        d="M28.7202 32.3723V30.3491H26.697V28.3258V26.3026H24.6737V24.2793H22.6505H20.6272H18.6039H16.5807V26.3026H14.5574V28.3258V30.3491H12.5342V32.3723V34.3956V36.4188H14.5574H16.5807V34.3956V32.3723H18.6039H20.6272H22.6505H24.6737V34.3956V36.4188H26.697H28.7202V34.3956V32.3723Z"
        fill="#612850" />
    <path
        d="M24.6736 32.3721H22.6503H20.6271H18.6038H16.5806V34.3953V36.4186H18.6038H20.6271H22.6503H24.6736V34.3953V32.3721Z"
        fill="#E03A80" />
    <path
        d="M2.41779 28.3256V30.3488H4.44104V34.3953H6.4643V36.4186H10.5108V38.4419H14.5573V40.4651H26.6969V38.4419H30.7434V36.4186H34.7899V34.3953H36.8131V30.3488H38.8364V26.3023H40.8596V14.1628H38.8364V10.1163H36.8131V6.06977H34.7899V4.04651H30.7434V2.02326H26.6969V0H14.5573V2.02326H10.5108V4.04651H6.4643V6.06977H4.44104V10.1163H2.41779V14.1628H0.394531V26.3023H2.41779V28.3256ZM8.48755 10.1163H12.5341V12.1395H16.5806V14.1628H14.5573V20.2326H10.5108V12.1395H8.48755V10.1163ZM32.7666 12.1395H30.7434V20.2326H26.6969V14.1628H24.6736V12.1395H28.7201V10.1163H32.7666V12.1395ZM26.6969 36.4186H12.5341V30.3488H14.5573V26.3023H16.5806V24.2791H24.6736V26.3023H26.6969V30.3488H28.7201V36.4186H26.6969Z"
        fill="#FFA3CE" />
    <path
        d="M10.511 14.1627V16.186V18.2092V20.2325H12.5343H14.5576V18.2092V16.186V14.1627H16.5808V12.1395H14.5576H12.5343V10.1162H10.511H8.48779V12.1395H10.511V14.1627Z"
        fill="#612850" />
    <path
        d="M28.7203 10.1162V12.1395H26.6971H24.6738V14.1627H26.6971V16.186V18.2092V20.2325H28.7203H30.7436V18.2092V16.186V14.1627V12.1395H32.7669V10.1162H30.7436H28.7203Z"
        fill="#612850" />
</svg>
