<svg width="24" height="24" viewBox="0 0 24 24" fill="none" xmlns="http://www.w3.org/2000/svg">
    <path
        d="M21 6H14.5L11.9 4.05C11.64 3.85585 11.3244 3.75065 11 3.75H6.75C6.35231 3.75045 5.97104 3.90863 5.68983 4.18983C5.40863 4.47104 5.25045 4.85231 5.25 5.25V6.75H3.75C3.35231 6.75045 2.97104 6.90863 2.68983 7.18983C2.40863 7.47104 2.25045 7.85231 2.25 8.25V18.75C2.25045 19.1477 2.40863 19.529 2.68983 19.8102C2.97104 20.0914 3.35231 20.2496 3.75 20.25H18.0833C18.4589 20.2496 18.819 20.1002 19.0846 19.8346C19.3502 19.569 19.4996 19.2089 19.5 18.8333V17.25H21.0833C21.4589 17.2496 21.819 17.1002 22.0846 16.8346C22.3502 16.569 22.4996 16.2089 22.5 15.8333V7.5C22.4996 7.10231 22.3414 6.72104 22.0602 6.43983C21.779 6.15863 21.3977 6.00045 21 6ZM18 18.75H3.75V8.25H8.00006L10.6 10.2C10.86 10.3941 11.1756 10.4993 11.5 10.5L17.9999 10.4991L18 10.5V18.75ZM21 15.75H19.5V10.5C19.4996 10.1023 19.3414 9.72104 19.0602 9.43983C18.779 9.15863 18.3977 9.00045 18 9H11.4999L8.89997 7.05C8.64002 6.85585 8.32442 6.75065 7.99997 6.75H6.75V5.25H11.0001L13.6 7.2C13.86 7.39415 14.1756 7.49935 14.5 7.5H21V15.75Z"
        fill="#7C73E8" />
</svg>
