<svg width="23" height="19" viewBox="0 0 23 19" fill="none" xmlns="http://www.w3.org/2000/svg">
    <path fill-rule="evenodd" clip-rule="evenodd"
        d="M15.9186 4.47059C15.9186 6.93963 13.9486 8.94118 11.5186 8.94118C9.0885 8.94118 7.11856 6.93963 7.11856 4.47059C7.11856 2.00155 9.0885 0 11.5186 0C13.9486 0 15.9186 2.00155 15.9186 4.47059ZM13.7186 4.47059C13.7186 5.70511 12.7336 6.70588 11.5186 6.70588C10.3035 6.70588 9.31855 5.70511 9.31855 4.47059C9.31855 3.23607 10.3035 2.23529 11.5186 2.23529C12.7336 2.23529 13.7186 3.23607 13.7186 4.47059Z"
        fill="#17181C" />
    <path fill-rule="evenodd" clip-rule="evenodd"
        d="M6.01855 16.7647L5.52662 17.7644C5.15396 17.575 4.91855 17.188 4.91855 16.7647C4.91855 14.9311 5.36439 12.7695 6.37779 11.027C7.40619 9.25871 9.09447 7.82353 11.5186 7.82353C13.9426 7.82353 15.6309 9.25871 16.6593 11.027C17.6727 12.7695 18.1186 14.9311 18.1186 16.7647C18.1186 17.188 17.8832 17.575 17.5105 17.7644L17.0186 16.7647C17.5105 17.7644 17.5105 17.7644 17.5105 17.7644L17.5078 17.7657L17.5042 17.7675L17.4947 17.7723L17.466 17.7863C17.4425 17.7977 17.4106 17.8129 17.3703 17.8313C17.2899 17.8682 17.1763 17.9183 17.0318 17.977C16.7429 18.0945 16.3292 18.2469 15.8082 18.3982C14.7676 18.7003 13.2898 19 11.5186 19C9.74732 19 8.26949 18.7003 7.22886 18.3982C6.70792 18.2469 6.29424 18.0945 6.00534 17.977C5.8608 17.9183 5.74723 17.8682 5.66679 17.8313C5.62656 17.8129 5.59458 17.7977 5.57114 17.7863L5.54239 17.7723L5.53287 17.7675L5.52934 17.7657L5.52788 17.765C5.52788 17.765 5.52662 17.7644 6.01855 16.7647ZM15.8898 16.0261C15.7882 14.7001 15.4165 13.2839 14.7653 12.1642C14.0062 10.8589 12.9445 10.0588 11.5186 10.0588C10.0926 10.0588 9.03092 10.8589 8.27182 12.1642C7.62063 13.2839 7.24892 14.7002 7.14729 16.0261C7.33765 16.0951 7.56752 16.1717 7.83325 16.2489C8.71762 16.5056 9.98979 16.7647 11.5186 16.7647C13.0473 16.7647 14.3195 16.5056 15.2039 16.2489C15.4696 16.1717 15.6995 16.0951 15.8898 16.0261Z"
        fill="#17181C" />
    <path fill-rule="evenodd" clip-rule="evenodd"
        d="M18.6686 4.47059C18.061 4.47059 17.5686 4.97098 17.5686 5.58824C17.5686 6.73403 17.5525 7.59234 17.1347 8.44139C16.8631 8.99348 17.0833 9.66478 17.6267 9.94083C19.4023 10.8429 20.3186 12.6555 20.3186 14.5294C20.3186 15.1467 20.811 15.6471 21.4186 15.6471C22.0261 15.6471 22.5186 15.1467 22.5186 14.5294C22.5186 12.2373 21.5182 9.89735 19.4786 8.46303C19.7692 7.45027 19.7688 6.47873 19.7686 5.66172C19.7686 5.63708 19.7686 5.61259 19.7686 5.58824C19.7686 4.97098 19.2761 4.47059 18.6686 4.47059Z"
        fill="#17181C" />
    <path fill-rule="evenodd" clip-rule="evenodd"
        d="M4.36855 4.47059C4.97607 4.47059 5.46855 4.97098 5.46855 5.58824C5.46855 6.73403 5.48461 7.59234 5.90239 8.44139C6.17404 8.99348 5.9538 9.66478 5.41044 9.94083C3.63476 10.8429 2.71855 12.6555 2.71855 14.5294C2.71855 15.1467 2.22607 15.6471 1.61855 15.6471C1.01104 15.6471 0.518555 15.1467 0.518555 14.5294C0.518555 12.2373 1.51888 9.89735 3.55846 8.46303C3.26795 7.45027 3.26827 6.47873 3.26854 5.66172C3.26855 5.63708 3.26855 5.61259 3.26855 5.58824C3.26855 4.97098 3.76104 4.47059 4.36855 4.47059Z"
        fill="#17181C" />
</svg>
