<svg width="48" height="48" viewBox="0 0 48 48" fill="none" xmlns="http://www.w3.org/2000/svg">
<path fill-rule="evenodd" clip-rule="evenodd" d="M0 24C0 10.7452 10.7452 0 24 0C37.2548 0 48 10.7452 48 24C48 37.2548 37.2548 48 24 48C10.7452 48 0 37.2548 0 24Z" fill="#7C73E8"/>
<path d="M21.1074 29.1186L34.0101 15.609C34.7857 14.797 36.0431 14.797 36.8187 15.609C37.5943 16.4211 37.5943 17.7377 36.8187 18.5498L21.1074 35L11.9821 25.4455C11.2065 24.6334 11.2065 23.3168 11.9821 22.5048C12.7577 21.6927 14.0151 21.6927 14.7907 22.5048L21.1074 29.1186Z" fill="white"/>
</svg>
