<svg width="375" height="80" viewBox="0 0 375 80" fill="none" xmlns="http://www.w3.org/2000/svg">
<path d="M27.3281 33.3682L-8.59229 29.5559H27.9211C27.6387 30.6854 27.441 31.9562 27.3281 33.3682ZM30.2085 21.423L28.9377 25.1506L-6.22019 21.423H30.2085ZM27.3281 37.6888C27.441 39.2137 27.6669 40.4845 28.0058 41.5011L-7.82983 37.6888H27.3281ZM39.1886 49.634L-5.62716 45.8217H30.8862C32.75 47.629 35.5175 48.8998 39.1886 49.634ZM36.5623 13.2901C35.2633 14.1372 34.0208 15.295 32.8347 16.7635L0.13365 13.2901H36.5623ZM-7.06736 53.9546H24.6171L23.3463 57.6822L-7.06736 53.9546ZM-8.50757 62.1722H21.9061L20.6354 65.8998L-8.50757 62.1722ZM28.26 51.3284C33.0042 52.6274 37.3248 53.2769 41.2218 53.2769C45.1753 53.2769 48.3946 53.1074 50.8796 52.7686L51.5574 48.5327L44.5258 47.8549C39.1603 47.3466 35.348 46.1323 33.0889 44.2121C30.8862 42.2918 29.7849 39.5808 29.7849 36.0792C29.7849 34.5542 29.9543 32.8599 30.2932 30.9961C31.5922 23.7668 33.9643 18.7967 37.4095 16.0857C40.8547 13.3748 46.1354 12.0193 53.2517 12.0193C60.4245 12.0193 66.7501 12.7253 72.2285 14.1372L67.8232 27.6921C62.9096 26.8449 58.9561 26.4213 55.9627 26.4213C53.0258 26.4213 50.4843 26.5625 48.3381 26.8449L47.6603 30.9961L53.3364 31.5891C59.0973 32.2104 63.192 33.5941 65.6205 35.7403C68.0491 37.83 69.2634 40.6539 69.2634 44.2121C69.2634 47.8267 68.5009 51.5543 66.976 55.3948C66.1288 57.3716 65.2252 59.0377 64.265 60.3932C63.3614 61.6922 62.1753 62.8217 60.7069 63.7819C59.2949 64.6855 57.9959 65.3915 56.8099 65.8998C55.6238 66.3517 54.0989 66.6905 52.2351 66.9164C49.6371 67.3118 46.4178 67.5095 42.5773 67.5095C35.5739 67.5095 29.2201 66.7752 23.5158 65.3068L28.26 51.3284Z" fill="#122E71"/>
<path d="M134.568 26.8449H122.877L116.015 66.2387H99.9187L106.781 26.8449H95.1745L97.6313 13.2901H137.025L134.568 26.8449ZM97.2924 65.9845L61.3721 62.1722H97.9702L97.2924 65.9845ZM100.173 49.634L64.2525 45.8217H100.851L100.173 49.634ZM101.613 41.5011L65.6927 37.6888H102.291L101.613 41.5011ZM103.053 33.3682L67.1329 29.5559H103.731L103.053 33.3682ZM98.7326 57.7669L62.8123 53.9546H99.4104L98.7326 57.7669ZM92.8871 25.2353L56.9667 21.423H93.4801L92.8871 25.2353ZM94.2426 17.1024L58.4069 13.2901H94.9203L94.2426 17.1024Z" fill="#122E71"/>
<path d="M163.153 66.2387H146.209L168.49 13.2901H193.397L197.124 66.2387H180.096L179.757 57.8516H166.457L163.153 66.2387ZM178.487 44.3815V29.5559H177.639L171.709 44.3815H178.487ZM143.498 65.8998L108.764 62.1722H145.108L143.498 65.8998ZM146.971 57.6822L112.237 53.9546H148.581L146.971 57.6822ZM150.445 49.5493L115.711 45.8217H151.97L150.445 49.5493ZM153.834 41.4164L119.184 37.6888H155.443L153.834 41.4164ZM157.307 33.2835L122.657 29.5559H158.832L157.307 33.2835ZM164.169 16.9329L129.604 13.2901H165.694L164.169 16.9329ZM160.696 25.0658L126.131 21.423H162.221L160.696 25.0658ZM164.169 16.9329L165.694 13.2901H129.604L164.169 16.9329Z" fill="#122E71"/>
<path d="M253.173 13.2901C262.83 13.2901 267.659 17.6107 267.659 26.2519C267.659 29.81 267.123 33.1987 266.05 36.418C264.073 42.5177 260.967 46.5842 256.731 48.6174L262.322 66.2387H244.616L240.719 50.4812H237.246L234.535 66.2387H218.438L227.757 13.2901H253.173ZM243.261 37.4346C245.181 37.4346 246.621 37.237 247.581 36.8416C248.598 36.3898 249.276 35.1755 249.614 33.1987C250.01 31.1655 250.207 29.923 250.207 29.4712C250.207 28.3416 249.756 27.6356 248.852 27.3532C248.005 27.0143 246.593 26.8449 244.616 26.8449H241.397L239.533 37.4346H243.261ZM215.897 65.9845L179.976 62.1722H216.574L215.897 65.9845ZM218.777 49.634L182.857 45.8217H219.455L218.777 49.634ZM221.573 33.3682L185.737 29.5559H222.251L221.573 33.3682ZM223.013 25.2353L187.177 21.423H223.691L223.013 25.2353ZM217.337 57.7669L181.417 53.9546H218.015L217.337 57.7669ZM224.453 17.1024L188.618 13.2901H225.131L224.453 17.1024ZM220.133 41.5011L184.297 37.6888H220.81L220.133 41.5011Z" fill="#122E71"/>
<path d="M330.005 26.8449H318.314L311.452 66.2387H295.355L302.218 26.8449H290.611L293.068 13.2901H332.462L330.005 26.8449ZM292.729 65.9845L256.809 62.1722H293.407L292.729 65.9845ZM295.61 49.634L259.689 45.8217H296.287L295.61 49.634ZM297.05 41.5011L261.129 37.6888H297.728L297.05 41.5011ZM298.49 33.3682L262.57 29.5559H299.168L298.49 33.3682ZM294.169 57.7669L258.249 53.9546H294.847L294.169 57.7669ZM288.324 25.2353L252.403 21.423H288.917L288.324 25.2353ZM289.679 17.1024L253.844 13.2901H290.357L289.679 17.1024Z" fill="#122E71"/>
<path d="M348.436 49.634L312.601 45.8217H348.86L348.436 49.634ZM349.284 41.5011L314.041 37.6888H349.707L349.284 41.5011ZM350.216 33.3682L315.481 29.5559H350.639L350.216 33.3682ZM351.063 25.2353L316.921 21.423H351.486L351.063 25.2353ZM344.285 62.5111C344.285 63.8101 344.511 64.9679 344.963 65.9845L309.72 62.1722H344.285V62.5111ZM347.25 53.9546C346.29 54.9712 345.556 56.1855 345.048 57.5975L311.161 53.9546H347.25ZM358.179 13.2901H370.717C372.468 13.2901 373.343 13.8548 373.343 14.9844C373.343 15.2668 373.315 15.4645 373.259 15.5774L364.363 51.8367H350.724L354.706 15.5774C354.931 14.0525 356.089 13.2901 358.179 13.2901ZM346.827 62.5111C346.827 59.2918 347.702 57.0045 349.453 55.649C351.204 54.2935 353.689 53.6157 356.908 53.6157C360.127 53.6157 362.33 53.9829 363.516 54.7171C364.702 55.3948 365.295 56.5244 365.295 58.1058C365.295 61.2686 364.533 63.5277 363.008 64.8832C361.539 66.1822 359.054 66.8317 355.553 66.8317C352.108 66.8317 349.792 66.5211 348.606 65.8998C347.42 65.2221 346.827 64.0925 346.827 62.5111Z" fill="#122E71"/>
<path fill-rule="evenodd" clip-rule="evenodd" d="M-5.62676 45.8217L39.189 49.634C38.9785 49.5919 38.7711 49.5481 38.5666 49.5025C35.4924 48.8168 33.0892 47.7326 31.357 46.2501C31.3485 46.2428 31.3401 46.2355 31.3316 46.2282C31.178 46.0959 31.0296 45.9604 30.8866 45.8217H-5.62676ZM39.4035 47.0477C39.4053 47.0481 39.4071 47.0485 39.4089 47.049C39.5028 47.0712 39.5975 47.093 39.6929 47.1146C39.7492 47.1273 39.8058 47.1398 39.8626 47.1523C39.974 47.1767 40.0863 47.2007 40.1997 47.2242C40.5319 47.2931 40.8727 47.358 41.2222 47.419C41.619 47.4882 42.0268 47.5524 42.4459 47.6116C43.1112 47.7055 43.8047 47.7866 44.5262 47.8549L51.5578 48.5327L50.88 52.7686C49.0793 53.0141 46.8932 53.1707 44.3215 53.2383C44.2201 53.241 44.1181 53.2435 44.0155 53.2459C44.0125 53.246 44.0095 53.246 44.0066 53.2461C43.1229 53.2666 42.1948 53.2769 41.2222 53.2769C40.6076 53.2769 39.9824 53.2607 39.3467 53.2284C39.1935 53.2206 39.0398 53.2119 38.8854 53.2022C38.751 53.1938 38.6161 53.1847 38.4808 53.1749C38.1354 53.1498 37.787 53.1201 37.4355 53.0857C37.4064 53.0829 37.3772 53.08 37.348 53.0771C35.2968 52.8724 33.143 52.5104 30.8866 51.9911C30.0261 51.7931 29.1507 51.5721 28.2604 51.3284L23.5162 65.3068C23.8806 65.4006 24.2477 65.4914 24.6175 65.5793C27.1577 66.1826 29.823 66.6445 32.6135 66.965C32.6425 66.9683 32.6715 66.9716 32.7006 66.9749C33.5522 67.0718 34.4155 67.1554 35.2904 67.2259C37.6359 67.415 40.065 67.5095 42.5777 67.5095C46.4182 67.5095 49.6375 67.3118 52.2355 66.9165C54.0993 66.6905 55.6242 66.3517 56.8103 65.8998C57.984 65.3968 59.2682 64.7003 60.6632 63.8101C60.6779 63.8007 60.6926 63.7913 60.7073 63.7819C60.8893 63.6629 61.067 63.5412 61.2404 63.417C61.2847 63.3853 61.3287 63.3533 61.3725 63.3212C61.4862 63.2378 61.5979 63.1533 61.7078 63.0675C61.7583 63.0281 61.8084 62.9885 61.8581 62.9486C62.1179 62.74 62.3667 62.5248 62.6044 62.303L97.2928 65.9846L97.9706 62.1723H62.7424C62.7659 62.1496 62.7894 62.1269 62.8127 62.1042C63.3587 61.5709 63.8429 61.0006 64.2654 60.3932C64.8036 59.6334 65.324 58.7761 65.8267 57.8212C65.8672 57.7441 65.9077 57.6664 65.948 57.5881C66.2996 56.9053 66.6424 56.1742 66.9764 55.3948C67.1037 55.0742 67.2257 54.7544 67.3424 54.4354L98.733 57.7669L99.4108 53.9546H67.5144C67.8517 52.9904 68.1402 52.0333 68.38 51.0835C68.4371 50.8572 68.4915 50.6314 68.5431 50.4059C68.5865 50.2159 68.628 50.0263 68.6675 49.8369C68.6941 49.7095 68.7198 49.5823 68.7446 49.4552C68.9488 48.4093 69.0927 47.3723 69.1764 46.3443L100.173 49.634L100.851 45.8217H69.2139C69.2472 45.2827 69.2638 44.7461 69.2638 44.2121C69.2638 43.7277 69.2413 43.2569 69.1963 42.7997C69.1759 42.5931 69.151 42.3893 69.1215 42.1883C69.0917 41.9855 69.0572 41.7855 69.0181 41.5884C69.0004 41.4991 68.9817 41.4104 68.962 41.3222C68.8399 40.7744 68.6807 40.249 68.4844 39.746C68.2271 39.0864 67.906 38.4653 67.5211 37.8828L101.613 41.5011L102.291 37.6888H67.3896C67.3069 37.5699 67.2215 37.4526 67.1333 37.337C66.9065 37.0396 66.6616 36.7532 66.3986 36.4778C66.3734 36.4514 66.348 36.425 66.3224 36.3988C66.2681 36.3431 66.2131 36.2879 66.1573 36.2331C66.0655 36.143 65.9717 36.0541 65.8759 35.9664C65.8157 35.9114 65.7548 35.8569 65.6931 35.8029C65.6691 35.782 65.6451 35.7611 65.6209 35.7403C65.532 35.6617 65.4409 35.5842 65.3475 35.5077C65.2965 35.4658 65.2448 35.4243 65.1924 35.3831C64.9001 35.153 64.5869 34.9324 64.2529 34.7213C64.2415 34.7141 64.2302 34.7069 64.2188 34.6998C63.7419 34.4006 63.2229 34.1206 62.6619 33.8598C62.1461 33.6201 61.5947 33.3966 61.0078 33.1893C60.4718 33.0001 59.9062 32.8244 59.3109 32.6623C58.5749 32.4619 57.7937 32.2822 56.9671 32.1233C56.6396 32.0603 56.3049 32.0005 55.9631 31.9441C55.9263 31.938 55.8894 31.9319 55.8524 31.9259C55.8314 31.9225 55.8103 31.9191 55.7892 31.9157C55.0084 31.7901 54.1909 31.6812 53.3368 31.5891L47.6608 30.9961L48.3385 26.8449C49.9585 26.6318 51.8037 26.4991 53.8741 26.4468C53.8799 26.4466 53.8857 26.4465 53.8915 26.4464C54.5586 26.4297 55.2492 26.4213 55.9631 26.4213C56.0019 26.4213 56.0409 26.4214 56.08 26.4215C56.1973 26.422 56.3161 26.423 56.4363 26.4247C56.6102 26.4272 56.7872 26.431 56.9671 26.4362C59.3284 26.5037 62.2122 26.8018 65.6186 27.3303C65.6434 27.3342 65.6682 27.338 65.6931 27.3419C65.9979 27.3894 66.3068 27.4387 66.62 27.4899C66.6708 27.4982 66.7218 27.5066 66.7728 27.515C66.8924 27.5346 67.0125 27.5546 67.1333 27.5748C67.2019 27.5863 67.2708 27.5979 67.3398 27.6095C67.5 27.6366 67.6613 27.6641 67.8236 27.6921L69.4311 22.7458L92.8875 25.2353L93.4805 21.423H69.8611L72.0331 14.7396L94.243 17.1024L94.9207 13.2901H68.3952C65.9036 12.8251 63.2589 12.4877 60.461 12.2779C60.2196 12.2598 59.9769 12.2426 59.7332 12.2264C59.3346 12.1999 58.9329 12.176 58.5281 12.1546C58.4879 12.1524 58.4476 12.1503 58.4073 12.1483C58.2566 12.1405 58.1054 12.1331 57.9538 12.126C57.9177 12.1243 57.8815 12.1226 57.8452 12.121C57.5541 12.1077 57.2614 12.0958 56.9671 12.0851C56.9244 12.0836 56.8817 12.0821 56.8389 12.0806C55.6678 12.0397 54.4722 12.0193 53.2521 12.0193C50.4193 12.0193 47.8774 12.2341 45.6263 12.6637C42.5715 13.2466 40.0523 14.2252 38.0687 15.5993C37.8421 15.7563 37.6225 15.9184 37.4099 16.0858C37.1199 16.3139 36.8375 16.5581 36.5627 16.8184C36.2436 17.1205 35.9348 17.4442 35.6363 17.7895C35.4297 18.0284 35.228 18.2777 35.0312 18.5373C34.2121 19.6179 33.478 20.8775 32.829 22.3162C32.5493 22.9363 32.2853 23.5898 32.0371 24.2764C31.9448 24.5318 31.8547 24.7918 31.7668 25.0564C31.6726 25.3398 31.581 25.6285 31.4918 25.9224C31.4828 25.9522 31.4738 25.982 31.4648 26.0119C31.2377 26.7678 31.027 27.5582 30.8328 28.3834C30.6954 28.9672 30.5663 29.5683 30.4453 30.1868C30.3932 30.4534 30.3427 30.7231 30.2936 30.9961C30.2641 31.1585 30.2358 31.3196 30.2089 31.4794C30.1098 32.0667 30.0281 32.6367 29.9638 33.1893C29.9487 33.3191 29.9346 33.4478 29.9214 33.5756C29.9048 33.7371 29.8896 33.897 29.876 34.0553C29.8155 34.7602 29.7853 35.4348 29.7853 36.0792C29.7853 36.402 29.7947 36.7182 29.8134 37.0276C29.8144 37.0437 29.8154 37.0599 29.8164 37.076C29.8255 37.2194 29.8367 37.3615 29.8499 37.502C29.9219 38.2688 30.0541 38.9923 30.2464 39.6727C30.341 40.0073 30.4502 40.3315 30.5739 40.6452C30.6695 40.8876 30.7737 41.1237 30.8866 41.3535C30.9089 41.3989 30.9315 41.444 30.9545 41.4889C31.0773 41.729 31.2098 41.9621 31.352 42.1883C31.7442 42.812 32.2099 43.3829 32.7492 43.9009C32.8595 44.0068 32.9729 44.1106 33.0893 44.2121C33.994 44.9811 35.1478 45.6368 36.5506 46.1794C37.4084 46.5112 38.3594 46.8006 39.4035 47.0477ZM27.9215 29.5559C27.9131 29.5894 27.9048 29.623 27.8966 29.6567C27.8281 29.9378 27.7648 30.2274 27.7066 30.5257C27.7062 30.5275 27.7059 30.5293 27.7056 30.531C27.6228 30.9561 27.5505 31.3986 27.4887 31.8586C27.4311 32.287 27.3827 32.7306 27.3433 33.1893C27.3382 33.2487 27.3333 33.3083 27.3285 33.3682L-8.59188 29.5559H27.9215ZM28.9381 25.1506L30.2089 21.423H-6.21978L28.9381 25.1506ZM32.8351 16.7635C33.7548 15.6248 34.7085 14.6729 35.6961 13.9078C35.9821 13.6862 36.271 13.4803 36.5627 13.2901H0.134056L32.8351 16.7635ZM-0.296661 9.65661L0.134056 1.5237H41.4909C45.2962 0.599473 49.2961 0.25293 53.2521 0.25293C58.9571 0.25293 64.3682 0.656045 69.4372 1.5237H253.173C253.396 1.5237 253.62 1.52542 253.844 1.52894L253.844 1.5237H346.553L345.412 7.81784C346.388 6.3898 347.666 5.0929 349.272 4.03498C352.517 1.89844 355.926 1.5237 358.179 1.5237H370.718C372.481 1.5237 375.832 1.73985 379.066 3.82642C383.186 6.4846 385.11 10.8242 385.11 14.9844C385.11 14.999 385.11 15.0168 385.11 15.0377C385.113 15.427 385.121 16.9017 384.605 18.7139L376.226 52.8692C376.798 54.5924 377.062 56.376 377.062 58.1058C377.062 62.7926 375.968 69.1059 370.825 73.6775L370.815 73.6869L370.804 73.6962C368.432 75.7952 365.718 77.0191 363.055 77.7191L364.016 79.8805L321.815 75.3155L321.346 78.0051H302.543L302.395 78.8428L294.502 78.0051H281.363L281.601 76.6359L277.839 76.2367L278.401 78.0051H225.711L225.562 78.8428L217.669 78.0051H151.088L150.864 78.5242L146.027 78.0051H128.492L129.25 76.2047L126.279 75.8858L125.909 78.0051H107.107L106.958 78.8428L99.0648 78.0051H85.9259L86.1644 76.6359L65.7884 74.4734C64.3764 75.3173 62.9249 76.0807 61.4453 76.7148L61.224 76.8097L60.9991 76.8954C58.6635 77.7851 56.1824 78.281 53.829 78.5754C50.488 79.0711 46.6941 79.2758 42.5777 79.2758C37.8197 79.2758 33.2297 78.9725 28.8266 78.3386L28.6727 78.79L-10 73.8435L-8.50716 50.4059H-7.56867L-7.51671 49.5548L-9.07414 49.3891L-8.64943 41.3822L-9.83369 41.2565L-8.59188 17.7895H-6.64972L-6.21978 9.65661H-0.296661ZM20.6358 65.8998L21.9065 62.1723H-8.50716L20.6358 65.8998ZM24.6175 53.9546H-7.06696L23.3467 57.6822L24.6175 53.9546ZM-7.82942 37.6888L28.0062 41.5011C27.9771 41.4139 27.9489 41.3248 27.9215 41.2339C27.7186 40.5607 27.5613 39.785 27.4495 38.9069C27.4004 38.5207 27.36 38.1146 27.3285 37.6888H-7.82942ZM116.015 66.2387L116.578 63.0108L143.498 65.8998L145.108 62.1723H116.724L118.047 54.578L146.972 57.6822L148.582 53.9546H118.155L119.501 46.2285L150.445 49.5493L151.97 45.8217H119.572L120.955 37.8793L153.834 41.4164L155.444 37.6888H120.989L122.878 26.8449H134.569L135.375 22.3972L160.696 25.0658L162.221 21.423H135.551L137.025 13.2901H97.6317L95.1749 26.8449H106.781L99.9191 66.2387H116.015ZM103.054 33.3682L103.731 29.5559H67.1333L103.054 33.3682ZM146.209 66.2387H163.153L166.457 57.8516H179.758L180.097 66.2387H197.125L196.965 63.9753L215.897 65.9846L216.575 62.1723H196.839L196.372 55.5418L217.337 57.7669L218.015 53.9546H196.26L195.784 47.1937L218.778 49.634L219.455 45.8217H195.687L195.197 38.8483L220.133 41.5011L220.811 37.6888H195.115L194.609 30.4996L221.573 33.3682L222.251 29.5559H194.542L194.021 22.151L223.013 25.2353L223.691 21.423H193.97L193.433 13.8023L224.454 17.1024L225.131 13.2901H168.49L146.209 66.2387ZM178.487 29.5559H177.64L171.709 44.3815H178.487V29.5559ZM227.758 13.2901L218.439 66.2387H234.535L237.246 50.4812H240.719L244.616 66.2387H262.322L261.179 62.6361L292.73 65.9846L293.407 62.1723H261.032L258.431 53.9739L294.17 57.7669L294.848 53.9546H258.425L256.731 48.6174C257.146 48.4181 257.55 48.1993 257.944 47.961C258.046 47.8989 258.148 47.8354 258.249 47.7707C258.489 47.6168 258.725 47.4555 258.957 47.2867C258.968 47.2785 258.98 47.2703 258.991 47.2621C259.192 47.1145 259.39 46.9613 259.586 46.8023C259.62 46.774 259.655 46.7454 259.69 46.7167C259.809 46.6173 259.928 46.5157 260.046 46.4119C260.104 46.36 260.163 46.3076 260.221 46.2547C260.342 46.1442 260.462 46.0314 260.58 45.9162L295.61 49.634L296.288 45.8217H260.677C260.83 45.6704 260.981 45.515 261.13 45.3557C261.879 44.554 262.571 43.6516 263.208 42.6485C263.304 42.4973 263.399 42.3439 263.492 42.1883C263.622 41.9721 263.749 41.7516 263.874 41.5267C263.911 41.4589 263.949 41.3908 263.986 41.3222C264.515 40.3448 265 39.2861 265.439 38.1461L297.05 41.5011L297.728 37.6888H265.611C265.763 37.2755 265.909 36.8519 266.05 36.418C266.233 35.8693 266.4 35.3156 266.552 34.757C266.556 34.7442 266.559 34.7315 266.562 34.7187C266.622 34.4983 266.679 34.2772 266.734 34.0553C266.805 33.768 266.871 33.4793 266.934 33.1893C267.155 32.1667 267.326 31.128 267.446 30.0734L298.49 33.3682L299.168 29.5559H267.501C267.596 28.5816 267.648 27.5937 267.658 26.5924C267.658 26.578 267.658 26.5636 267.658 26.5492C267.659 26.4503 267.66 26.3511 267.66 26.2519C267.66 26.1414 267.659 26.0315 267.657 25.9224C267.653 25.6286 267.643 25.34 267.627 25.0564C267.588 24.3434 267.512 23.6628 267.4 23.0146L288.324 25.2353L288.917 21.423H267.034C266.657 20.1371 266.109 19.0037 265.391 18.0228C265.333 17.9441 265.275 17.8663 265.215 17.7895C263.615 15.7372 261.231 14.387 258.062 13.7388L289.68 17.1024L290.357 13.2901H253.844L253.929 13.2991C253.901 13.2984 253.873 13.2978 253.844 13.2972C253.844 13.2972 253.844 13.2972 253.844 13.2972C253.654 13.2931 253.461 13.2908 253.267 13.2902C253.251 13.2902 253.236 13.2901 253.22 13.2901C253.204 13.2901 253.189 13.2901 253.173 13.2901H227.758ZM248.852 27.3532C248.005 27.0143 246.593 26.8449 244.616 26.8449H241.397L239.533 37.4346H243.261C243.743 37.4346 244.195 37.4222 244.616 37.3973C244.692 37.3928 244.767 37.3879 244.841 37.3826C245.161 37.3597 245.463 37.3292 245.747 37.2911C246.482 37.1923 247.094 37.0425 247.582 36.8416C248.598 36.3898 249.276 35.1755 249.615 33.1988C250.01 31.1655 250.208 29.923 250.208 29.4712C250.208 29.039 250.142 28.6688 250.009 28.3607C249.796 27.8634 249.41 27.5276 248.852 27.3532ZM293.068 13.2901L290.612 26.8449H302.218L295.356 66.2387H311.452L312.115 62.4313L344.963 65.9846C344.925 65.8977 344.888 65.8099 344.853 65.721C344.624 65.1456 344.465 64.527 344.374 63.8653C344.362 63.7786 344.352 63.6912 344.342 63.603C344.305 63.2509 344.286 62.8869 344.286 62.5111V62.1723H312.161L313.547 54.2112L345.048 57.5975C345.049 57.5943 345.05 57.5912 345.051 57.5881C345.334 56.8066 345.685 56.0857 346.106 55.4255C346.443 54.8962 346.825 54.4059 347.251 53.9546H313.592L314.965 46.0732L348.405 49.6304L348.437 49.634L348.86 45.8217H315.009L316.381 37.9419L349.284 41.5011L349.708 37.6888H316.425L317.798 29.8101L350.156 33.3615L350.215 33.3681L350.216 33.3682L350.639 29.5559H317.842L318.314 26.8449H330.005L330.709 22.9625L351.063 25.2353L351.487 21.423H330.988L332.462 13.2901H293.068ZM350.724 51.8367H364.364L373.259 15.5774C373.316 15.4645 373.344 15.2668 373.344 14.9844C373.344 13.8549 372.468 13.2901 370.718 13.2901H358.179C356.09 13.2901 354.932 14.0525 354.706 15.5774L350.724 51.8367ZM362.978 54.4387C362.208 54.1041 361.155 53.8716 359.819 53.7411C359.801 53.7392 359.782 53.7374 359.763 53.7357C358.922 53.6557 357.971 53.6157 356.909 53.6157C356.617 53.6157 356.332 53.6213 356.052 53.6324C355.306 53.6621 354.603 53.7313 353.943 53.8401C352.724 54.0411 351.651 54.3772 350.724 54.8484C350.265 55.082 349.841 55.3489 349.453 55.649C349.379 55.7068 349.306 55.7664 349.234 55.8277C349.104 55.9388 348.98 56.0555 348.86 56.1778C348.462 56.5857 348.123 57.0558 347.842 57.5881C347.722 57.8146 347.613 58.0523 347.515 58.3014C347.494 58.3548 347.473 58.4087 347.453 58.4632C347.379 58.6629 347.312 58.8696 347.251 59.0833C347.06 59.7537 346.934 60.4927 346.872 61.3003C346.85 61.5826 346.836 61.8732 346.83 62.1723C346.828 62.284 346.827 62.397 346.827 62.5111C346.827 62.9028 346.864 63.2668 346.936 63.603C347.007 63.9292 347.112 64.2293 347.251 64.5034C347.316 64.6317 347.389 64.7542 347.469 64.8711C347.753 65.2861 348.132 65.629 348.606 65.8998C349.634 66.4383 351.511 66.7434 354.235 66.8152C354.655 66.8262 355.094 66.8317 355.553 66.8317C356.493 66.8317 357.36 66.7849 358.154 66.6913C360.316 66.4362 361.934 65.8335 363.008 64.8832C363.416 64.521 363.769 64.0943 364.067 63.603C364.173 63.4293 364.272 63.2475 364.364 63.0576C364.985 61.7752 365.296 60.1246 365.296 58.1058C365.296 56.9613 364.985 56.0534 364.364 55.3822C364.127 55.126 363.844 54.9043 363.517 54.7171C363.356 54.6175 363.176 54.5247 362.978 54.4387ZM157.307 33.2835L158.832 29.5559H122.658L157.307 33.2835Z" fill="white"/>
</svg>
