<svg width="142" height="106" viewBox="0 0 142 106" fill="none" xmlns="http://www.w3.org/2000/svg">
<path d="M77.6245 55.729L23.223 49.9416H78.6534L77.6245 55.729ZM60.9054 74.6345L59.1049 80.4219L5.34644 74.6345H60.9054ZM56.7899 87.1095L54.9894 92.8969L1.23096 87.1095H56.7899ZM70.2938 25.2487V31.0361L15.7637 25.2487H70.2938ZM75.5668 68.0754L21.0367 62.288H76.5957L75.5668 68.0754ZM70.4224 12.9023V18.6897L16.021 12.9023H70.4224ZM25.2808 37.5952H80.8398L79.6823 43.3825L25.2808 37.5952ZM74.2807 32.1936V15.8603C84.7409 12.6022 94.6009 10.9731 103.861 10.9731C112.263 10.9731 118.865 11.8305 123.666 13.5453C129.068 15.4316 131.769 19.6328 131.769 26.149C131.769 37.2951 127.139 45.2259 117.879 49.9416L117.75 50.5846C123.838 53.5855 126.882 58.4298 126.882 65.1174C126.882 85.1804 113.592 95.2119 87.013 95.2119C77.2387 95.2119 68.0217 94.0972 59.3621 91.868L66.5642 70.6476C73.9377 72.6196 80.3253 73.6056 85.7269 73.6056C91.1284 73.6056 95.8012 73.3484 99.7452 72.8339L101.16 64.603L80.4539 62.4166L83.6691 43.7684L105.275 41.1962L106.69 32.1936H74.2807Z" fill="#122E71"/>
<path fill-rule="evenodd" clip-rule="evenodd" d="M76.5957 62.288H21.0368L75.5668 68.0754L76.5957 62.288ZM68.9345 71.2559C68.8859 71.2439 68.8373 71.232 68.7886 71.22C68.0574 71.0394 67.3159 70.8486 66.5642 70.6476L59.3621 91.868C61.3334 92.3755 63.3336 92.8252 65.3626 93.2171C66.6423 93.4643 67.9335 93.6885 69.2362 93.8898C74.9415 94.7712 80.8671 95.2119 87.013 95.2119C113.592 95.2119 126.882 85.1804 126.882 65.1174C126.882 62.1713 126.291 59.583 125.11 57.3523C123.702 54.6935 121.454 52.5429 118.368 50.9007C118.165 50.7931 117.96 50.6878 117.751 50.5846L117.879 49.9416C117.964 49.8985 118.048 49.8552 118.132 49.8116C121.265 48.1809 123.859 46.1751 125.913 43.7943C129.817 39.2681 131.769 33.3863 131.769 26.149C131.769 19.6328 129.068 15.4316 123.667 13.5453C118.865 11.8305 112.263 10.9731 103.861 10.9731C96.4341 10.9731 88.6213 12.021 80.4225 14.1168C79.0598 14.4652 77.6863 14.8425 76.3023 15.2487C75.6309 15.4458 74.9571 15.6496 74.2808 15.8603V32.1936H106.69L105.275 41.1962L83.6692 43.7684L80.454 62.4166L101.16 64.603L99.7453 72.8339C97.0127 73.1904 93.9303 73.4233 90.4981 73.5328C88.9765 73.5813 87.3861 73.6056 85.7269 73.6056C85.4023 73.6056 85.0741 73.602 84.7424 73.5949C81.8043 73.5318 78.5868 73.1894 75.0901 72.5677C74.597 72.48 74.0985 72.3868 73.5943 72.288C73.1332 72.1977 72.6674 72.1027 72.1969 72.003C71.1332 71.7777 70.0457 71.5287 68.9345 71.2559ZM77.6246 55.729L78.6535 49.9416H23.2231L77.6246 55.729ZM22.5682 52.288L23.2231 39.9416H24.626L24.8209 36.2661L14.7084 35.1929L15.3595 22.8883L14.9632 22.8462L16.021 2.90228H80.4225V3.82211C88.4522 1.94399 96.2718 0.973145 103.861 0.973145C112.751 0.973145 120.649 1.85544 126.998 4.11644C131.47 5.68538 135.432 8.46821 138.155 12.7034C140.815 16.8405 141.769 21.5482 141.769 26.149C141.769 33.1157 140.314 39.7064 136.933 45.4983C135.778 47.4757 134.44 49.2899 132.937 50.9454C132.981 51.0127 133.024 51.0804 133.066 51.1483C135.749 55.4175 136.882 60.2147 136.882 65.1174C136.882 77.5648 132.612 88.3684 122.939 95.6697C113.797 102.571 101.274 105.212 87.013 105.212C78.4808 105.212 70.2617 104.424 62.3752 102.819L62.0952 103.72L0.160645 97.0521L1.23101 77.1095H4.67692L5.34649 64.6345H20.3834L21.0368 52.288H22.5682ZM56.79 87.1095H1.23101L54.9895 92.8969L56.79 87.1095ZM59.1049 80.4219L60.9055 74.6345H5.34649L59.1049 80.4219ZM79.6823 43.3825L80.8398 37.5952H25.2808L79.6823 43.3825ZM70.4225 18.6897V12.9023H16.021L70.4225 18.6897ZM15.7638 25.2487L70.2939 31.0361V25.2487H15.7638Z" fill="white"/>
</svg>
