<svg width="145" height="104" viewBox="0 0 145 104" fill="none" xmlns="http://www.w3.org/2000/svg">
<path d="M74.9787 32.1936V15.8603C85.7819 12.6022 96.3278 10.9731 106.616 10.9731C118.106 10.9731 125.651 12.5165 129.252 15.6031C132.681 18.6039 134.396 23.1481 134.396 29.2356C134.396 35.2373 133.539 40.3817 131.824 44.6686C130.195 48.8698 126.98 52.5566 122.178 55.729C117.462 58.9013 113.561 61.1305 110.475 62.4166C105.33 64.5601 99.2858 66.7893 92.3409 69.1043L91.6979 72.7053H126.165L122.564 93.2827H59.8029L62.6323 77.2066C63.4897 72.0623 64.69 68.2469 66.2333 65.7605C67.8624 63.274 69.1913 61.3878 70.2202 60.1017C71.3348 58.7299 72.7924 57.4009 74.5929 56.1148C76.3934 54.743 77.9796 53.6284 79.3514 52.771C80.809 51.8279 82.781 50.7561 85.2674 49.5558C87.8396 48.2697 89.9831 47.2408 91.6979 46.4692C93.4126 45.6975 95.8562 44.6258 99.0286 43.2539C102.201 41.8821 104.816 40.7246 106.874 39.7815L108.031 32.1936H74.9787ZM55.9446 92.8969L1.41455 87.1095H56.9735L55.9446 92.8969ZM58.131 80.4219L3.6009 74.6345H59.1599L58.131 80.4219ZM71.1205 25.2487V31.0361L16.5904 25.2487H71.1205ZM71.2491 12.9023V18.6897L16.8476 12.9023H71.2491ZM63.7898 62.288V62.4166C62.7609 64.1314 61.8606 65.9748 61.089 67.9468L8.23081 62.288H63.7898ZM76.3934 49.9416C74.1642 51.3992 71.8921 53.1139 69.5772 55.0859L21.0917 49.9416H76.3934ZM102.63 37.5952L91.312 42.3537L46.299 37.5952H102.63Z" fill="#122E71"/>
<path fill-rule="evenodd" clip-rule="evenodd" d="M71.1207 31.0361V25.2487H16.5906L71.1207 31.0361ZM74.979 32.1936H108.031L106.874 39.7815C106.759 39.8342 106.642 39.8876 106.524 39.9416C106.116 40.1278 105.687 40.3219 105.237 40.524C104.865 40.6912 104.479 40.8639 104.079 41.042C103.615 41.2485 103.132 41.4623 102.63 41.6834C102.253 41.8494 101.866 42.0194 101.467 42.1936C100.695 42.5315 99.882 42.885 99.0288 43.2539C96.4991 44.3479 94.4328 45.251 92.8299 45.9633C92.4227 46.1442 92.0455 46.3128 91.6981 46.4692C91.4217 46.5935 91.1343 46.7245 90.8356 46.8623C90.345 47.0885 89.8244 47.3328 89.2736 47.5952C88.0796 48.1639 86.7442 48.8175 85.2676 49.5558C83.9221 50.2053 82.7273 50.8172 81.6831 51.3914C80.7976 51.8784 80.0205 52.3382 79.3516 52.771C79.0987 52.9291 78.8384 53.0959 78.5709 53.2715C77.8921 53.717 77.1663 54.2189 76.3936 54.777C75.8194 55.1919 75.2192 55.6378 74.5931 56.1148C74.3174 56.3118 74.0497 56.5098 73.79 56.7087C73.1965 57.1635 72.645 57.6236 72.1355 58.0889C71.4692 58.6975 70.8748 59.315 70.3522 59.9416C70.3078 59.9949 70.2638 60.0482 70.2204 60.1017C69.8118 60.6125 69.3558 61.218 68.8525 61.9181C68.7659 62.0386 68.6778 62.1619 68.5884 62.288C68.5582 62.3306 68.5279 62.3734 68.4974 62.4166C68.0708 63.0209 67.6129 63.6877 67.1238 64.4169C67.0755 64.4888 67.027 64.5613 66.9782 64.6345C66.9303 64.706 66.8822 64.7782 66.8338 64.851C66.6385 65.1446 66.4384 65.4478 66.2336 65.7605C65.6268 66.7381 65.073 67.9212 64.5722 69.3097C64.2952 70.0777 64.0345 70.9084 63.79 71.802C63.7462 71.962 63.703 72.124 63.6602 72.288C63.4148 73.2299 63.1865 74.2381 62.9754 75.3127C62.8615 75.8923 62.7527 76.4913 62.6488 77.1095C62.6433 77.1418 62.6379 77.1742 62.6325 77.2066L59.8031 93.2827H122.564L126.165 72.7053H91.6981L92.3411 69.1043C98.9748 66.8931 104.787 64.7601 109.778 62.7053C110.012 62.6089 110.244 62.5127 110.475 62.4166C113.562 61.1305 117.463 58.9013 122.178 55.729C126.98 52.5566 130.195 48.8699 131.824 44.6686C133.539 40.3817 134.396 35.2373 134.396 29.2356C134.396 23.1481 132.681 18.6039 129.252 15.6031C125.651 12.5165 118.106 10.9731 106.617 10.9731C98.3278 10.9731 89.872 12.0305 81.2493 14.1451C79.861 14.4855 78.4683 14.8534 77.0713 15.2487C76.3749 15.4458 75.6775 15.6496 74.979 15.8603V32.1936ZM81.2493 3.87269C89.785 1.95113 98.245 0.973145 106.617 0.973145C112.74 0.973145 118.228 1.37858 122.896 2.33348C127.405 3.25576 132.103 4.87627 135.76 8.0105L135.798 8.0437L135.837 8.07729C142.102 13.5597 144.396 21.2861 144.396 29.2356C144.396 36.1276 143.42 42.5833 141.128 48.3354C138.844 54.1915 134.768 58.9245 129.648 62.7053H138.067L130.966 103.283H64.2553L64.1589 103.825L59.051 103.283H47.8894L48.0941 102.12L0.359375 97.0537L1.41477 77.1095H2.94097L3.60112 64.6345H7.57203L8.23103 52.288H20.4387L21.0919 39.9416H45.6484L45.7298 38.3975L15.5352 35.1929L16.1863 22.8883L15.79 22.8462L16.8478 2.90228H81.2493V3.87269ZM71.2493 12.9023H16.8478L71.2493 18.6897V12.9023ZM56.9737 87.1095H1.41477L55.9449 92.8969L56.9737 87.1095ZM58.1312 80.4219L59.1601 74.6345H3.60112L58.1312 80.4219ZM61.0892 67.9468C61.5383 66.7991 62.0309 65.695 62.5672 64.6345C62.605 64.5596 62.6431 64.4849 62.6814 64.4104C62.7928 64.1939 62.906 63.9793 63.021 63.7665C63.0357 63.7392 63.0505 63.7119 63.0653 63.6847C63.2993 63.2545 63.5409 62.8318 63.79 62.4166V62.288H8.23103L61.0892 67.9468ZM69.5774 55.0859C70.4535 54.3396 71.3236 53.6301 72.1875 52.9574C72.2197 52.9323 72.2519 52.9072 72.2841 52.8822C72.5437 52.6808 72.8027 52.4828 73.0612 52.288C73.7944 51.7356 74.5231 51.2099 75.2474 50.7111C75.6307 50.4471 76.0128 50.1906 76.3936 49.9416H21.0919L69.5774 55.0859ZM91.3123 42.3537L102.63 37.5952H46.2992L91.3123 42.3537Z" fill="white"/>
</svg>
