<svg width="125" height="102" viewBox="0 0 125 102" fill="none" xmlns="http://www.w3.org/2000/svg">
<path d="M98.7278 91.2825H73.0061L82.5231 36.6238H61.0454L64.2607 17.5898L93.4548 10.9021H112.746L98.7278 91.2825ZM69.0192 90.8967L14.4891 85.1093H70.0481L69.0192 90.8967ZM73.3919 66.0752L18.8618 60.2878H74.4208L73.3919 66.0752ZM75.5782 53.7288L21.0481 47.9414H76.6071L75.5782 53.7288ZM56.2869 41.3824L1.75684 35.595H57.3158L56.2869 41.3824ZM58.3447 29.0359L3.81458 23.2485H59.2449L58.3447 29.0359ZM71.2055 78.4217L16.6754 72.6343H72.2344L71.2055 78.4217ZM60.531 15.532L20.4051 10.9021H75.9641L60.7882 14.3745L60.531 15.532Z" fill="#122E71"/>
<path fill-rule="evenodd" clip-rule="evenodd" d="M107.135 101.283H77.3298L77.2335 101.825L72.1256 101.283H61.1146L61.3144 100.135L13.4339 95.0535L14.4893 75.1093H16.0155L16.6757 62.6343H18.2087L18.862 50.2878H20.395L20.5349 47.6441L0.70166 45.5391L1.75705 25.595H3.16145L3.81479 13.2485H19.6954L20.4053 0.9021H75.9643L76.3769 4.55526L92.3243 0.9021H124.641L107.135 101.283ZM64.2609 17.5898L61.0457 36.6238H82.5233L73.0063 91.2825H98.728L112.746 10.9021H93.4551L64.2609 17.5898ZM59.2451 23.2485H3.81479L58.3449 29.0359L59.2451 23.2485ZM1.75705 35.595L56.2871 41.3824L57.316 35.595H1.75705ZM70.0483 85.1093H14.4893L69.0194 90.8967L70.0483 85.1093ZM71.2058 78.4217L72.2346 72.6343H16.6757L71.2058 78.4217ZM73.3921 66.0752L74.421 60.2878H18.862L73.3921 66.0752ZM75.5784 53.7288L76.6073 47.9414H21.0484L75.5784 53.7288ZM60.5312 15.532L60.7884 14.3745L75.9643 10.9021H20.4053L60.5312 15.532Z" fill="white"/>
</svg>
