<svg width="20" height="20" viewBox="0 0 20 20" fill="none" xmlns="http://www.w3.org/2000/svg">
<path d="M19.167 2.50033H15.8337V12.5003H19.167V2.50033ZM0.833658 11.667C0.833658 12.5837 1.58366 13.3337 2.50032 13.3337H7.75866L6.96699 17.142L6.94199 17.4087C6.94199 17.7503 7.08366 18.067 7.30866 18.292L8.19199 19.167L13.6753 13.6753C13.9837 13.3753 14.167 12.9587 14.167 12.5003V4.16699C14.167 3.25033 13.417 2.50033 12.5003 2.50033H5.00033C4.30866 2.50033 3.71699 2.91699 3.46699 3.51699L0.950325 9.39199C0.875324 9.58366 0.833658 9.78366 0.833658 10.0003V11.667Z" fill="#17181C"/>
</svg>
