<svg width="24" height="24" viewBox="0 0 24 24" fill="none" xmlns="http://www.w3.org/2000/svg">
<g clip-path="url(#clip0_5108_14687)">
<path d="M24.0001 14.8546C24.0001 17.5967 24.0001 20.3389 24.0001 23.0772C24.0001 23.7487 23.7526 23.9962 23.0813 23.9962C22.0388 23.9962 21.0001 23.9962 19.9576 23.9962C19.3313 23.9962 19.0688 23.7412 19.0688 23.1222C19.0688 17.5892 19.0688 12.0563 19.0688 6.52329C19.0688 5.9156 19.3313 5.65677 19.9388 5.65302C21.0038 5.65302 22.0726 5.65302 23.1376 5.65302C23.7376 5.65302 24.0001 5.91935 24.0001 6.52704C24.0001 9.30666 24.0001 12.0825 24.0001 14.8546Z" fill="#7C73E8"/>
<path d="M0.401367 13.4667C0.408867 11.7299 2.14512 10.7284 3.54762 11.5349C3.67512 11.6099 3.75762 11.6099 3.88137 11.5236C4.68762 10.9459 5.49762 10.3757 6.31137 9.80932C6.42387 9.73055 6.45012 9.66302 6.42387 9.52423C6.23637 8.54517 6.74637 7.59613 7.65387 7.1985C8.53512 6.81213 9.56262 7.08222 10.1551 7.87371C10.2526 8.00125 10.3389 8.03126 10.4889 8.00125C11.2839 7.8287 12.0826 7.6599 12.8814 7.4986C13.0276 7.46859 13.0951 7.40482 13.1326 7.24727C13.4439 5.95311 14.7864 5.28165 15.9976 5.81057C16.1326 5.87059 16.2189 5.85933 16.3276 5.7618C17.3514 4.84277 18.3826 3.93498 19.4026 3.01219C19.4664 2.95593 19.5039 2.80588 19.4776 2.7196C19.0689 1.2604 20.1601 -0.112533 21.6564 0.0075042C22.5226 0.0750253 23.1414 0.543922 23.4489 1.35418C23.7676 2.19444 23.5951 2.97843 22.9501 3.60113C22.3051 4.22382 21.5289 4.37762 20.6889 4.03251C20.5089 3.96124 20.4151 3.98375 20.2801 4.10754C19.2826 5.00407 18.2814 5.89685 17.2726 6.78212C17.1489 6.89091 17.1189 6.98093 17.1676 7.14224C17.4714 8.1363 17.0139 9.14536 16.0539 9.62926C15.1989 10.0606 14.1001 9.80182 13.5001 9.00657C13.3914 8.86027 13.2939 8.83026 13.1289 8.86402C12.3489 9.03283 11.5689 9.20163 10.7851 9.35918C10.6164 9.39294 10.5414 9.46796 10.5039 9.64052C10.2039 10.9722 8.65137 11.6511 7.46637 10.9722C7.31637 10.8859 7.21887 10.8784 7.07262 10.9834C6.28887 11.5499 5.49762 12.105 4.70637 12.6565C4.58262 12.7427 4.53012 12.8215 4.56012 12.9828C4.71387 13.8456 4.42137 14.5508 3.72387 15.061C3.06762 15.5411 2.33262 15.6049 1.59762 15.2523C0.821367 14.8659 0.431367 14.2132 0.401367 13.4667Z" fill="#7C73E8"/>
<path d="M12.7012 17.6268C12.7012 15.8037 12.7012 13.9769 12.7012 12.1538C12.7012 11.5349 12.9449 11.291 13.5599 11.291C14.6324 11.291 15.7087 11.291 16.7812 11.291C17.3624 11.291 17.6137 11.5461 17.6137 12.1313C17.6137 15.8037 17.6137 19.4798 17.6137 23.1522C17.6137 23.7412 17.3512 23.9963 16.7549 23.9963C15.6899 23.9963 14.6249 23.9963 13.5562 23.9963C12.9599 23.9963 12.7012 23.7374 12.7012 23.1485C12.7012 21.3104 12.7012 19.4686 12.7012 17.6268Z" fill="#7C73E8"/>
<path d="M11.2987 18.347C11.2987 19.93 11.2987 21.513 11.2987 23.096C11.2987 23.7487 11.0474 23.9963 10.3874 23.9963C9.33743 23.9963 8.28743 23.9963 7.23743 23.9963C6.63368 23.9963 6.36743 23.7337 6.36743 23.1297C6.36743 19.9375 6.36743 16.7452 6.36743 13.553C6.36743 12.9566 6.62618 12.6977 7.21493 12.6977C8.27243 12.6977 9.32993 12.6977 10.3874 12.6977C11.0512 12.6977 11.2949 12.9378 11.2949 13.5943C11.2987 15.181 11.2987 16.764 11.2987 18.347Z" fill="#7C73E8"/>
<path d="M0 20.4326C0 19.5324 0 18.6321 0 17.7355C0 17.1766 0.26625 16.914 0.8325 16.914C1.91625 16.914 2.99625 16.914 4.08 16.914C4.65375 16.914 4.91625 17.1766 4.91625 17.758C4.91625 19.5586 4.91625 21.3554 4.91625 23.156C4.91625 23.7449 4.6575 24.0038 4.06125 24.0038C2.99625 24.0038 1.93125 24.0038 0.8625 24.0038C0.255 24 0 23.7449 0 23.1297C0 22.2294 0 21.3292 0 20.4326Z" fill="#7C73E8"/>
</g>
<defs>
<clipPath id="clip0_5108_14687">
<rect width="24" height="24" fill="white"/>
</clipPath>
</defs>
</svg>
