<svg width="111" height="23" viewBox="0 0 111 23" fill="none" xmlns="http://www.w3.org/2000/svg">
<path d="M67.4787 4.48074H63.127V2.53308H73.9405V4.48074H69.5887V19.065C69.5887 19.6446 69.125 20.1084 68.5453 20.1084C67.9656 20.1084 67.5019 19.6446 67.5019 19.065V4.48074H67.4787Z" fill="#616161"/>
<path d="M76.5908 11.1818C76.5908 6.1967 80.4861 2.2782 85.4017 2.2782C90.3404 2.2782 94.2125 6.21989 94.2125 11.1818C94.2125 16.1437 90.3172 20.0854 85.4017 20.0854C80.4861 20.0854 76.5908 16.1669 76.5908 11.1818ZM92.0793 11.1818C92.0793 7.30965 89.1347 4.27223 85.4248 4.27223C81.715 4.27223 78.7935 7.30965 78.7935 11.1818C78.7935 15.0307 81.715 18.0681 85.4248 18.0681C89.1347 18.0681 92.0793 15.0307 92.0793 11.1818Z" fill="#616161"/>
<path d="M38.472 10.3248L37.359 10.0002C36.2924 9.69876 34.4143 9.04954 34.4143 7.0787C34.4143 5.59477 35.5737 4.22677 37.4054 4.22677C39.1676 4.22677 40.1182 5.31653 40.3732 6.26718H42.4137C42.4137 4.3427 40.3964 2.27911 37.3822 2.27911C34.4375 2.27911 32.2812 4.24996 32.2812 6.96277C32.2812 10.2089 34.7621 11.2523 36.3156 11.716L37.5445 12.0638C38.8661 12.4348 40.5356 13.1535 40.5356 15.1939C40.5356 16.7011 39.2371 18.1386 37.3358 18.1386C35.5041 18.1386 34.4607 16.9793 34.1593 16.0055H32.0957C32.0957 17.9067 34.3448 20.1095 37.3358 20.1095C40.3501 20.1095 42.6455 17.9299 42.6455 15.3099C42.6687 11.7624 40.0718 10.7885 38.472 10.3248Z" fill="#616161"/>
<path d="M48.9068 20.0851L53.8919 6.52106L58.877 20.0851H60.987L54.8194 3.32134C54.6803 2.92717 54.3093 2.67212 53.8919 2.67212C53.4746 2.67212 53.1036 2.92717 52.9645 3.32134L46.7969 20.0851H48.9068Z" fill="#616161"/>
<path d="M52.2451 16.4691H58.2504V14.475H52.9639L52.2451 16.4691Z" fill="#616161"/>
<path d="M104.879 12.596H105.111C107.87 12.596 110.119 10.3469 110.119 7.58773C110.119 4.82855 107.87 2.57947 105.111 2.57947H99.7082C99.1749 2.57947 98.7344 3.02001 98.7344 3.5533V20.0852H100.705V4.55031H105.134C106.803 4.55031 108.171 5.91831 108.171 7.58773C108.171 9.25715 106.803 10.6251 105.134 10.6251H102.583V12.851L108.426 20.1084H111L104.879 12.596Z" fill="#616161"/>
<path d="M9.41065 15.0739V18.7601C9.41065 20.2534 8.20084 21.4443 6.72638 21.4443H3.70185C2.20849 21.4443 1.01758 20.2345 1.01758 18.7601V15.7355C1.01758 14.2422 2.22739 13.0513 3.70185 13.0513H11.1687" stroke="#616161" stroke-width="1.7013" stroke-miterlimit="10"/>
<path d="M15.0266 13.0515H18.7127C20.2061 13.0515 21.397 14.2614 21.397 15.7358V18.7603C21.397 20.2537 20.1872 21.4446 18.7127 21.4446H15.6882C14.1948 21.4446 13.0039 20.2348 13.0039 18.7603V11.3124" stroke="#616161" stroke-width="1.7013" stroke-miterlimit="10"/>
<path d="M13.0038 7.43717V3.73212C13.0038 2.23876 14.2136 1.04785 15.688 1.04785H18.7126C20.2059 1.04785 21.3968 2.25766 21.3968 3.73212V6.75665C21.3968 8.25001 20.187 9.44092 18.7126 9.44092H11.2646" stroke="#616161" stroke-width="1.7013" stroke-miterlimit="10"/>
<path d="M7.38932 9.45875H3.68427C2.19091 9.45875 1 8.24893 1 6.77447V3.74994C1 2.25658 2.20981 1.06567 3.68427 1.06567H6.7088C8.20216 1.06567 9.39307 2.27549 9.39307 3.74994V11.2168" stroke="#616161" stroke-width="1.7013" stroke-miterlimit="10"/>
</svg>
