<svg width="43" height="43" viewBox="0 0 43 43" fill="none" xmlns="http://www.w3.org/2000/svg">
    <path
        d="M17.9433 28.7427V35.8315C17.9433 38.7033 15.6167 40.9935 12.7812 40.9935H6.96479C4.09294 40.9935 1.80273 38.667 1.80273 35.8315V30.0151C1.80273 27.1432 4.1293 24.853 6.96479 24.853H21.324"
        stroke="white" stroke-width="3.27173" stroke-miterlimit="10" />
    <path
        d="M28.7432 24.8532H35.832C38.7038 24.8532 40.994 27.1798 40.994 30.0153V35.8317C40.994 38.7035 38.6675 40.9937 35.832 40.9937H30.0156C27.1437 40.9937 24.8535 38.6672 24.8535 35.8317V21.5088"
        stroke="white" stroke-width="3.27173" stroke-miterlimit="10" />
    <path
        d="M24.8532 14.0567V6.93159C24.8532 4.05974 27.1798 1.76953 30.0153 1.76953H35.8317C38.7035 1.76953 40.9937 4.09609 40.9937 6.93159V12.748C40.9937 15.6198 38.6672 17.9101 35.8317 17.9101H21.5088"
        stroke="white" stroke-width="3.27173" stroke-miterlimit="10" />
    <path
        d="M14.0567 17.9447H6.93159C4.05974 17.9447 1.76953 15.6182 1.76953 12.7827V6.96626C1.76953 4.09441 4.09609 1.8042 6.93159 1.8042H12.748C15.6198 1.8042 17.9101 4.13076 17.9101 6.96626V21.3255"
        stroke="white" stroke-width="3.27173" stroke-miterlimit="10" />
</svg>
