<svg width="375" height="300" viewBox="0 0 375 300" fill="none" xmlns="http://www.w3.org/2000/svg">
<g style="mix-blend-mode:luminosity">
<path d="M82.7482 118.511C84.35 115.97 86.8578 115.581 88.813 115.843C90.5087 116.071 91.2381 117.777 90.0951 119.072C88.7791 120.569 87.3804 121.025 87.2639 122.623H87.7038C90.0349 122.623 96.2501 122.424 97.4795 122.387C97.4409 121.844 97.2993 121.313 97.0622 120.823C96.5208 119.7 95.0582 118.806 93.9001 118.38C93.1256 118.095 91.8021 117.728 91.5727 116.801C91.0501 114.679 93.7986 113.706 95.2462 113.665C97.9683 113.583 100.378 116.041 101.409 118.196C102.042 119.483 102.478 120.856 102.702 122.271H103.078L105.142 122.226L105.101 122.413C106.887 132.838 122.118 134.866 129.33 137.111C136.541 139.356 142.783 143.076 144.843 146.492C148.084 151.854 148.366 155.39 148.366 155.39V156C150.005 155.279 151.635 154.602 153.254 153.968L153.404 153.934C153.833 153.055 154.803 152.307 156.491 151.768C157.925 151.378 159.409 151.206 160.894 151.255C162.605 151.255 163.071 150.967 163.819 152.277L165.015 151.903C164.966 151.817 164.917 151.734 164.872 151.648C165.198 151.167 165.576 150.722 166 150.324L165.906 150.047C160.732 139.547 153.363 137.699 149.216 135.903C145.279 134.208 138.496 131.951 134.522 130.065C131.484 128.621 127.796 125.096 126.724 122.058V121.919L130.98 121.889C134.977 121.889 139.861 121.818 149.78 121.818C159.698 121.818 151.814 108.082 146.561 102.873C143.358 99.6966 139.417 97.0586 135.079 98.009C127.799 99.6142 129.762 106.713 129.897 112.793C126.705 107.906 118.734 90.342 110.372 92.1268C105.405 93.1858 107.451 101.71 108.868 104.774C104.582 99.5095 85.8389 91.8611 78.9357 95.9697C71.4159 100.437 81.3496 106.559 87.4932 111.15C83.0979 108.943 80.7442 108.531 75.8375 109.044C71.7731 109.481 67.9906 110.469 67.1446 114.933C66.1558 120.142 70.3857 122.417 75.2999 122.417C77.0708 122.417 78.7477 122.469 80.9886 122.522H81.3646C81.3872 121.276 81.8007 120 82.7482 118.511Z" fill="#ABDDDF" stroke="#ABDDDF" stroke-width="1.12425" stroke-linecap="round" stroke-linejoin="round"/>
<path d="M308.813 100.487C307.274 94.2002 293.929 94.3844 289.403 97.1801C293.667 93.4224 296.9 85.967 293.704 81.3187C290.509 76.6704 286.017 75.7573 279.377 76.5238C272.736 77.2904 267.751 80.1688 258.288 86.572C263.214 77.5535 261.211 61.1021 248.333 61.042C239.528 61.0006 230.952 64.9087 226.557 69.8614C224.961 66.4042 221.583 61.9213 215.085 60.5196C207.334 58.8474 201.467 61.4929 199.083 64.4502C196.698 67.4076 199.105 73.9723 200.902 77.2904C202.7 80.6085 208.403 86.0046 216.191 90.5064C209.169 87.2672 203.713 86.3729 197.431 85.9971C191.328 85.6476 186.089 85.8505 180.031 87.0643C177.987 87.4739 173.936 88.1202 173.783 90.7243C173.573 94.2942 182.214 95.305 184.829 95.9513C179.385 94.7489 163.476 95.7033 163.013 103.643C162.732 108.141 167.194 109.708 169.81 110.084C170.075 109.223 170.535 108.436 171.153 107.784C171.772 107.132 172.533 106.633 173.375 106.326C178.2 104.527 183.888 104.936 188.559 107.003C190.764 107.98 191.896 109.93 192.408 112.102C201.003 111.839 209.561 111.726 218.13 111.625C220.783 119.768 219.106 128.133 216.004 135.216C211.938 144.509 200.899 145.332 193.701 151.036C194.169 151.595 194.414 152.309 194.389 153.039L195.424 153.351C196.661 152.167 198.634 152.051 200.488 152.434C202.102 152.768 204.4 153.016 204.879 154.523L204.968 154.497C206.588 154.909 208.184 155.41 209.748 156H209.774C213.246 152.216 216.127 149.206 219.304 146.298C230.193 136.276 238.306 127.979 251.121 121.147C258.815 117.044 262.224 114.887 266.375 110.704C273.764 110.392 281.152 109.953 288.543 109.303C293.794 108.867 310.973 109.299 308.813 100.487ZM247.455 111.253C247.174 114.578 246.162 117.938 243.759 120.271C240.799 123.067 237.68 125.687 234.416 128.118C231.77 130.102 228.788 132.533 226.568 134.957C228.968 131.95 230.47 127.182 231.957 123.635C233.732 119.407 234.805 115.326 234.853 111.64V111.471C239.685 111.414 241.902 111.347 246.73 111.245L247.455 111.253Z" fill="#ABDDDF" stroke="#ABDDDF" stroke-width="1.12425" stroke-linecap="round" stroke-linejoin="round"/>
<path d="M230.509 273.939C231.502 276.794 236.913 278.029 238.565 274.933C240.541 271.238 235.313 269.077 232.239 269.283C229.039 261.991 226.229 256.617 218.622 252.542C209.021 247.396 199.137 244.981 188.081 245C176.545 245.023 164.498 245.441 153.07 246.739C144.727 247.685 136.513 250.233 129.923 255.239C126.201 258.06 121.527 263.825 122.216 268.614C119.585 268.409 116.76 272.67 118.576 274.565C120.266 276.323 123.645 274.774 125.368 273.939C137.034 277.205 152.058 276.977 164.35 277.615C180.861 278.488 197.585 277.71 213.952 276.931C218.31 276.726 227.691 277.588 230.509 273.939Z" fill="#FAB550" stroke="#FAB550" stroke-width="1.499" stroke-linecap="round" stroke-linejoin="round"/>
<path d="M136 267C148.889 259.202 164.83 256 179.857 256C189.863 256 199.737 257.076 209.303 260.145C213.61 261.527 218.324 264.568 222 266.91" stroke="#442257" stroke-width="1.499" stroke-linecap="round" stroke-linejoin="round"/>
<path d="M169 249C172.798 249.523 176.5 250.533 180 252" stroke="#442257" stroke-width="1.499" stroke-linecap="round" stroke-linejoin="round"/>
<path d="M182 249C183.789 249.408 185.346 250.261 187 251" stroke="#442257" stroke-width="1.499" stroke-linecap="round" stroke-linejoin="round"/>
<path d="M233 273C233.501 273.49 234.204 273.842 235 274" stroke="#442257" stroke-width="1.499" stroke-linecap="round" stroke-linejoin="round"/>
<path d="M122 273C122.21 272.937 122.408 272.815 122.58 272.642C122.752 272.47 122.896 272.251 123 272" stroke="#442257" stroke-width="1.499" stroke-linecap="round" stroke-linejoin="round"/>
<path d="M122 269C122.115 270.56 122.922 272.442 125 273" stroke="#442257" stroke-width="1.499" stroke-linecap="round" stroke-linejoin="round"/>
<path d="M232 274C233.403 272.915 234.296 271.599 233.909 270" stroke="#442257" stroke-width="1.499" stroke-linecap="round" stroke-linejoin="round"/>
<path d="M181.888 157.161L180.745 156L180.025 156.793C179.381 157.823 178.333 159.234 177 160.05C177.99 163.034 182.387 164.647 185 160.482C183.824 159.526 182.777 158.409 181.888 157.161Z" fill="#F15D4A" stroke="#F15D4A" stroke-width="1.499" stroke-linecap="round" stroke-linejoin="round"/>
<path d="M180.155 179.174C180.245 179.442 180.308 179.719 180.343 180V179.894C180.704 179.007 182.456 176.51 184.66 173.137L185 172.379C184.845 170.519 184.147 168.772 183.638 167.278C183.302 166.305 182.272 163.148 182.272 163.148L179.505 163C179.017 164.895 176.614 170.541 176 172.77C177.575 174.839 179.526 177.362 180.155 179.174Z" fill="#F15D4A" stroke="#F15D4A" stroke-width="1.499" stroke-linecap="round" stroke-linejoin="round"/>
<path d="M192.136 149C192.136 149 192.25 139.556 192.31 137.75C193.666 138.917 195.741 138.97 196.687 136.171C197.103 134.951 197.247 133.455 196.199 132.613C195.15 131.77 193.969 131.963 192.886 132.235C192.943 130.535 192.988 128.835 192.992 127.108C192.992 121.888 193.022 119.957 192.84 114.722C192.731 111.556 191.739 108.213 188.581 106.826C183.849 104.749 178.087 104.337 173.199 106.146C169.947 107.348 169.179 110.355 168.853 113.509C168.452 117.381 168.278 118.378 168.096 122.277C167.948 125.382 167.914 128.499 167.933 131.623C165.518 131.052 162.674 131.43 163.03 135.083C163.409 138.861 165.976 138.483 168.001 136.942C168.088 141.554 168.221 144.308 168.206 148.917" stroke="#442257" stroke-width="1.499" stroke-linecap="round" stroke-linejoin="round"/>
<path d="M177 132C178.075 132.675 179.339 133.023 180.625 132.999C182.191 132.999 183.595 132.461 184 132.137" stroke="#442257" stroke-width="1.499" stroke-linecap="round" stroke-linejoin="round"/>
<path d="M165 152.635C165.788 151.357 167.43 150.267 168.218 149C170.903 151.187 180.724 156 180.724 156C180.724 156 185.819 153.305 187.902 152.285C189.555 151.48 191.032 150.34 192.673 149.493C193.835 150.814 195.263 152.188 194.958 153.632C194.608 155.311 193.355 156.924 192.609 158.438C191.828 160.032 190.461 161.254 188.801 161.842C185.103 163.143 180.716 156 180.716 156C180.716 156 176.984 163.809 172.121 160.02C169.57 158.014 166.523 155.584 165 152.635Z" stroke="#442257" stroke-width="1.499" stroke-linecap="round" stroke-linejoin="round"/>
<path d="M185.544 192.368C185.788 191.046 187.648 188.148 188.37 186.995C190.32 183.868 192.233 180.966 194.307 177.925C196.381 174.884 199.252 171.693 199.91 168.015C200.218 166.27 199.372 162.623 197.137 164.45C199.391 162.449 204.848 158.579 204.998 154.996C205.088 152.844 202.341 152.577 200.489 152.196C198.14 151.714 195.603 152.019 194.593 154.265C192.875 158.127 192.21 162.009 190.993 165.946C189.678 170.004 188.612 174.139 187.802 178.328C186.198 187.214 185.018 196.144 183.691 205.052C183.316 207.494 183.124 212.513 183 215" stroke="#442257" stroke-width="1.499" stroke-linecap="round" stroke-linejoin="round"/>
<path d="M174 215C173.761 213.879 173.584 205.387 173.464 203.283C173.218 198.908 173.079 194.541 172.589 190.158C171.819 183.25 170.127 176.574 168.485 169.819C167.567 166.053 166.881 162.22 165.679 158.513C165.135 156.836 164.935 154.826 164.095 153.283C163.254 151.74 162.815 152.016 160.961 152.024C159.439 151.974 157.917 152.147 156.448 152.536C147.815 155.203 157.566 163.176 162.117 166.053C159.138 165.504 155.666 166.427 156.887 169.472C158.618 173.772 161.293 176.492 163.96 180.22C166.874 184.3 170.643 191.429 173.071 195.912" stroke="#442257" stroke-width="1.499" stroke-linecap="round" stroke-linejoin="round"/>
<path d="M197 173C197 173 201.487 173.483 204 174" stroke="#442257" stroke-width="1.499" stroke-linecap="round" stroke-linejoin="round"/>
<path d="M165 154C167.172 159.062 170.722 165.855 173.913 170.312C175.436 172.44 178.838 176.18 179.717 178.606C180.173 179.857 179.958 181.787 179.891 183.086C179.765 185.658 179.454 188.162 179.324 190.734C179.109 195.019 178.723 199.241 178.316 203.497C178.13 205.426 178.36 205.863 176.726 205.99C175.614 206.076 173.594 205.579 173.25 205.617" stroke="#442257" stroke-width="1.499" stroke-linecap="round" stroke-linejoin="round"/>
<path d="M180 180C180.836 178.001 188.557 167.953 193 158" stroke="#442257" stroke-width="1.499" stroke-linecap="round" stroke-linejoin="round"/>
<path d="M179 205C179.52 205.581 182.103 205.401 184 205.375" stroke="#442257" stroke-width="1.499" stroke-linecap="round" stroke-linejoin="round"/>
<path d="M177 188.375V188" stroke="#442257" stroke-width="1.499" stroke-linecap="round" stroke-linejoin="round"/>
<path d="M176.114 195.672L176.133 195.297" stroke="#442257" stroke-width="1.499" stroke-linecap="round" stroke-linejoin="round"/>
<path d="M175.765 202.546L175.784 202.171" stroke="#442257" stroke-width="1.499" stroke-linecap="round" stroke-linejoin="round"/>
<path d="M204.669 154.285C211.846 156.062 219.933 160.282 225.461 164.818C228.459 167.269 230.37 168.787 233.514 170.992C236.062 172.776 239.761 174.867 240.005 178.488C240.046 177.274 239.581 174.414 241.417 174.388C243.449 174.358 243.984 178.552 244.344 179.86C244.078 177.611 243.947 172.142 247.717 175.448C243.033 173.949 254.088 158.517 256.063 154.57C258.038 150.623 261.631 145.142 261.631 145.142C262.902 145.105 269.951 149.641 271.75 150.668C274.695 152.384 278.12 154.041 280.646 156.29C277.828 162.977 273.151 171.52 269.34 177.72C266.278 182.638 260.507 193.175 255.489 196.376C250.719 199.438 246.248 198.884 241.02 198.34C237.869 198.01 234.608 195.611 231.839 194.014C228.631 192.17 218.666 186.934 216.185 185.337C214.312 184.137 210.227 181.843 210.227 181.843C210.227 181.843 210.167 187.275 210.167 189.827C210.167 191.612 209.976 193.576 209.935 195.311" stroke="#442257" stroke-width="1.499" stroke-linecap="round" stroke-linejoin="round"/>
<path d="M197.962 200.335C201.47 199.285 205.281 194.795 209.343 195.526C214.346 196.429 205.221 201.853 203.857 202.468C205.326 200.676 209.752 198.108 212.082 199.413C212.191 200.575 211.427 200.968 210.741 201.759C209.242 203.487 207.66 204.81 206.536 206.894" stroke="#442257" stroke-width="1.499" stroke-linecap="round" stroke-linejoin="round"/>
<path d="M262.812 145.319C262.812 145.319 264.907 141.57 266.376 139.76C270.67 140.686 280.069 147.508 280.957 148.786L278.034 153.989" stroke="#442257" stroke-width="1.499" stroke-linecap="round" stroke-linejoin="round"/>
<path d="M165.85 214.459C164.482 215.651 163.403 217.341 162.297 218.582C159.981 221.206 157.586 223.762 155.211 226.326C153.393 228.287 151.684 230.363 149.758 232.222C148.836 233.111 146.554 235.536 145.812 236.683C145.07 237.83 151.025 236.968 152.314 235.514C155.889 231.491 159.295 227.481 162.807 223.417C163.747 222.334 169.024 216.134 170.86 213.975C170.919 213.905 170.958 213.821 170.972 213.731C170.986 213.64 170.974 213.548 170.939 213.464C170.904 213.38 170.846 213.307 170.772 213.253C170.697 213.2 170.61 213.168 170.519 213.162C169.792 213.089 169.06 213.071 168.33 213.109C167.404 213.344 166.551 213.808 165.85 214.459Z" fill="#442257" stroke="#442257" stroke-width="1.499" stroke-linecap="round" stroke-linejoin="round"/>
<path d="M155.24 232.2C153.839 235.574 154.866 241.226 158.744 240.525C161.236 240.075 161.926 233.609 159.273 233.208C157.624 232.957 157.969 235.023 158.501 236.016C160.817 240.349 165.52 236.994 163.822 232.98C163.035 231.105 160.007 229.329 158.283 228.684" stroke="#442257" stroke-width="1.499" stroke-linecap="round" stroke-linejoin="round"/>
<path d="M170.699 214.732C178.977 215.152 196.294 214.732 196.294 214.732" stroke="#442257" stroke-width="1.499" stroke-linecap="round" stroke-linejoin="round"/>
<path d="M251.701 198.127C256.603 198.254 264.034 198.689 268.452 200.522C273.02 202.396 276.562 205.208 278.402 210.021C280.71 216.063 279.818 223.14 276.397 228.59C274.523 231.567 271.952 234.213 268.43 234.925C264.529 235.716 260.418 236.62 256.404 236.766C245.027 237.182 233.623 237.377 222.231 237.943C212.304 238.434 201.942 238.43 191.471 237.298C191.823 231.878 193.405 227.552 194.173 223.639C194.752 220.685 195.522 217.771 196.478 214.916C196.853 213.878 197.167 212.667 198.284 212.214C200.079 211.501 203.905 211.689 205.899 211.599C214.174 211.224 222.249 210.223 230.513 209.908C239.244 209.571 252.083 208.409 260.077 212.581C258.761 212.304 256.131 210.471 256.771 209.275C257.412 208.079 259.687 208.847 261.182 209.054" stroke="#442257" stroke-width="1.499" stroke-linecap="round" stroke-linejoin="round"/>
<path d="M211.67 200.845C211.67 200.845 226.195 199.177 230.28 198.854C233.893 198.569 236.227 198.262 239.847 198.127" stroke="#442257" stroke-width="1.499" stroke-linecap="round" stroke-linejoin="round"/>
<path d="M164.01 233.512C168.256 234.098 172.539 234.378 176.826 234.351C180.903 234.351 191.381 234.898 191.381 234.898" stroke="#442257" stroke-width="1.499" stroke-linecap="round" stroke-linejoin="round"/>
<path d="M150.072 181.93C148.911 181.769 148.483 183.373 148.472 184.617C149.188 184.456 150.009 184.044 150.833 184.186C147.869 184.726 148.255 188.201 148.142 190.649C148.064 192.395 147.996 195.402 148.985 196.837" stroke="#442257" stroke-width="1.499" stroke-linecap="round" stroke-linejoin="round"/>
<path d="M156.789 199.547C155.147 198.711 146.742 194.937 146.108 197.894C145.707 199.768 148.51 200.732 149.807 201.328C152.209 202.452 153.881 203.899 156.005 205.537C157.407 206.714 158.686 208.029 159.824 209.462" stroke="#442257" stroke-width="1.499" stroke-linecap="round" stroke-linejoin="round"/>
<path d="M152.984 154.364C145.168 157.439 137.664 161.255 130.574 165.759C127.7 167.596 125.279 169.804 124.301 173.208C124.698 172.109 125.856 169.669 124.739 168.736C123.51 167.716 121.659 169.242 121.074 170.28C120.49 171.318 121.145 172.641 122.412 171.817C123.832 170.887 124.308 167.735 123.589 166.494C122.543 164.684 121.093 162.315 119.901 160.662C118.796 159.128 117.552 157.663 116.547 156.062C114.88 153.408 107.516 141.998 107.516 141.998C107.516 141.998 97.9185 147.535 93.9162 150.14C92.3122 151.186 88.9957 153.112 87.9951 154.488C90.0787 158.69 91.9187 162.914 94.2609 166.97C97.4051 172.413 100.459 177.646 103.487 183.152C105.164 186.185 107.07 189.086 109.187 191.83C110.802 193.918 112.279 195.818 114.126 197.58C116.682 200.02 122.806 200.616 125.972 199.578C129.72 198.352 133.37 194.918 136.574 192.681C139.197 190.844 147.359 184.603 148.588 183.546" stroke="#442257" stroke-width="1.499" stroke-linecap="round" stroke-linejoin="round"/>
<path d="M89.5651 152.381C89.5651 152.381 87.0693 148.209 86.3872 146.249C89.8124 144.168 92.252 142.332 95.7559 140.326C98.1431 138.958 100.324 137.905 102.67 136.634C103.693 138.085 106.02 142.403 106.02 142.403" stroke="#442257" stroke-width="1.499" stroke-linecap="round" stroke-linejoin="round"/>
<path d="M100.351 137.005C99.9278 136.255 98.159 133.538 98.7398 132.687C99.6205 131.397 101.097 129.984 101.794 128.44C103.271 125.156 102.866 121.828 101.299 118.536C100.273 116.377 97.8704 113.915 95.1572 113.997C93.7145 114.038 90.975 115.013 91.4959 117.138C91.7245 118.068 93.0437 118.435 93.8156 118.72C94.9699 119.147 96.4389 120.032 96.9673 121.168C98.1702 123.709 96.7162 126.071 94.2841 127.311C91.6871 128.638 88.4904 127.806 87.5386 124.957C86.3956 121.55 88.2881 121.385 90.0232 119.406C91.1474 118.109 90.4354 116.407 88.7453 116.171C86.7966 115.909 84.297 116.299 82.7006 118.844C81.1041 121.389 80.9842 123.342 81.8049 125.613" stroke="#442257" stroke-width="1.499" stroke-linecap="round" stroke-linejoin="round"/>
<path d="M77.5133 129.04C77.1385 125.006 82.5162 125.291 84.7984 126.476C85.8364 127.015 87.7477 128.069 88.2498 129.396C88.752 130.723 88.3023 133.002 85.3718 131.918" stroke="#442257" stroke-width="1.499" stroke-linecap="round" stroke-linejoin="round"/>
<path d="M78.6452 133.601C81.2497 135.082 88.1901 133.924 84.3526 130.43C82.6363 128.867 74.9015 128.264 75.9957 132.495C73.395 131.33 65.469 131.315 67.5864 134.797C68.8043 136.791 71.3901 136.094 73.4175 136.176C75.5161 136.263 80.028 137.335 81.7069 138.598C83.4795 139.932 85.9566 141.762 88.1151 144.97" stroke="#442257" stroke-width="1.499" stroke-linecap="round" stroke-linejoin="round"/>
<path d="M267.699 139.385C268.074 138.598 270.109 135.464 269.49 134.636C268.557 133.388 267.388 132.038 266.627 130.512C265.012 127.293 265.278 123.949 266.706 120.598C267.639 118.394 269.94 115.837 272.653 115.8C274.096 115.8 276.873 116.643 276.442 118.799C276.251 119.736 274.943 120.159 274.194 120.478C273.069 120.954 271.638 121.899 271.147 123.057C270.053 125.643 271.604 127.93 274.085 129.081C276.734 130.295 279.894 129.332 280.729 126.457C281.73 123.001 279.834 122.914 278.016 121.01C276.824 119.762 277.48 118.011 279.14 117.727C281.078 117.382 283.592 117.667 285.294 120.144C286.995 122.622 287.194 124.552 286.47 126.869" stroke="#442257" stroke-width="1.499" stroke-linecap="round" stroke-linejoin="round"/>
<path d="M290.907 130.104C291.113 126.06 285.754 126.573 283.524 127.855C282.509 128.436 280.643 129.568 280.197 130.914C279.751 132.259 280.298 134.52 283.195 133.313" stroke="#442257" stroke-width="1.499" stroke-linecap="round" stroke-linejoin="round"/>
<path d="M289.971 134.7C287.43 136.289 280.448 135.423 284.132 131.769C285.785 130.134 293.501 129.212 292.571 133.482C295.195 133.159 303.042 131.866 301.067 135.431C299.943 137.477 297.319 136.885 295.3 137.054C293.208 137.226 288.745 138.486 287.119 139.82C285.406 141.23 282.644 144.611 280.621 147.887" stroke="#442257" stroke-width="1.499" stroke-linecap="round" stroke-linejoin="round"/>
<path d="M116.667 199.173C111.852 199.173 107.407 198.49 105.312 198.64C102.828 198.82 92.8707 199.529 90.3224 200.042C82.1941 201.669 78.7576 207.071 77.6671 214.286C77.09 218.106 76.7864 222.784 78.8326 226.281C80.77 229.572 85.6343 230.967 89.0895 231.739C94.336 232.916 99.8223 233.085 105.204 233.358C116.278 233.92 147.955 234.138 147.955 234.138" stroke="#442257" stroke-width="1.499" stroke-linecap="round" stroke-linejoin="round"/>
<path d="M148.63 200.803C146.494 200.196 138.47 199.679 132.354 199.416C130.953 199.356 129.379 199.323 127.175 199.285" stroke="#442257" stroke-width="1.499" stroke-linecap="round" stroke-linejoin="round"/>
<path d="M103.896 205.05C102.266 205.639 100.475 205.23 98.8669 204.792C99.5715 205.054 102.303 205.541 102.483 206.943C102.824 209.567 96.5622 209.117 95.1494 210.148C96.5847 210.347 98.2299 209.567 99.6239 209.241C101.498 208.806 103.334 208.619 105.223 208.315C108.783 207.794 112.388 207.652 115.978 207.892C128.633 208.503 134.153 208.765 146.749 209.991C149.031 210.216 151.362 210.471 153.577 210.879C153.951 213.503 153.869 217.683 153.873 220.535C153.873 222.672 153.408 226.315 153.303 228.452" stroke="#442257" stroke-width="1.499" stroke-linecap="round" stroke-linejoin="round"/>
<path d="M154.004 214.631C154.004 214.631 162.207 214.885 165.093 215.193" stroke="#442257" stroke-width="1.499" stroke-linecap="round" stroke-linejoin="round"/>
<path d="M184.598 124.556C185.389 125.609 187.514 125.433 188.132 124.302" stroke="#442257" stroke-width="1.499" stroke-linecap="round" stroke-linejoin="round"/>
<path d="M169.421 124.931C169.421 128.14 175.095 130.434 177.575 126.993C180.259 123.274 177.017 119.181 172.767 120.306C171.193 120.722 169.443 121.719 169.421 124.931Z" stroke="#442257" stroke-width="1.499" stroke-linecap="round" stroke-linejoin="round"/>
<path d="M190.782 124.988C190.782 128.2 185.074 130.46 182.612 127.008C179.952 123.26 183.216 119.2 187.462 120.347C189.028 120.771 190.804 121.779 190.782 124.988Z" stroke="#442257" stroke-width="1.499" stroke-linecap="round" stroke-linejoin="round"/>
<path d="M169.421 124.197L166.797 124.391" stroke="#442257" stroke-width="1.499" stroke-linecap="round" stroke-linejoin="round"/>
<path d="M178.688 123.484C179.668 123.249 180.689 123.249 181.668 123.484" stroke="#442257" stroke-width="1.499" stroke-linecap="round" stroke-linejoin="round"/>
<path d="M175.439 124.53C174.641 125.579 172.52 125.392 171.905 124.257" stroke="#442257" stroke-width="1.499" stroke-linecap="round" stroke-linejoin="round"/>
<path d="M190.759 124.253L193.382 124.462" stroke="#442257" stroke-width="1.499" stroke-linecap="round" stroke-linejoin="round"/>
<path d="M176.811 181.93V181.555" stroke="#442257" stroke-width="1.499" stroke-linecap="round" stroke-linejoin="round"/>
<path d="M209.264 181.978C209.651 182.057 210.053 181.998 210.402 181.813C210.751 181.628 211.024 181.327 211.175 180.963" stroke="#442257" stroke-width="1.499" stroke-linecap="round" stroke-linejoin="round"/>
<path d="M168.121 119.271C170.8 117.626 171.868 112.108 171.804 110.297C173.453 112.768 177.478 112.382 180.191 112.382C183.189 112.382 186.236 112.119 188.811 110.732C188.972 112.831 190.276 117.198 192.048 119.271" stroke="#442257" stroke-width="1.499" stroke-linecap="round" stroke-linejoin="round"/>
</g>
</svg>
