<svg width="307" height="277" viewBox="0 0 307 277" fill="none" xmlns="http://www.w3.org/2000/svg">
    <defs>
        <linearGradient id="paint0_linear" x1="144.552" y1="239.474" x2="125.485" y2="35.7101"
            gradientUnits="userSpaceOnUse">
            <stop stop-color="#ED9FDC" />
            <stop offset="1" stop-color="#FFEFF7" />
        </linearGradient>
        <linearGradient id="paint1_linear" x1="183299" y1="9999.82" x2="176363" y2="367.32"
            gradientUnits="userSpaceOnUse">
            <stop offset="0.28" stop-color="#333333" />
            <stop offset="0.31" stop-color="#33353C" />
            <stop offset="0.48" stop-color="#354172" />
            <stop offset="0.64" stop-color="#364A9C" />
            <stop offset="0.79" stop-color="#3651BB" />
            <stop offset="0.91" stop-color="#3755CD" />
            <stop offset="1" stop-color="#3756D4" />
        </linearGradient>
        <linearGradient id="paint2_linear" x1="89750.7" y1="192637" x2="93073.8" y2="202878"
            gradientUnits="userSpaceOnUse">
            <stop offset="0.28" stop-color="#333333" />
            <stop offset="0.31" stop-color="#33353C" />
            <stop offset="0.48" stop-color="#354172" />
            <stop offset="0.64" stop-color="#364A9C" />
            <stop offset="0.79" stop-color="#3651BB" />
            <stop offset="0.91" stop-color="#3755CD" />
            <stop offset="1" stop-color="#3756D4" />
        </linearGradient>
        <linearGradient id="paint3_linear" x1="400411" y1="205361" x2="358495" y2="185427"
            gradientUnits="userSpaceOnUse">
            <stop offset="0.28" stop-color="#333333" />
            <stop offset="0.31" stop-color="#33353C" />
            <stop offset="0.48" stop-color="#354172" />
            <stop offset="0.64" stop-color="#364A9C" />
            <stop offset="0.79" stop-color="#3651BB" />
            <stop offset="0.91" stop-color="#3755CD" />
            <stop offset="1" stop-color="#3756D4" />
        </linearGradient>
        <linearGradient id="paint4_linear" x1="102753" y1="77783.1" x2="102161" y2="79633.5"
            gradientUnits="userSpaceOnUse">
            <stop offset="0.28" stop-color="#333333" />
            <stop offset="0.31" stop-color="#33353C" />
            <stop offset="0.48" stop-color="#354172" />
            <stop offset="0.64" stop-color="#364A9C" />
            <stop offset="0.79" stop-color="#3651BB" />
            <stop offset="0.91" stop-color="#3755CD" />
            <stop offset="1" stop-color="#3756D4" />
        </linearGradient>
        <linearGradient id="paint5_linear" x1="113380" y1="86701.4" x2="116975" y2="86701.4"
            gradientUnits="userSpaceOnUse">
            <stop stop-color="#CC5A89" />
            <stop offset="0.07" stop-color="#D26C96" />
            <stop offset="0.22" stop-color="#DD8BAE" />
            <stop offset="0.37" stop-color="#E5A4C1" />
            <stop offset="0.53" stop-color="#EBB5CE" />
            <stop offset="0.7" stop-color="#EFC0D5" />
            <stop offset="0.9" stop-color="#F0C3D8" />
        </linearGradient>
        <linearGradient id="paint6_linear" x1="76989" y1="81187.4" x2="78859.2" y2="81187.4"
            gradientUnits="userSpaceOnUse">
            <stop stop-color="#CC5A89" />
            <stop offset="0.07" stop-color="#D26C96" />
            <stop offset="0.22" stop-color="#DD8BAE" />
            <stop offset="0.37" stop-color="#E5A4C1" />
            <stop offset="0.53" stop-color="#EBB5CE" />
            <stop offset="0.7" stop-color="#EFC0D5" />
            <stop offset="0.9" stop-color="#F0C3D8" />
        </linearGradient>
        <linearGradient id="paint7_linear" x1="76500.2" y1="88014.7" x2="78379.3" y2="88014.7"
            gradientUnits="userSpaceOnUse">
            <stop stop-color="#CC5A89" />
            <stop offset="0.07" stop-color="#D26C96" />
            <stop offset="0.22" stop-color="#DD8BAE" />
            <stop offset="0.37" stop-color="#E5A4C1" />
            <stop offset="0.53" stop-color="#EBB5CE" />
            <stop offset="0.7" stop-color="#EFC0D5" />
            <stop offset="0.9" stop-color="#F0C3D8" />
        </linearGradient>
        <linearGradient id="paint8_linear" x1="163141" y1="113054" x2="165599" y2="119774"
            gradientUnits="userSpaceOnUse">
            <stop stop-color="#CC5A89" />
            <stop offset="0.07" stop-color="#D26C96" />
            <stop offset="0.22" stop-color="#DD8BAE" />
            <stop offset="0.37" stop-color="#E5A4C1" />
            <stop offset="0.53" stop-color="#EBB5CE" />
            <stop offset="0.7" stop-color="#EFC0D5" />
            <stop offset="0.9" stop-color="#F0C3D8" />
        </linearGradient>
        <linearGradient id="paint9_linear" x1="163444" y1="113054" x2="165902" y2="119774"
            gradientUnits="userSpaceOnUse">
            <stop offset="0.28" stop-color="#333333" />
            <stop offset="0.31" stop-color="#33353C" />
            <stop offset="0.48" stop-color="#354172" />
            <stop offset="0.64" stop-color="#364A9C" />
            <stop offset="0.79" stop-color="#3651BB" />
            <stop offset="0.91" stop-color="#3755CD" />
            <stop offset="1" stop-color="#3756D4" />
        </linearGradient>
        <linearGradient id="paint10_linear" x1="25026" y1="22299.8" x2="25192.6" y2="22299.8"
            gradientUnits="userSpaceOnUse">
            <stop offset="0.28" stop-color="#333333" />
            <stop offset="0.31" stop-color="#33353C" />
            <stop offset="0.48" stop-color="#354172" />
            <stop offset="0.64" stop-color="#364A9C" />
            <stop offset="0.79" stop-color="#3651BB" />
            <stop offset="0.91" stop-color="#3755CD" />
            <stop offset="1" stop-color="#3756D4" />
        </linearGradient>
        <linearGradient id="paint11_linear" x1="2786.16" y1="2166.29" x2="2951.39" y2="2166.29"
            gradientUnits="userSpaceOnUse">
            <stop offset="0.28" stop-color="#333333" />
            <stop offset="0.31" stop-color="#33353C" />
            <stop offset="0.48" stop-color="#354172" />
            <stop offset="0.64" stop-color="#364A9C" />
            <stop offset="0.79" stop-color="#3651BB" />
            <stop offset="0.91" stop-color="#3755CD" />
            <stop offset="1" stop-color="#3756D4" />
        </linearGradient>
    </defs>
    <path
        d="M38.0049 151.729C38.0049 151.729 10.0439 188.062 32.7138 223.072C55.3836 258.081 196.242 262.892 236.646 217.389C277.049 171.886 217.89 114.523 217.89 114.523C217.89 114.523 260.219 104.461 258.756 72.5506C257.294 40.6406 218.127 -17.099 145.611 27.9518C132.075 23.587 117.882 21.6167 103.67 22.1294C61.5889 23.776 4.41949 48.7445 1.1287 89.6196C-1.52759 122.66 32.5633 147.811 38.0049 151.729Z"
        fill="url(#paint0_linear)" />
    <path
        d="M219.751 211.825C219.751 211.825 276.856 223.179 301.838 147.434C308.871 126.093 309.021 101.587 294.568 83.2052C283.394 68.9883 265.359 60.8306 247.357 61.1212C234.85 61.3364 224.451 65.7812 214.707 73.5731C210.696 76.8017 206.631 80.0304 201.877 82.0106C195.93 84.4429 188.897 84.1631 183.595 80.321C174.863 73.9498 173.917 62.4342 174.368 52.5006C174.981 39.4568 175.099 27.0155 164.937 17.4155C154.774 7.81561 139.783 3.99512 126.286 1.918C106.014 -1.19229 85.6568 3.42472 70.9989 18.4704C54.4266 35.4962 54.4051 58.4413 50.6303 80.4394C48.3476 93.2938 47.9852 106.416 49.5549 119.377C50.7486 128.783 52.8995 139.826 59.0831 147.359"
        stroke="#382A8C" stroke-width="0.87" stroke-linecap="round" stroke-linejoin="round" />
    <path
        d="M140.819 199.799C167.517 197.394 188.828 191.764 188.42 187.223C188.011 182.682 166.038 180.95 139.34 183.354C112.643 185.759 91.3311 191.389 91.7395 195.93C92.1479 200.471 114.122 202.203 140.819 199.799Z"
        fill="url(#paint1_linear)" />
    <path
        d="M138.707 134.046C138.707 134.046 118.962 162.19 122.812 191.398L160.194 187.955C160.194 187.955 152.817 153.946 177.186 134.046C201.555 114.147 138.707 134.046 138.707 134.046Z"
        fill="white" />
    <path
        d="M70.1172 92.4391C69.4074 91.2122 28.4124 30.3086 28.4124 30.3086C25.2626 30.5567 22.3076 31.9322 20.0886 34.183C15.6686 39.0906 16.7441 46.904 17.798 53.0062C20.5941 69.1495 23.4332 85.2284 26.4013 101.329C29.348 117.192 31.6924 133.615 36.919 148.962C37.9084 151.836 39.3816 157.335 42.6509 158.422L42.8876 158.476C58.8791 161.253 70.1172 92.4391 70.1172 92.4391Z"
        fill="url(#paint2_linear)" stroke="white" stroke-width="0.87" stroke-linecap="round"
        stroke-linejoin="round" />
    <path
        d="M44.3069 159.155C42.9632 159.129 41.6738 158.62 40.6746 157.721C39.6753 156.822 39.033 155.592 38.8653 154.258L22.5511 36.1423C22.4377 35.3414 22.497 34.5256 22.7252 33.7495C22.9534 32.9735 23.345 32.2555 23.8739 31.6437C24.3642 31.0694 24.9726 30.6076 25.6574 30.29C26.3422 29.9724 27.0875 29.8064 27.8423 29.8033C28.0498 29.7869 28.2584 29.7869 28.4659 29.8033L218.159 52.2964C219.407 52.4475 220.571 53.004 221.473 53.8808C222.374 54.7576 222.963 55.9062 223.149 57.1502L236.463 145.885C236.581 146.675 236.531 147.48 236.318 148.25C236.105 149.019 235.733 149.735 235.226 150.351C234.72 150.959 234.092 151.454 233.382 151.803C232.673 152.151 231.897 152.346 231.107 152.375L44.4574 159.144L44.3069 159.155Z"
        fill="url(#paint3_linear)" />
    <path
        d="M27.842 30.2546C28.0316 30.2386 28.2222 30.2386 28.4118 30.2546L218.105 52.7478C219.254 52.886 220.325 53.3979 221.155 54.2048C221.985 55.0118 222.526 56.069 222.697 57.2141L223.375 61.7773L236 145.938C236.115 146.659 236.075 147.397 235.883 148.102C235.691 148.806 235.351 149.462 234.886 150.025C234.421 150.588 233.842 151.045 233.187 151.367C232.531 151.688 231.815 151.867 231.086 151.89L44.4572 158.681H44.2851C43.054 158.659 41.8723 158.192 40.9574 157.368C40.0426 156.543 39.456 155.416 39.3059 154.193L38.7789 150.415L24.0565 43.7827L22.981 36.077C22.869 35.3704 22.9091 34.6479 23.0985 33.9579C23.288 33.268 23.6225 32.6264 24.0796 32.0763C24.5367 31.5261 25.1059 31.0799 25.7492 30.7676C26.3924 30.4553 27.0949 30.2841 27.8097 30.2654L27.842 30.2546ZM27.8097 29.3398C26.993 29.3497 26.1875 29.5321 25.4462 29.8752C24.7048 30.2183 24.0444 30.7144 23.508 31.3308C22.9366 31.9948 22.5134 32.7731 22.2668 33.6139C22.0201 34.4546 21.9556 35.3385 22.0776 36.2062L23.153 43.9118L37.8864 150.534L38.4025 154.322C38.5881 155.767 39.2866 157.096 40.3705 158.068C41.4544 159.04 42.8514 159.59 44.3066 159.617H44.5217L231.118 152.89C231.979 152.863 232.825 152.652 233.599 152.273C234.373 151.893 235.057 151.353 235.606 150.688C236.155 150.023 236.557 149.249 236.784 148.417C237.012 147.585 237.06 146.715 236.925 145.863L224.3 61.7019L223.611 57.1387C223.412 55.7953 222.779 54.5542 221.807 53.6056C220.836 52.657 219.581 52.0533 218.234 51.8867L28.5409 29.3936C28.3153 29.3775 28.0889 29.3775 27.8634 29.3936L27.8097 29.3398Z"
        fill="white" />
    <path
        d="M228 145.614L215.157 145.924L164.892 147.176L121.053 148.256L107.009 148.599L83.9988 149.166L73.3468 149.433L50.269 150L37 44L216.621 61.952L228 145.614Z"
        fill="#9BADF8" />
    <path
        d="M221.751 146.315L165.98 147.564C164.592 119.076 171.733 110.864 171.733 110.864C171.733 110.864 179.261 94.3335 200.113 98.8859C217.449 102.663 221.03 135.402 221.751 146.315Z"
        fill="url(#paint4_linear)" />
    <path
        d="M181.703 131.711L186.768 172.49C186.981 174.177 187.83 175.719 189.141 176.802C190.452 177.884 192.127 178.424 193.823 178.312L237.614 175.352C238.515 175.291 239.394 175.048 240.198 174.636C241.002 174.225 241.714 173.654 242.29 172.958C242.867 172.262 243.296 171.456 243.551 170.59C243.807 169.723 243.883 168.813 243.776 167.916L239.227 130.097C239.032 128.481 238.253 126.992 237.037 125.911C235.82 124.83 234.25 124.233 232.624 124.231H188.306C187.363 124.232 186.431 124.433 185.571 124.821C184.712 125.209 183.945 125.776 183.32 126.483C182.696 127.19 182.229 128.022 181.95 128.923C181.671 129.824 181.587 130.775 181.703 131.711Z"
        fill="white" />
    <path
        d="M186.101 131.711L191.177 172.489C191.388 174.178 192.236 175.722 193.547 176.805C194.859 177.887 196.535 178.427 198.232 178.312L242.023 175.352C242.924 175.291 243.803 175.048 244.606 174.636C245.409 174.224 246.121 173.653 246.696 172.957C247.272 172.261 247.7 171.455 247.954 170.589C248.208 169.722 248.283 168.812 248.174 167.916L243.625 130.097C243.433 128.48 242.655 126.989 241.438 125.908C240.221 124.827 238.65 124.231 237.022 124.231H192.704C191.761 124.232 190.829 124.433 189.97 124.821C189.11 125.209 188.343 125.776 187.719 126.483C187.095 127.19 186.627 128.022 186.349 128.923C186.07 129.824 185.985 130.775 186.101 131.711Z"
        fill="url(#paint5_linear)" />
    <path
        d="M177.401 61.2292C177.401 61.2292 168.797 58.7646 168.098 49.6705C167.399 40.5764 173.239 37.4768 173.239 37.4768C173.239 37.4768 166.711 25.6384 183.606 22.7218C200.501 19.8052 201.716 31.0626 201.716 31.0626C201.716 31.0626 211.825 24.0348 215.029 32.1388C218.234 40.2428 222.719 54.266 239.183 53.6633C255.648 53.0606 226.881 85.7779 201.716 75.7798C176.551 65.7816 177.401 61.2292 177.401 61.2292Z"
        fill="#382A8C" />
    <path
        d="M188.639 130.344C188.639 130.344 189.08 132.023 190.317 132.249C191.22 132.421 191.833 131.173 191.833 131.173C191.975 131.442 192.198 131.66 192.469 131.797C192.741 131.934 193.049 131.983 193.35 131.937C194.038 131.754 194.576 129.784 195.275 128.235L191.511 125.458L195.275 128.224C195.486 127.695 195.776 127.202 196.135 126.76C196.787 125.98 197.507 125.26 198.286 124.608C198.286 124.608 197.834 127.277 198.985 127.255C200.136 127.234 200.792 125.447 202.211 124.296C204.809 122.084 206.84 119.284 208.137 116.127C208.8 114.62 209.316 113.052 209.675 111.445L200.91 111.865C200.363 112.104 199.831 112.377 199.318 112.683C196.449 114.743 193.823 117.123 191.489 119.775C187.919 123.93 187.188 127.427 187.188 128.245C187.349 130.721 188.639 130.344 188.639 130.344Z"
        fill="#96ABFF" />
    <path
        d="M215.137 58.2369C200.812 51.2845 183.175 52.5221 170.883 59.5499C158.591 66.5776 147.902 84.9488 147.418 91.8366C146.934 98.7245 170.13 92.4931 170.13 92.4931L171.636 95.5926C171.636 95.5926 172.271 100.199 167.248 106.829C162.226 113.458 162.947 119.56 176.863 115.815C185.164 113.593 192.846 109.495 199.317 103.837C199.317 103.837 197.07 120.647 203.963 123.876C210.857 127.105 234.268 109.885 234.075 94.5057C233.881 79.1264 229.429 65.1893 215.137 58.2369ZM208.19 98.886C207.098 94.9435 206.24 90.9402 205.619 86.8968C204.77 80.913 208.19 80.2564 208.19 80.2564C208.19 80.2564 215.137 89.0385 215.556 91.7183C215.976 94.3981 208.19 98.886 208.19 98.886Z"
        fill="white" />
    <path
        d="M117.339 148.64L101.756 148.995L76.2254 149.566C75.15 147.801 74.7198 146.681 74.8165 145.261C75.0639 141.645 71.4612 137.889 72.784 130.743C74.1068 123.596 75.0639 98.0791 75.0639 98.0791L92.2706 101.76L97.1961 102.836C97.1961 102.836 111.499 127.116 117.339 148.64Z"
        fill="url(#paint6_linear)" />
    <path
        d="M101.756 149.006L76.2253 149.576L64.3957 149.835C59.2874 134.563 53.4156 110.768 59.1906 93.9463L92.4318 100.081C92.4318 100.081 92.3565 100.705 92.2597 101.781C91.8726 105.946 91.2918 116.848 94.5396 124.102C96.9808 129.558 99.8415 140.805 101.756 149.006Z"
        fill="url(#paint7_linear)" />
    <path
        d="M119.393 83.9908C119.393 83.9908 109.532 61.8744 91.4323 55.3417C73.3329 48.809 46.1033 45.7848 32.1121 72.1415C26.165 83.345 25.4444 95.0328 26.5844 104.773C29.1829 107.606 32.5517 109.618 36.2769 110.563C40.0022 111.507 43.922 111.343 47.5551 110.089C45.7348 105.583 45.6391 100.563 47.2862 95.9906C47.2862 95.9906 45.8989 102.513 51.6739 109.357C57.4489 116.202 58.9438 109.895 73.7953 106.129C88.6469 102.362 95.3038 112.339 100.304 109.131C105.305 105.924 96.7771 93.9243 96.7771 93.9243L119.393 83.9908Z"
        fill="white" />
    <path
        d="M85.2155 40.6409C85.2155 40.6409 84.0324 51.4032 84.4626 53.3081C84.8928 55.2131 81.7418 58.8184 78.6876 58.5493C75.6334 58.2803 70.6757 56.2031 72.6545 51.5968C74.6333 46.9906 77.3004 44.6983 77.0315 42.406C76.7627 40.1136 81.2042 40.1567 81.473 40.2535C81.7419 40.3504 85.2155 40.6409 85.2155 40.6409Z"
        fill="#96ABFF" />
    <path
        d="M183.821 45.1284C183.821 45.1284 184.724 51.2307 182.638 54.5993C180.551 57.9679 183.186 61.1104 188.843 58.7104C194.5 56.3104 192.628 48.8522 189.918 43.7832C187.208 38.7141 188.036 46.3984 183.821 45.1284Z"
        fill="#96ABFF" />
    <path
        d="M177.992 34.6463C177.992 34.6463 176.121 41.1036 176.444 44.8597C176.766 48.6157 177.938 50.3162 181.143 50.3162C184.348 50.3162 188.574 47.0875 189.962 43.7834C189.962 43.7834 194.081 43.4714 194.349 39.9952C194.618 36.519 189.768 37.1432 189.585 41.0068L187.983 41.5988C187.373 40.7588 186.936 39.8056 186.698 38.7949C186.46 37.7841 186.425 36.736 186.596 35.7117C186.137 35.8677 185.652 35.9306 185.168 35.8967C184.685 35.8628 184.213 35.7329 183.781 35.5144C183.348 35.296 182.963 34.9934 182.649 34.6245C182.335 34.2555 182.097 33.8276 181.95 33.3656C180.659 29.8894 177.992 34.6463 177.992 34.6463Z"
        fill="#96ABFF" />
    <path
        d="M89.1092 28.5005L87.7219 29.835C87.7219 29.835 89.1306 31.9875 89.3135 37.53C89.4963 43.0726 88.6359 47.5927 87.3024 48.2923C85.9689 48.9918 78.8927 47.2161 77.0322 42.4161C77.0322 42.4161 72.7305 42.5775 72.1175 40.382C71.5045 38.1865 72.1175 34.2798 73.7199 33.4834C75.3222 32.687 75.4299 28.2422 75.4299 28.2422C76.6784 28.6152 77.977 28.7931 79.2798 28.7695C80.8089 28.6705 82.3428 28.6705 83.8719 28.7695L89.1092 28.5005Z"
        fill="#96ABFF" />
    <path
        d="M78.5055 30.955C78.5055 30.955 78.8281 37.5307 77.2257 39.78C77.2257 39.78 73.9994 35.3245 72.0959 36.6159C72.0959 36.6159 65.8155 27.8554 77.785 25.3908C77.785 25.3908 77.9463 23.2384 83.2911 23.1523C88.6359 23.0662 89.5393 24.9174 89.5393 24.9174L88.3134 25.7137L91.2492 26.79C91.2492 26.79 91.8407 31.1702 88.4209 31.5146C85.001 31.859 79.4411 29.9433 78.5055 30.955Z"
        fill="#382A8C" />
    <path
        d="M83.9146 81.2033C84.2695 81.397 85.6354 82.3871 86.9905 86.197C87.6116 87.6987 87.8908 89.32 87.8078 90.9432C87.7325 91.4059 87.6572 91.6857 87.6572 91.6857C84.563 92.8299 81.3294 93.5539 78.0429 93.8382C72.6013 94.3117 69.2998 92.8911 68.6545 92.3853C66.7618 90.8786 67.8156 90.0499 67.8156 90.0499C67.8156 90.0499 66.7402 88.7046 67.2564 87.5638C67.6436 86.7351 69.0093 86.9611 69.0093 86.9611C68.8741 86.6887 68.8263 86.3813 68.8726 86.0807C68.9188 85.7801 69.0567 85.5013 69.2674 85.2822C70.031 84.658 73.3326 86.2292 75.0963 86.0463C76.1116 85.9534 77.1161 85.766 78.0967 85.4866C78.0967 85.4866 75.6663 84.3028 76.3545 83.3342C77.0428 82.3656 78.8925 82.9791 80.6562 82.4517C81.7737 82.1118 82.8545 81.6612 83.8825 81.1064L83.9146 81.2033Z"
        fill="#96ABFF" />
    <path
        d="M181.218 38.3164C181.218 38.3164 178.411 42.6967 178.831 43.3317C179.25 43.9666 180.81 43.3962 180.81 43.3962"
        stroke="#382A8C" stroke-width="0.52" stroke-linecap="round" stroke-linejoin="round" />
    <path
        d="M178.648 46.5926C179.213 46.9583 179.887 47.1173 180.555 47.0428C181.223 46.9682 181.845 46.6647 182.316 46.1836"
        stroke="#382A8C" stroke-width="0.52" stroke-linecap="round" stroke-linejoin="round" />
    <path d="M182.972 37.4875C182.972 37.4875 183.724 36.6373 186.295 38.0472" stroke="#382A8C"
        stroke-width="0.52" stroke-linecap="round" stroke-linejoin="round" />
    <path
        d="M180.391 37.1002C179.89 36.9373 179.351 36.9303 178.846 37.0801C178.341 37.23 177.894 37.5298 177.562 37.9397"
        stroke="#382A8C" stroke-width="0.52" stroke-linecap="round" stroke-linejoin="round" />
    <path
        d="M178.713 41.7056C179.218 41.7056 179.627 41.296 179.627 40.7908C179.627 40.2855 179.218 39.876 178.713 39.876C178.208 39.876 177.799 40.2855 177.799 40.7908C177.799 41.296 178.208 41.7056 178.713 41.7056Z"
        fill="#382A8C" />
    <path
        d="M183.391 42.1362C183.896 42.1362 184.305 41.7267 184.305 41.2214C184.305 40.7162 183.896 40.3066 183.391 40.3066C182.886 40.3066 182.477 40.7162 182.477 41.2214C182.477 41.7267 182.886 42.1362 183.391 42.1362Z"
        fill="#382A8C" />
    <path
        d="M83.7215 80.9349C83.7215 80.9349 82.2696 96.0989 87.8833 102.836C87.8833 102.836 91.4645 98.8756 103.38 97.3581C115.296 95.8406 123.587 93.0532 118.726 82.2909C113.866 71.5287 83.7215 80.9349 83.7215 80.9349Z"
        fill="white" />
    <path
        d="M182.584 77.0065C182.391 77.3616 181.767 78.9222 182.649 82.8827C182.93 84.4812 183.557 85.9985 184.488 87.3276C184.652 87.5183 184.828 87.698 185.015 87.8657C188.243 87.1917 191.365 86.0839 194.296 84.5724C199.157 82.0648 201.189 79.116 201.458 78.3303C202.265 76.0487 200.931 75.898 200.931 75.898C200.931 75.898 201.135 74.1867 200.082 73.5087C199.307 73.0137 198.275 73.9285 198.275 73.9285C198.275 73.9285 198.135 72.777 197.2 72.6586C196.264 72.5402 194.274 75.6182 192.683 76.4146C191.768 76.8531 190.819 77.2131 189.844 77.4908C189.844 77.4908 191.263 75.1877 190.188 74.768C189.112 74.3482 187.854 75.8442 186.09 76.307C184.975 76.6054 183.833 76.7929 182.681 76.8667L182.584 77.0065Z"
        fill="#96ABFF" />
    <path
        d="M184.327 75.7256C184.327 75.7256 187.273 91.0403 182.176 94.8932C177.078 98.7461 158.979 107.012 150.085 98.5093C141.191 90.0071 155.215 82.3013 166.593 80.6977C177.971 79.0942 184.327 75.7256 184.327 75.7256Z"
        fill="white" />
    <path
        d="M1.07474 125.286L11.5493 187.47C11.7613 188.723 12.4265 189.854 13.418 190.648C14.4096 191.442 15.6584 191.843 16.9264 191.775L93.7222 187.319C94.4377 187.277 95.1368 187.087 95.7752 186.761C96.4137 186.435 96.9775 185.98 97.4313 185.425C97.8851 184.87 98.2189 184.226 98.4115 183.535C98.6042 182.844 98.6517 182.121 98.5508 181.411L90.3561 123.682C90.1822 122.445 89.5671 121.313 88.6243 120.494C87.6815 119.675 86.4747 119.225 85.2264 119.227H6.15069C5.39911 119.231 4.6576 119.4 3.97753 119.72C3.29747 120.04 2.69512 120.505 2.21225 121.081C1.72939 121.658 1.3775 122.332 1.18107 123.058C0.98465 123.784 0.948419 124.544 1.07474 125.286V125.286Z"
        fill="url(#paint8_linear)" />
    <path
        d="M4.37645 125.286L14.851 187.47C15.0631 188.723 15.7282 189.854 16.7198 190.648C17.7113 191.442 18.9601 191.843 20.2281 191.775L97.0239 187.319C97.7394 187.277 98.4385 187.087 99.0769 186.761C99.7154 186.435 100.279 185.98 100.733 185.425C101.187 184.87 101.521 184.226 101.713 183.535C101.906 182.844 101.953 182.121 101.853 181.411L93.6578 123.682C93.4839 122.445 92.8689 121.313 91.9262 120.494C90.9834 119.675 89.7764 119.225 88.5281 119.227H9.4524C8.70083 119.231 7.95931 119.4 7.27925 119.72C6.59918 120.04 5.99683 120.505 5.51397 121.081C5.0311 121.658 4.67934 122.332 4.48292 123.058C4.28649 123.784 4.25013 124.544 4.37645 125.286V125.286Z"
        fill="url(#paint9_linear)" />
    <path d="M83.7207 80.9342C83.7207 80.9342 94.0125 77.4581 110.907 77.5334" stroke="#3756D4"
        stroke-width="0.87" stroke-linecap="round" stroke-linejoin="round" />
    <path
        d="M84.0117 92.3213C84.0117 92.3213 84.4096 99.3059 87.8832 102.836C91.2424 100.332 95.164 98.6916 99.3042 98.0575"
        stroke="#3756D4" stroke-width="0.87" stroke-linecap="round" stroke-linejoin="round" />
    <path
        d="M76.6028 172.234C84.6659 162.126 80.9522 145.743 68.308 135.642C55.6639 125.54 38.8774 125.546 30.8143 135.654C22.7513 145.762 26.4649 162.145 39.109 172.246C51.7532 182.347 68.5398 182.342 76.6028 172.234Z"
        fill="white" />
    <path d="M71.1498 154.096L41.124 139.094L47.9314 169.099L71.1498 154.096Z" fill="#3756D4" />
    <path d="M47.3184 95.9912C47.3184 95.9912 51.9749 77.5663 60.9546 71.873" stroke="#3756D4"
        stroke-width="0.87" stroke-linecap="round" stroke-linejoin="round" />
    <path d="M97.314 68.999C97.314 68.999 95.2491 74.4555 96.7009 78.3084" stroke="#3756D4"
        stroke-width="0.87" stroke-linecap="round" stroke-linejoin="round" />
    <path
        d="M67.5251 50.8428C67.0519 55.3737 68.7834 59.6893 72.171 61.9709C73.993 63.1694 76.1437 63.7678 78.3224 63.6822C78.8493 63.6822 84.1941 63.4023 86.7644 59.0328C87.6162 57.5601 88.0442 55.8802 88.0011 54.179"
        stroke="#3756D4" stroke-width="0.87" stroke-linecap="round" stroke-linejoin="round" />
    <path d="M159.774 82.3121C159.774 82.3121 174.465 79.5139 184.326 75.7256" stroke="#3756D4"
        stroke-width="0.87" stroke-linecap="round" stroke-linejoin="round" />
    <path d="M173.024 67.1055L169.367 80.2569" stroke="#3756D4" stroke-width="0.87"
        stroke-linecap="round" stroke-linejoin="round" />
    <path
        d="M170.281 100.586C170.281 100.586 180.369 96.5288 182.767 94.3333C185.165 92.1378 184.982 87.876 184.982 87.876"
        stroke="#3756D4" stroke-width="0.87" stroke-linecap="round" stroke-linejoin="round" />
    <path d="M208.19 80.2566C208.19 80.2566 203.803 74.5956 200.383 72.0342" stroke="#3756D4"
        stroke-width="0.87" stroke-linecap="round" stroke-linejoin="round" />
    <path d="M199.318 103.804C203.232 102.4 206.871 100.324 210.073 97.6699" stroke="#3756D4"
        stroke-width="0.87" stroke-linecap="round" stroke-linejoin="round" />
    <path
        d="M178.207 56.2568C178.207 56.2568 176.056 67.3204 186.165 66.5778C196.274 65.8352 197.07 53.6631 197.07 53.6631"
        stroke="#3756D4" stroke-width="0.87" stroke-linecap="round" stroke-linejoin="round" />
    <path
        d="M91.9908 110.757C91.9908 110.757 91.3886 119.227 95.002 125.2C98.6154 131.173 101.551 148.113 101.551 148.113"
        stroke="white" stroke-width="0.87" stroke-linecap="round" stroke-linejoin="round" />
    <path d="M101.949 111.51C101.949 111.51 113.316 132.507 116.554 145.949" stroke="white"
        stroke-width="0.87" stroke-linecap="round" stroke-linejoin="round" />
    <path
        d="M47.2534 122.433C46.8555 122.326 45.1994 122.057 41.543 123.8C40.0424 124.428 38.7012 125.384 37.6176 126.598C37.3488 126.975 37.209 127.223 37.209 127.223C38.5913 130.221 40.3711 133.019 42.5001 135.542C46.0275 139.728 49.3612 141.041 50.1785 141.138C52.5874 141.407 52.4262 140.062 52.4262 140.062C52.4262 140.062 54.1469 139.89 54.577 138.695C54.8782 137.834 53.7489 137.027 53.7489 137.027C53.7489 137.027 54.8243 136.64 54.749 135.66C54.6737 134.681 51.2109 133.508 50.0817 132.087C49.4259 131.302 48.8427 130.459 48.3396 129.569C48.3396 129.569 50.9098 130.451 51.0712 129.3C51.2325 128.148 49.5226 127.255 48.6622 125.651C48.1183 124.622 47.6787 123.54 47.3501 122.423V122.423L47.2534 122.433Z"
        fill="#96ABFF" />
    <path
        d="M33.1009 127.545C36.9644 128.09 40.9033 127.595 44.5117 126.11C48.1202 124.625 51.2679 122.204 53.6308 119.097C51.0043 116.554 48.9447 113.484 47.5869 110.089C40.4302 109.055 33.4015 107.273 26.6162 104.772C27.5349 112.664 29.7248 120.355 33.1009 127.545V127.545Z"
        fill="white" />
    <path
        d="M219.407 142.666L221.816 131C221.816 131 227.655 142.839 232.258 144.033C232.258 144.033 225.805 146.369 221.504 143.689C217.202 141.009 219.407 142.666 219.407 142.666Z"
        fill="url(#paint10_linear)" />
    <path
        d="M220.501 130.442L221.51 130.555L217.788 163.661L212.842 163.105L216.119 133.952C216.176 133.433 216.335 132.931 216.586 132.473C216.837 132.016 217.176 131.613 217.583 131.287C217.99 130.961 218.457 130.719 218.958 130.574C219.459 130.429 219.983 130.384 220.501 130.442V130.442Z"
        fill="white" />
    <path
        d="M211.668 170.249C215.35 170.249 218.335 167.262 218.335 163.577C218.335 159.892 215.35 156.904 211.668 156.904C207.985 156.904 205 159.892 205 163.577C205 167.262 207.985 170.249 211.668 170.249Z"
        fill="url(#paint11_linear)" />
    <path
        d="M136.61 110.864V134.832C136.072 134.905 135.53 134.941 134.986 134.939H133.18C131.563 134.987 129.952 134.71 128.444 134.124C126.936 133.539 125.561 132.656 124.4 131.528C123.239 130.401 122.317 129.051 121.686 127.56C121.056 126.069 120.731 124.467 120.731 122.848C120.731 121.229 121.056 119.626 121.686 118.135C122.317 116.644 123.239 115.295 124.4 114.167C125.561 113.04 126.936 112.157 128.444 111.571C129.952 110.985 131.563 110.708 133.18 110.756H134.986C135.53 110.754 136.072 110.79 136.61 110.864V110.864Z"
        fill="#96ABFF" />
    <path
        d="M147.063 122.81C147.064 125.734 146.005 128.56 144.083 130.762C142.161 132.965 139.506 134.395 136.61 134.789C136.072 134.862 135.53 134.898 134.986 134.896C133.369 134.944 131.759 134.667 130.251 134.081C128.743 133.496 127.368 132.613 126.207 131.485C125.046 130.358 124.123 129.008 123.493 127.517C122.863 126.026 122.538 124.424 122.538 122.805C122.538 121.186 122.863 119.583 123.493 118.092C124.123 116.601 125.046 115.252 126.207 114.124C127.368 112.997 128.743 112.114 130.251 111.528C131.759 110.942 133.369 110.665 134.986 110.713C135.53 110.711 136.072 110.747 136.61 110.821C139.507 111.217 142.162 112.649 144.084 114.854C146.006 117.058 147.064 119.885 147.063 122.81V122.81Z"
        fill="white" />
    <path
        d="M134.987 132.755C140.457 132.755 144.891 128.317 144.891 122.843C144.891 117.368 140.457 112.931 134.987 112.931C129.516 112.931 125.082 117.368 125.082 122.843C125.082 128.317 129.516 132.755 134.987 132.755Z"
        fill="#96ABFF" />
    <path
        d="M135.147 127.675L130.383 130.183L131.297 124.877L127.437 121.11L132.771 120.335L135.147 115.503L137.535 120.335L142.858 121.11L139.008 124.877L139.911 130.183L135.147 127.675Z"
        fill="white" />
    <path
        d="M155.903 136.64L164.689 164.073C164.203 164.318 163.7 164.527 163.183 164.697L161.463 165.246C155.128 167.269 148.009 162.727 145.557 155.075C144.377 151.538 144.457 147.701 145.783 144.216C146.356 142.67 147.265 141.271 148.444 140.119C149.623 138.967 151.043 138.091 152.601 137.554L154.322 137.006C154.838 136.842 155.367 136.719 155.903 136.64V136.64Z"
        fill="#96ABFF" />
    <path
        d="M170.282 147.176C172.53 154.182 170.056 161.371 164.743 164.073C164.258 164.318 163.755 164.527 163.238 164.697C156.893 166.72 149.774 162.178 147.332 154.527C144.891 146.875 148.031 139.04 154.376 137.006C154.893 136.842 155.422 136.719 155.957 136.64C161.797 135.725 167.98 140.159 170.282 147.176Z"
        fill="white" />
    <path
        d="M162.337 162.3C167.535 160.634 170.123 154.204 168.118 147.937C166.112 141.671 160.272 137.942 155.074 139.608C149.876 141.274 147.288 147.705 149.293 153.971C151.299 160.237 157.139 163.966 162.337 162.3Z"
        fill="#96ABFF" />
    <path
        d="M160.678 156.324L157.075 160.65L155.989 154.29L150.956 151.158L155.731 148.65L156.226 142.397L160.258 147.197L165.603 146.466L163.313 151.944L166.119 157.744L160.678 156.324Z"
        fill="white" />
    <path
        d="M125.762 170.298L114.879 204.317C115.479 204.622 116.101 204.881 116.739 205.092L118.89 205.77C126.741 208.289 135.57 202.649 138.614 193.168C140.079 188.778 139.976 184.016 138.323 179.693C137.616 177.775 136.49 176.039 135.028 174.611C133.566 173.183 131.804 172.099 129.87 171.439L127.719 170.761C127.079 170.561 126.425 170.407 125.762 170.298V170.298Z"
        fill="#96ABFF" />
    <path
        d="M108.006 183.363C105.221 192.059 108.275 200.96 114.878 204.317C115.478 204.622 116.1 204.881 116.739 205.092C124.6 207.611 133.429 201.96 136.462 192.49C139.495 183.019 135.58 173.279 127.73 170.761C127.085 170.561 126.428 170.406 125.762 170.298C118.449 169.2 110.781 174.667 108.006 183.363Z"
        fill="white" />
    <path
        d="M133.834 191.55C136.322 183.778 133.116 175.804 126.673 173.739C120.231 171.674 112.991 176.3 110.504 184.072C108.016 191.844 111.223 199.819 117.665 201.884C124.108 203.949 131.347 199.322 133.834 191.55Z"
        fill="#96ABFF" />
    <path
        d="M119.847 194.718L124.321 200.077L125.655 192.189L131.903 188.303L125.988 185.204L125.375 177.444L120.374 183.396L113.75 182.492L116.578 189.283L113.094 196.472L119.847 194.718Z"
        fill="white" />
    <path
        d="M257.567 209.243L194.009 214.409C193.976 215.177 194.033 215.947 194.181 216.701L194.698 219.231C196.569 228.561 212.453 234.954 230.187 233.523C239.037 232.802 246.673 230.294 251.856 226.732C257.04 223.17 259.782 218.682 258.846 214.022L258.341 211.492C258.173 210.715 257.913 209.96 257.567 209.243V209.243Z"
        fill="#96ABFF" />
    <path
        d="M222.841 197.2C206.602 198.524 194.461 205.982 194.009 214.42C193.976 215.188 194.033 215.957 194.181 216.712C196.063 226.043 211.947 232.447 229.67 231.004C247.393 229.562 260.212 220.834 258.341 211.503C258.18 210.726 257.927 209.971 257.588 209.254C253.803 201.161 239.145 195.887 222.841 197.2Z"
        fill="white" />
    <path
        d="M226.752 228.054C241.348 227.546 252.963 220.875 252.695 213.152C252.427 205.43 240.377 199.581 225.781 200.089C211.185 200.596 199.57 207.268 199.838 214.99C200.106 222.713 212.156 228.561 226.752 228.054Z"
        fill="#96ABFF" />
    <path
        d="M215.754 214.904L210.441 222.104L224.271 219.693L235.327 224.267L235.886 216.647L248.027 212.278L234.542 209.985L230.982 202.71L222.099 208.909L207.764 208.78L215.754 214.904Z"
        fill="white" />
    <path
        d="M67.6623 264.843L67.8773 264.757L68.0602 264.682H68.1462L68.4258 264.563L68.6085 264.488L69.3399 264.187H69.4474L70.2324 263.864L70.6841 263.681L71.0282 263.541L72.1036 263.089L73.3404 262.583L74.0287 262.303L75.857 261.561L76.5451 261.27L77.2765 260.969L78.6315 260.42L82.7719 258.72L83.4924 258.429L88.9986 256.169L90.074 255.728L100.731 251.423L101.732 251.003L113.561 246.16L114.142 245.912L136.339 236.808L136.758 236.635L139.662 235.452L141.425 234.73L141.834 234.569L145.372 233.116L145.899 232.89L157.481 228.144L157.825 228.004L160.202 227.036L160.342 226.971L161.03 226.691L161.482 226.508L164.138 225.432H164.289L165.041 225.12L165.773 224.818L165.956 224.743L166.235 224.635H166.321L166.493 224.571L166.719 224.474C167.085 224.345 167.085 223.936 166.257 223.613L145.017 215.531C144.296 215.26 143.514 215.197 142.759 215.348L36.744 253.338C34.7759 254.059 34.7006 254.974 35.8513 255.394L62.2421 265.446C64.0666 265.833 65.9672 265.622 67.6623 264.843Z"
        fill="#3756D4" />
    <path
        d="M172.86 227.917C172.86 227.788 172.86 227.616 172.785 227.498C172.71 227.379 172.677 227.11 172.624 226.949C172.423 226.414 172.136 225.916 171.774 225.474C171.591 225.246 171.394 225.031 171.183 224.829C171 224.667 170.742 224.452 170.537 224.301C170.312 224.142 170.079 223.995 169.838 223.86L169.462 223.656L168.677 223.311H168.612H168.677L166.526 222.504L164.375 221.697L162.224 220.89L160.073 220.072L157.923 219.265L155.772 218.457L153.621 217.65L151.47 216.843L149.319 216.036L147.168 215.229H147.093H147.168C146.892 215.115 146.608 215.022 146.319 214.949C145.965 214.847 145.606 214.765 145.243 214.701C144.682 214.602 144.114 214.545 143.544 214.529C143.544 214.529 143.039 214.529 142.587 214.529C142.135 214.529 141.985 214.529 141.63 214.637C141.383 214.672 141.139 214.723 140.899 214.788L140.329 214.96C138.705 215.498 136.608 216.294 135.027 216.865L129.725 218.759L113.82 224.463L103.216 228.262L97.9141 230.156L92.6124 232.05L87.3105 233.955L34.3032 252.94H34.3676H34.3032C33.937 253.071 33.578 253.222 33.2277 253.392C32.894 253.542 32.5706 253.715 32.2598 253.908C31.9665 254.091 31.6829 254.288 31.4102 254.5C31.2274 254.651 30.9909 254.855 30.8188 255.017C30.6467 255.178 30.5606 255.264 30.4638 255.372C30.2074 255.663 29.9771 255.977 29.7756 256.308C29.6788 256.47 29.5712 256.685 29.4959 256.846C29.4207 257.008 29.367 257.148 29.3132 257.277C29.2167 257.528 29.1446 257.787 29.098 258.052C29.0481 258.362 29.0194 258.674 29.012 258.988V260.14C28.996 260.329 28.996 260.52 29.012 260.71C29.012 260.85 29.012 261.033 29.0873 261.173C29.1625 261.313 29.1841 261.56 29.2378 261.733C29.2916 261.905 29.3454 262.034 29.3992 262.163C29.453 262.292 29.582 262.529 29.668 262.69C29.7723 262.882 29.891 263.065 30.023 263.239C30.2159 263.489 30.4241 263.726 30.6467 263.949L31.2275 264.455C31.335 264.552 31.5071 264.66 31.6254 264.746C31.8636 264.908 32.1113 265.055 32.3674 265.187C32.6255 265.316 32.9911 265.478 33.2707 265.585L35.9055 266.586L38.5403 267.598L41.1857 268.599L43.8206 269.6L46.4661 270.611L49.1009 271.612L51.7357 272.613L54.3812 273.625L57.016 274.626L59.6507 275.627C60.0023 275.759 60.3614 275.87 60.7262 275.96L61.1994 276.068L61.6725 276.165L62.1564 276.229C62.9654 276.337 63.7823 276.373 64.5977 276.337L65.6731 276.272L66.2 276.208C66.4581 276.208 67.0711 276.089 67.2754 276.046C67.8354 275.94 68.3885 275.799 68.9316 275.627L69.5553 275.422C69.7274 275.368 69.9317 275.282 70.093 275.218H70.2114H70.1038C105.033 263.691 136.145 248.129 169.171 234.59C169.559 234.418 169.72 234.332 170 234.181C170.279 234.03 170.419 233.923 170.58 233.804L170.914 233.546L171.355 233.126C171.55 232.918 171.733 232.699 171.903 232.47C172 232.319 172.129 232.126 172.204 231.986L172.441 231.49C172.495 231.357 172.542 231.22 172.581 231.082C172.639 230.909 172.685 230.733 172.72 230.554C172.72 230.296 172.785 229.952 172.806 229.693V228.542C172.842 228.335 172.86 228.127 172.86 227.917V227.917ZM142.748 215.143C143.504 214.992 144.286 215.055 145.007 215.326L166.246 223.408C167.074 223.731 167.074 224.14 166.709 224.269L166.483 224.366L166.311 224.431H166.225L165.945 224.538L165.762 224.614L165.031 224.915L164.278 225.227H164.128L162.353 225.959L161.472 226.325L161.02 226.508L160.332 226.787L160.192 226.852L157.815 227.821L157.471 227.961L156.546 228.337L145.889 232.707L145.362 232.933L141.824 234.386L141.415 234.547L139.651 235.268L136.748 236.452L136.328 236.624L121.595 242.672L120.767 243.006L119.014 243.727L115.616 245.126L114.132 245.729L113.551 245.977L111.4 246.848L101.721 250.82L100.721 251.239L90.0637 255.544L88.9882 255.985L83.4821 258.246L82.7615 258.536L80.2989 259.548L78.6212 260.237L77.2661 260.785L76.5349 261.087L75.8466 261.377L74.0183 262.12L73.3301 262.4L72.0934 262.906L71.018 263.358L70.6738 263.498L70.2221 263.68L69.437 264.003H69.3295L68.5983 264.305L68.4154 264.38L68.1358 264.498H68.0498L67.867 264.574L67.6519 264.66C65.9415 265.343 64.0583 265.463 62.2748 265.004L35.884 254.952C34.7333 254.533 34.8085 253.618 36.7765 252.897L142.748 215.143Z"
        fill="white" />
    <path
        d="M132.618 220.104L139.361 222.666C139.92 222.848 140.523 222.848 141.082 222.666L143.233 221.837C143.448 221.751 143.555 221.643 143.555 221.536V220.384H143.48L141.329 221.213C140.773 221.39 140.175 221.39 139.619 221.213L132.876 218.641H132.779V218.565V219.738C132.242 219.878 132.371 220.008 132.618 220.104Z"
        fill="#333333" />
    <path
        d="M127.477 222.881L129.209 223.537C130.541 223.968 131.974 223.968 133.306 223.537C133.833 223.344 134.091 223.085 134.091 222.816V221.74H134.027H133.941H133.833L133.64 221.815C132.305 222.222 130.877 222.204 129.553 221.762L127.822 221.105L127.607 221.008L127.488 220.944H127.424H127.327H127.262V220.89V220.825C127.262 220.825 127.262 220.825 127.262 220.771V221.945C126.585 222.364 126.886 222.655 127.477 222.881Z"
        fill="#333333" />
    <path
        d="M141.093 226.562C141.598 226.358 141.845 226.099 141.856 225.841V224.689C141.856 224.689 141.856 224.689 141.856 224.754H141.802H141.727H141.619L141.437 224.829C140.116 225.259 138.693 225.259 137.372 224.829L135.651 224.173L135.436 224.087L135.307 224.022L135.21 223.958H135.135V223.893V223.828C135.135 223.828 135.135 223.828 135.135 223.764C135.135 223.764 135.135 223.764 135.135 223.699V224.872C135.135 225.163 135.436 225.464 136.038 225.701L137.769 226.358C138.841 226.71 139.986 226.78 141.093 226.562V226.562Z"
        fill="#333333" />
    <path
        d="M156.224 225.216V225.324H156.149L153.998 226.174C153.45 226.357 152.857 226.357 152.309 226.174L145.566 223.602H145.47V223.505V224.678C145.47 224.807 145.599 224.936 145.857 225.033L152.6 227.594C153.148 227.777 153.74 227.777 154.288 227.594L156.439 226.734C156.643 226.658 156.74 226.551 156.74 226.443V225.259L156.224 225.216Z"
        fill="#333333" />
    <path
        d="M149.609 227.691V227.756H149.534H149.426L149.254 227.842C147.945 228.273 146.531 228.273 145.222 227.842L143.501 227.185L143.286 227.099H143.221L143.103 227.035H143.038H142.952H142.888L142.823 226.97V226.906V226.841C142.823 226.841 142.823 226.841 142.823 226.776C142.823 226.776 142.823 226.776 142.823 226.712V227.874C142.823 228.165 143.124 228.477 143.737 228.703L145.469 229.359C146.773 229.801 148.186 229.801 149.491 229.359C149.986 229.166 150.233 228.897 150.233 228.638V227.562L149.609 227.691Z"
        fill="#333333" />
    <path
        d="M135.909 227.089V227.153H135.845L135.759 227.218H135.651L135.458 227.304C134.108 227.739 132.656 227.739 131.306 227.304L129.553 226.637L129.349 226.551H129.285L129.166 226.486H129.102H129.005L128.93 226.421L128.876 226.357V226.292C128.881 226.271 128.881 226.249 128.876 226.228V226.163V227.336C128.876 227.637 129.177 227.939 129.79 228.165L131.543 228.832C132.888 229.273 134.339 229.273 135.683 228.832C136.221 228.628 136.479 228.359 136.479 228.09V226.906L135.909 227.089Z"
        fill="#333333" />
    <path
        d="M114.97 227.476L116.755 228.154C118.154 228.608 119.659 228.608 121.057 228.154C121.616 227.939 121.896 227.659 121.907 227.379V226.196V226.26L121.832 226.325L121.735 226.389L121.616 226.454H121.563L121.358 226.54C119.96 226.993 118.455 226.993 117.057 226.54L115.282 225.862L115.067 225.776H115.003L114.884 225.711H114.82H114.734H114.669L114.605 225.647H114.551C114.546 225.625 114.546 225.603 114.551 225.582V225.518V226.691C114.067 226.949 114.368 227.25 114.97 227.476Z"
        fill="#333333" />
    <path
        d="M129.844 229.382C129.844 229.382 129.844 229.382 129.844 229.435H129.779H129.725L129.639 229.5L129.532 229.565H129.467C129.407 229.602 129.342 229.631 129.274 229.651C127.901 230.102 126.42 230.102 125.047 229.651L123.262 228.973L123.047 228.887L122.918 228.822H122.853L122.767 228.757L122.692 228.693L122.628 228.628V228.564C122.623 228.542 122.623 228.52 122.628 228.499C122.628 228.499 122.628 228.499 122.628 228.445V229.618C122.628 229.92 122.929 230.221 123.542 230.458L125.316 231.136C126.693 231.582 128.176 231.582 129.553 231.136C130.102 230.921 130.37 230.641 130.37 230.361V229.177L129.844 229.382Z"
        fill="#333333" />
    <path
        d="M137.813 232.427V232.492H137.748L137.662 232.557L137.555 232.621L137.361 232.707C135.999 233.159 134.528 233.159 133.167 232.707L131.392 232.029L131.177 231.943H131.113L130.994 231.879H130.93L130.833 231.814L130.758 231.749V231.685V231.62V231.556V232.729C130.758 233.041 131.07 233.342 131.683 233.579L133.468 234.257C134.829 234.715 136.301 234.715 137.662 234.257C138.189 234.042 138.458 233.762 138.458 233.482V232.341C138.469 232.427 138.446 232.514 138.394 232.582C138.341 232.651 138.264 232.696 138.178 232.707C138.093 232.719 138.006 232.696 137.937 232.643C137.869 232.591 137.824 232.513 137.813 232.427Z"
        fill="#333333" />
    <path
        d="M74.2012 242.479L76.1368 243.222C77.7178 243.727 79.4168 243.727 80.9978 243.222C81.7075 242.953 82.0732 242.608 82.0732 242.275V241.123C82.0782 241.159 82.0782 241.195 82.0732 241.231V241.231C82.0751 241.266 82.0751 241.302 82.0732 241.338V241.338C82.0517 241.377 82.0266 241.413 81.998 241.446V241.446L81.8904 241.554L81.7506 241.661L81.5893 241.758L81.3957 241.855L81.1591 241.952C79.5782 242.458 77.879 242.458 76.2982 241.952L74.3625 241.22L74.1366 241.123H74.0721L73.9431 241.048H73.8785L73.7817 240.983V240.929L73.7065 240.865V240.8C73.7065 240.8 73.7065 240.8 73.7065 240.736C73.7018 240.714 73.7018 240.692 73.7065 240.671C73.7065 240.671 73.7065 240.671 73.7065 240.606V241.747C73.2656 241.909 73.5774 242.242 74.2012 242.479Z"
        fill="#333333" />
    <path
        d="M92.3331 235.72C92.8035 235.881 93.2987 235.958 93.7957 235.946H95.1938C95.8458 235.985 96.4953 235.836 97.065 235.516C97.7269 235.04 98.4505 234.656 99.2158 234.375C100.202 234.022 101.216 233.756 102.248 233.579C102.947 233.46 103.324 233.191 103.324 232.901V231.728C103.324 232.007 102.883 232.276 102.184 232.406C101.151 232.579 100.136 232.845 99.1512 233.202C98.3822 233.474 97.6574 233.859 97.0004 234.343C96.4328 234.658 95.7882 234.807 95.14 234.773H93.7312C93.2343 234.783 92.7393 234.707 92.2685 234.547L92.1503 234.493H92.075H91.989L91.9137 234.429V234.375V234.31V234.246V235.419C91.7524 235.387 91.9675 235.58 92.3331 235.72Z"
        fill="#333333" />
    <path
        d="M111.239 233.46C111.41 233.522 111.586 233.569 111.766 233.6C112.766 233.777 113.749 234.043 114.702 234.397C115.468 234.646 116.193 235.009 116.853 235.473C116.967 235.557 117.094 235.622 117.229 235.667C117.678 235.823 118.151 235.899 118.627 235.893H119.961C121.036 235.893 121.896 235.538 121.896 235.15V233.966C121.896 233.966 121.896 233.966 121.896 234.031V234.095H121.832H121.746H121.66H121.552H121.445H121.316H121.176H121.025H120.864H120.713H118.961C118.482 234.106 118.005 234.033 117.552 233.88C117.418 233.828 117.292 233.759 117.175 233.676C116.518 233.209 115.792 232.846 115.024 232.599C114.068 232.246 113.082 231.98 112.078 231.803C111.901 231.769 111.729 231.718 111.562 231.652C111.185 231.512 110.97 231.329 110.97 231.125V232.298C110.615 233.127 110.873 233.299 111.239 233.46Z"
        fill="#333333" />
    <path
        d="M113.841 237.248V236.172V236.237C113.841 236.237 113.841 236.237 113.841 236.301C113.841 236.366 113.841 236.301 113.841 236.355C113.836 236.376 113.836 236.398 113.841 236.42V236.484V236.549V236.613L113.776 236.678H113.712L113.637 236.742H113.572L113.486 236.807H113.411L113.314 236.871H113.239L113.131 236.936H113.056L112.938 237.001H112.852L112.712 237.076H112.637L112.411 237.173C109.361 238.174 106.072 238.174 103.022 237.173L102.786 237.087H102.71C102.664 237.055 102.613 237.03 102.56 237.011H102.485L102.355 236.947H102.28L102.173 236.882H102.097H102.001H101.925L101.839 236.818H101.775L101.699 236.753H101.635H101.57H101.517L101.452 236.689V236.624V236.559V236.506V236.441V236.376C101.452 236.376 101.452 236.376 101.452 236.312C101.452 236.312 101.452 236.312 101.452 236.247C101.452 236.183 101.452 236.247 101.452 236.183C101.452 236.183 101.452 236.183 101.452 236.129V237.302C101.452 237.948 102.087 238.593 103.377 239.089C106.431 240.084 109.722 240.084 112.776 239.089C113.207 238.529 113.841 237.883 113.841 237.248Z"
        fill="#333333" />
    <path
        d="M100.388 242.027C98.6152 241.763 96.8745 241.316 95.1938 240.693C93.916 240.255 92.7308 239.584 91.6986 238.712L91.6341 238.648C91.6285 238.623 91.6285 238.597 91.6341 238.573V238.573V238.508C91.6341 238.508 91.6341 238.508 91.6341 238.443V239.616C91.6363 239.674 91.6509 239.731 91.6768 239.783C91.7028 239.835 91.7396 239.881 91.7846 239.918C92.821 240.783 94.005 241.454 95.2797 241.898C96.9663 242.512 98.7099 242.955 100.485 243.222C101.851 243.437 103.378 243.039 103.388 242.458V241.285C103.281 241.833 101.754 242.242 100.388 242.027Z"
        fill="#333333" />
    <path
        d="M82.041 243.867V245.051C82.041 245.363 82.3529 245.686 82.9766 245.923L84.9123 246.665C86.4846 247.155 88.1715 247.132 89.7302 246.601C90.4184 246.343 90.8056 245.998 90.8056 245.654V244.481C90.8056 244.481 90.8056 244.481 90.8056 244.545C90.8122 244.563 90.8122 244.582 90.8056 244.599C90.8102 244.624 90.8102 244.649 90.8056 244.674V244.739V244.793L90.7411 244.868L90.6658 244.933H90.6013L90.4938 244.997H90.4184L90.2786 245.073H90.2142L89.9776 245.18C88.4122 245.691 86.7251 245.691 85.1596 245.18L83.224 244.448L82.998 244.352H82.9336L82.8045 244.276H82.7399L82.6432 244.212H82.5787L82.5034 244.147V244.093V244.029V243.964C82.5034 243.964 82.041 243.889 82.041 243.867Z"
        fill="#333333" />
    <path
        d="M99.4307 247.763C99.4244 247.788 99.4244 247.814 99.4307 247.838C99.4338 247.86 99.4338 247.882 99.4307 247.903V247.903L99.3663 247.978L99.2802 248.043L99.1726 248.108H99.1082L98.9684 248.172H98.9038L98.6672 248.269C97.1292 248.81 95.4574 248.836 93.9031 248.344L91.9566 247.613L91.7307 247.516H91.6662L91.5372 247.451H91.4726L91.3759 247.386H91.3114L91.236 247.322V247.257V247.204C91.2325 247.179 91.2325 247.153 91.236 247.128V247.064V247.01V248.183C91.236 248.516 91.5587 248.829 92.1932 249.076L94.129 249.819C95.6866 250.313 97.3625 250.286 98.9038 249.743C99.5706 249.474 99.904 249.13 99.904 248.786V247.613C99.904 247.613 99.4307 247.742 99.4307 247.763Z"
        fill="#333333" />
    <path
        d="M66.4369 245.331L68.4048 246.084C70.0301 246.583 71.7699 246.564 73.384 246.03C74.1261 245.751 74.4595 245.395 74.4595 245.04V243.964V244.072C74.446 244.113 74.4279 244.153 74.4056 244.19V244.19L74.3304 244.298L74.2229 244.405L74.0939 244.513L73.9217 244.61L73.7173 244.717L73.47 244.814C71.8549 245.336 70.1167 245.336 68.5016 244.814L66.5336 244.072L66.3186 243.986L66.1465 243.899L66.0067 243.803L65.8884 243.706C65.8542 243.679 65.825 243.646 65.8023 243.609C65.7737 243.582 65.7517 243.549 65.7378 243.512C65.7333 243.48 65.7333 243.447 65.7378 243.415C65.7378 243.415 65.7378 243.351 65.7378 243.308V244.491C65.512 244.782 65.8131 245.137 66.4369 245.331Z"
        fill="#333333" />
    <path
        d="M82.2347 249.442C82.9553 249.162 83.3101 248.807 83.3101 248.452V247.376C83.3101 247.376 83.3101 247.451 83.3101 247.483C83.3144 247.519 83.3144 247.555 83.3101 247.591V247.591L83.2349 247.709L83.138 247.817L82.9982 247.935L82.8263 248.032L82.6219 248.14L82.3745 248.247C80.7809 248.79 79.0565 248.812 77.4492 248.312L75.4811 247.569L75.2553 247.473H75.1908L75.0616 247.408H74.9972L74.9004 247.343H74.8358L74.7606 247.279V247.204V247.139C74.7606 247.139 74.7606 247.139 74.7606 247.074C74.7556 247.053 74.7556 247.031 74.7606 247.01C74.7606 247.01 74.7606 247.01 74.7606 247.01V248.194C74.7606 248.516 75.0725 248.839 75.707 249.076L77.675 249.829C79.2003 250.145 80.7845 250.011 82.2347 249.442Z"
        fill="#333333" />
    <path
        d="M58.4357 248.28L60.4359 249.033C62.1002 249.544 63.8826 249.522 65.5334 248.969C66.297 248.678 66.695 248.312 66.695 247.892V246.913H66.6304H66.5659H66.4906H66.4046H66.2648C64.6139 247.466 62.8316 247.489 61.1673 246.977L59.167 246.213L58.9626 246.127L58.7906 246.041L58.6508 245.944L58.5432 245.847L58.4572 245.751L58.3926 245.654C58.3866 245.618 58.3866 245.582 58.3926 245.546V245.546C58.3873 245.507 58.3873 245.467 58.3926 245.428V246.601C57.5 247.72 57.8119 248.043 58.4357 248.28Z"
        fill="#333333" />
    <path
        d="M75.6319 250.357C75.6357 250.393 75.6357 250.429 75.6319 250.464V250.464C75.6104 250.503 75.5853 250.539 75.5566 250.572V250.572L75.4491 250.68C75.4086 250.722 75.3655 250.761 75.3201 250.798V250.798L75.148 250.906L74.9436 251.013L74.6963 251.121C73.0661 251.681 71.3009 251.711 69.6526 251.207L67.6523 250.443L67.4372 250.357L67.2651 250.271L67.1146 250.174L67.007 250.066L66.921 249.969C66.8924 249.942 66.8704 249.909 66.8565 249.873V249.873V249.765C66.8512 249.726 66.8512 249.686 66.8565 249.646V249.646V250.83C66.8565 251.153 67.1575 251.476 67.8028 251.724L69.7924 252.477C71.4436 252.987 73.214 252.956 74.8468 252.391C75.5889 252.1 75.9222 251.734 75.9222 251.315V250.174C75.9222 250.174 75.6426 250.314 75.6319 250.357Z"
        fill="#333333" />
    <path
        d="M84.6111 253.661C84.6161 253.697 84.6161 253.733 84.6111 253.769V253.769C84.6154 253.805 84.6154 253.841 84.6111 253.876L84.5359 253.995L84.4284 254.113L84.2886 254.221L84.1165 254.339L83.9122 254.458L83.6755 254.565C82.0633 255.137 80.3102 255.175 78.6749 254.673L76.6745 253.909L76.4487 253.812L76.266 253.715L76.1154 253.618L75.9971 253.521L75.9002 253.424L75.8358 253.317C75.8315 253.281 75.8315 253.245 75.8358 253.209C75.8308 253.173 75.8308 253.137 75.8358 253.102V253.102V254.285C75.8358 254.619 76.1477 254.953 76.7929 255.189L78.7932 255.954C80.4277 256.461 82.1827 256.423 83.7939 255.846C84.5252 255.555 84.8693 255.189 84.8693 254.77V253.693L84.6111 253.661Z"
        fill="#333333" />
    <path
        d="M58.6404 249.765V249.83C58.639 249.855 58.639 249.88 58.6404 249.905V249.905H58.5758H58.5113H58.4252H58.2746C56.588 250.477 54.7656 250.511 53.0589 250.002L51.0263 249.227L50.8221 249.141L50.65 249.044L50.5101 248.958L50.3919 248.861L50.3059 248.754L50.2413 248.646C50.2368 248.607 50.2368 248.567 50.2413 248.528V248.528C50.236 248.488 50.236 248.448 50.2413 248.409V248.409V249.582C50.2413 249.905 50.5532 250.228 51.1769 250.465L53.2095 251.24C54.9184 251.754 56.7449 251.724 58.436 251.153C59.2425 250.852 59.6512 250.465 59.6512 250.077L58.6404 249.765Z"
        fill="#333333" />
    <path
        d="M67.7374 253.241V253.338H67.6728H67.6084H67.5224H67.3826C65.7122 253.915 63.9027 253.953 62.2098 253.445L60.1772 252.67L59.9622 252.574L59.7901 252.477L59.6395 252.38L59.5212 252.283L59.4352 252.186L59.3706 252.089C59.3663 252.054 59.3663 252.017 59.3706 251.982V251.982C59.3647 251.942 59.3647 251.903 59.3706 251.863V251.863V253.047C59.3706 253.381 59.6825 253.704 60.3278 253.94L62.3603 254.715C64.0525 255.228 65.8636 255.19 67.533 254.608C68.3073 254.306 68.7053 253.919 68.7053 253.531L67.7374 253.241Z"
        fill="#333333" />
    <path
        d="M76.8361 256.782V256.879V256.954H76.7717H76.7071H76.6426H76.5565H76.4275C74.776 257.549 72.9769 257.594 71.2977 257.083L69.2653 256.308L69.0501 256.211L68.8674 256.114L68.7276 256.018L68.6091 255.91L68.5232 255.802C68.4961 255.77 68.4744 255.734 68.4587 255.695V255.695C68.4544 255.659 68.4544 255.623 68.4587 255.587V255.587C68.4539 255.548 68.4539 255.508 68.4587 255.469V256.642C68.4587 256.986 68.7812 257.309 69.4265 257.557L71.459 258.332C73.1341 258.841 74.9283 258.8 76.578 258.213C77.3416 257.901 77.7181 257.514 77.7181 257.137V256.061L76.8361 256.782Z"
        fill="#333333" />
    <path
        d="M122.014 238.357V238.443V238.507C121.032 239.353 119.907 240.016 118.691 240.466C117.076 241.095 115.4 241.556 113.691 241.844C112.944 241.981 112.175 241.929 111.454 241.693C111.088 241.553 110.852 241.359 110.852 241.133V242.307C110.852 242.533 111.088 242.726 111.454 242.866C112.171 243.107 112.937 243.159 113.68 243.017C115.393 242.734 117.072 242.276 118.691 241.65C119.907 241.204 121.03 240.536 122.004 239.681C122.048 239.646 122.085 239.602 122.111 239.552C122.137 239.502 122.152 239.446 122.154 239.39V238.217C122.154 238.217 122.014 238.335 122.014 238.357Z"
        fill="#333333" />
    <path
        d="M132.253 218.609V218.663H132.349L139.092 221.235C139.648 221.412 140.246 221.412 140.802 221.235L142.953 220.406H143.028C143.028 220.277 142.91 220.148 142.652 220.04L135.963 217.5C135.407 217.323 134.809 217.323 134.253 217.5L132.016 218.307C131.79 218.393 131.683 218.512 131.683 218.619L132.253 218.609Z"
        fill="white" />
    <path
        d="M126.596 220.966C126.596 220.966 126.596 220.966 126.596 221.02V221.084V221.138H126.66H126.757H126.822L126.94 221.203L127.155 221.299L128.886 221.956C130.21 222.398 131.638 222.417 132.973 222.01L133.167 221.934H133.274H133.36H133.425C133.425 221.633 133.156 221.321 132.532 221.084L130.822 220.438C129.5 219.993 128.071 219.97 126.736 220.374C126.187 220.568 125.918 220.837 125.929 221.116L126.596 220.966Z"
        fill="white" />
    <path
        d="M134.403 223.936C134.403 223.936 134.403 223.936 134.403 224V224.065V224.13H134.478L134.575 224.194L134.704 224.259L134.919 224.345L136.64 225.001C137.961 225.431 139.384 225.431 140.705 225.001L140.888 224.926H140.995H141.071H141.124C141.124 224.926 141.124 224.926 141.124 224.861C141.124 224.797 141.124 224.861 141.124 224.861C141.124 224.56 140.845 224.248 140.221 224L138.501 223.355C137.182 222.93 135.764 222.93 134.446 223.355C133.919 223.559 133.661 223.828 133.661 224.097C134.392 223.893 134.403 223.914 134.403 223.936Z"
        fill="white" />
    <path
        d="M145.029 223.462V223.527H145.125L151.868 226.099C152.416 226.282 153.009 226.282 153.557 226.099L155.708 225.249H155.783V225.141C155.783 225.012 155.665 224.883 155.396 224.775L148.717 222.235C148.168 222.058 147.578 222.058 147.029 222.235L144.878 223.064C144.663 223.15 144.555 223.269 144.566 223.376L145.029 223.462Z"
        fill="white" />
    <path
        d="M142.211 226.906C142.211 226.906 142.211 226.906 142.211 226.971V227.036V227.1L142.275 227.165H142.34H142.426H142.491L142.609 227.229H142.673L142.888 227.315L144.609 227.972C145.919 228.403 147.332 228.403 148.642 227.972L148.814 227.886H148.922H148.997V227.821C148.997 227.509 148.717 227.197 148.083 226.96L146.373 226.304C145.066 225.879 143.658 225.879 142.351 226.304C141.824 226.508 141.576 226.788 141.587 227.057C142.2 226.842 142.211 226.842 142.211 226.906Z"
        fill="white" />
    <path
        d="M120.423 223.225V223.29V223.354V223.419C120.448 223.424 120.473 223.424 120.498 223.419L120.584 223.483H120.649L120.767 223.548H120.831L121.036 223.634L122.789 224.301C124.149 224.737 125.612 224.737 126.972 224.301L127.166 224.215H127.23L127.338 224.161H127.424H127.488L127.542 224.108C127.542 224.108 127.542 224.108 127.542 224.054C127.542 223.753 127.273 223.43 126.639 223.193L124.907 222.536C123.556 222.085 122.099 222.063 120.735 222.472C120.165 222.687 119.885 222.956 119.896 223.236L120.423 223.225Z"
        fill="white" />
    <path
        d="M130.134 231.652V231.717V231.781L130.209 231.846L130.306 231.91H130.37L130.489 231.975H130.553L130.768 232.061L132.543 232.739C133.904 233.191 135.375 233.191 136.737 232.739L136.93 232.653L137.038 232.588L137.124 232.524H137.188V232.459C137.188 232.136 136.909 231.813 136.264 231.566L134.5 230.899C133.141 230.452 131.675 230.452 130.317 230.899C129.757 231.125 129.489 231.404 129.499 231.695L130.134 231.652Z"
        fill="white" />
    <path
        d="M73.3084 240.607C73.3084 240.607 73.3084 240.607 73.3084 240.671V240.736L73.3836 240.801V240.854L73.4804 240.919H73.5449L73.674 240.994H73.7384L73.9644 241.091L75.9 241.823C77.4809 242.329 79.1801 242.329 80.761 241.823L80.9975 241.726L81.1912 241.629L81.3525 241.532L81.4923 241.425L81.5998 241.317C81.6285 241.284 81.6536 241.248 81.675 241.21V241.21C81.677 241.174 81.677 241.138 81.675 241.102C81.6801 241.066 81.6801 241.03 81.675 240.994V240.994C81.675 240.661 81.3955 240.338 80.7502 240.101L78.8359 239.369C77.2578 238.869 75.5639 238.869 73.9858 239.369C73.233 239.649 72.9103 240.015 72.9103 240.37C72.9103 240.37 72.9103 240.37 72.9103 240.435C72.8875 240.487 72.8867 240.547 72.9079 240.601C72.929 240.654 72.9706 240.697 73.0234 240.72C73.0761 240.743 73.1357 240.744 73.1892 240.722C73.2426 240.701 73.2856 240.66 73.3084 240.607V240.607Z"
        fill="white" />
    <path
        d="M91.7629 234.085V234.15V234.214V234.268L91.8383 234.332H91.9243H91.9995L92.1179 234.386C92.5887 234.546 93.0835 234.622 93.5805 234.612H94.9892C95.6374 234.646 96.2821 234.497 96.8496 234.182C97.5067 233.698 98.2314 233.313 99.0005 233.041C99.9852 232.684 101 232.418 102.033 232.245C102.732 232.115 103.109 231.846 103.173 231.567V231.05C103.173 230.835 102.947 230.652 102.582 230.512C101.887 230.292 101.152 230.233 100.431 230.34C98.6847 230.6 96.9671 231.025 95.3011 231.61C94.0068 232.046 92.7932 232.694 91.7092 233.525C91.6558 233.564 91.6117 233.614 91.5801 233.671C91.5484 233.729 91.53 233.793 91.5264 233.859L91.7629 234.085Z"
        fill="white" />
    <path
        d="M111.249 232.277C111.416 232.343 111.589 232.393 111.765 232.427C112.769 232.604 113.756 232.871 114.712 233.224C115.48 233.47 116.205 233.833 116.863 234.3C116.979 234.384 117.106 234.452 117.239 234.505C117.693 234.657 118.169 234.73 118.648 234.72H120.401H120.551H120.713H120.863H121.003H121.132H121.24H121.347H121.433H121.519H121.584V234.655C121.584 234.655 121.584 234.655 121.584 234.591C121.58 234.529 121.562 234.469 121.533 234.416C121.503 234.362 121.462 234.315 121.412 234.279C120.403 233.464 119.26 232.83 118.035 232.406C116.443 231.816 114.797 231.383 113.12 231.114C111.819 230.899 110.378 231.265 110.378 231.803V232.309C110.615 231.954 110.873 232.137 111.249 232.277Z"
        fill="white" />
    <path
        d="M100.645 236.269C100.645 236.269 100.645 236.269 100.645 236.334C100.645 236.334 100.645 236.334 100.645 236.398V236.463V236.527V236.581V236.646V236.71L100.71 236.775H100.764H100.828H100.893L100.968 236.84H101.033L101.119 236.904H101.194H101.291H101.366L101.474 236.969H101.549L101.678 237.033H101.753C101.806 237.052 101.857 237.077 101.904 237.109H101.979L102.216 237.195C105.265 238.196 108.555 238.196 111.604 237.195L111.83 237.098H111.905L112.045 237.022H112.131L112.249 236.958H112.324L112.432 236.893H112.507L112.604 236.829H112.679L112.765 236.764H112.83L112.905 236.7H112.97L113.034 236.635V236.571V236.506V236.441C113.03 236.42 113.03 236.398 113.034 236.377C113.034 236.377 113.034 236.377 113.034 236.323C113.034 236.269 113.034 236.323 113.034 236.258V236.194C113.034 235.527 112.432 234.859 111.109 234.353C108.088 233.385 104.839 233.385 101.818 234.353C100.452 234.859 99.7851 235.537 99.8281 236.215C99.8281 236.215 100.645 236.248 100.645 236.269Z"
        fill="white" />
    <path
        d="M102.711 240.165C102.534 240.094 102.35 240.044 102.163 240.014C101.121 239.837 100.099 239.563 99.1084 239.196C98.3357 238.922 97.6102 238.53 96.9575 238.034C96.8409 237.944 96.7099 237.875 96.5703 237.829C96.1016 237.661 95.6052 237.585 95.1077 237.603H93.6882C92.473 237.603 91.5374 237.991 91.5374 238.421C91.5374 238.421 91.5374 238.421 91.5374 238.486V238.55C91.5318 238.575 91.5318 238.601 91.5374 238.626V238.626L91.6018 238.69C92.634 239.562 93.8192 240.233 95.0969 240.671C96.7777 241.294 98.5185 241.741 100.291 242.005C101.657 242.22 103.184 241.811 103.195 241.241V240.703C103.302 240.509 103.087 240.305 102.711 240.165Z"
        fill="white" />
    <path
        d="M82.0304 243.814C82.0304 243.814 82.0304 243.814 82.0304 243.878C82.0304 243.943 82.0304 243.878 82.0304 243.878V243.943V244.008V244.061L82.1056 244.126H82.1702L82.2669 244.191H82.3314L82.4604 244.266H82.525L82.7508 244.363L84.6866 245.095C86.2521 245.605 87.939 245.605 89.5045 245.095L89.741 244.987H89.8056L89.9454 244.912H90.0207L90.1282 244.847H90.1928L90.268 244.783L90.3326 244.707V244.653V244.589C90.3372 244.564 90.3372 244.538 90.3326 244.513C90.3392 244.496 90.3392 244.477 90.3326 244.46C90.3326 244.46 90.3326 244.46 90.3326 244.395C90.3326 244.061 90.0315 243.739 89.397 243.502L87.4719 242.77C85.9131 242.264 84.2344 242.264 82.6756 242.77C82.353 243.082 81.9981 243.448 82.0304 243.814Z"
        fill="white" />
    <path
        d="M90.8052 247.289C90.8017 247.314 90.8017 247.34 90.8052 247.365V247.418V247.483L90.8806 247.548H90.9451L91.0419 247.612H91.1064L91.2354 247.677H91.3L91.5258 247.774L93.4724 248.505C95.0267 248.997 96.6984 248.971 98.2364 248.43L98.473 248.333H98.5376L98.6774 248.269H98.7418L98.8495 248.204L98.9355 248.14L98.9999 248.064C99.003 248.043 99.003 248.021 98.9999 248C98.9936 247.975 98.9936 247.949 98.9999 247.924C98.9999 247.924 98.9999 247.924 98.9999 247.849C98.9999 247.526 98.6882 247.192 98.0429 246.956L96.1286 246.224C94.5759 245.731 92.9057 245.749 91.3645 246.278C90.644 246.568 90.2891 246.934 90.2891 247.3V247.354L90.8052 247.289Z"
        fill="white" />
    <path
        d="M65.5228 243.394C65.5182 243.426 65.5182 243.459 65.5228 243.491C65.5366 243.528 65.5588 243.561 65.5873 243.588V243.588C65.61 243.625 65.6391 243.658 65.6733 243.685V243.685L65.7916 243.781L65.9314 243.878L66.1035 243.964L66.3187 244.05L68.2867 244.793C69.9018 245.315 71.64 245.315 73.2551 244.793L73.5024 244.696L73.7068 244.589L73.8788 244.492L74.0078 244.384L74.1155 244.276L74.1907 244.169C74.213 244.132 74.2311 244.092 74.2445 244.05V243.943C74.2445 243.609 73.9649 243.286 73.3089 243.039L71.3623 242.296C69.7492 241.785 68.0178 241.785 66.4047 242.296C65.6411 242.576 65.2539 242.942 65.2539 243.297C65.512 243.329 65.5228 243.362 65.5228 243.394Z"
        fill="white" />
    <path
        d="M74.4273 246.827V246.891V246.967L74.5027 247.031H74.5671L74.6639 247.096H74.7285L74.8575 247.16H74.9221L75.1479 247.257L77.1159 248C78.7232 248.5 80.4477 248.478 82.0414 247.935L82.2887 247.828L82.493 247.72L82.6651 247.623L82.8049 247.505L82.9016 247.397L82.977 247.279C82.9813 247.243 82.9813 247.207 82.977 247.171V247.171C82.977 247.171 82.977 247.096 82.977 247.064C82.977 246.73 82.6866 246.396 82.0306 246.149L80.084 245.406C78.4796 244.911 76.7603 244.934 75.1694 245.471C74.4059 245.761 74.0295 246.138 74.094 246.547C74.089 246.568 74.089 246.59 74.094 246.612C74.094 246.612 74.4273 246.805 74.4273 246.827Z"
        fill="white" />
    <path
        d="M83.3207 250.206V250.282V250.335L83.3853 250.4L83.4605 250.464H83.5251L83.6218 250.529H83.6863L83.8153 250.594H83.8799L84.1057 250.691L86.0738 251.444C87.6716 251.943 89.3876 251.913 90.9669 251.358L91.2035 251.25H91.2788L91.4186 251.175H91.4831L91.5907 251.1C91.5907 251.1 91.5907 251.1 91.6552 251.1L91.7412 251.035L91.8058 250.96V250.884C91.8093 250.859 91.8093 250.834 91.8058 250.809C91.8108 250.788 91.8108 250.766 91.8058 250.744C91.8058 250.744 91.8058 250.744 91.8058 250.68C91.8058 250.346 91.4939 250.013 90.8486 249.765L88.9022 249.022C87.3113 248.531 85.6054 248.557 84.0305 249.098C83.2777 249.388 82.9551 249.776 82.9551 250.174C82.9551 250.174 82.9551 250.174 82.9551 250.238C82.9594 250.287 82.9827 250.332 83.0201 250.363C83.0574 250.394 83.1055 250.41 83.154 250.405C83.2024 250.401 83.2473 250.378 83.2785 250.34C83.3098 250.303 83.325 250.255 83.3207 250.206Z"
        fill="white" />
    <path
        d="M57.5215 246.343C57.5155 246.379 57.5155 246.415 57.5215 246.451V246.451L57.586 246.547L57.6721 246.644L57.7796 246.741L57.9194 246.838L58.0915 246.924L58.2958 247.01L60.2961 247.774C61.9604 248.285 63.7427 248.263 65.3935 247.71H65.5333H65.6195H65.6947H65.7593H65.8237V247.527C65.8237 247.204 65.5334 246.87 64.8881 246.634L62.9094 245.88C61.2575 245.359 59.4854 245.359 57.8334 245.88C57.0376 246.171 56.629 246.547 56.6397 246.956C56.6344 246.996 56.6344 247.036 56.6397 247.075L57.5215 246.343Z"
        fill="white" />
    <path
        d="M74.7065 249.292L72.7277 248.539C71.0834 248.037 69.3233 248.063 67.6947 248.614C66.9204 248.904 66.5333 249.281 66.5333 249.69C66.528 249.729 66.528 249.769 66.5333 249.808V249.808V249.916C66.5471 249.953 66.5691 249.986 66.5977 250.013V250.013L66.6839 250.11L66.7914 250.217L66.9419 250.314L67.1141 250.4L67.3291 250.487L69.3293 251.251C70.9776 251.755 72.743 251.725 74.3731 251.165L74.6205 251.057L74.8247 250.949L74.9968 250.842C75.0423 250.805 75.0854 250.765 75.1259 250.723V250.723L75.2334 250.616C75.262 250.582 75.2873 250.546 75.3088 250.508V250.508C75.3126 250.472 75.3126 250.436 75.3088 250.4V250.4C75.3088 250.4 75.3088 250.325 75.3088 250.282C75.6744 249.884 75.3625 249.55 74.7065 249.292Z"
        fill="white" />
    <path
        d="M75.5775 253.187C75.5732 253.223 75.5732 253.259 75.5775 253.295L75.6419 253.403L75.7387 253.499L75.8571 253.596L76.0076 253.693L76.1904 253.79L76.4162 253.887L78.4166 254.651C80.0519 255.153 81.8051 255.115 83.4172 254.543L83.6539 254.436L83.8582 254.317L84.0303 254.199L84.1701 254.091L84.2776 253.973L84.3528 253.855C84.3571 253.819 84.3571 253.783 84.3528 253.747V253.747C84.3578 253.711 84.3578 253.675 84.3528 253.639V253.639C84.3528 253.295 84.0517 252.951 83.3957 252.703L81.4169 251.95C79.7869 251.446 78.0387 251.476 76.427 252.036C75.6742 252.337 75.3516 252.714 75.3516 253.112C75.4171 253.16 75.4962 253.187 75.5775 253.187V253.187Z"
        fill="white" />
    <path
        d="M49.2511 249.377C49.2467 249.416 49.2467 249.456 49.2511 249.496V249.496L49.3157 249.603L49.4017 249.711L49.52 249.808L49.6598 249.894L49.8319 249.991L50.0363 250.077L52.0689 250.852C53.7756 251.36 55.5979 251.326 57.2846 250.755H57.4352H57.5212H57.5856H57.6502C57.6488 250.73 57.6488 250.705 57.6502 250.679V250.679V250.615C57.6502 250.281 57.3491 249.969 56.7146 249.722L54.7036 248.957C53.0024 248.444 51.1842 248.47 49.4986 249.033C48.6705 249.334 48.2403 249.732 48.2511 250.109C48.2457 250.148 48.2457 250.188 48.2511 250.227L49.2511 249.377Z"
        fill="white" />
    <path
        d="M58.4245 252.865C58.4202 252.9 58.4202 252.937 58.4245 252.972V252.972L58.489 253.069L58.575 253.166L58.6933 253.263L58.8439 253.36L59.016 253.457L59.231 253.553L61.2636 254.328C62.9565 254.836 64.766 254.798 66.4364 254.221H66.5762H66.6622H66.7267H66.7913V254.145C66.7913 253.801 66.5009 253.467 65.8449 253.22L63.8338 252.456C62.1497 251.947 60.3487 251.977 58.6825 252.542C57.876 252.843 57.4673 253.241 57.4673 253.618C57.4614 253.657 57.4614 253.697 57.4673 253.736L58.4245 252.865Z"
        fill="white" />
    <path
        d="M67.5976 256.341C67.5933 256.377 67.5933 256.413 67.5976 256.448V256.448C67.6133 256.488 67.6351 256.524 67.6622 256.556V256.556L67.7482 256.664L67.8665 256.771L68.0063 256.868L68.1891 256.965L68.4042 257.062L70.4367 257.837C72.116 258.348 73.9151 258.302 75.5665 257.708H75.6956H75.7815H75.8461H75.9106H75.9752V257.632V257.492C75.9752 257.137 75.6633 256.804 75.0073 256.545L72.9962 255.781C71.3244 255.28 69.5372 255.317 67.888 255.889C67.1137 256.201 66.7158 256.599 66.7158 256.965C66.7985 257.082 66.9242 257.161 67.0654 257.186C67.2066 257.21 67.3516 257.177 67.4686 257.094C67.5855 257.011 67.6648 256.886 67.689 256.744C67.7132 256.603 67.6803 256.458 67.5976 256.341V256.341Z"
        fill="white" />
    <path
        d="M121.423 237.744C120.967 237.585 120.486 237.509 120.003 237.518H118.67C118.048 237.486 117.43 237.64 116.895 237.959C116.263 238.45 115.559 238.842 114.809 239.121C113.843 239.487 112.846 239.768 111.83 239.961C111.142 240.09 110.755 240.37 110.755 240.671V241.209C110.755 241.435 110.991 241.629 111.357 241.769C112.079 242.005 112.847 242.056 113.594 241.919C115.304 241.632 116.979 241.171 118.595 240.542C119.81 240.092 120.935 239.428 121.918 238.583V238.519V238.433C121.918 238.433 121.918 238.432 121.918 238.368C122.025 238.088 121.799 237.884 121.423 237.744Z"
        fill="white" />
    <path
        d="M31.4639 259.441L60.5002 270.042C63.7077 271.213 67.2376 271.14 70.394 269.837L166.945 230.017"
        stroke="#3756D4" stroke-width="0.87" stroke-linecap="round" stroke-linejoin="round" />
    <path
        d="M35.7764 252.456C35.7764 252.456 29.7648 253.532 29.2056 258.052C28.6464 262.573 30.0875 263.896 31.7544 264.746C33.4213 265.597 60.1132 275.756 60.1132 275.756C63.2553 276.585 66.5709 276.476 69.6522 275.444C74.7281 273.712 85.3963 269.902 85.3963 269.902"
        stroke="#3756D4" stroke-width="0.87" stroke-linecap="round" stroke-linejoin="round" />
    <path
        d="M85.969 36.7119C85.969 36.7119 87.0445 41.2536 86.7327 41.824C86.4208 42.3944 83.9043 41.91 83.9043 41.91"
        stroke="#382A8C" stroke-width="0.52" stroke-linecap="round" stroke-linejoin="round" />
    <path d="M83 44.4503C83 44.4503 84.9574 46.8073 87.6674 44.3535" stroke="#382A8C"
        stroke-width="0.52" stroke-linecap="round" stroke-linejoin="round" />
    <path
        d="M83.173 38.5846C83.7016 38.5846 84.1301 38.1558 84.1301 37.6268C84.1301 37.0978 83.7016 36.6689 83.173 36.6689C82.6443 36.6689 82.2158 37.0978 82.2158 37.6268C82.2158 38.1558 82.6443 38.5846 83.173 38.5846Z"
        fill="#382A8C" />
    <path
        d="M88.0548 38.2624C88.5834 38.2624 89.0119 37.8335 89.0119 37.3045C89.0119 36.7755 88.5834 36.3467 88.0548 36.3467C87.5262 36.3467 87.0977 36.7755 87.0977 37.3045C87.0977 37.8335 87.5262 38.2624 88.0548 38.2624Z"
        fill="#382A8C" />
    <path
        d="M79.6348 36.1853C80.135 35.5121 80.7665 34.9475 81.4912 34.5257C82.2158 34.104 83.0184 33.8337 83.8505 33.7314"
        stroke="#382A8C" stroke-width="0.52" stroke-linecap="round" stroke-linejoin="round" />
    <path
        d="M86.5059 33.6562C87.1349 33.6161 87.7643 33.7315 88.3382 33.9924C88.9121 34.2533 89.4131 34.6517 89.7967 35.1522"
        stroke="#382A8C" stroke-width="0.52" stroke-linecap="round" stroke-linejoin="round" />
</svg>
