<svg width="323" height="273" viewBox="0 0 323 273" fill="none" xmlns="http://www.w3.org/2000/svg">
    <defs>
        <linearGradient id="paint0_linear" x1="170.792" y1="230.739" x2="150.946" y2="30.1633"
            gradientUnits="userSpaceOnUse">
            <stop stop-color="#ED9FDC" />
            <stop offset="1" stop-color="#FFEFF7" />
        </linearGradient>
        <linearGradient id="paint1_linear" x1="194.816" y1="152.683" x2="280.257" y2="162.497"
            gradientUnits="userSpaceOnUse">
            <stop offset="0.28" stop-color="#333333" />
            <stop offset="0.31" stop-color="#33353C" />
            <stop offset="0.48" stop-color="#354172" />
            <stop offset="0.64" stop-color="#364A9C" />
            <stop offset="0.79" stop-color="#3651BB" />
            <stop offset="0.91" stop-color="#3755CD" />
            <stop offset="1" stop-color="#3756D4" />
        </linearGradient>
        <linearGradient id="paint2_linear" x1="7561.4" y1="8414.18" x2="7552.82" y2="8486.08"
            gradientUnits="userSpaceOnUse">
            <stop offset="0.28" stop-color="#333333" />
            <stop offset="0.31" stop-color="#33353C" />
            <stop offset="0.48" stop-color="#354172" />
            <stop offset="0.64" stop-color="#364A9C" />
            <stop offset="0.79" stop-color="#3651BB" />
            <stop offset="0.91" stop-color="#3755CD" />
            <stop offset="1" stop-color="#3756D4" />
        </linearGradient>
        <linearGradient id="paint3_linear" x1="167088" y1="52373.6" x2="167021" y2="52939.6"
            gradientUnits="userSpaceOnUse">
            <stop offset="0.28" stop-color="#333333" />
            <stop offset="0.31" stop-color="#33353C" />
            <stop offset="0.48" stop-color="#354172" />
            <stop offset="0.64" stop-color="#364A9C" />
            <stop offset="0.79" stop-color="#3651BB" />
            <stop offset="0.91" stop-color="#3755CD" />
            <stop offset="1" stop-color="#3756D4" />
        </linearGradient>
        <linearGradient id="paint4_linear" x1="127688" y1="-4081.05" x2="122307" y2="-10342.1"
            gradientUnits="userSpaceOnUse">
            <stop offset="0.28" stop-color="#333333" />
            <stop offset="0.31" stop-color="#33353C" />
            <stop offset="0.48" stop-color="#354172" />
            <stop offset="0.64" stop-color="#364A9C" />
            <stop offset="0.79" stop-color="#3651BB" />
            <stop offset="0.91" stop-color="#3755CD" />
            <stop offset="1" stop-color="#3756D4" />
        </linearGradient>
        <linearGradient id="paint5_linear" x1="84719.3" y1="155664" x2="86774.4" y2="160890"
            gradientUnits="userSpaceOnUse">
            <stop offset="0.28" stop-color="#333333" />
            <stop offset="0.31" stop-color="#33353C" />
            <stop offset="0.48" stop-color="#354172" />
            <stop offset="0.64" stop-color="#364A9C" />
            <stop offset="0.79" stop-color="#3651BB" />
            <stop offset="0.91" stop-color="#3755CD" />
            <stop offset="1" stop-color="#3756D4" />
        </linearGradient>
        <linearGradient id="paint6_linear" x1="312096" y1="143630" x2="288700" y2="134290"
            gradientUnits="userSpaceOnUse">
            <stop offset="0.28" stop-color="#333333" />
            <stop offset="0.31" stop-color="#33353C" />
            <stop offset="0.48" stop-color="#354172" />
            <stop offset="0.64" stop-color="#364A9C" />
            <stop offset="0.79" stop-color="#3651BB" />
            <stop offset="0.91" stop-color="#3755CD" />
            <stop offset="1" stop-color="#3756D4" />
        </linearGradient>
        <linearGradient id="paint7_linear" x1="55718.1" y1="56380.3" x2="57071.7" y2="56380.3"
            gradientUnits="userSpaceOnUse">
            <stop stop-color="#CC5A89" />
            <stop offset="0.07" stop-color="#D26C96" />
            <stop offset="0.22" stop-color="#DD8BAE" />
            <stop offset="0.37" stop-color="#E5A4C1" />
            <stop offset="0.53" stop-color="#EBB5CE" />
            <stop offset="0.7" stop-color="#EFC0D5" />
            <stop offset="0.9" stop-color="#F0C3D8" />
        </linearGradient>
        <linearGradient id="paint8_linear" x1="58026.6" y1="60819.7" x2="59436.6" y2="60819.7"
            gradientUnits="userSpaceOnUse">
            <stop stop-color="#CC5A89" />
            <stop offset="0.07" stop-color="#D26C96" />
            <stop offset="0.22" stop-color="#DD8BAE" />
            <stop offset="0.37" stop-color="#E5A4C1" />
            <stop offset="0.53" stop-color="#EBB5CE" />
            <stop offset="0.7" stop-color="#EFC0D5" />
            <stop offset="0.9" stop-color="#F0C3D8" />
        </linearGradient>
        <linearGradient id="paint9_linear" x1="76265.2" y1="75071.7" x2="78684.2" y2="75071.7"
            gradientUnits="userSpaceOnUse">
            <stop stop-color="#CC5A89" />
            <stop offset="0.07" stop-color="#D26C96" />
            <stop offset="0.22" stop-color="#DD8BAE" />
            <stop offset="0.37" stop-color="#E5A4C1" />
            <stop offset="0.53" stop-color="#EBB5CE" />
            <stop offset="0.7" stop-color="#EFC0D5" />
            <stop offset="0.9" stop-color="#F0C3D8" />
        </linearGradient>
        <linearGradient id="paint10_linear" x1="16296.8" y1="20671.6" x2="16379.5" y2="20678.2"
            gradientUnits="userSpaceOnUse">
            <stop offset="0.28" stop-color="#333333" />
            <stop offset="0.31" stop-color="#33353C" />
            <stop offset="0.48" stop-color="#354172" />
            <stop offset="0.64" stop-color="#364A9C" />
            <stop offset="0.79" stop-color="#3651BB" />
            <stop offset="0.91" stop-color="#3755CD" />
            <stop offset="1" stop-color="#3756D4" />
        </linearGradient>
        <linearGradient id="paint11_linear" x1="17189.1" y1="19934.8" x2="17278.6" y2="19941.9"
            gradientUnits="userSpaceOnUse">
            <stop offset="0.28" stop-color="#333333" />
            <stop offset="0.31" stop-color="#33353C" />
            <stop offset="0.48" stop-color="#354172" />
            <stop offset="0.64" stop-color="#364A9C" />
            <stop offset="0.79" stop-color="#3651BB" />
            <stop offset="0.91" stop-color="#3755CD" />
            <stop offset="1" stop-color="#3756D4" />
        </linearGradient>
        <linearGradient id="paint12_linear" x1="75.9116" y1="74.9868" x2="120.61" y2="114.633"
            gradientUnits="userSpaceOnUse">
            <stop stop-color="#CC5A89" />
            <stop offset="0.07" stop-color="#D26C96" />
            <stop offset="0.22" stop-color="#DD8BAE" />
            <stop offset="0.37" stop-color="#E5A4C1" />
            <stop offset="0.53" stop-color="#EBB5CE" />
            <stop offset="0.7" stop-color="#EFC0D5" />
            <stop offset="0.9" stop-color="#F0C3D8" />
        </linearGradient>
        <linearGradient id="paint13_linear" x1="110552" y1="79855.7" x2="112348" y2="84551.9"
            gradientUnits="userSpaceOnUse">
            <stop offset="0.28" stop-color="#333333" />
            <stop offset="0.31" stop-color="#33353C" />
            <stop offset="0.48" stop-color="#354172" />
            <stop offset="0.64" stop-color="#364A9C" />
            <stop offset="0.79" stop-color="#3651BB" />
            <stop offset="0.91" stop-color="#3755CD" />
            <stop offset="1" stop-color="#3756D4" />
        </linearGradient>
        <clipPath id="clip0">
            <rect width="57.37" height="51.42" fill="white"
                transform="translate(125 107.453) rotate(-13.5621)" />
        </clipPath>
    </defs>
    <path
        d="M276.753 88.8387C276.673 91.3987 276.577 93.9588 276.464 96.5188C275.614 115.989 273.923 135.519 272.023 154.869C271.823 156.869 271.603 158.999 271.343 161.089C270.043 171.879 267.854 182.969 262.954 192.629L262.384 193.719C260.675 196.934 258.619 199.952 256.254 202.719C244.894 215.929 226.634 220.599 209.484 221.329C207.574 221.409 205.693 221.439 203.823 221.429H203.443C202.663 221.429 201.884 221.429 201.114 221.429C199.114 221.429 197.223 221.279 195.453 221.139C187.793 227.219 169.354 240.079 143.514 241.409C120.144 242.619 79.5135 234.979 67.7035 203.299C58.1235 177.499 72.3835 160.439 75.2535 155.889C67.9935 153.189 49.2535 136.119 41.1335 116.069C39.8835 112.979 39.0635 107.729 37.7135 97.9489C36.3635 88.1689 34.9435 57.7588 53.5835 34.5188C77.1235 5.15879 117.823 6.74875 129.953 7.21875C150.58 8.15637 170.59 14.5357 187.953 25.7089C192.538 19.6781 198.424 14.7593 205.173 11.3188C211.251 8.20308 217.921 6.41166 224.742 6.06298C231.563 5.7143 238.38 6.81625 244.744 9.29602C251.108 11.7758 256.874 15.577 261.66 20.4488C266.447 25.3207 270.146 31.1523 272.513 37.5588C278.593 53.3988 277.293 71.9887 276.753 88.8387Z"
        fill="url(#paint0_linear)" />
    <path
        d="M81.3101 72.1098C78.3601 65.4698 75.1202 54.8998 79.0002 44.2598C89.2402 16.2598 139.4 13.9298 146.17 13.6198C155.72 13.1898 203.92 10.9997 228.44 44.7797C241.64 62.9797 241.44 82.6197 240.81 91.0597"
        stroke="#3756D4" stroke-width="0.87" stroke-linecap="round" stroke-linejoin="round" />
    <path
        d="M92.9396 91.8701C91.7996 91.9801 71.2895 94.35 62.8795 112.3C58.7595 121.09 57.5596 133.57 63.7196 143.21C69.3496 152.01 78.8495 154.92 88.5295 157.88C106.87 163.49 115.79 158.69 119.2 163.96C124.88 172.73 101.589 187.82 104.379 206.31C106.829 222.59 128.38 234.56 144.68 237.12C173.42 241.64 205.82 219.9 224.68 182.31"
        stroke="#382A8C" stroke-width="0.87" stroke-linecap="round" stroke-linejoin="round" />
    <path
        d="M109.48 175.02V206.13C108.78 206.222 108.075 206.269 107.37 206.27H105.02C100.926 206.166 97.0341 204.468 94.175 201.535C91.316 198.603 89.7158 194.67 89.7158 190.575C89.7158 186.48 91.316 182.546 94.175 179.614C97.0341 176.682 100.926 174.983 105.02 174.88H107.37C108.075 174.881 108.78 174.928 109.48 175.02V175.02Z"
        fill="#96ABFF" />
    <path
        d="M123.06 190.58C123.058 194.376 121.682 198.042 119.185 200.901C116.688 203.76 113.241 205.617 109.48 206.13C108.78 206.222 108.075 206.269 107.37 206.27C105.275 206.323 103.191 205.956 101.241 205.191C99.2905 204.426 97.513 203.278 96.0129 201.816C94.5129 200.353 93.3208 198.605 92.5068 196.674C91.6929 194.744 91.2734 192.67 91.2734 190.575C91.2734 188.48 91.6929 186.406 92.5068 184.475C93.3208 182.545 94.5129 180.797 96.0129 179.334C97.513 177.872 99.2905 176.724 101.241 175.959C103.191 175.194 105.275 174.827 107.37 174.88C108.075 174.881 108.78 174.928 109.48 175.02C113.241 175.537 116.687 177.397 119.183 180.257C121.679 183.117 123.056 186.784 123.06 190.58V190.58Z"
        fill="white" />
    <path
        d="M107.359 203.45C114.467 203.45 120.229 197.688 120.229 190.58C120.229 183.472 114.467 177.71 107.359 177.71C100.251 177.71 94.4893 183.472 94.4893 190.58C94.4893 197.688 100.251 203.45 107.359 203.45Z"
        fill="#96ABFF" />
    <path
        d="M107.58 196.85L101.39 200.1L102.57 193.21L97.5596 188.33L104.48 187.32L107.58 181.05L110.67 187.32L117.59 188.33L112.59 193.21L113.77 200.1L107.58 196.85Z"
        fill="white" />
    <path
        d="M81.2594 144.97L87.1294 163.26C86.8075 163.426 86.4732 163.566 86.1294 163.68L84.9895 164.04C80.7595 165.4 75.9895 162.36 74.3695 157.27C73.5824 154.908 73.6353 152.347 74.5194 150.02C74.9039 148.99 75.5112 148.058 76.2978 147.291C77.0844 146.523 78.0308 145.939 79.0694 145.58L80.2194 145.21C80.5591 145.102 80.9068 145.022 81.2594 144.97V144.97Z"
        fill="#96ABFF" />
    <path
        d="M90.8197 151.99C92.3197 156.67 90.6696 161.46 87.1296 163.26C86.8078 163.426 86.4734 163.566 86.1296 163.68C81.8996 165.03 77.1296 162 75.5196 156.9C73.9096 151.8 75.9897 146.57 80.2197 145.21C80.5463 145.104 80.8806 145.024 81.2197 144.97C85.1997 144.37 89.3297 147.31 90.8197 151.99Z"
        fill="white" />
    <path
        d="M85.535 162.126C89.0011 161.016 90.7253 156.726 89.386 152.545C88.0467 148.364 84.1512 145.874 80.6851 146.984C77.219 148.094 75.4949 152.384 76.8342 156.565C78.1734 160.747 82.0689 163.236 85.535 162.126Z"
        fill="#96ABFF" />
    <path
        d="M84.45 158.1L82.04 160.98L81.32 156.74L77.96 154.65L81.15 152.98L81.47 148.81L84.17 152.01L87.73 151.52L86.21 155.17L88.08 159.04L84.45 158.1Z"
        fill="white" />
    <path
        d="M149.84 208.39L143.35 253.83C144.175 254.092 145.022 254.282 145.88 254.4L148.72 254.81C159.23 256.31 169.21 247.26 171.02 234.6C171.939 228.728 170.791 222.719 167.77 217.6C166.458 215.322 164.656 213.365 162.494 211.87C160.332 210.376 157.864 209.382 155.27 208.96L152.43 208.56C151.573 208.429 150.706 208.372 149.84 208.39V208.39Z"
        fill="#96ABFF" />
    <path
        d="M130.13 228.76C128.47 240.38 134.27 251 143.35 253.83C144.175 254.092 145.022 254.283 145.88 254.4C156.39 255.9 166.37 246.86 168.18 234.19C169.99 221.52 162.94 210.05 152.43 208.55C151.573 208.423 150.706 208.369 149.84 208.39C140.33 208.57 131.79 217.14 130.13 228.76Z"
        fill="white" />
    <path
        d="M164.775 233.734C166.258 223.351 160.48 213.937 151.869 212.707C143.258 211.477 135.075 218.897 133.592 229.279C132.109 239.661 137.887 249.075 146.498 250.305C155.109 251.536 163.292 244.116 164.775 233.734Z"
        fill="#96ABFF" />
    <path
        d="M147.58 240.6L154.41 246.42V236.15L161.5 229.88L153.32 227.22L150.88 217.52L145.82 226.15L137.22 226.42L142.28 234.41L139.4 244.28L147.58 240.6Z"
        fill="white" />
    <path
        d="M188.83 22.5497C191.348 22.5497 193.39 20.5081 193.39 17.9897C193.39 15.4713 191.348 13.4297 188.83 13.4297C186.311 13.4297 184.27 15.4713 184.27 17.9897C184.27 20.5081 186.311 22.5497 188.83 22.5497Z"
        fill="#3756D4" />
    <path
        d="M267.412 36.2584C267.36 36.194 267.323 36.1189 267.302 36.0385C267.274 35.928 267.279 35.8112 267.318 35.704C267.358 35.5968 267.429 35.5041 267.522 35.4385C267.822 35.2185 275.032 30.0985 279.732 28.4385C284.432 26.7785 291.962 28.3585 292.282 28.4385C292.359 28.4531 292.432 28.4838 292.495 28.5287C292.559 28.5736 292.613 28.6315 292.653 28.6986C292.692 28.7658 292.717 28.8407 292.726 28.9182C292.734 28.9958 292.727 29.0742 292.702 29.1485L286.972 48.4484C286.943 48.5497 286.885 48.6405 286.805 48.7096C286.725 48.7788 286.627 48.8234 286.522 48.8384C286.419 48.8593 286.312 48.8497 286.214 48.8106C286.117 48.7715 286.033 48.7047 285.972 48.6184C285.972 48.5584 281.632 42.7685 278.422 40.7785C272.302 36.9685 267.832 36.4285 267.782 36.4285C267.643 36.4175 267.512 36.3572 267.412 36.2584V36.2584ZM291.412 29.4584C289.552 29.1284 283.782 28.2785 280.062 29.5485C276.582 30.7485 271.482 34.0785 269.252 35.5485C272.708 36.4328 275.997 37.8714 278.992 39.8085C281.622 41.4385 284.802 45.2985 286.172 47.0485L291.412 29.4584Z"
        fill="#F0C3D8" />
    <path
        d="M244.693 25.9985C244.648 25.9374 244.616 25.8677 244.599 25.7938C244.581 25.7199 244.579 25.6432 244.593 25.5685L249.063 0.468512C249.075 0.395447 249.101 0.325591 249.141 0.262823C249.18 0.200056 249.231 0.145693 249.292 0.102911C249.352 0.06013 249.42 0.0297481 249.493 0.0135559C249.565 -0.0026363 249.64 -0.00434532 249.713 0.00855101C254.373 0.817459 258.834 2.51495 262.853 5.00855C268.623 8.83855 272.523 16.0086 272.683 16.2786C272.753 16.3994 272.774 16.5425 272.743 16.6786L268.373 36.0386C268.349 36.1345 268.302 36.2229 268.235 36.2962C268.169 36.3694 268.086 36.4252 267.993 36.4585C267.898 36.4868 267.798 36.4907 267.702 36.4697C267.606 36.4487 267.517 36.4036 267.443 36.3385C264.066 33.4412 260.312 31.0158 256.283 29.1285C252.651 27.7832 248.892 26.8115 245.063 26.2285C244.989 26.2174 244.918 26.1913 244.854 26.1517C244.79 26.1122 244.736 26.0601 244.693 25.9985V25.9985ZM250.063 1.1886L245.783 25.1886C249.517 25.7699 253.18 26.7383 256.713 28.0785C260.577 29.8577 264.188 32.1409 267.453 34.8685L271.573 16.6285C270.923 15.4885 267.243 9.2886 262.203 5.9386C258.475 3.63744 254.362 2.02829 250.063 1.1886V1.1886Z"
        fill="#F0C3D8" />
    <path
        d="M252.542 2.97918L248.342 2.07916C248.134 2.03406 247.92 2.03109 247.711 2.07037C247.502 2.10965 247.303 2.19045 247.126 2.30792C246.949 2.42539 246.797 2.57719 246.679 2.75433C246.562 2.93147 246.481 3.13028 246.442 3.33917L242.032 26.1292C241.949 26.5309 242.029 26.9492 242.254 27.2922C242.479 27.6352 242.83 27.875 243.232 27.9592C247.03 28.7686 250.774 29.814 254.442 31.0892C257.867 32.535 261.176 34.24 264.342 36.1893C264.39 36.2156 264.429 36.2548 264.456 36.3025C264.482 36.3503 264.495 36.4046 264.492 36.4592C264.492 36.8692 264.772 37.9092 266.272 38.7692C266.625 39.0022 267.024 39.1543 267.443 39.2148C267.861 39.2753 268.288 39.2427 268.692 39.1192C268.812 39.1792 275.012 42.5493 277.862 45.0493C279.392 46.3793 281.032 47.6992 282.232 48.6392C282.427 48.7911 282.657 48.8927 282.9 48.9351C283.144 48.9775 283.394 48.9594 283.629 48.8824C283.864 48.8054 284.077 48.6717 284.248 48.4933C284.42 48.3149 284.544 48.0972 284.612 47.8592L288.002 35.9892L252.542 2.97918Z"
        fill="#3756D4" />
    <path
        d="M292.132 29.0183L286.402 48.3183C286.402 48.3183 282.032 42.3983 278.692 40.3183C272.372 36.3883 267.822 35.8883 267.822 35.8883C267.822 35.8883 275.212 30.6083 279.882 29.0083C284.552 27.4083 292.132 29.0183 292.132 29.0183Z"
        fill="white" />
    <path
        d="M245.133 25.639C249.007 26.2291 252.81 27.2141 256.483 28.579C260.571 30.489 264.38 32.9485 267.803 35.889L272.173 16.519C272.173 16.519 268.243 9.24897 262.523 5.44897C258.563 3.01531 254.18 1.34967 249.603 0.539062L245.133 25.639Z"
        fill="white" />
    <path
        d="M292.642 36.3191C288.89 35.2013 285.033 34.4676 281.132 34.1292C276.624 34.101 272.133 34.6863 267.782 35.8692L272.162 16.5092C275.789 13.9576 279.94 12.2492 284.312 11.5092C288.702 11.0011 293.151 11.5109 297.312 12.9992L292.642 36.3191Z"
        fill="white" />
    <path
        d="M267.342 36.1886C267.284 36.1229 267.242 36.0438 267.222 35.9584C267.201 35.873 267.201 35.7838 267.222 35.6985L271.602 16.3385C271.63 16.2069 271.705 16.0898 271.812 16.0086C275.514 13.4036 279.756 11.6673 284.222 10.9286C288.714 10.3891 293.27 10.9131 297.522 12.4585C297.647 12.5038 297.751 12.5926 297.815 12.7083C297.879 12.824 297.9 12.959 297.872 13.0885L293.202 36.4286C293.187 36.5063 293.155 36.5797 293.108 36.6436C293.062 36.7075 293.002 36.7605 292.932 36.7986C292.867 36.8427 292.792 36.871 292.714 36.8814C292.636 36.8918 292.557 36.884 292.482 36.8586C288.772 35.7437 284.96 35.0034 281.102 34.6486C276.652 34.6273 272.218 35.2058 267.922 36.3686C267.829 36.3979 267.729 36.4012 267.634 36.3783C267.539 36.3554 267.452 36.3071 267.382 36.2386L267.342 36.1886ZM272.652 16.7986L268.532 35.0386C272.654 33.9824 276.897 33.4714 281.152 33.5186C284.9 33.8348 288.606 34.5317 292.212 35.5986L296.672 13.3486C292.721 12.0193 288.525 11.5755 284.382 12.0486C280.175 12.766 276.173 14.3865 272.652 16.7986V16.7986Z"
        fill="#F0C3D8" />
    <g clip-path="url(#clip0)">
        <path
            d="M139.449 144.282C138.106 144.256 136.477 144.752 135.639 148.061C134.802 151.369 136.959 156.476 139.094 156.712C141.229 156.948 143.652 155.221 143.178 152.918C142.632 150.977 142.336 148.975 142.296 146.959C142.303 146.591 142.232 146.226 142.089 145.887C141.946 145.548 141.733 145.242 141.465 144.99C141.197 144.738 140.879 144.545 140.532 144.423C140.185 144.301 139.816 144.253 139.449 144.282V144.282Z"
            fill="#333333" />
        <path
            d="M183.359 112.966C184.698 106.774 183.253 101.208 180.133 100.533C177.013 99.859 173.399 104.332 172.06 110.523C170.722 116.715 172.166 122.281 175.286 122.956C178.406 123.63 182.021 119.158 183.359 112.966Z"
            fill="#3756D4" />
        <path
            d="M179.184 108.064C180.123 110.296 179.082 114.508 176.972 115.696C169.832 119.701 161.439 115.739 161.439 115.739L165.377 100.552C165.377 100.552 176.978 102.887 179.184 108.064Z"
            fill="white" />
        <path
            d="M165.561 108.709C166.65 104.512 166.591 100.866 165.431 100.565C164.271 100.264 162.448 103.423 161.36 107.619C160.272 111.816 160.33 115.462 161.49 115.762C162.65 116.063 164.473 112.905 165.561 108.709Z"
            fill="#3756D4" />
        <path
            d="M175.81 105.206L174.645 105.24C174.645 105.24 174.501 100.378 172.283 98.5166C171.946 98.2302 171.551 98.0216 171.125 97.9057C170.698 97.7898 170.252 97.7695 169.817 97.8462C169.594 97.8587 169.377 97.924 169.184 98.0367C168.991 98.1494 168.828 98.3062 168.708 98.4943C168.13 99.467 168.604 101.307 168.839 101.94L167.742 102.338C167.672 102.046 166.737 99.4943 167.701 97.9039C167.912 97.5662 168.197 97.2814 168.536 97.0714C168.874 96.8614 169.256 96.7319 169.652 96.6928C170.249 96.5938 170.861 96.627 171.444 96.7903C172.028 96.9535 172.568 97.2427 173.027 97.6375C175.631 99.8177 175.797 104.983 175.81 105.206Z"
            fill="white" />
        <path
            d="M164.862 107.795C164.862 107.795 151.762 106.706 143.661 115.47C135.56 124.234 143.63 130.908 144.939 133.987C147.508 140.033 144.302 146.485 149.08 148.851C153.858 151.216 157.676 148.752 159.966 144.64C162.256 140.529 162.917 131.584 160.693 125.095C158.469 118.605 156.644 115.517 158.487 113.18C160.33 110.842 164.862 107.795 164.862 107.795Z"
            fill="#333333" />
    </g>
    <path
        d="M300.733 209.503C297.784 228.566 289.491 241.666 276.531 252.563C261.619 265.027 242.373 268.715 232.293 261.096C222.214 253.477 212.314 244.866 211.35 243.383C208.022 238.326 197.832 229.43 193.795 224.918C189.731 220.377 186.789 217.729 186.789 217.729C185.088 217.24 183.499 216.423 182.111 215.325C180.979 214.472 179.909 213.539 178.91 212.533C173.674 207.289 169.315 199.476 171.083 195.088C173.74 188.473 179.234 189.44 179.234 189.44C179.234 189.44 170.361 180.416 172.994 173.401C175.627 166.386 180.705 165.633 180.705 165.633C180.705 165.633 175.816 155.494 177.68 149.301C178.11 147.643 179.176 146.22 180.646 145.341C182.116 144.461 183.873 144.195 185.538 144.6C185.305 144.437 177.772 139.06 181.855 130.669C182.609 129.209 183.671 127.931 184.969 126.924C186.267 125.917 187.768 125.205 189.369 124.836C190.553 124.52 191.761 124.305 192.981 124.191C194.951 124.014 196.934 124.066 198.892 124.346C198.892 124.346 200.638 124.726 203.61 125.286C205.216 125.553 213.658 129.968 215.87 130.334C218.313 130.74 221.086 131.199 224.083 131.538L225.183 131.72C235.374 133.003 247.849 133.941 258.508 132.87C259.533 132.757 260.549 132.632 261.545 132.491C263.642 132.212 265.719 131.801 267.764 131.261C269.671 130.762 271.526 130.082 273.303 129.228C277.116 127.373 279.899 124.77 281.165 121.226C281.902 119.147 282.815 117.135 283.893 115.21C285.089 113.066 286.514 111.058 288.143 109.221C297.708 98.448 310.381 98.74 305.83 108.524C299.965 121.12 296.67 160.098 300 184C300.784 189.207 302.257 199.656 300.733 209.503Z"
        fill="#96ABFF" />
    <path
        d="M283.024 76.2469L211.676 68.0521C207.785 67.6052 204.268 70.3974 203.821 74.2888L182.998 229.362C183.619 232.339 188.158 238.486 192.049 238.933L263.397 247.128C267.289 247.575 270.806 244.782 271.253 240.891L289.261 84.1023C289.708 80.2108 286.916 76.6939 283.024 76.2469Z"
        fill="url(#paint1_linear)" />
    <path
        d="M208.99 65.11L280.212 73.6084C283.274 73.9738 285.46 76.7522 285.095 79.8141L266.419 236.326C266.054 239.388 263.276 241.574 260.214 241.209L188.991 232.711C185.929 232.345 183.743 229.567 184.108 226.505L202.784 69.9926C203.149 66.9306 205.928 64.7446 208.99 65.11Z"
        fill="white" stroke="black" stroke-width="3" />
    <path
        d="M244.241 79.2267C245.663 79.4625 247.007 78.5007 247.243 77.0785C247.479 75.6563 246.517 74.3122 245.095 74.0764C243.672 73.8406 242.328 74.8023 242.093 76.2246C241.857 77.6468 242.818 78.9909 244.241 79.2267Z"
        fill="url(#paint2_linear)" />
    <path
        d="M193.767 186.885C192.912 190.424 190.536 193.523 185.437 191.23L181.949 179.363L183.018 168.81L186.064 157.676L188.194 148.581L184.787 138.712C185.782 134.502 188.867 125.935 193.247 125.355C198.722 124.631 202.047 132.501 200.274 138.079C198.501 143.656 193.087 145.879 190.008 144.003C186.929 142.128 185.93 142.169 190.131 147.001C194.332 151.833 198.779 162.66 196.465 167.258C194.152 171.857 191.134 171.48 188.034 169.105C184.934 166.73 185.036 169.228 188.177 172.602C191.318 175.976 194.621 183.347 193.767 186.885Z"
        fill="#96ABFF" />
    <path
        d="M268.709 231.614L268.012 237.457C267.793 239.313 266.849 241.007 265.385 242.169C263.921 243.331 262.056 243.867 260.199 243.658L188.98 235.163C187.122 234.944 185.427 234 184.263 232.536C183.099 231.072 182.561 229.207 182.767 227.348L183.465 221.505L268.709 231.614Z"
        fill="url(#paint3_linear)" />
    <path
        d="M215.74 218.999C217.764 219.335 219.677 217.966 220.013 215.942C220.348 213.918 218.98 212.006 216.956 211.67C214.932 211.335 213.019 212.703 212.683 214.727C212.348 216.751 213.716 218.664 215.74 218.999Z"
        fill="#3756D4" />
    <path
        d="M226.477 220.271C228.501 220.606 230.413 219.238 230.749 217.214C231.085 215.19 229.716 213.277 227.692 212.942C225.668 212.606 223.755 213.975 223.42 215.999C223.084 218.023 224.453 219.935 226.477 220.271Z"
        fill="#3756D4" />
    <path
        d="M237.221 221.556C239.245 221.892 241.158 220.523 241.493 218.499C241.829 216.475 240.46 214.562 238.436 214.227C236.412 213.891 234.499 215.26 234.164 217.284C233.828 219.308 235.197 221.22 237.221 221.556Z"
        fill="#3756D4" />
    <path
        d="M270.7 133.078C269.769 140.864 266.048 148.05 260.227 153.305C254.406 158.559 246.879 161.527 239.038 161.66C237.581 161.673 236.125 161.594 234.678 161.423C230.31 161.102 226.051 159.899 222.161 157.886C218.27 155.873 214.828 153.093 212.042 149.712C209.255 146.332 207.183 142.422 205.95 138.219C204.717 134.016 204.348 129.606 204.867 125.256C205.385 120.906 206.78 116.707 208.967 112.911C211.154 109.116 214.087 105.803 217.59 103.172C221.093 100.542 225.092 98.6483 229.347 97.6066C233.602 96.5649 238.024 96.3964 242.346 97.1112C243.791 97.2844 245.223 97.5521 246.634 97.9126C254.216 99.8791 260.83 104.523 265.254 110.987C269.677 117.451 271.612 125.298 270.7 133.078V133.078Z"
        fill="#EF43BB" />
    <path
        d="M233.487 153.504C246.885 155.725 259.548 146.665 261.769 133.267C263.991 119.868 254.93 107.206 241.532 104.984C228.134 102.763 215.472 111.823 213.25 125.222C211.028 138.62 220.089 151.282 233.487 153.504Z"
        fill="white" />
    <path
        d="M230.978 142.929L224.419 142.2C223.445 142.091 222.554 141.601 221.941 140.835C221.329 140.07 221.046 139.093 221.154 138.118L221.884 131.56C221.992 130.586 222.483 129.694 223.248 129.082C224.014 128.47 224.991 128.187 225.965 128.295L231.999 128.966C232.416 129.012 232.798 129.223 233.061 129.551C233.323 129.879 233.444 130.298 233.398 130.715C233.367 130.993 233.448 131.273 233.623 131.491C233.798 131.71 234.052 131.85 234.331 131.881L235.905 132.056L235.672 134.155L234.097 133.98C233.355 133.895 232.667 133.551 232.153 133.008C231.64 132.465 231.336 131.758 231.293 131.012L225.732 130.394C225.314 130.347 224.895 130.469 224.567 130.731C224.239 130.994 224.029 131.376 223.982 131.793L223.253 138.352C223.207 138.769 223.328 139.188 223.59 139.516C223.853 139.844 224.235 140.054 224.652 140.101L231.211 140.83C231.629 140.877 232.047 140.755 232.375 140.493C232.703 140.23 232.914 139.849 232.96 139.431L233.398 135.496L235.497 135.729L235.059 139.664C234.951 140.639 234.46 141.53 233.694 142.142C232.929 142.754 231.952 143.037 230.978 142.929Z"
        fill="#EF43BB" />
    <path
        d="M246.982 144.707L240.423 143.978C239.449 143.87 238.558 143.379 237.945 142.613C237.333 141.848 237.05 140.871 237.158 139.897L237.829 133.863C237.876 133.445 238.086 133.063 238.414 132.801C238.742 132.538 239.161 132.417 239.578 132.464C239.857 132.495 240.136 132.414 240.355 132.239C240.573 132.064 240.713 131.809 240.744 131.531L240.919 129.957L243.018 130.19L242.843 131.764C242.759 132.507 242.414 133.195 241.871 133.708C241.328 134.221 240.621 134.526 239.875 134.568L239.257 140.13C239.211 140.548 239.332 140.966 239.594 141.294C239.857 141.622 240.239 141.833 240.656 141.879L247.215 142.608C247.632 142.655 248.051 142.534 248.379 142.271C248.707 142.009 248.918 141.627 248.964 141.209L249.693 134.651C249.74 134.233 249.618 133.814 249.356 133.486C249.094 133.158 248.712 132.948 248.294 132.901L244.359 132.464L244.592 130.365L248.528 130.803C249.502 130.911 250.393 131.402 251.005 132.167C251.617 132.933 251.9 133.91 251.792 134.884L251.063 141.443C250.955 142.417 250.464 143.308 249.698 143.92C248.933 144.532 247.956 144.816 246.982 144.707Z"
        fill="#EF43BB" />
    <path
        d="M248.761 128.704L242.727 128.033C242.309 127.987 241.927 127.777 241.665 127.449C241.403 127.121 241.281 126.702 241.328 126.284C241.359 126.006 241.278 125.727 241.103 125.508C240.928 125.289 240.673 125.149 240.395 125.118L238.821 124.943L239.054 122.844L240.628 123.019C241.371 123.104 242.059 123.448 242.572 123.991C243.085 124.534 243.39 125.241 243.432 125.987L248.994 126.606C249.412 126.652 249.831 126.531 250.159 126.268C250.487 126.006 250.697 125.624 250.743 125.206L251.473 118.648C251.519 118.23 251.398 117.811 251.135 117.483C250.873 117.155 250.491 116.945 250.074 116.899L243.515 116.169C243.097 116.123 242.678 116.244 242.35 116.507C242.022 116.769 241.812 117.151 241.766 117.568L241.328 121.504L239.229 121.27L239.667 117.335C239.775 116.361 240.266 115.47 241.031 114.857C241.797 114.245 242.774 113.962 243.748 114.07L250.307 114.8C251.281 114.908 252.172 115.399 252.784 116.164C253.397 116.93 253.68 117.907 253.571 118.881L252.842 125.44C252.734 126.414 252.243 127.305 251.478 127.917C250.712 128.53 249.735 128.813 248.761 128.704Z"
        fill="#EF43BB" />
    <path
        d="M233.806 127.042L231.708 126.808L231.883 125.234C231.967 124.492 232.311 123.803 232.854 123.29C233.397 122.777 234.104 122.473 234.85 122.43L235.469 116.868C235.515 116.451 235.394 116.032 235.131 115.704C234.869 115.376 234.487 115.166 234.07 115.119L227.511 114.39C227.093 114.344 226.675 114.465 226.347 114.727C226.018 114.99 225.808 115.372 225.762 115.789L225.032 122.348C224.986 122.765 225.107 123.184 225.37 123.512C225.632 123.84 226.014 124.051 226.432 124.097L230.367 124.535L230.133 126.633L226.198 126.196C225.224 126.087 224.333 125.597 223.721 124.831C223.108 124.066 222.825 123.089 222.934 122.114L223.663 115.556C223.771 114.582 224.262 113.69 225.027 113.078C225.793 112.466 226.77 112.183 227.744 112.291L234.303 113.02C235.277 113.129 236.168 113.62 236.781 114.385C237.393 115.15 237.676 116.128 237.568 117.102L236.897 123.136C236.85 123.553 236.64 123.935 236.312 124.198C235.984 124.46 235.565 124.581 235.147 124.535C234.869 124.504 234.59 124.585 234.371 124.76C234.153 124.935 234.012 125.189 233.981 125.468L233.806 127.042Z"
        fill="#EF43BB" />
    <path
        d="M255.096 171.589L209.028 166.092C203.975 165.489 199.39 169.096 198.787 174.149C198.184 179.202 201.792 183.787 206.845 184.39L252.912 189.887C257.965 190.49 262.55 186.883 263.153 181.83C263.756 176.777 260.149 172.192 255.096 171.589Z"
        fill="#EF43BB" />
    <path
        d="M210.11 177.404L210.838 177.493L211.056 175.711L212.839 175.929L212.928 175.201L211.146 174.982L211.364 173.2L210.635 173.111L210.417 174.893L208.635 174.675L208.546 175.403L210.328 175.622L210.11 177.404Z"
        fill="white" />
    <path
        d="M214.138 179.086L218.34 179.6L218.428 178.885L215.332 178.506L215.338 178.454L217.03 177.037C218.325 175.951 218.734 175.42 218.824 174.681C218.95 173.653 218.218 172.732 217.047 172.588C215.879 172.445 214.894 173.13 214.751 174.301L215.518 174.395C215.611 173.637 216.164 173.193 216.935 173.288C217.657 173.376 218.155 173.886 218.069 174.589C217.994 175.204 217.577 175.615 216.703 176.363L214.21 178.5L214.138 179.086Z"
        fill="white" />
    <path
        d="M223.253 173.441L222.447 173.342L220.646 174.244L220.546 175.064L222.304 174.183L222.343 174.188L221.631 180.003L222.438 180.102L223.253 173.441Z"
        fill="white" />
    <path
        d="M227.005 180.754C228.296 180.912 229.355 180.219 229.488 179.13C229.592 178.284 229.166 177.608 228.344 177.365L228.351 177.313C229.049 177.191 229.536 176.689 229.628 175.938C229.744 174.995 229.102 174.065 227.869 173.914C226.718 173.773 225.675 174.365 225.507 175.407L226.288 175.503C226.398 174.843 227.077 174.53 227.77 174.615C228.505 174.705 228.925 175.208 228.843 175.882C228.757 176.584 228.151 176.972 227.361 176.875L226.828 176.81L226.74 177.526L227.273 177.591C228.285 177.715 228.785 178.298 228.695 179.033C228.608 179.738 227.935 180.141 227.08 180.036C226.309 179.942 225.746 179.47 225.776 178.82L224.956 178.72C224.877 179.773 225.714 180.596 227.005 180.754Z"
        fill="white" />
    <path
        d="M238.369 176.982L239.15 177.078C239.237 176.068 238.402 175.203 237.114 175.046C235.839 174.89 234.746 175.508 234.609 176.627C234.499 177.525 235.085 178.138 236.089 178.565L236.88 178.899C237.558 179.18 238.153 179.504 238.071 180.168C237.982 180.896 237.221 181.291 236.297 181.178C235.503 181.081 234.844 180.644 234.871 179.881L234.039 179.779C233.983 180.882 234.777 181.732 236.208 181.907C237.743 182.095 238.718 181.356 238.85 180.276C239.003 179.027 237.869 178.479 237.202 178.212L236.547 177.947C236.069 177.757 235.307 177.399 235.395 176.684C235.473 176.046 236.116 175.65 237 175.758C237.807 175.857 238.371 176.315 238.369 176.982Z"
        fill="white" />
    <path
        d="M240.64 182.331L241.541 180.526L244.235 180.856L244.674 182.825L245.519 182.928L243.889 175.968L243.056 175.866L239.795 182.227L240.64 182.331ZM241.883 179.842L243.318 176.967L243.37 176.974L244.068 180.11L241.883 179.842Z"
        fill="white" />
    <path
        d="M252.684 180.425C252.942 178.317 251.867 176.852 250.163 176.643C248.458 176.435 247.061 177.597 246.803 179.705C246.545 181.813 247.62 183.278 249.325 183.487C251.029 183.695 252.426 182.533 252.684 180.425ZM251.903 180.329C251.691 182.06 250.627 182.88 249.417 182.732C248.207 182.584 247.372 181.531 247.584 179.801C247.796 178.07 248.86 177.25 250.07 177.398C251.28 177.546 252.115 178.599 251.903 180.329Z"
        fill="white" />
    <path fill-rule="evenodd" clip-rule="evenodd"
        d="M210.061 177.801C209.842 177.774 209.686 177.575 209.713 177.355L209.882 175.97L208.497 175.8C208.278 175.774 208.122 175.574 208.149 175.355L208.238 174.626C208.265 174.407 208.464 174.251 208.683 174.278L210.069 174.447L210.238 173.062C210.265 172.843 210.465 172.687 210.684 172.714L211.413 172.803C211.632 172.83 211.788 173.029 211.761 173.249L211.591 174.634L212.977 174.803C213.196 174.83 213.352 175.03 213.325 175.249L213.236 175.978C213.209 176.197 213.009 176.353 212.79 176.326L211.405 176.156L211.235 177.542C211.208 177.761 211.009 177.917 210.79 177.89L210.061 177.801ZM210.635 173.111L211.364 173.2L211.146 174.982L212.928 175.201L212.839 175.929L211.056 175.711L210.838 177.493L210.11 177.404L210.328 175.622L208.546 175.403L208.635 174.675L210.417 174.893L210.635 173.111ZM214.09 179.483C213.87 179.456 213.714 179.256 213.741 179.037L213.813 178.452C213.825 178.353 213.874 178.262 213.95 178.197L216.443 176.059C217.345 175.287 217.619 174.974 217.672 174.54C217.702 174.301 217.633 174.114 217.508 173.976C217.379 173.833 217.168 173.719 216.886 173.685C216.589 173.649 216.369 173.718 216.22 173.836C216.069 173.955 215.951 174.152 215.915 174.444C215.888 174.663 215.689 174.819 215.469 174.792L214.702 174.698C214.483 174.671 214.327 174.472 214.353 174.253C214.527 172.839 215.733 172.025 217.095 172.191C218.462 172.359 219.376 173.46 219.221 174.73C219.11 175.639 218.579 176.26 217.287 177.343L216.246 178.215L218.477 178.488C218.696 178.515 218.852 178.714 218.825 178.933L218.737 179.649C218.711 179.868 218.511 180.024 218.292 179.997L214.09 179.483ZM215.332 178.506L215.338 178.454L217.03 177.037C218.325 175.951 218.734 175.42 218.824 174.681C218.95 173.653 218.218 172.732 217.047 172.588C216.016 172.462 215.128 172.981 214.835 173.909C214.796 174.032 214.767 174.163 214.751 174.301L215.518 174.395C215.611 173.637 216.164 173.193 216.935 173.288C217.657 173.376 218.155 173.886 218.069 174.589C217.994 175.204 217.577 175.615 216.703 176.363L214.21 178.5L214.138 179.086L218.34 179.6L218.428 178.885L215.332 178.506ZM223.302 173.044C223.521 173.071 223.677 173.27 223.65 173.49L222.835 180.151C222.808 180.37 222.608 180.526 222.389 180.499L221.582 180.4C221.363 180.373 221.207 180.174 221.234 179.955L221.859 174.853L220.725 175.421C220.593 175.487 220.436 175.476 220.315 175.391C220.195 175.306 220.131 175.161 220.149 175.015L220.249 174.195C220.265 174.062 220.347 173.946 220.467 173.886L222.268 172.984C222.338 172.949 222.417 172.936 222.495 172.945L223.302 173.044ZM222.304 174.183L222.343 174.188L221.631 180.003L222.438 180.102L223.253 173.441L222.447 173.342L220.646 174.244L220.546 175.064L222.304 174.183ZM228.36 177.312C228.357 177.312 228.354 177.313 228.351 177.313L228.344 177.365C228.35 177.367 228.355 177.369 228.361 177.37C228.538 177.424 228.697 177.499 228.835 177.591C229.33 177.919 229.569 178.473 229.488 179.13C229.355 180.219 228.296 180.912 227.005 180.754C225.885 180.616 225.106 179.979 224.972 179.125C224.951 178.995 224.946 178.859 224.956 178.72L225.776 178.82C225.746 179.47 226.309 179.942 227.08 180.036C227.935 180.141 228.608 179.738 228.695 179.033C228.785 178.298 228.285 177.715 227.273 177.591L226.74 177.526L226.828 176.81L227.361 176.875C228.151 176.972 228.757 176.584 228.843 175.882C228.925 175.208 228.505 174.705 227.77 174.615C227.077 174.53 226.398 174.843 226.288 175.503L225.507 175.407C225.529 175.269 225.567 175.139 225.618 175.018C225.952 174.221 226.87 173.791 227.869 173.914C229.102 174.065 229.744 174.995 229.628 175.938C229.561 176.491 229.278 176.909 228.856 177.14C228.707 177.221 228.541 177.279 228.36 177.312ZM229.224 177.382C229.661 177.076 229.951 176.591 230.025 175.987C230.169 174.81 229.355 173.693 227.918 173.517C226.626 173.358 225.324 174.023 225.112 175.344C225.095 175.451 225.122 175.561 225.188 175.648C225.253 175.734 225.351 175.791 225.459 175.804L226.239 175.9C226.452 175.926 226.647 175.78 226.682 175.569C226.742 175.211 227.136 174.94 227.721 175.012C228.009 175.047 228.198 175.157 228.307 175.287C228.414 175.414 228.475 175.594 228.446 175.833C228.416 176.073 228.305 176.239 228.145 176.345C227.979 176.454 227.731 176.518 227.41 176.478L226.876 176.413C226.657 176.386 226.458 176.542 226.431 176.761L226.343 177.477C226.316 177.696 226.472 177.896 226.691 177.923L227.225 177.988C227.667 178.042 227.948 178.191 228.107 178.358C228.259 178.518 228.329 178.726 228.298 178.984C228.27 179.211 228.153 179.383 227.966 179.498C227.772 179.617 227.485 179.683 227.128 179.639C226.461 179.558 226.159 179.19 226.176 178.839C226.185 178.63 226.032 178.449 225.825 178.423L225.005 178.323C224.897 178.31 224.787 178.341 224.703 178.411C224.618 178.48 224.566 178.581 224.558 178.69C224.457 180.028 225.533 180.976 226.956 181.151C228.401 181.328 229.718 180.548 229.885 179.178C229.947 178.676 229.853 178.199 229.6 177.805C229.497 177.645 229.37 177.503 229.224 177.382ZM238.32 177.379C238.119 177.354 237.968 177.183 237.969 176.981C237.97 176.603 237.657 176.241 236.952 176.155C236.576 176.109 236.287 176.175 236.098 176.286C235.916 176.393 235.815 176.547 235.792 176.732C235.77 176.913 235.842 177.059 236.017 177.207C236.203 177.365 236.46 177.482 236.695 177.576L236.698 177.577L237.35 177.841C237.35 177.841 237.35 177.841 237.35 177.841C237.691 177.977 238.202 178.204 238.607 178.584C239.028 178.98 239.342 179.549 239.247 180.325C239.167 180.978 238.828 181.539 238.274 181.902C237.726 182.261 236.998 182.407 236.159 182.304C235.377 182.208 234.73 181.923 234.282 181.473C233.829 181.018 233.606 180.418 233.639 179.759C233.645 179.648 233.696 179.545 233.781 179.473C233.866 179.402 233.977 179.369 234.087 179.382L234.92 179.484C235.126 179.51 235.278 179.688 235.271 179.896C235.262 180.142 235.358 180.327 235.532 180.472C235.718 180.626 236.001 180.739 236.346 180.781C236.743 180.83 237.075 180.765 237.303 180.639C237.523 180.517 237.647 180.34 237.674 180.119C237.696 179.943 237.641 179.819 237.494 179.689C237.327 179.539 237.066 179.409 236.727 179.269L236.724 179.268L235.933 178.933C235.399 178.706 234.936 178.414 234.62 178.024C234.295 177.622 234.144 177.136 234.212 176.579C234.386 175.16 235.759 174.477 237.163 174.649C238.587 174.823 239.66 175.818 239.548 177.112C239.539 177.22 239.486 177.32 239.402 177.388C239.317 177.457 239.209 177.488 239.101 177.475L238.32 177.379ZM237.202 178.212L236.547 177.947C236.069 177.757 235.307 177.399 235.395 176.684C235.473 176.046 236.116 175.65 237 175.758C237.807 175.857 238.371 176.315 238.369 176.982L239.15 177.078C239.162 176.939 239.156 176.804 239.135 176.673C239 175.845 238.226 175.182 237.114 175.046C235.839 174.89 234.746 175.508 234.609 176.627C234.499 177.525 235.085 178.138 236.089 178.565L236.88 178.899C237.558 179.18 238.153 179.504 238.071 180.168C237.982 180.896 237.221 181.291 236.297 181.178C235.503 181.081 234.844 180.644 234.871 179.881L234.039 179.779C234.032 179.919 234.038 180.054 234.058 180.185C234.194 181.086 234.958 181.754 236.208 181.907C237.743 182.095 238.718 181.356 238.85 180.276C239.003 179.027 237.869 178.479 237.202 178.212ZM240.998 182.51C240.923 182.661 240.76 182.748 240.592 182.728L239.746 182.624C239.616 182.608 239.503 182.53 239.441 182.415C239.38 182.299 239.379 182.161 239.439 182.045L242.7 175.683C242.777 175.534 242.938 175.448 243.105 175.469L243.938 175.571C244.104 175.591 244.24 175.713 244.278 175.876L245.909 182.837C245.938 182.964 245.904 183.098 245.817 183.195C245.73 183.293 245.6 183.341 245.471 183.325L244.625 183.222C244.457 183.201 244.32 183.077 244.283 182.912L243.906 181.219L241.773 180.958L240.998 182.51ZM241.541 180.526L240.64 182.331L239.795 182.227L243.056 175.866L243.889 175.968L245.519 182.928L244.674 182.825L244.235 180.856L241.541 180.526ZM241.883 179.842L244.068 180.11L243.37 176.974L243.318 176.967L241.883 179.842ZM242.494 179.514L243.555 179.644L243.207 178.084L242.494 179.514ZM252.489 177.596C253.004 178.347 253.219 179.343 253.081 180.474C252.943 181.604 252.493 182.518 251.812 183.123C251.127 183.732 250.236 184.001 249.276 183.884C248.316 183.766 247.516 183.289 246.998 182.534C246.483 181.783 246.268 180.787 246.406 179.656C246.545 178.526 246.994 177.612 247.675 177.007C248.36 176.398 249.251 176.129 250.211 176.246C251.171 176.364 251.971 176.841 252.489 177.596ZM250.766 181.939C251.122 181.615 251.409 181.075 251.506 180.281C251.604 179.487 251.455 178.893 251.188 178.493C250.923 178.097 250.518 177.856 250.022 177.795C249.525 177.734 249.074 177.871 248.722 178.191C248.365 178.515 248.078 179.055 247.981 179.849C247.884 180.643 248.032 181.237 248.3 181.637C248.565 182.033 248.969 182.274 249.466 182.335C249.962 182.396 250.413 182.259 250.766 181.939ZM250.163 176.643C251.867 176.852 252.942 178.317 252.684 180.425C252.426 182.533 251.029 183.695 249.325 183.487C247.62 183.278 246.545 181.813 246.803 179.705C247.061 177.597 248.458 176.435 250.163 176.643ZM249.417 182.732C250.627 182.88 251.691 182.06 251.903 180.329C252.115 178.599 251.28 177.546 250.07 177.398C248.86 177.25 247.796 178.07 247.584 179.801C247.372 181.531 248.207 182.584 249.417 182.732Z"
        fill="white" />
    <path
        d="M241.906 103.072C248.702 104.178 254.803 107.88 258.921 113.398C263.039 118.916 264.852 125.818 263.978 132.648C263.104 139.477 259.611 145.7 254.236 150.003C248.86 154.306 242.024 156.353 235.169 155.711C234.488 155.654 233.824 155.567 233.164 155.458C226.368 154.352 220.267 150.65 216.149 145.131C212.031 139.613 210.218 132.711 211.092 125.882C211.967 119.052 215.46 112.829 220.835 108.527C226.21 104.224 233.046 102.177 239.902 102.819C240.571 102.873 241.246 102.963 241.906 103.072ZM242.063 102.126C241.381 102.013 240.677 101.896 239.982 101.86C232.873 101.185 225.78 103.3 220.202 107.76C214.625 112.219 211 118.673 210.094 125.756C209.188 132.839 211.073 139.997 215.348 145.717C219.624 151.436 225.957 155.269 233.007 156.404C233.689 156.517 234.383 156.632 235.078 156.668C242.186 157.343 249.278 155.228 254.855 150.77C260.432 146.311 264.057 139.859 264.964 132.777C265.871 125.695 263.989 118.538 259.715 112.818C255.442 107.098 249.112 103.264 242.063 102.126V102.126Z"
        fill="white" />
    <path
        d="M283.453 143.216C279.67 131.154 281.104 120.286 287.776 111.085L292.678 116.053C290.864 129.128 286.48 152.866 283.453 143.216Z"
        fill="#96ABFF" />
    <path
        d="M271.779 236.307C268.041 214.226 271.632 191.227 279.22 175.023L282.744 187.77C280.335 211.309 274.769 253.971 271.779 236.307Z"
        fill="#96ABFF" />
    <path d="M201.298 196.116L257.956 202.344" stroke="#3756D4" stroke-width="0.87"
        stroke-linecap="round" stroke-linejoin="round" />
    <path d="M200.523 204.808L257.17 211.034" stroke="#3756D4" stroke-width="0.87"
        stroke-linecap="round" stroke-linejoin="round" />
    <path d="M201.689 77.6791L280.219 87.0252" stroke="#3756D4" stroke-width="0.87"
        stroke-linecap="round" stroke-linejoin="round" />
    <path
        d="M100.436 126.529C118.803 123.261 133.243 118.081 132.688 114.96C132.132 111.839 116.792 111.958 98.4246 115.226C80.0569 118.495 65.6172 123.675 66.1726 126.796C66.728 129.917 82.0682 129.797 100.436 126.529Z"
        fill="url(#paint4_linear)" />
    <path
        d="M93.2744 80.8995C93.2744 80.8995 81.2045 101.67 85.6245 121.76L111.454 117.13C111.454 117.13 104.284 93.8996 120.064 78.5996C135.844 63.2996 93.2744 80.8995 93.2744 80.8995Z"
        fill="white" />
    <path
        d="M41.0242 56.0593C40.4542 55.2493 8.27424 15.3193 8.27424 15.3193C6.09669 15.6835 4.12309 16.8194 2.7143 18.5193C-0.0856996 22.1993 1.13433 27.5193 2.24433 31.7493C8.14919 54.07 17.5645 100.5 19.5645 103C21.5645 105.5 24.5645 104 27.5645 104C47.2146 101.9 41.6067 71.315 41.0242 56.0593Z"
        fill="url(#paint5_linear)" stroke="white" stroke-width="0.87" stroke-linecap="round"
        stroke-linejoin="round" />
    <path
        d="M26.7243 104.14C25.815 104.13 24.9362 103.811 24.2326 103.234C23.5291 102.658 23.043 101.86 22.8544 100.97L4.43431 19.7599C4.29297 19.1673 4.2889 18.5502 4.42235 17.9558C4.55579 17.3613 4.82325 16.8053 5.20433 16.3299C5.56035 15.8758 6.01613 15.5097 6.53636 15.26C7.05659 15.0103 7.62731 14.8836 8.20433 14.8899L141.744 19.1899C142.647 19.2238 143.514 19.5519 144.212 20.1242C144.911 20.6966 145.403 21.4816 145.614 22.3598L160.184 83.2999C160.332 83.8564 160.357 84.438 160.259 85.0052C160.161 85.5724 159.942 86.1118 159.616 86.5865C159.29 87.0612 158.866 87.46 158.372 87.7557C157.878 88.0514 157.327 88.2371 156.754 88.2999L27.2043 104.11C27.0452 104.131 26.8849 104.141 26.7243 104.14V104.14Z"
        fill="url(#paint6_linear)" />
    <path
        d="M8.20461 15.3197H8.31459L141.735 19.6296C142.542 19.6578 143.317 19.95 143.942 20.4612C144.567 20.9724 145.007 21.6744 145.195 22.4597L145.945 25.5997L159.765 83.3997C159.887 83.8939 159.903 84.4086 159.812 84.9095C159.721 85.4105 159.524 85.8862 159.234 86.3052C158.945 86.7242 158.57 87.0768 158.133 87.3396C157.697 87.6024 157.21 87.7695 156.705 87.8297L27.1746 103.68C27.0381 103.69 26.9012 103.69 26.7647 103.68C25.9538 103.664 25.1719 103.375 24.5457 102.86C23.9195 102.344 23.4857 101.633 23.3146 100.84L22.7246 98.2396L6.09462 24.9297L4.89455 19.6396C4.76692 19.1305 4.75545 18.5991 4.86098 18.085C4.96651 17.5708 5.18644 17.0869 5.50429 16.6692C5.82214 16.2515 6.22985 15.9107 6.69728 15.6719C7.16472 15.4331 7.67986 15.3024 8.20461 15.2897V15.3197ZM8.20461 14.4297C7.56962 14.4309 6.9431 14.5754 6.37172 14.8524C5.80035 15.1294 5.2988 15.5319 4.90456 16.0297C4.48412 16.5572 4.18914 17.1735 4.04189 17.8318C3.89463 18.4901 3.89897 19.1733 4.05458 19.8297L5.25466 25.1196L21.8847 98.4297L22.4746 101.03C22.6905 102.012 23.2314 102.893 24.0099 103.53C24.7884 104.167 25.759 104.523 26.7647 104.54H27.2846L156.805 88.6897C157.431 88.6145 158.035 88.4071 158.575 88.0813C159.116 87.7555 159.581 87.3187 159.94 86.7998C160.299 86.2809 160.544 85.6916 160.659 85.071C160.773 84.4504 160.755 83.8127 160.605 83.1997L146.785 25.3997L146.035 22.2596C145.803 21.288 145.259 20.4193 144.485 19.787C143.712 19.1547 142.753 18.7938 141.755 18.7596L8.34462 14.4597L8.20461 14.4297Z"
        fill="white" />
    <path
        d="M155.564 83.1909L146.472 84.2565L110.916 88.4493L79.8941 92.1042L69.9662 93.2794L53.6796 95.1915L46.1465 96.0779L29.8233 98L14.5645 25L141.064 24.5L155.564 83.1909Z"
        fill="#9BADF8" />
    <path
        d="M79.2648 92.3495L68.4347 93.5194L50.6947 95.4495C49.9773 94.6392 49.5422 93.6181 49.4547 92.5394C49.4547 90.0194 46.6847 87.6094 47.1647 82.5394C47.6447 77.4694 46.8047 59.6895 46.8047 59.6895L58.9948 61.2195L62.4948 61.6594C62.4948 61.6594 73.9148 77.7095 79.2648 92.3495Z"
        fill="url(#paint7_linear)" />
    <path
        d="M68.4343 93.5393L50.6943 95.4694L42.4743 96.3593C38.0043 86.0393 32.4743 69.8293 35.4743 57.7793L58.9943 60.0593C58.9943 60.0593 58.9943 60.4993 58.9943 61.2593C58.9943 64.1693 59.2243 71.7793 61.9243 76.6493C63.9443 80.2793 66.6143 87.9393 68.4343 93.5393Z"
        fill="url(#paint8_linear)" />
    <path
        d="M76.8346 47.2391C76.8346 47.2391 68.6345 32.4292 55.6745 28.9692C42.7145 25.5092 23.5346 25.0292 15.3646 44.2092C12.3976 51.5022 11.7379 59.5296 13.4746 67.2092C15.454 69.024 17.9195 70.2223 20.5694 70.6574C23.2194 71.0926 25.9387 70.7456 28.3945 69.6591C26.8694 66.6296 26.5134 63.1444 27.3945 59.8691C27.3945 59.8691 26.8146 64.4891 31.2446 68.8691C35.6746 73.2491 36.3346 68.7992 46.4546 65.3092C56.5746 61.8192 61.7846 68.3092 65.0946 65.8092C68.4046 63.3092 61.7246 55.4392 61.7246 55.4392L76.8346 47.2391Z"
        fill="white" />
    <path
        d="M50.4338 19.1196C50.4338 19.1196 50.2638 26.6695 50.6738 27.9795C51.0838 29.2895 49.1039 31.9795 46.9639 31.9795C44.8239 31.9795 41.2439 30.8196 42.3439 27.5096C43.4439 24.1996 45.1739 22.4297 44.8439 20.8397C44.5139 19.2497 47.6139 19.0297 47.8439 19.0897C48.0739 19.1497 50.4338 19.1196 50.4338 19.1196Z"
        fill="#96ABFF" />
    <path
        d="M52.4241 10.4297L51.5441 11.4297C51.5441 11.4297 52.6542 12.8597 53.1042 16.6897C53.5542 20.5197 53.2342 23.6897 52.3442 24.2897C51.4542 24.8897 46.4342 24.0797 44.8442 20.8097C44.8442 20.8097 41.8441 21.1797 41.3041 19.6897C40.7641 18.1997 40.9342 15.4497 42.0042 14.7997C43.0742 14.1497 42.8842 11.0497 42.8842 11.0497C43.7751 11.2346 44.689 11.2818 45.5942 11.1897C46.6528 11.0154 47.7218 10.9117 48.7941 10.8796L52.4241 10.4297Z"
        fill="#96ABFF" />
    <path
        d="M45.2039 12.7796C45.2039 12.7796 45.8239 17.3396 44.8439 18.9996C44.8439 18.9996 42.3139 16.0897 41.0839 17.0997C41.0839 17.0997 36.184 11.3796 44.374 8.94963C44.374 8.94963 44.3739 7.41962 48.0739 7.05962C51.7739 6.69962 52.5339 7.9196 52.5339 7.9196L51.7239 8.54961L53.8339 9.07964C53.8339 9.07964 54.5039 12.0796 52.1439 12.5396C49.7839 12.9996 45.7739 12.0196 45.2039 12.7796Z"
        fill="#382A8C" />
    <path
        d="M51.9546 47.4097C52.2146 47.5297 53.2246 48.1397 54.4046 50.7097C54.924 51.7172 55.2143 52.827 55.2547 53.9597C55.2405 54.1342 55.217 54.3076 55.1846 54.4796C53.1023 55.4691 50.8956 56.1722 48.6247 56.5697C44.8647 57.2197 42.4847 56.4296 42.0047 56.1196C40.5947 55.1796 41.2746 54.5397 41.2746 54.5397C41.2746 54.5397 40.4347 53.6697 40.7347 52.8497C40.9647 52.2497 41.9246 52.3197 41.9246 52.3197C41.8107 52.1401 41.7571 51.9288 41.7715 51.7166C41.7859 51.5044 41.8676 51.3023 42.0047 51.1396C42.5047 50.6596 44.8947 51.5497 46.1147 51.3197C46.796 51.1899 47.465 51.0025 48.1147 50.7596C48.1147 50.7596 46.3546 50.0696 46.7746 49.3796C47.1946 48.6896 48.5246 48.9896 49.7046 48.5096C50.4534 48.2083 51.1703 47.8331 51.8447 47.3896V47.3896L51.9546 47.4097Z"
        fill="#96ABFF" />
    <path
        d="M51.8039 47.2394C51.8039 47.2394 51.704 57.8794 56.014 62.2394C56.014 62.2394 58.274 59.2394 66.484 57.4994C74.694 55.7594 80.284 53.2894 76.264 46.1194C72.244 38.9494 51.8039 47.2394 51.8039 47.2394Z"
        fill="white" />
    <path d="M51.8047 47.2393C51.8047 47.2393 58.8047 44.2393 70.5347 43.2393" stroke="#3756D4"
        stroke-width="0.87" stroke-linecap="round" stroke-linejoin="round" />
    <path
        d="M52.6846 55.1494C52.6846 55.1494 53.3846 59.9794 56.0146 62.2294C58.2049 60.2877 60.8388 58.9141 63.6846 58.2294"
        stroke="#3756D4" stroke-width="0.87" stroke-linecap="round" stroke-linejoin="round" />
    <path d="M27.3643 59.8998C27.3643 59.8998 29.4943 46.7998 35.3643 42.2998" stroke="#3756D4"
        stroke-width="0.87" stroke-linecap="round" stroke-linejoin="round" />
    <path d="M60.5646 38.1494C60.5646 38.1494 59.4446 42.0694 60.6846 44.6594" stroke="#3756D4"
        stroke-width="0.87" stroke-linecap="round" stroke-linejoin="round" />
    <path
        d="M38.7344 27.2695C38.6487 28.7509 38.9661 30.2278 39.6529 31.5431C40.3396 32.8584 41.37 33.963 42.6344 34.7395C43.9719 35.4667 45.5036 35.7571 47.0144 35.5696C47.3844 35.5696 51.0844 35.0196 52.6144 31.8196C53.1199 30.7443 53.3205 29.5509 53.1944 28.3695"
        stroke="#3756D4" stroke-width="0.87" stroke-linecap="round" stroke-linejoin="round" />
    <path
        d="M59.3545 67.5391C59.3545 67.5391 59.4345 73.4691 62.3545 77.4191C65.2745 81.3691 68.2744 92.9591 68.2744 92.9591"
        stroke="white" stroke-width="0.87" stroke-linecap="round" stroke-linejoin="round" />
    <path d="M66.3242 67.4199C66.3242 67.4199 75.5042 81.3499 78.5542 90.4899" stroke="white"
        stroke-width="0.87" stroke-linecap="round" stroke-linejoin="round" />
    <path
        d="M28.8943 78.2997C28.6143 78.2397 27.4444 78.1598 25.0044 79.5898C23.9955 80.1109 23.1196 80.8567 22.4443 81.7697C22.3523 81.9181 22.2688 82.0716 22.1943 82.2296C23.3337 84.2368 24.7399 86.0803 26.3744 87.7097C29.0744 90.3997 31.4743 91.1197 32.0543 91.1297C33.7443 91.1797 33.5543 90.2597 33.5543 90.2597C33.5543 90.2597 34.7444 90.0297 34.9644 89.1797C35.1344 88.5597 34.2943 88.0697 34.2943 88.0697C34.2943 88.0697 35.0343 87.7297 34.9043 87.0697C34.7743 86.4097 32.3043 85.7496 31.4443 84.8596C30.9408 84.3566 30.4855 83.8076 30.0844 83.2198C30.0844 83.2198 31.9244 83.6696 31.9644 82.8596C32.0044 82.0496 30.7643 81.5398 30.0643 80.4698C29.627 79.7915 29.2585 79.0712 28.9644 78.3197H28.8943V78.2997Z"
        fill="#96ABFF" />
    <path
        d="M19.3546 82.6993C22.0762 82.8462 24.7877 82.2647 27.2098 81.015C29.632 79.7653 31.6772 77.8925 33.1346 75.5894C31.1555 73.9797 29.5398 71.9689 28.3945 69.6893C23.3488 69.4006 18.3477 68.5793 13.4746 67.2393C14.5843 72.6771 16.5701 77.8985 19.3546 82.6993V82.6993Z"
        fill="white" />
    <path
        d="M93.0042 9.9195L94.3241 44.0894C94.4441 47.1394 96.6541 49.6895 99.3241 49.8795L130.814 52.1495C133.394 52.3295 135.344 49.8894 135.114 46.8194L132.864 17.1295C132.803 15.9259 132.37 14.7709 131.625 13.8236C130.88 12.8762 129.859 12.1831 128.704 11.8394L98.2442 5.10944C95.3642 4.46944 92.8842 6.7095 93.0042 9.9195Z"
        fill="white" />
    <path
        d="M96.2538 10.6099L97.6737 44.6099C97.8037 47.6099 99.9937 50.18 102.674 50.37L133.834 52.5899C136.384 52.7699 138.304 50.34 138.064 47.28L135.744 17.7199C135.679 16.5237 135.247 15.3767 134.506 14.4353C133.765 13.4939 132.751 12.804 131.604 12.4599L101.454 5.80001C98.5637 5.18001 96.1138 7.40995 96.2538 10.6099Z"
        fill="url(#paint9_linear)" />
    <path
        d="M117.834 22.0797L119.834 13.4697C119.834 13.4697 123.404 23.3297 126.464 24.8597C126.464 24.8597 122.014 25.8598 119.234 23.1698C116.454 20.4798 117.834 22.0797 117.834 22.0797Z"
        fill="url(#paint10_linear)" />
    <path
        d="M120.804 39.6594L117.344 39.4293L116.594 16.1494C116.546 15.7906 116.578 15.4255 116.688 15.0807C116.799 14.7359 116.985 14.4201 117.233 14.1565C117.482 13.8929 117.786 13.6881 118.123 13.5571C118.461 13.4261 118.823 13.3723 119.184 13.3994L119.874 13.4694L120.804 39.6594Z"
        fill="white" />
    <path
        d="M120.804 39.6595C120.914 42.6595 118.914 44.9795 116.314 44.8395C113.714 44.6995 111.474 42.0795 111.394 39.0295C111.314 35.9795 113.394 33.7195 115.974 33.9195C118.554 34.1195 120.704 36.6795 120.804 39.6595Z"
        fill="url(#paint11_linear)" />
    <path
        d="M58.4069 82.4525L78.4069 113.613C78.8488 114.258 79.51 114.722 80.2677 114.917C81.0255 115.111 81.8283 115.025 82.5269 114.673L122.807 95.5525C123.151 95.3863 123.456 95.1492 123.702 94.8568C123.947 94.5645 124.129 94.2236 124.233 93.8562C124.338 93.4889 124.364 93.1036 124.31 92.7255C124.255 92.3474 124.121 91.9852 123.917 91.6625L107.437 64.9626C107.069 64.3844 106.521 63.9442 105.877 63.7109C105.233 63.4775 104.529 63.464 103.877 63.6725L60.1469 78.2126C59.7159 78.3235 59.3168 78.5335 58.9812 78.8258C58.6457 79.1182 58.3831 79.4847 58.2142 79.8964C58.0452 80.3081 57.9746 80.7536 58.0081 81.1973C58.0416 81.641 58.1781 82.0709 58.4069 82.4525V82.4525Z"
        fill="url(#paint12_linear)" />
    <path
        d="M60.3974 81.8019L80.3474 112.862C80.7871 113.504 81.4449 113.966 82.1987 114.161C82.9525 114.356 83.7513 114.271 84.4474 113.922L124.447 94.9219C124.79 94.7558 125.094 94.519 125.339 94.2272C125.583 93.9353 125.764 93.5951 125.868 93.2286C125.972 92.8622 125.997 92.4778 125.941 92.101C125.886 91.7241 125.752 91.3632 125.547 91.0419L109.107 64.4319C108.741 63.8579 108.196 63.4205 107.556 63.1874C106.916 62.9542 106.217 62.9382 105.567 63.1419L62.1174 77.5819C61.6887 77.6926 61.2918 77.9019 60.9585 78.1932C60.6251 78.4846 60.3645 78.8498 60.1974 79.2598C60.0302 79.6698 59.9613 80.1132 59.9961 80.5546C60.0308 80.9959 60.1682 81.4231 60.3974 81.8019V81.8019Z"
        fill="url(#paint13_linear)" />
    <path
        d="M108.767 81.6922C113.507 88.1722 111.287 95.8421 103.587 98.8921C95.6771 102.032 85.0372 99.1021 80.0572 92.2721C75.0772 85.4421 77.8171 77.6022 85.9771 74.8222C93.9071 72.1122 104.017 75.2122 108.767 81.6922Z"
        fill="white" />
    <path d="M104.047 83.4321L84.6074 81.6621L94.9074 95.7421L104.047 83.4321Z" fill="#3756D4" />
</svg>
