<svg width="314" height="285" viewBox="0 0 314 285" fill="none" xmlns="http://www.w3.org/2000/svg">
    <defs>
        <linearGradient id="paint0_linear" x1="147.613" y1="260.974" x2="128.725" y2="60.2652"
            gradientUnits="userSpaceOnUse">
            <stop stop-color="#ED9FDC" />
            <stop offset="1" stop-color="#FFEFF7" />
        </linearGradient>
        <linearGradient id="paint1_linear" x1="68.3177" y1="133.806" x2="4.24504" y2="144.36"
            gradientUnits="userSpaceOnUse">
            <stop offset="0.28" stop-color="#333333" />
            <stop offset="0.31" stop-color="#33353C" />
            <stop offset="0.48" stop-color="#354172" />
            <stop offset="0.64" stop-color="#364A9C" />
            <stop offset="0.79" stop-color="#3651BB" />
            <stop offset="0.91" stop-color="#3755CD" />
            <stop offset="1" stop-color="#3756D4" />
        </linearGradient>
        <linearGradient id="paint2_linear" x1="100.866" y1="189.705" x2="117.151" y2="128.54"
            gradientUnits="userSpaceOnUse">
            <stop stop-color="#CC5A89" />
            <stop offset="0.07" stop-color="#D26C96" />
            <stop offset="0.22" stop-color="#DD8BAE" />
            <stop offset="0.37" stop-color="#E5A4C1" />
            <stop offset="0.53" stop-color="#EBB5CE" />
            <stop offset="0.7" stop-color="#EFC0D5" />
            <stop offset="0.9" stop-color="#F0C3D8" />
        </linearGradient>
        <linearGradient id="paint3_linear" x1="3463.04" y1="2675.93" x2="4342.25" y2="2288.49"
            gradientUnits="userSpaceOnUse">
            <stop offset="0.28" stop-color="#333333" />
            <stop offset="0.31" stop-color="#33353C" />
            <stop offset="0.48" stop-color="#354172" />
            <stop offset="0.64" stop-color="#364A9C" />
            <stop offset="0.79" stop-color="#3651BB" />
            <stop offset="0.91" stop-color="#3755CD" />
            <stop offset="1" stop-color="#3756D4" />
        </linearGradient>
        <linearGradient id="paint4_linear" x1="47284.8" y1="11364.6" x2="46940.2" y2="11421.6"
            gradientUnits="userSpaceOnUse">
            <stop offset="0.28" stop-color="#333333" />
            <stop offset="0.31" stop-color="#33353C" />
            <stop offset="0.48" stop-color="#354172" />
            <stop offset="0.64" stop-color="#364A9C" />
            <stop offset="0.79" stop-color="#3651BB" />
            <stop offset="0.91" stop-color="#3755CD" />
            <stop offset="1" stop-color="#3756D4" />
        </linearGradient>
        <linearGradient id="paint5_linear" x1="15768.3" y1="70128.4" x2="17150" y2="71138.9"
            gradientUnits="userSpaceOnUse">
            <stop stop-color="#CC5A89" />
            <stop offset="0.07" stop-color="#D26C96" />
            <stop offset="0.22" stop-color="#DD8BAE" />
            <stop offset="0.37" stop-color="#E5A4C1" />
            <stop offset="0.53" stop-color="#EBB5CE" />
            <stop offset="0.7" stop-color="#EFC0D5" />
            <stop offset="0.9" stop-color="#F0C3D8" />
        </linearGradient>
        <linearGradient id="paint6_linear" x1="143498" y1="174555" x2="139622" y2="172867"
            gradientUnits="userSpaceOnUse">
            <stop offset="0.28" stop-color="#333333" />
            <stop offset="0.31" stop-color="#33353C" />
            <stop offset="0.48" stop-color="#354172" />
            <stop offset="0.64" stop-color="#364A9C" />
            <stop offset="0.79" stop-color="#3651BB" />
            <stop offset="0.91" stop-color="#3755CD" />
            <stop offset="1" stop-color="#3756D4" />
        </linearGradient>
        <linearGradient id="paint7_linear" x1="239956" y1="212271" x2="227959" y2="213627"
            gradientUnits="userSpaceOnUse">
            <stop offset="0.28" stop-color="#333333" />
            <stop offset="0.31" stop-color="#33353C" />
            <stop offset="0.48" stop-color="#354172" />
            <stop offset="0.64" stop-color="#364A9C" />
            <stop offset="0.79" stop-color="#3651BB" />
            <stop offset="0.91" stop-color="#3755CD" />
            <stop offset="1" stop-color="#3756D4" />
        </linearGradient>
        <linearGradient id="paint8_linear" x1="20944.6" y1="30190.2" x2="20777.3" y2="30299.9"
            gradientUnits="userSpaceOnUse">
            <stop stop-color="#CC5A89" />
            <stop offset="0.08" stop-color="#D26C96" />
            <stop offset="0.24" stop-color="#DD8BAE" />
            <stop offset="0.41" stop-color="#E5A4C1" />
            <stop offset="0.59" stop-color="#EBB5CE" />
            <stop offset="0.78" stop-color="#EFC0D5" />
            <stop offset="1" stop-color="#F0C3D8" />
        </linearGradient>
        <linearGradient id="paint9_linear" x1="16816.3" y1="13339" x2="16514.5" y2="12891.8"
            gradientUnits="userSpaceOnUse">
            <stop stop-color="#CC5A89" />
            <stop offset="0.08" stop-color="#D26C96" />
            <stop offset="0.24" stop-color="#DD8BAE" />
            <stop offset="0.41" stop-color="#E5A4C1" />
            <stop offset="0.59" stop-color="#EBB5CE" />
            <stop offset="0.78" stop-color="#EFC0D5" />
            <stop offset="1" stop-color="#F0C3D8" />
        </linearGradient>
        <linearGradient id="paint10_linear" x1="60745.7" y1="69448.1" x2="59071.4" y2="67651.3"
            gradientUnits="userSpaceOnUse">
            <stop stop-color="#CC5A89" />
            <stop offset="0.08" stop-color="#D26C96" />
            <stop offset="0.24" stop-color="#DD8BAE" />
            <stop offset="0.41" stop-color="#E5A4C1" />
            <stop offset="0.59" stop-color="#EBB5CE" />
            <stop offset="0.78" stop-color="#EFC0D5" />
            <stop offset="1" stop-color="#F0C3D8" />
        </linearGradient>
        <linearGradient id="paint11_linear" x1="39067.8" y1="27721.1" x2="38453" y2="26723.6"
            gradientUnits="userSpaceOnUse">
            <stop stop-color="#CC5A89" />
            <stop offset="0.08" stop-color="#D26C96" />
            <stop offset="0.24" stop-color="#DD8BAE" />
            <stop offset="0.41" stop-color="#E5A4C1" />
            <stop offset="0.59" stop-color="#EBB5CE" />
            <stop offset="0.78" stop-color="#EFC0D5" />
            <stop offset="1" stop-color="#F0C3D8" />
        </linearGradient>
        <linearGradient id="paint12_linear" x1="37186.5" y1="32138.9" x2="36439.4" y2="31109.4"
            gradientUnits="userSpaceOnUse">
            <stop stop-color="#CC5A89" />
            <stop offset="0.08" stop-color="#D26C96" />
            <stop offset="0.24" stop-color="#DD8BAE" />
            <stop offset="0.41" stop-color="#E5A4C1" />
            <stop offset="0.59" stop-color="#EBB5CE" />
            <stop offset="0.78" stop-color="#EFC0D5" />
            <stop offset="1" stop-color="#F0C3D8" />
        </linearGradient>
        <linearGradient id="paint13_linear" x1="40116.9" y1="20879.4" x2="39682.4" y2="20009.6"
            gradientUnits="userSpaceOnUse">
            <stop stop-color="#CC5A89" />
            <stop offset="0.08" stop-color="#D26C96" />
            <stop offset="0.24" stop-color="#DD8BAE" />
            <stop offset="0.41" stop-color="#E5A4C1" />
            <stop offset="0.59" stop-color="#EBB5CE" />
            <stop offset="0.78" stop-color="#EFC0D5" />
            <stop offset="1" stop-color="#F0C3D8" />
        </linearGradient>
        <linearGradient id="paint14_linear" x1="27194" y1="12241.8" x2="26946.5" y2="11702"
            gradientUnits="userSpaceOnUse">
            <stop stop-color="#CC5A89" />
            <stop offset="0.08" stop-color="#D26C96" />
            <stop offset="0.24" stop-color="#DD8BAE" />
            <stop offset="0.41" stop-color="#E5A4C1" />
            <stop offset="0.59" stop-color="#EBB5CE" />
            <stop offset="0.78" stop-color="#EFC0D5" />
            <stop offset="1" stop-color="#F0C3D8" />
        </linearGradient>
        <linearGradient id="paint15_linear" x1="26731.6" y1="20405.7" x2="26272" y2="19702.1"
            gradientUnits="userSpaceOnUse">
            <stop stop-color="#CC5A89" />
            <stop offset="0.08" stop-color="#D26C96" />
            <stop offset="0.24" stop-color="#DD8BAE" />
            <stop offset="0.41" stop-color="#E5A4C1" />
            <stop offset="0.59" stop-color="#EBB5CE" />
            <stop offset="0.78" stop-color="#EFC0D5" />
            <stop offset="1" stop-color="#F0C3D8" />
        </linearGradient>
        <linearGradient id="paint16_linear" x1="27969.5" y1="25105.5" x2="28013.9" y2="25264.5"
            gradientUnits="userSpaceOnUse">
            <stop offset="0.28" stop-color="#333333" />
            <stop offset="0.31" stop-color="#33353C" />
            <stop offset="0.48" stop-color="#354172" />
            <stop offset="0.64" stop-color="#364A9C" />
            <stop offset="0.79" stop-color="#3651BB" />
            <stop offset="0.91" stop-color="#3755CD" />
            <stop offset="1" stop-color="#3756D4" />
        </linearGradient>
        <linearGradient id="paint17_linear" x1="32669" y1="17330.7" x2="32697.9" y2="17454"
            gradientUnits="userSpaceOnUse">
            <stop offset="0.28" stop-color="#333333" />
            <stop offset="0.31" stop-color="#33353C" />
            <stop offset="0.48" stop-color="#354172" />
            <stop offset="0.64" stop-color="#364A9C" />
            <stop offset="0.79" stop-color="#3651BB" />
            <stop offset="0.91" stop-color="#3755CD" />
            <stop offset="1" stop-color="#3756D4" />
        </linearGradient>
        <linearGradient id="paint18_linear" x1="6983.04" y1="2388.95" x2="6992.57" y2="2387.33"
            gradientUnits="userSpaceOnUse">
            <stop offset="0.28" stop-color="#333333" />
            <stop offset="0.31" stop-color="#33353C" />
            <stop offset="0.48" stop-color="#354172" />
            <stop offset="0.64" stop-color="#364A9C" />
            <stop offset="0.79" stop-color="#3651BB" />
            <stop offset="0.91" stop-color="#3755CD" />
            <stop offset="1" stop-color="#3756D4" />
        </linearGradient>
        <linearGradient id="paint19_linear" x1="3829.06" y1="4486.66" x2="3831.09" y2="4486.32"
            gradientUnits="userSpaceOnUse">
            <stop offset="0.28" stop-color="#333333" />
            <stop offset="0.31" stop-color="#33353C" />
            <stop offset="0.48" stop-color="#354172" />
            <stop offset="0.64" stop-color="#364A9C" />
            <stop offset="0.79" stop-color="#3651BB" />
            <stop offset="0.91" stop-color="#3755CD" />
            <stop offset="1" stop-color="#3756D4" />
        </linearGradient>
        <linearGradient id="paint20_linear" x1="3819.5" y1="4490.86" x2="3821.53" y2="4490.51"
            gradientUnits="userSpaceOnUse">
            <stop offset="0.28" stop-color="#333333" />
            <stop offset="0.31" stop-color="#33353C" />
            <stop offset="0.48" stop-color="#354172" />
            <stop offset="0.64" stop-color="#364A9C" />
            <stop offset="0.79" stop-color="#3651BB" />
            <stop offset="0.91" stop-color="#3755CD" />
            <stop offset="1" stop-color="#3756D4" />
        </linearGradient>
        <linearGradient id="paint21_linear" x1="35694.1" y1="36901.9" x2="36187.5" y2="37073.7"
            gradientUnits="userSpaceOnUse">
            <stop offset="0.28" stop-color="#333333" />
            <stop offset="0.31" stop-color="#33353C" />
            <stop offset="0.48" stop-color="#354172" />
            <stop offset="0.64" stop-color="#364A9C" />
            <stop offset="0.79" stop-color="#3651BB" />
            <stop offset="0.91" stop-color="#3755CD" />
            <stop offset="1" stop-color="#3756D4" />
        </linearGradient>
        <linearGradient id="paint22_linear" x1="26687.4" y1="40789.5" x2="25718" y2="40048.6"
            gradientUnits="userSpaceOnUse">
            <stop stop-color="#CC5A89" />
            <stop offset="0.08" stop-color="#D26C96" />
            <stop offset="0.24" stop-color="#DD8BAE" />
            <stop offset="0.41" stop-color="#E5A4C1" />
            <stop offset="0.59" stop-color="#EBB5CE" />
            <stop offset="0.78" stop-color="#EFC0D5" />
            <stop offset="1" stop-color="#F0C3D8" />
        </linearGradient>
        <linearGradient id="paint23_linear" x1="700.563" y1="436.416" x2="691.404" y2="434.215"
            gradientUnits="userSpaceOnUse">
            <stop offset="0.28" stop-color="#333333" />
            <stop offset="0.31" stop-color="#33353C" />
            <stop offset="0.48" stop-color="#354172" />
            <stop offset="0.64" stop-color="#364A9C" />
            <stop offset="0.79" stop-color="#3651BB" />
            <stop offset="0.91" stop-color="#3755CD" />
            <stop offset="1" stop-color="#3756D4" />
        </linearGradient>
        <linearGradient id="paint24_linear" x1="699.723" y1="459.717" x2="690.559" y2="457.483"
            gradientUnits="userSpaceOnUse">
            <stop offset="0.28" stop-color="#333333" />
            <stop offset="0.31" stop-color="#33353C" />
            <stop offset="0.48" stop-color="#354172" />
            <stop offset="0.64" stop-color="#364A9C" />
            <stop offset="0.79" stop-color="#3651BB" />
            <stop offset="0.91" stop-color="#3755CD" />
            <stop offset="1" stop-color="#3756D4" />
        </linearGradient>
        <linearGradient id="paint25_linear" x1="993.179" y1="396.128" x2="984.02" y2="393.927"
            gradientUnits="userSpaceOnUse">
            <stop offset="0.28" stop-color="#333333" />
            <stop offset="0.31" stop-color="#33353C" />
            <stop offset="0.48" stop-color="#354172" />
            <stop offset="0.64" stop-color="#364A9C" />
            <stop offset="0.79" stop-color="#3651BB" />
            <stop offset="0.91" stop-color="#3755CD" />
            <stop offset="1" stop-color="#3756D4" />
        </linearGradient>
        <linearGradient id="paint26_linear" x1="999.039" y1="414.522" x2="989.88" y2="412.321"
            gradientUnits="userSpaceOnUse">
            <stop offset="0.28" stop-color="#333333" />
            <stop offset="0.31" stop-color="#33353C" />
            <stop offset="0.48" stop-color="#354172" />
            <stop offset="0.64" stop-color="#364A9C" />
            <stop offset="0.79" stop-color="#3651BB" />
            <stop offset="0.91" stop-color="#3755CD" />
            <stop offset="1" stop-color="#3756D4" />
        </linearGradient>
        <clipPath id="clip0">
            <rect width="13.93" height="13.93" fill="white"
                transform="translate(122.86 104.355) rotate(-104.353)" />
        </clipPath>
    </defs>
    <path
        d="M41.4797 201.81C41.1456 217.168 46.087 232.176 55.4797 244.33C69.0397 261.48 87.2597 266.67 94.9697 268.8C148.97 283.73 230.17 240.56 252.29 175.75C260.79 150.82 264.87 110.05 246.82 97.1703C237.87 90.7903 225.71 92.8705 223.29 85.8305C219.72 75.4405 244.29 65.3704 242.23 54.4904C239.23 38.3304 178.45 24.6604 142.51 51.4904C137.896 54.9388 133.804 59.0343 130.36 63.6504C128 58.9116 124.291 54.9765 119.7 52.3404C110.2 47.2104 101.32 51.3404 89.2397 53.0104C62.2397 56.6204 56.5097 42.5104 39.2397 48.0104C18.0597 54.6904 10.1398 81.1404 9.39975 83.7304C3.57975 104.16 7.70971 133.89 27.7297 143.88C38.1897 149.1 49.3297 147.09 55.1297 145.51C55.1497 145.51 -15.6103 170.13 41.4797 201.81Z"
        fill="url(#paint0_linear)" />
    <path
        d="M89.0028 245.612C86.7663 245.189 84.6197 244.388 82.6566 243.243L84.9798 239.335C91.2597 243.094 101.882 241.677 106.217 237.879C108.427 235.948 108.017 234.246 107.51 233.06C104.172 225.607 87.1533 231.276 87.0102 231.339L85.5093 227.04C88.9618 225.901 92.5306 225.149 96.1496 224.797C106.266 223.919 110.213 227.791 111.731 231.204C112.524 232.904 112.715 234.822 112.271 236.646C111.827 238.469 110.775 240.09 109.287 241.244C105 245.066 96.4491 247.081 89.0028 245.612Z"
        fill="#382A8C" />
    <path
        d="M72.4413 242.339C64.995 240.869 57.8553 235.753 55.3378 230.639C54.4128 229.007 54.071 227.11 54.3676 225.258C54.6643 223.406 55.5821 221.707 56.9718 220.438C59.697 217.873 64.84 215.792 73.8234 220.447C77.0261 222.146 80.0291 224.193 82.7778 226.551L79.7217 229.961C79.5865 229.832 66.0463 218.147 60.1003 223.742C59.2038 224.589 58.1511 226.013 59.4355 228.642C61.9538 233.792 71.2412 239.146 78.4879 238.058L79.1628 242.568C76.9246 242.866 74.6525 242.789 72.4413 242.339V242.339Z"
        fill="#382A8C" />
    <path d="M82.579 248.802L76.8682 247.674L74.1299 261.28L79.8408 262.408L82.579 248.802Z"
        fill="white" />
    <path
        d="M101.765 221.195L85.9657 218.074L70.1664 214.952C70.1664 214.952 66.0828 228.214 68.3101 240.53C68.796 243.249 70.0952 245.759 72.038 247.73C73.9807 249.702 76.4769 251.044 79.2006 251.582V251.582C81.9201 252.111 84.7379 251.816 87.2897 250.735C89.8415 249.655 92.0098 247.838 93.5141 245.519C100.401 234.97 101.765 221.195 101.765 221.195Z"
        fill="white" />
    <path
        d="M86.6069 269.071L65.7187 264.952C66.2722 262.196 67.9036 259.77 70.2536 258.208C72.6037 256.645 75.4801 256.074 78.2501 256.62C81.02 257.167 83.4565 258.785 85.0238 261.12C86.591 263.455 87.1605 266.315 86.6069 269.071V269.071Z"
        fill="#382A8C" />
    <path
        d="M90.0072 188.738L52.6078 198.768C50.647 199.288 48.3236 197.687 47.4344 195.158L11.5748 92.5486C10.3451 89.0318 11.259 85.6368 13.6351 85.015L58.2731 73.0484C60.6228 72.4167 63.3237 74.845 64.2912 78.4374L92.3612 183.126C93.0503 185.746 91.9862 188.21 90.0072 188.738Z"
        fill="url(#paint1_linear)" />
    <path
        d="M79.5826 67.3477L38.4555 78.3755C35.8416 79.0764 34.2908 81.7635 34.9917 84.3774L63.5272 190.798C64.2281 193.412 66.9153 194.963 69.5291 194.262L110.656 183.234C113.27 182.533 114.821 179.846 114.12 177.232L85.5845 70.8115C84.8836 68.1976 82.1965 66.6468 79.5826 67.3477Z"
        fill="white" />
    <path d="M75.791 136.202L55.1965 127.238L72.9182 193.321L89.8805 188.775L75.791 136.202Z"
        fill="white" stroke="#3756D4" stroke-width="0.87" stroke-linejoin="round" />
    <path d="M115.386 125.591L94.7912 116.627L112.513 182.71L129.484 178.159L115.386 125.591Z"
        fill="url(#paint2_linear)" />
    <path d="M55.1963 127.238L94.7916 116.626L115.386 125.59L75.7909 136.202L55.1963 127.238Z"
        fill="white" stroke="#3756D4" stroke-width="0.87" stroke-linejoin="round" />
    <path d="M65.1035 126.524L93.5247 118.907L108.303 125.336L79.8821 132.953L65.1035 126.524Z"
        fill="#3756D4" />
    <path d="M75.8182 136.225L89.915 188.798L129.516 178.179L115.419 125.606L75.8182 136.225Z"
        fill="white" stroke="#3756D4" stroke-width="0.87" stroke-linejoin="round" />
    <path
        d="M113.664 141.772L119.789 164.631L91.5037 172.208L85.3829 149.358L92.4542 147.464L93.227 147.255L94.334 146.959L97.5242 146.098L98.7305 145.778L98.7619 145.775L102.395 144.8L103.52 144.496L113.664 141.772Z"
        fill="url(#paint3_linear)" />
    <path d="M102.38 144.833L108.508 167.686L119.818 164.653L113.691 141.8L102.38 144.833Z"
        fill="url(#paint4_linear)" />
    <path
        d="M78.9399 77.6414L45.8103 86.5247C43.7512 87.0768 42.5296 89.1936 43.0817 91.2527L50.6287 119.398C51.1808 121.457 53.2976 122.679 55.3567 122.127L88.4863 113.244C90.5454 112.692 91.7671 110.575 91.215 108.516L83.668 80.3699C83.1159 78.3109 80.999 77.0893 78.9399 77.6414Z"
        fill="#3756D4" />
    <path
        d="M83.9008 98.5454C84.2457 102.244 83.2379 105.941 81.0644 108.953C78.891 111.965 75.6992 114.087 72.0807 114.925C71.4084 115.087 70.7254 115.2 70.0369 115.263C66.1071 115.42 62.2665 114.065 59.3057 111.476C56.3449 108.887 54.4892 105.262 54.1205 101.346C53.7519 97.4307 54.8983 93.5227 57.3238 90.4267C59.7493 87.3307 63.2694 85.2822 67.1595 84.7031C67.8487 84.6362 68.5417 84.6177 69.2335 84.6478C72.9449 84.8008 76.4753 86.2929 79.1717 88.8478C81.8681 91.4027 83.5481 94.8477 83.9008 98.5454Z"
        fill="#96ABFF" />
    <path
        d="M73.8379 111.453C80.1696 108.566 82.9622 101.093 80.0753 94.7612C77.1884 88.4295 69.7153 85.6369 63.3835 88.5238C57.0518 91.4107 54.2592 98.8838 57.1461 105.216C60.033 111.547 67.5061 114.34 73.8379 111.453Z"
        fill="#96ABFF" />
    <path
        d="M66.1105 90.6979L70.4922 95.2944L76.8195 94.8054L73.8002 100.38L76.2121 106.249L69.9747 105.103L65.1462 109.217L64.3023 102.93L58.9082 99.6088L64.623 96.8604L66.1105 90.6979Z"
        fill="white" />
    <path
        d="M63.7215 89.3142C65.9089 88.3127 68.3512 88.0074 70.7179 88.4396C73.0846 88.8718 75.2614 90.0206 76.9536 91.7307C78.6458 93.4407 79.7719 95.6294 80.1793 98.0004C80.5867 100.371 80.2558 102.811 79.2315 104.987C78.2071 107.164 76.5388 108.974 74.4521 110.171C72.3655 111.368 69.9614 111.896 67.5651 111.682C65.1688 111.468 62.8961 110.523 61.0545 108.975C59.2129 107.427 57.8913 105.351 57.2687 103.027C56.5362 100.347 56.7836 97.4942 57.9664 94.9806C59.1492 92.4671 61.1899 90.4578 63.7215 89.3142V89.3142ZM63.3648 88.5317C60.4122 89.8858 58.0972 92.3286 56.9037 95.3496C55.7102 98.3707 55.7305 101.736 56.9603 104.742C58.1902 107.749 60.5345 110.164 63.5031 111.482C66.4718 112.8 69.835 112.92 72.8901 111.817C75.9451 110.713 78.4556 108.472 79.8966 105.561C81.3375 102.65 81.5975 99.2941 80.6223 96.1958C79.6471 93.0974 77.512 90.4956 74.6635 88.9346C71.8149 87.3736 68.4733 86.9741 65.3369 87.8194C64.662 88.0053 64.0027 88.2434 63.3648 88.5317V88.5317Z"
        fill="white" />
    <path
        d="M98.7631 145.774L102.045 152.971C101.815 153.093 101.578 153.201 101.335 153.295L100.552 153.652C99.5988 154.079 98.5476 154.241 97.5097 154.12C96.4718 154 95.4859 153.601 94.656 152.966C93.8262 152.331 93.1831 151.484 92.7951 150.513C92.407 149.543 92.2882 148.486 92.4512 147.454L93.2148 147.249L94.3309 146.949L97.5253 146.097L98.7183 145.773L98.7631 145.774Z"
        fill="#96ABFF" />
    <path
        d="M104.218 145.661C104.799 146.934 104.9 148.375 104.502 149.717C104.103 151.058 103.232 152.21 102.05 152.958C101.82 153.08 101.583 153.188 101.34 153.282C100.395 153.713 99.3512 153.883 98.3182 153.772C97.2852 153.661 96.3011 153.274 95.469 152.652C94.6369 152.03 93.9874 151.196 93.5888 150.236C93.1901 149.277 93.057 148.228 93.2033 147.2L94.3194 146.899L97.5139 146.047L98.7068 145.723L102.34 144.748L103.456 144.448C103.761 144.818 104.017 145.226 104.218 145.661V145.661Z"
        fill="white" />
    <path
        d="M103.271 146.092C103.737 147.119 103.822 148.279 103.511 149.363C103.199 150.448 102.513 151.386 101.573 152.01C101.357 152.157 101.129 152.286 100.892 152.397C100.082 152.763 99.185 152.894 98.3037 152.776C97.4223 152.658 96.5917 152.296 95.9058 151.73C95.2199 151.164 94.7062 150.417 94.423 149.574C94.1397 148.731 94.0984 147.826 94.3034 146.961L97.4977 146.109L98.6908 145.785L102.324 144.81C102.71 145.18 103.03 145.614 103.271 146.092V146.092Z"
        fill="#96ABFF" />
    <path
        d="M97.6536 150.898L96.5479 150.775C96.3837 150.757 96.2344 150.665 96.1329 150.521C96.0314 150.377 95.986 150.191 96.0066 150.005L96.1457 148.754C96.1664 148.568 96.2514 148.398 96.3822 148.279C96.5129 148.161 96.6786 148.104 96.8428 148.123L97.86 148.236C97.9304 148.243 97.9944 148.283 98.0379 148.344C98.0814 148.406 98.1008 148.486 98.092 148.565C98.0861 148.619 98.0991 148.671 98.1281 148.713C98.1571 148.754 98.1997 148.78 98.2466 148.785L98.512 148.815L98.4675 149.215L98.2021 149.186C98.077 149.171 97.9616 149.107 97.8763 149.005C97.7909 148.903 97.7412 148.769 97.7359 148.627L96.7983 148.523C96.7279 148.515 96.6569 148.539 96.6009 148.59C96.5448 148.641 96.5084 148.714 96.4995 148.794L96.3604 150.045C96.3516 150.124 96.3711 150.204 96.4146 150.266C96.4581 150.328 96.522 150.367 96.5924 150.374L97.6981 150.497C97.7685 150.505 97.8395 150.481 97.8955 150.43C97.9515 150.38 97.988 150.306 97.9968 150.227L98.0803 149.476L98.4341 149.515L98.3506 150.266C98.33 150.452 98.2449 150.623 98.1142 150.741C97.9835 150.86 97.8178 150.916 97.6536 150.898Z"
        fill="white" />
    <path
        d="M100.351 151.197L99.2452 151.074C99.081 151.055 98.9317 150.964 98.8302 150.82C98.7287 150.675 98.6832 150.49 98.7039 150.304L98.8319 149.153C98.8407 149.074 98.8772 149 98.9332 148.95C98.9892 148.899 99.0602 148.875 99.1306 148.882C99.1775 148.888 99.2249 148.872 99.2622 148.838C99.2996 148.804 99.3239 148.755 99.3298 148.702L99.3632 148.402L99.717 148.441L99.6836 148.741C99.6675 148.883 99.6077 149.015 99.5148 149.114C99.4218 149.213 99.3017 149.273 99.1757 149.283L99.0577 150.344C99.0489 150.423 99.0683 150.503 99.1118 150.565C99.1553 150.626 99.2193 150.665 99.2897 150.673L100.395 150.796C100.466 150.804 100.537 150.78 100.593 150.729C100.649 150.678 100.685 150.605 100.694 150.525L100.833 149.274C100.842 149.195 100.823 149.115 100.779 149.053C100.736 148.992 100.672 148.952 100.601 148.945L99.9378 148.871L99.9823 148.471L100.646 148.544C100.81 148.563 100.959 148.654 101.061 148.798C101.162 148.942 101.208 149.128 101.187 149.314L101.048 150.565C101.027 150.751 100.942 150.922 100.811 151.04C100.681 151.159 100.515 151.215 100.351 151.197Z"
        fill="white" />
    <path
        d="M100.691 148.145L99.6735 148.032C99.6031 148.024 99.5391 147.985 99.4956 147.923C99.4521 147.861 99.4326 147.782 99.4415 147.702C99.4474 147.649 99.4344 147.596 99.4054 147.555C99.3764 147.513 99.3338 147.487 99.2868 147.482L99.0215 147.453L99.066 147.052L99.3314 147.082C99.4565 147.096 99.5719 147.16 99.6572 147.262C99.7425 147.364 99.7923 147.498 99.7976 147.64L100.735 147.744C100.806 147.752 100.877 147.728 100.933 147.677C100.989 147.627 101.025 147.553 101.034 147.474L101.173 146.223C101.182 146.143 101.162 146.064 101.119 146.002C101.075 145.94 101.011 145.901 100.941 145.893L99.8354 145.77C99.765 145.762 99.694 145.786 99.638 145.837C99.582 145.888 99.5455 145.961 99.5367 146.041L99.4532 146.791L99.0994 146.752L99.1828 146.001C99.2035 145.816 99.2886 145.645 99.4193 145.526C99.55 145.408 99.7157 145.351 99.8799 145.37L100.986 145.493C101.15 145.511 101.299 145.602 101.401 145.746C101.502 145.891 101.547 146.076 101.527 146.262L101.388 147.513C101.367 147.699 101.282 147.87 101.151 147.988C101.021 148.107 100.855 148.163 100.691 148.145Z"
        fill="white" />
    <path
        d="M98.1693 147.864L97.8155 147.824L97.8489 147.524C97.865 147.383 97.9248 147.251 98.0177 147.151C98.1107 147.052 98.2308 146.993 98.3568 146.983L98.4748 145.922C98.4836 145.842 98.4642 145.763 98.4207 145.701C98.3772 145.639 98.3132 145.6 98.2428 145.592L97.1372 145.469C97.0668 145.461 96.9958 145.485 96.9397 145.536C96.8837 145.587 96.8473 145.66 96.8384 145.74L96.6993 146.991C96.6905 147.071 96.7099 147.15 96.7534 147.212C96.7969 147.274 96.8609 147.313 96.9313 147.321L97.5947 147.395L97.5502 147.795L96.8868 147.721C96.7226 147.703 96.5733 147.612 96.4718 147.467C96.3703 147.323 96.3248 147.137 96.3455 146.952L96.4846 145.701C96.5053 145.515 96.5903 145.344 96.721 145.225C96.8518 145.107 97.0175 145.051 97.1817 145.069L98.2873 145.192C98.4515 145.21 98.6008 145.301 98.7023 145.446C98.8038 145.59 98.8493 145.775 98.8286 145.961L98.7006 147.112C98.6918 147.192 98.6553 147.265 98.5993 147.316C98.5433 147.367 98.4723 147.391 98.4019 147.383C98.355 147.378 98.3076 147.394 98.2703 147.428C98.2329 147.462 98.2086 147.51 98.2027 147.563L98.1693 147.864Z"
        fill="white" />
    <path
        d="M61.0976 51.5717C50.8125 51.865 52.2733 61.288 38.3188 66.0679C38.0149 63.8105 37.6794 61.4357 37.346 59.3787C36.4291 53.752 35.6452 50.0319 35.6452 50.0319C35.6452 50.0319 34.2693 44.6036 31.6403 44.912C29.3391 45.1919 27.8899 48.0397 31.8767 51.7941C32.9587 52.8174 32.6914 63.5121 32.5504 67.5658C30.2634 67.9492 29.8924 65.6894 27.2998 63.8601C24.7073 62.0308 21.7189 62.0087 21.4363 62.4013C21.1537 62.7939 22.3882 65.4291 22.3882 65.4291C21.9816 65.771 21.611 66.1537 21.2822 66.5709L20.5098 67.7693C20.5098 67.7693 17.8194 67.1716 17.517 67.6172C17.3137 67.9187 17.6668 68.428 18.1595 69.4123C18.8036 70.6148 19.5999 71.7293 20.5287 72.7283C29.3532 81.091 41.7639 78.8066 41.7639 78.8066C41.7639 78.8066 53.48 74.2999 61.1936 70.9698C62.7377 70.346 64.1245 69.3878 65.254 68.164C66.3835 66.9402 67.2278 65.4812 67.726 63.8921C68.3891 65.3482 68.7351 66.9288 68.741 68.5288C68.8485 73.3925 65.6699 75.7979 62.932 77.7716C60.1941 79.7453 54.6296 82.1725 55.7282 83.9796C56.5781 85.3615 70.0971 81.7474 72.6161 70.7845C74.6873 61.2017 70.6744 51.3157 61.0976 51.5717Z"
        fill="#96ABFF" />
    <path
        d="M27.6265 77.7356C27.6265 77.7356 23.1333 81.2349 25.0751 82.8664C26.3517 83.9549 28.3031 83.8235 34.4177 81.9038C40.5323 79.9842 41.1147 79.7187 41.1147 79.7187C41.1147 79.7187 42.3878 81.4022 43.7944 81.1126C45.877 80.6906 47.5902 78.5906 46.1894 76.7235C44.6186 74.6042 41.7057 74.8443 38.369 75.7941C34.8235 76.6233 31.238 77.2713 27.6265 77.7356V77.7356Z"
        fill="#96ABFF" />
    <path
        d="M44.2961 81.4441L43.8627 81.5539C42.5644 81.8161 41.421 80.7548 40.9603 80.2505C40.3754 80.4622 38.7945 80.9961 34.5446 82.3294C28.358 84.2599 26.2611 84.4576 24.789 83.2055C24.5847 83.0366 24.4214 82.8236 24.3115 82.5824C24.2015 82.3413 24.1477 82.0783 24.1543 81.8133C24.1959 79.904 27.0386 77.6298 27.3653 77.382L27.4744 77.3322L27.5745 77.2865C27.6382 77.2575 34.9978 76.3088 38.2666 75.3789C41.183 74.5438 44.6905 73.9448 46.5688 76.4734C46.8543 76.8426 47.04 77.279 47.1081 77.7407C47.1762 78.2024 47.1243 78.6738 46.9575 79.1097C46.7106 79.6691 46.3445 80.1678 45.8848 80.571C45.4251 80.9742 44.8829 81.2722 44.2961 81.4441ZM41.2314 79.1817L41.4452 79.4579C41.7527 79.8672 42.7636 80.879 43.6579 80.6471C44.1851 80.5507 44.6816 80.3296 45.1059 80.0023C45.5302 79.675 45.8702 79.251 46.0972 78.7656C46.214 78.4684 46.2496 78.1453 46.2004 77.8298C46.1511 77.5143 46.0189 77.2176 45.8171 76.9701C44.6052 75.3245 42.3357 75.0954 38.4745 76.1964C34.9449 77.0283 31.3725 77.6664 27.7732 78.1081C26.9753 78.7686 25.0218 80.5826 25.0464 81.7693C25.0406 81.9048 25.0668 82.0396 25.123 82.1629C25.1793 82.2862 25.2639 82.3945 25.3699 82.479C26.3955 83.3302 27.9863 83.3962 34.2953 81.4209C40.1651 79.5909 40.8971 79.2681 40.9244 79.2557L41.2314 79.1817Z"
        fill="white" />
    <path
        d="M23.5393 68.773C23.5098 68.7763 23.4814 68.7856 23.4555 68.8003C23.4297 68.8149 23.4071 68.8346 23.3891 68.8582C23.3711 68.8818 23.3582 68.9089 23.3509 68.9376C23.3436 68.9664 23.3421 68.9963 23.3467 69.0257C23.3786 69.1653 23.3801 69.31 23.3512 69.4503C23.3222 69.5905 23.2634 69.723 23.1789 69.8386C22.9709 70.0616 22.6829 70.1929 22.3782 70.2037C22.3186 70.2043 22.2615 70.2281 22.2191 70.27C22.1767 70.3119 22.1523 70.3686 22.1509 70.4282C22.1514 70.4863 22.1747 70.5418 22.216 70.5827C22.2573 70.6236 22.3131 70.6464 22.3712 70.6463C22.5488 70.6484 22.7254 70.6199 22.8934 70.5621C23.1366 70.4924 23.3564 70.358 23.5294 70.1733C23.6607 70.0027 23.752 69.8048 23.7967 69.5942C23.8414 69.3836 23.8384 69.1657 23.7878 68.9564C23.7788 68.8993 23.7477 68.8481 23.7012 68.8137C23.6547 68.7794 23.5965 68.7648 23.5393 68.773V68.773Z"
        fill="#382A8C" />
    <path
        d="M26.3212 66.7032C26.4473 66.5325 26.5335 66.3356 26.5735 66.1272C26.6135 65.9188 26.6062 65.704 26.5523 65.4988C26.5401 65.4418 26.5067 65.3916 26.4589 65.3584C26.4111 65.3251 26.3524 65.3111 26.2948 65.3194C26.2378 65.3317 26.1876 65.3652 26.1543 65.413C26.121 65.4608 26.1072 65.5194 26.1155 65.5771C26.1539 65.7186 26.1607 65.8669 26.1354 66.0114C26.1101 66.1559 26.0534 66.293 25.9691 66.4131C25.757 66.6301 25.4715 66.7603 25.1684 66.7781C25.1103 66.7786 25.0547 66.8021 25.0138 66.8434C24.973 66.8847 24.9501 66.9404 24.9502 66.9985C24.9542 67.0566 24.9801 67.1111 25.0227 67.1509C25.0653 67.1906 25.1214 67.2127 25.1797 67.2126C25.3392 67.211 25.4973 67.1835 25.648 67.131C25.9089 67.0562 26.1426 66.9076 26.3212 66.7032V66.7032Z"
        fill="#382A8C" />
    <path
        d="M28.6024 68.3323C28.548 68.3122 28.4877 68.3143 28.4348 68.3384C28.382 68.3625 28.3408 68.4066 28.3203 68.4609C28.2747 68.5869 28.2042 68.7023 28.113 68.8005C28.0219 68.8987 27.9119 68.9776 27.7896 69.0325C27.692 69.0544 27.5905 69.053 27.4935 69.0285C27.3964 69.0041 27.3065 68.9572 27.2309 68.8916C27.2309 68.8916 27.2308 68.8917 27.1762 68.9165L26.922 68.0213C26.9083 67.9811 26.8843 67.9453 26.8523 67.9174C26.8203 67.8896 26.7814 67.8706 26.7397 67.8626C26.698 67.8605 26.6564 67.8684 26.6184 67.8858C26.5804 67.9031 26.5471 67.9293 26.5214 67.9622L25.877 68.9594C25.8536 68.9916 25.8403 69.0301 25.8388 69.0699C25.8374 69.1097 25.8479 69.149 25.869 69.1828C25.8856 69.219 25.913 69.2492 25.9477 69.2689C25.9823 69.2886 26.0222 69.297 26.0619 69.2928L26.8722 69.2859C27.0483 69.5484 27.1228 69.8661 27.0817 70.1796C27.0563 70.2416 27.0168 70.2969 26.9662 70.3409C26.9157 70.3849 26.8556 70.4165 26.7907 70.4331C26.7632 70.4426 26.738 70.4575 26.7163 70.4768C26.6946 70.4962 26.677 70.5195 26.6644 70.5457C26.6518 70.5719 26.6445 70.6003 26.6429 70.6293C26.6414 70.6583 26.6456 70.6874 26.6553 70.7147C26.6757 70.7674 26.7147 70.8106 26.765 70.8363C26.8152 70.8621 26.8731 70.8685 26.9277 70.8543V70.8543C27.056 70.8157 27.1735 70.7476 27.2708 70.6555C27.3681 70.5634 27.4426 70.4499 27.4883 70.3239C27.5652 70.0615 27.5532 69.7811 27.4542 69.5262C27.6046 69.5544 27.7595 69.5476 27.9069 69.5066C28.0898 69.4267 28.255 69.3116 28.3931 69.1675C28.5311 69.0235 28.6392 68.8534 28.7112 68.6673C28.7309 68.6394 28.7439 68.6072 28.749 68.5734C28.7541 68.5396 28.7512 68.505 28.7407 68.4725C28.7301 68.44 28.7121 68.4104 28.6881 68.3861C28.6641 68.3617 28.6348 68.3433 28.6024 68.3323V68.3323Z"
        fill="#382A8C" />
    <path
        d="M56.6821 56.1576C55.3306 57.1087 54.3844 58.5315 54.0299 60.1456C53.6754 61.7597 53.9385 63.4481 54.7672 64.8779C55.9549 67.1519 57.7151 69.0767 59.8741 70.4624C59.8741 70.4624 52.3171 73.1716 51.393 74.8568C51.137 75.2958 51.0282 75.8052 51.0825 76.3105C51.1369 76.8157 51.3515 77.2901 51.695 77.6646L66.9191 72.9214C66.9191 72.9214 70.7302 63.6114 67.4555 58.7191C66.922 57.8374 66.2183 57.0706 65.3856 56.4634C64.5529 55.8563 63.6077 55.4209 62.6051 55.1825C61.6025 54.9442 60.5626 54.9076 59.5457 55.075C58.5288 55.2424 57.5554 55.6104 56.6821 56.1576V56.1576Z"
        fill="#96ABFF" />
    <path
        d="M67.2566 73.229L51.6139 78.163L51.4234 77.9861C51.0152 77.5464 50.7556 76.9895 50.6814 76.3941C50.6072 75.7988 50.7221 75.1951 51.0099 74.6687C51.7961 73.2112 56.8371 71.1546 58.9375 70.3618C57.061 68.9585 55.5141 67.1618 54.4052 65.0976C53.5317 63.5687 53.2586 61.7694 53.6387 60.0501C54.0189 58.3308 55.0251 56.8145 56.4618 55.7963C57.3828 55.2208 58.4088 54.8334 59.4803 54.6563C60.5518 54.4791 61.6478 54.5158 62.7051 54.7642C63.7624 55.0126 64.76 55.4679 65.6405 56.1037C66.521 56.7395 67.2669 57.5433 67.8353 58.4687C71.2344 63.5132 67.4952 72.6915 67.3425 73.0798L67.2566 73.229ZM51.866 77.1248L66.5887 72.5114C67.0837 71.1866 69.9487 63.1762 67.0943 58.9165C66.5868 58.0896 65.9213 57.3709 65.1358 56.8015C64.3502 56.2321 63.4602 55.8231 62.5164 55.598C61.5727 55.373 60.5938 55.3362 59.6358 55.4899C58.6778 55.6435 57.7596 55.9846 56.9335 56.4935V56.4935C55.6813 57.3918 54.8065 58.7222 54.4781 60.2279C54.1496 61.7336 54.3909 63.3076 55.1553 64.6457C56.3127 66.8519 58.0177 68.7237 60.1065 70.0815L60.9579 70.5506L60.0149 70.8927C57.1815 71.9098 52.3547 73.9787 51.7783 75.0767C51.6067 75.3943 51.5243 75.7522 51.5398 76.1128C51.5552 76.4734 51.6679 76.8231 51.866 77.1248V77.1248Z"
        fill="white" />
    <path
        d="M105.598 174.53L123.65 194.38C123.335 194.777 122.989 195.147 122.616 195.489L121.372 196.617C116.779 200.788 108.987 199.681 103.963 194.157C101.575 191.601 100.155 188.291 99.9491 184.799C99.8342 183.268 100.062 181.731 100.617 180.299C101.171 178.868 102.038 177.578 103.155 176.524L104.399 175.396C104.776 175.078 105.177 174.788 105.598 174.53V174.53Z"
        fill="#96ABFF" />
    <path
        d="M121.802 177.89C126.422 182.96 127.096 190.006 123.637 194.352C123.322 194.749 122.977 195.119 122.604 195.461C118.01 199.632 110.21 198.529 105.181 192.996C100.153 187.464 99.7999 179.602 104.393 175.431C104.766 175.091 105.165 174.781 105.586 174.502C110.246 171.465 117.192 172.816 121.802 177.89Z"
        fill="white" />
    <path
        d="M120.955 193.803C124.719 190.382 124.427 183.931 120.304 179.394C116.18 174.858 109.786 173.954 106.022 177.375C102.258 180.797 102.55 187.248 106.673 191.784C110.797 196.32 117.191 197.224 120.955 193.803Z"
        fill="#96ABFF" />
    <path
        d="M114.514 191.154L112.585 192.22C112.298 192.378 111.952 192.402 111.623 192.284C111.294 192.167 111.008 191.919 110.829 191.595L109.622 189.412C109.443 189.088 109.385 188.714 109.461 188.373C109.537 188.031 109.74 187.751 110.027 187.592L111.801 186.611C111.924 186.543 112.073 186.533 112.214 186.584C112.355 186.634 112.477 186.74 112.554 186.879C112.605 186.972 112.687 187.043 112.781 187.076C112.875 187.11 112.974 187.103 113.056 187.058L113.519 186.802L113.905 187.5L113.442 187.756C113.223 187.876 112.963 187.905 112.708 187.837C112.454 187.77 112.22 187.61 112.049 187.386L110.413 188.291C110.29 188.359 110.203 188.479 110.17 188.625C110.138 188.771 110.163 188.932 110.239 189.071L111.446 191.254C111.523 191.392 111.645 191.499 111.787 191.549C111.928 191.599 112.076 191.589 112.199 191.521L114.128 190.455C114.251 190.387 114.338 190.267 114.371 190.121C114.403 189.974 114.378 189.814 114.301 189.675L113.577 188.365L114.195 188.024L114.919 189.334C115.098 189.658 115.156 190.032 115.08 190.373C115.004 190.714 114.801 190.995 114.514 191.154Z"
        fill="white" />
    <path
        d="M119.219 188.551L117.29 189.617C117.003 189.776 116.657 189.799 116.328 189.682C115.999 189.564 115.713 189.316 115.534 188.992L114.424 186.984C114.347 186.845 114.322 186.685 114.354 186.539C114.387 186.392 114.474 186.272 114.597 186.204C114.679 186.159 114.737 186.079 114.759 185.981C114.78 185.884 114.764 185.777 114.713 185.684L114.423 185.16L115.04 184.819L115.33 185.343C115.466 185.59 115.52 185.872 115.483 186.139C115.446 186.406 115.32 186.64 115.128 186.8L116.151 188.651C116.228 188.79 116.35 188.896 116.492 188.946C116.633 188.997 116.781 188.987 116.904 188.919L118.833 187.852C118.956 187.785 119.043 187.664 119.076 187.518C119.108 187.372 119.083 187.212 119.006 187.073L117.8 184.89C117.723 184.751 117.6 184.644 117.459 184.594C117.318 184.544 117.17 184.554 117.047 184.622L115.89 185.262L115.503 184.563L116.661 183.923C116.947 183.765 117.293 183.742 117.623 183.859C117.952 183.976 118.238 184.224 118.417 184.548L119.624 186.731C119.803 187.056 119.861 187.429 119.785 187.771C119.709 188.112 119.506 188.393 119.219 188.551Z"
        fill="white" />
    <path
        d="M116.276 183.226L114.501 184.207C114.378 184.275 114.23 184.285 114.089 184.235C113.948 184.184 113.825 184.078 113.748 183.939C113.697 183.846 113.615 183.776 113.521 183.742C113.427 183.709 113.328 183.715 113.247 183.76L112.784 184.016L112.397 183.318L112.86 183.062C113.079 182.942 113.339 182.913 113.594 182.981C113.849 183.048 114.083 183.208 114.254 183.432L115.89 182.527C116.012 182.459 116.1 182.339 116.132 182.193C116.165 182.047 116.14 181.886 116.063 181.747L114.856 179.565C114.78 179.426 114.657 179.319 114.516 179.269C114.375 179.219 114.227 179.229 114.104 179.297L112.175 180.363C112.052 180.431 111.964 180.551 111.932 180.697C111.899 180.844 111.924 181.004 112.001 181.143L112.725 182.453L112.108 182.794L111.384 181.484C111.205 181.16 111.146 180.786 111.222 180.445C111.298 180.104 111.502 179.823 111.788 179.664L113.718 178.598C114.004 178.44 114.35 178.417 114.679 178.534C115.009 178.651 115.294 178.899 115.474 179.223L116.68 181.406C116.86 181.73 116.918 182.104 116.842 182.445C116.766 182.787 116.562 183.067 116.276 183.226Z"
        fill="white" />
    <path
        d="M111.876 185.657L111.259 185.998L110.97 185.474C110.833 185.227 110.779 184.945 110.816 184.678C110.853 184.412 110.979 184.177 111.172 184.017L110.148 182.166C110.072 182.027 109.949 181.921 109.808 181.871C109.667 181.82 109.518 181.83 109.396 181.898L107.467 182.965C107.344 183.032 107.256 183.153 107.224 183.299C107.191 183.445 107.216 183.606 107.293 183.744L108.5 185.927C108.577 186.066 108.699 186.173 108.84 186.223C108.981 186.273 109.13 186.263 109.252 186.195L110.41 185.555L110.796 186.254L109.639 186.894C109.352 187.052 109.006 187.075 108.677 186.958C108.347 186.841 108.062 186.593 107.882 186.269L106.676 184.086C106.497 183.762 106.438 183.388 106.514 183.046C106.59 182.705 106.794 182.424 107.08 182.266L109.01 181.2C109.296 181.041 109.642 181.018 109.971 181.135C110.301 181.253 110.586 181.501 110.766 181.825L111.876 183.833C111.953 183.972 111.978 184.132 111.945 184.279C111.913 184.425 111.825 184.545 111.702 184.613C111.621 184.658 111.562 184.738 111.541 184.836C111.519 184.933 111.536 185.04 111.587 185.133L111.876 185.657Z"
        fill="white" />
    <path
        d="M249.191 118.543L249.143 118.508C249.102 118.498 249.064 118.481 249.031 118.457C248.997 118.433 248.969 118.402 248.947 118.367C248.926 118.331 248.912 118.292 248.906 118.251C248.9 118.21 248.902 118.169 248.912 118.129C248.965 118.056 251.151 108.443 249.946 103.163L249.78 102.509C248.758 98.5529 249.055 97.1473 250.104 94.4084L250.332 93.7076C251.079 91.3436 251.213 88.8285 250.722 86.3984C250.461 85.3655 249.418 82.2858 249.406 82.252C249.381 82.1743 249.388 82.09 249.425 82.0173C249.462 81.9446 249.526 81.8893 249.603 81.8636C249.681 81.8392 249.764 81.8452 249.838 81.8804C249.911 81.9155 249.968 81.9772 249.997 82.0529C250.039 82.1824 251.049 85.1884 251.32 86.2412C251.836 88.7803 251.692 91.4093 250.902 93.8768L250.671 94.5996C249.633 97.2723 249.343 98.5838 250.354 102.334L250.522 103.002C251.787 108.437 249.571 117.855 249.514 118.271C249.504 118.349 249.466 118.42 249.406 118.471C249.346 118.521 249.269 118.547 249.191 118.543Z"
        fill="white" />
    <path
        d="M248.686 80.4747L248.275 83.7299L251.909 83.03L250.028 80.3165L250.493 80.2229C254.318 79.4487 257.685 77.1995 259.865 73.962C262.045 70.7245 262.863 66.7589 262.141 62.9232V62.9232C261.609 60.1323 260.286 57.5534 258.328 55.494C256.371 53.4346 253.863 51.9817 251.102 51.3085C248.342 50.6353 245.446 50.7702 242.761 51.6973C240.075 52.6244 237.713 54.3045 235.956 56.5371C234.199 58.7698 233.121 61.4607 232.85 64.289C232.58 67.1174 233.13 69.9637 234.433 72.4885C235.735 75.0133 237.737 77.11 240.199 78.5286C242.661 79.9472 245.478 80.6278 248.316 80.4892L248.686 80.4747Z"
        fill="url(#paint5_linear)" />
    <path
        d="M173.036 121.09L172.918 121.11C172.793 121.131 172.665 121.104 172.561 121.033C172.456 120.961 172.383 120.853 172.356 120.729C172.331 120.581 169.54 105.566 164.501 98.8245L163.852 97.9913C159.962 93.0019 159.502 90.8282 159.299 86.2881L159.186 85.1408C158.788 81.3283 157.432 77.6786 155.245 74.5307C154.232 73.2218 150.84 69.4968 150.804 69.4623C150.72 69.3676 150.677 69.2432 150.684 69.1166C150.691 68.9899 150.747 68.8715 150.842 68.7866C150.887 68.7433 150.941 68.7096 151 68.6874C151.059 68.6653 151.122 68.655 151.185 68.6576C151.247 68.6602 151.309 68.6755 151.366 68.7023C151.423 68.7292 151.474 68.7672 151.516 68.8141C151.654 68.9732 154.96 72.6114 156.008 73.9449C158.309 77.2339 159.733 81.056 160.144 85.0492L160.251 86.2177C160.455 90.646 160.86 92.6159 164.613 97.3954L165.263 98.2387C170.438 105.181 173.194 119.927 173.301 120.558C173.323 120.664 173.309 120.774 173.261 120.87C173.213 120.967 173.134 121.044 173.036 121.09V121.09Z"
        fill="white" />
    <path
        d="M157.345 33.773C154.804 30.0659 151.25 27.168 147.108 25.4246C142.966 23.6812 138.409 23.166 133.982 23.9404C129.555 24.7148 125.444 26.7461 122.139 29.7921C118.835 32.8382 116.476 36.7705 115.344 41.12C114.213 45.4695 114.356 50.0527 115.756 54.3231C117.157 58.5935 119.757 62.3708 123.245 65.2048C126.733 68.0387 130.963 69.8097 135.43 70.3064C139.897 70.8031 144.412 70.0046 148.438 68.0061L149.897 72.9618L155.774 68.9215L151.423 66.2316C156.489 62.694 159.953 57.2994 161.062 51.2209C162.171 45.1424 160.835 38.8717 157.345 33.773V33.773Z"
        fill="white" stroke="#3756D4" stroke-width="0.87" stroke-miterlimit="10" />
    <path
        d="M197.689 120.123C197.655 120.137 197.618 120.144 197.581 120.141C197.524 120.127 197.471 120.103 197.424 120.069C197.378 120.034 197.338 119.991 197.308 119.942C197.278 119.892 197.258 119.837 197.249 119.78C197.24 119.723 197.243 119.664 197.257 119.608C197.235 119.479 200.481 105.733 198.689 98.1658L198.443 97.1932C196.975 91.5291 197.414 89.5171 198.92 85.5999L199.256 84.5896C200.323 81.2151 200.526 77.6269 199.848 74.1534C199.465 72.6766 197.976 68.2634 197.969 68.224C197.95 68.1693 197.941 68.1116 197.944 68.0536C197.947 67.9957 197.962 67.9388 197.987 67.8865C198.012 67.8341 198.047 67.7872 198.09 67.7486C198.133 67.7099 198.184 67.6803 198.239 67.6612C198.294 67.6417 198.353 67.6333 198.411 67.6368C198.47 67.6404 198.527 67.6557 198.58 67.6818C198.633 67.7078 198.679 67.7442 198.718 67.7886C198.756 67.8331 198.785 67.8846 198.803 67.9405C198.835 68.1278 200.314 72.4208 200.704 73.9371C201.434 77.5748 201.225 81.3388 200.095 84.873L199.759 85.9443C198.288 89.7644 197.905 91.574 199.306 97.0164L199.552 97.9889C201.364 105.796 198.226 119.281 198.09 119.852C198.057 119.931 198.001 119.999 197.93 120.047C197.859 120.095 197.775 120.122 197.689 120.123V120.123Z"
        fill="white" />
    <path
        d="M196.506 66.0581C192.49 66.248 188.501 65.3156 184.985 63.3653C181.47 61.415 178.567 58.5241 176.603 55.0167C174.639 51.5092 173.69 47.5237 173.864 43.5073C174.037 39.491 175.326 35.6024 177.586 32.2776C179.177 29.9214 181.22 27.9048 183.597 26.3452C185.974 24.7856 188.637 23.7141 191.431 23.1928L191.865 23.1192C194.659 22.6051 197.527 22.6462 200.305 23.2404C203.083 23.8345 205.716 24.9701 208.055 26.5821C210.395 28.1941 212.393 30.2511 213.937 32.6355C215.482 35.0199 216.541 37.6851 217.055 40.4789C217.569 43.2728 217.528 46.1405 216.934 48.9185C216.34 51.6964 215.204 54.3301 213.592 56.6692C211.98 59.0083 209.923 61.007 207.539 62.5512C205.154 64.0953 202.489 65.1546 199.695 65.6688L202.385 69.5637L195.941 70.7995L196.506 66.0581Z"
        fill="#3756D4" />
    <path
        d="M191.907 23.5384C197.377 22.6167 202.991 23.8736 207.545 27.0402C212.1 30.2067 215.234 35.0309 216.275 40.4796C217.306 45.9725 216.133 51.6505 213.009 56.2847C209.885 60.919 205.062 64.1368 199.583 65.2417L198.923 65.3539L201.612 69.2488L196.404 70.2343L196.993 65.58L196.461 65.6095C192.524 65.7999 188.612 64.889 185.164 62.9792C181.716 61.0695 178.869 58.2365 176.942 54.7982C175.016 51.36 174.086 47.4525 174.256 43.5149C174.427 39.5772 175.693 35.7653 177.91 32.5069C179.47 30.1983 181.473 28.2224 183.803 26.6936C186.133 25.1648 188.742 24.1134 191.481 23.6004L191.905 23.5285L191.907 23.5384ZM191.761 22.6805L191.317 22.7558C185.874 23.7935 181.02 26.8412 177.72 31.2932C174.42 35.7453 172.915 41.2759 173.506 46.7861C174.096 52.2963 176.737 57.3827 180.905 61.0348C185.074 64.6869 190.463 66.6375 196.003 66.4987L195.545 70.1366L195.391 71.3189L196.564 71.1198L201.771 70.1244L203.082 69.9019L202.329 68.8125L200.381 65.999C205.964 64.7021 210.824 61.2838 213.932 56.4676C217.04 51.6513 218.152 45.815 217.033 40.1933C215.914 34.5717 212.652 29.6058 207.937 26.3465C203.222 23.0873 197.424 21.7902 191.77 22.7298L191.761 22.6805Z"
        fill="white" />
    <path
        d="M206.156 240.55C207.235 241.89 208.383 243.171 209.597 244.389C213.904 248.729 215.489 250.418 216.123 252.481C216.535 253.831 216.322 254.79 215.11 256.314C212.937 258.513 210.556 260.497 208.001 262.237C205.655 264.431 203.727 267.355 198.955 270.254C196.617 271.563 194.03 272.365 191.362 272.608C190.167 271.543 188.661 270.023 188.444 268.265C188.594 265.744 192.202 263.57 194.73 258.445C195.892 254.587 196.446 250.571 196.371 246.542C199.914 245.046 203.213 243.026 206.156 240.55Z"
        fill="#96ABFF" />
    <path
        d="M205.337 239.431C206.416 240.774 207.565 242.059 208.78 243.28C213.087 247.62 214.67 249.299 215.304 251.362C215.716 252.712 215.503 253.671 214.291 255.195C212.117 257.396 209.737 259.382 207.184 261.128C204.838 263.322 202.91 266.246 198.137 269.145C195.796 270.445 193.21 271.246 190.544 271.499C189.349 270.434 187.844 268.914 187.626 267.156C187.775 264.625 191.394 262.459 193.922 257.334C195.077 253.472 195.627 249.454 195.552 245.423C199.095 243.927 202.393 241.907 205.337 239.431Z"
        fill="#382A8C" />
    <path
        d="M199.828 247.365C199.888 247.274 199.981 247.21 200.088 247.188C200.195 247.167 200.306 247.188 200.397 247.248C200.487 247.308 200.551 247.401 200.573 247.508C200.595 247.614 200.573 247.725 200.513 247.816C199.5 249.045 198.109 249.905 196.557 250.263C196.151 250.387 195.738 250.491 195.322 250.574C195.345 250.296 195.379 250.016 195.401 249.729L196.323 249.481C197.69 249.174 198.92 248.431 199.828 247.365V247.365Z"
        fill="white" />
    <path
        d="M200.526 252.379C200.565 252.335 200.612 252.3 200.665 252.275C200.718 252.251 200.776 252.238 200.834 252.238C200.892 252.238 200.95 252.25 201.003 252.274C201.057 252.298 201.104 252.332 201.143 252.376C201.182 252.42 201.211 252.471 201.228 252.527C201.245 252.583 201.25 252.641 201.243 252.699C201.236 252.757 201.216 252.813 201.185 252.862C201.155 252.912 201.114 252.955 201.066 252.988C199.755 253.897 198.18 254.346 196.587 254.265C195.978 254.276 195.369 254.243 194.765 254.169C194.821 253.905 194.868 253.644 194.923 253.371C195.473 253.433 196.026 253.457 196.579 253.445C197.975 253.52 199.358 253.147 200.526 252.379V252.379Z"
        fill="white" />
    <path
        d="M198.051 256.978C198.1 256.944 198.155 256.922 198.214 256.912C198.272 256.903 198.332 256.906 198.389 256.921C198.446 256.937 198.499 256.964 198.544 257.002C198.589 257.04 198.626 257.088 198.651 257.141C198.677 257.194 198.69 257.253 198.691 257.312C198.692 257.371 198.68 257.43 198.656 257.484C198.631 257.538 198.596 257.586 198.552 257.625C198.507 257.664 198.455 257.693 198.398 257.71C196.891 258.229 195.254 258.232 193.744 257.719V257.719L193.952 257.328L194.061 256.955C195.356 257.374 196.75 257.382 198.051 256.978Z"
        fill="white" />
    <path
        d="M194.768 261.237C194.822 261.231 194.876 261.237 194.928 261.253C194.98 261.268 195.028 261.294 195.069 261.329C195.111 261.363 195.145 261.405 195.171 261.453C195.196 261.501 195.211 261.553 195.216 261.607C195.224 261.715 195.191 261.822 195.122 261.906C195.053 261.989 194.954 262.043 194.846 262.055C193.693 262.052 192.561 261.74 191.569 261.151L192.053 260.48C192.879 260.96 193.814 261.221 194.768 261.237Z"
        fill="white" />
    <path
        d="M171.361 259.529C171.582 261.236 171.897 262.93 172.303 264.603C173.728 270.548 174.212 272.799 173.685 274.897C173.339 276.264 172.659 276.978 170.825 277.644C167.837 278.398 164.785 278.865 161.709 279.039C158.565 279.694 155.391 281.197 149.813 281.2C147.137 281.102 144.51 280.445 142.102 279.273C141.608 277.734 141.133 275.654 141.855 274.051C143.297 271.97 147.511 271.996 152.333 268.915C155.317 266.214 157.862 263.065 159.878 259.581C163.686 260.144 167.558 260.127 171.361 259.529V259.529Z"
        fill="#96ABFF" />
    <path
        d="M171.239 258.151C171.46 259.858 171.775 261.552 172.181 263.224C173.618 269.178 174.101 271.429 173.563 273.518C173.217 274.886 172.537 275.599 170.714 276.274C167.723 277.028 164.667 277.493 161.587 277.661C158.444 278.326 155.279 279.817 149.691 279.822C147.015 279.723 144.388 279.067 141.98 277.895C141.486 276.356 141.021 274.274 141.743 272.671C143.185 270.59 147.389 270.617 152.211 267.537C155.192 264.837 157.738 261.691 159.757 258.213C163.566 258.767 167.436 258.746 171.239 258.151Z"
        fill="#382A8C" />
    <path
        d="M162.411 262.073C162.459 262.049 162.511 262.036 162.564 262.032C162.618 262.029 162.671 262.037 162.721 262.055C162.772 262.073 162.818 262.101 162.857 262.137C162.897 262.173 162.929 262.216 162.951 262.265C162.975 262.314 162.988 262.367 162.992 262.421C162.995 262.475 162.988 262.529 162.97 262.58C162.952 262.631 162.924 262.678 162.888 262.718C162.852 262.758 162.809 262.791 162.76 262.815C161.257 263.342 159.622 263.356 158.111 262.853C157.655 262.738 157.247 262.604 156.892 262.482L157.404 261.797C157.672 261.883 157.972 261.974 158.311 262.059C159.641 262.503 161.078 262.508 162.411 262.073V262.073Z"
        fill="white" />
    <path
        d="M159.594 266.635C159.647 266.625 159.7 266.626 159.753 266.636C159.805 266.647 159.854 266.669 159.898 266.699C159.942 266.729 159.98 266.768 160.008 266.813C160.037 266.858 160.056 266.909 160.065 266.961C160.083 267.068 160.058 267.178 159.995 267.267C159.932 267.356 159.837 267.416 159.73 267.434C158.135 267.523 156.557 267.077 155.244 266.167C154.716 265.863 154.211 265.522 153.732 265.145L154.279 264.545C154.716 264.883 155.175 265.192 155.653 265.469C156.813 266.258 158.191 266.666 159.594 266.635Z"
        fill="white" />
    <path
        d="M155.083 269.278C155.136 269.283 155.188 269.299 155.235 269.324C155.282 269.349 155.324 269.384 155.357 269.425C155.391 269.467 155.415 269.515 155.43 269.566C155.445 269.618 155.449 269.671 155.443 269.724C155.433 269.832 155.38 269.931 155.297 270.001C155.213 270.07 155.106 270.103 154.998 270.094C153.449 269.764 152.053 268.931 151.026 267.725V267.725L151.403 267.499L151.695 267.246C152.586 268.259 153.77 268.969 155.083 269.278V269.278Z"
        fill="white" />
    <path
        d="M150.068 271.225C150.117 271.247 150.161 271.279 150.198 271.318C150.235 271.358 150.263 271.405 150.281 271.456C150.299 271.507 150.307 271.561 150.304 271.615C150.3 271.669 150.286 271.722 150.262 271.77C150.213 271.866 150.128 271.94 150.026 271.975C149.924 272.009 149.812 272.002 149.715 271.954C148.724 271.359 147.915 270.503 147.378 269.48C147.644 269.435 147.88 269.273 148.146 269.167C148.605 270.002 149.266 270.71 150.068 271.225V271.225Z"
        fill="white" />
    <path
        d="M160.424 145.127C160.424 145.127 168.612 148.606 170.157 151.194C171.702 153.782 172.192 149.976 172.16 147.993C172.127 146.011 170.25 142.719 169.313 141.62C167.882 140.414 166.343 139.345 164.713 138.425C164.713 138.425 162.804 137.633 162.532 137.882C162.26 138.131 159.347 139.437 159.347 139.437L160.424 145.127Z"
        fill="#96ABFF" />
    <path
        d="M162.891 144.778C162.482 149.834 160.258 154.57 156.629 158.113C153 161.657 148.211 163.767 143.148 164.054C142.206 164.1 141.262 164.088 140.322 164.016C137.47 163.942 134.663 163.289 132.072 162.094C129.482 160.9 127.161 159.191 125.253 157.07C123.345 154.95 121.889 152.462 120.973 149.761C120.058 147.059 119.703 144.198 119.93 141.355C120.156 138.511 120.96 135.743 122.291 133.221C123.623 130.698 125.455 128.473 127.675 126.681C129.895 124.889 132.456 123.569 135.204 122.8C137.951 122.031 140.826 121.83 143.653 122.209C144.594 122.287 145.529 122.427 146.452 122.627C151.405 123.712 155.797 126.553 158.819 130.625C161.84 134.696 163.287 139.724 162.891 144.778V144.778Z"
        fill="#EF43BB" />
    <path
        d="M144.864 160.061C154.224 158.472 160.524 149.597 158.936 140.237C157.347 130.877 148.472 124.577 139.112 126.166C129.752 127.754 123.452 136.63 125.04 145.99C126.629 155.35 135.505 161.649 144.864 160.061Z"
        fill="white" />
    <path
        d="M137.555 152.103L133.644 151.669C133.063 151.604 132.532 151.311 132.167 150.855C131.802 150.399 131.633 149.816 131.698 149.235L132.132 145.325C132.197 144.744 132.49 144.213 132.946 143.847C133.402 143.482 133.985 143.314 134.566 143.378L138.164 143.778C138.412 143.806 138.64 143.931 138.797 144.127C138.953 144.323 139.025 144.572 138.998 144.821C138.979 144.987 139.027 145.154 139.132 145.284C139.236 145.414 139.388 145.498 139.554 145.516L140.492 145.621L140.353 146.872L139.415 146.768C138.972 146.717 138.562 146.512 138.256 146.188C137.95 145.865 137.768 145.443 137.743 144.998L134.427 144.63C134.178 144.602 133.928 144.674 133.733 144.831C133.537 144.987 133.412 145.215 133.384 145.464L132.949 149.374C132.921 149.623 132.994 149.873 133.15 150.068C133.307 150.264 133.534 150.389 133.783 150.417L137.694 150.852C137.943 150.88 138.192 150.807 138.388 150.651C138.584 150.494 138.709 150.267 138.737 150.018L138.997 147.671L140.249 147.811L139.988 150.157C139.923 150.738 139.631 151.269 139.174 151.634C138.718 151.999 138.135 152.168 137.555 152.103Z"
        fill="#EF43BB" />
    <path
        d="M147.096 153.163L143.185 152.728C142.604 152.664 142.073 152.371 141.708 151.915C141.343 151.458 141.174 150.876 141.239 150.295L141.639 146.697C141.666 146.448 141.792 146.22 141.987 146.064C142.183 145.908 142.433 145.835 142.682 145.863C142.848 145.881 143.014 145.833 143.144 145.729C143.275 145.625 143.358 145.473 143.377 145.307L143.481 144.368L144.733 144.507L144.628 145.446C144.578 145.888 144.373 146.299 144.049 146.605C143.725 146.911 143.304 147.093 142.859 147.118L142.49 150.434C142.462 150.683 142.535 150.932 142.691 151.128C142.848 151.324 143.075 151.449 143.324 151.477L147.235 151.912C147.484 151.939 147.733 151.867 147.929 151.71C148.125 151.554 148.25 151.326 148.278 151.077L148.712 147.167C148.74 146.918 148.668 146.668 148.511 146.473C148.355 146.277 148.127 146.152 147.878 146.124L145.532 145.863L145.671 144.612L148.017 144.873C148.598 144.937 149.13 145.23 149.495 145.686C149.86 146.143 150.028 146.725 149.964 147.306L149.529 151.216C149.464 151.797 149.172 152.329 148.715 152.694C148.259 153.059 147.676 153.227 147.096 153.163Z"
        fill="#EF43BB" />
    <path
        d="M148.157 143.622L144.559 143.222C144.311 143.194 144.083 143.069 143.926 142.873C143.77 142.678 143.698 142.428 143.725 142.179C143.744 142.013 143.696 141.847 143.591 141.716C143.487 141.586 143.335 141.502 143.169 141.484L142.231 141.379L142.37 140.128L143.308 140.232C143.751 140.283 144.161 140.488 144.467 140.812C144.773 141.136 144.955 141.557 144.98 142.002L148.296 142.371C148.545 142.398 148.795 142.326 148.99 142.169C149.186 142.013 149.311 141.785 149.339 141.536L149.774 137.626C149.802 137.377 149.729 137.127 149.573 136.932C149.416 136.736 149.189 136.611 148.94 136.583L145.029 136.148C144.78 136.12 144.531 136.193 144.335 136.349C144.139 136.506 144.014 136.733 143.986 136.982L143.726 139.329L142.474 139.19L142.735 136.843C142.8 136.262 143.092 135.731 143.549 135.366C144.005 135.001 144.588 134.832 145.168 134.897L149.079 135.332C149.66 135.396 150.191 135.689 150.556 136.145C150.921 136.602 151.09 137.184 151.025 137.765L150.591 141.675C150.526 142.256 150.233 142.788 149.777 143.153C149.321 143.518 148.738 143.686 148.157 143.622Z"
        fill="#EF43BB" />
    <path
        d="M139.242 142.63L137.99 142.491L138.095 141.552C138.145 141.11 138.35 140.699 138.674 140.393C138.998 140.087 139.419 139.906 139.864 139.88L140.233 136.564C140.261 136.315 140.188 136.066 140.032 135.87C139.875 135.675 139.648 135.549 139.399 135.521L135.488 135.087C135.239 135.059 134.99 135.131 134.794 135.288C134.598 135.444 134.473 135.672 134.445 135.921L134.011 139.831C133.983 140.08 134.055 140.33 134.212 140.526C134.368 140.721 134.596 140.847 134.845 140.874L137.191 141.135L137.052 142.386L134.706 142.126C134.125 142.061 133.593 141.768 133.228 141.312C132.863 140.856 132.695 140.273 132.759 139.692L133.194 135.782C133.259 135.201 133.551 134.67 134.008 134.305C134.464 133.939 135.047 133.771 135.627 133.835L139.538 134.27C140.119 134.335 140.65 134.627 141.015 135.084C141.38 135.54 141.549 136.123 141.484 136.703L141.084 140.301C141.057 140.55 140.931 140.778 140.736 140.934C140.54 141.091 140.29 141.163 140.041 141.135C139.875 141.117 139.709 141.165 139.579 141.269C139.448 141.374 139.365 141.525 139.346 141.691L139.242 142.63Z"
        fill="#EF43BB" />
    <path
        d="M139.235 127.016C139.669 126.943 140.102 126.869 140.544 126.845C144.748 126.466 148.935 127.729 152.227 130.37C155.52 133.011 157.662 136.824 158.204 141.01C158.747 145.196 157.647 149.429 155.137 152.822C152.627 156.214 148.9 158.504 144.739 159.209C144.305 159.283 143.862 159.358 143.429 159.381C141.292 159.572 139.138 159.34 137.09 158.698C135.042 158.057 133.141 157.018 131.494 155.642C129.848 154.266 128.489 152.578 127.494 150.677C126.5 148.775 125.89 146.696 125.699 144.558C125.363 140.479 126.564 136.422 129.066 133.183C131.567 129.944 135.189 127.756 139.22 127.049L139.235 127.016ZM139.076 126.201C134.688 126.935 130.755 129.342 128.105 132.916C125.455 136.49 124.293 140.952 124.865 145.364C125.436 149.776 127.696 153.795 131.17 156.575C134.643 159.356 139.059 160.681 143.489 160.273C143.943 160.196 144.406 160.118 144.86 160.041C149.248 159.307 153.181 156.899 155.831 153.326C158.481 149.752 159.643 145.29 159.071 140.878C158.499 136.466 156.239 132.447 152.766 129.666C149.293 126.886 144.877 125.561 140.447 125.969C139.983 126.047 139.521 126.075 139.068 126.152L139.076 126.201Z"
        fill="white" />
    <path
        d="M172.952 145.374L170.561 139.41C167.785 138.166 165.403 136.184 163.675 133.681C161.275 129.818 159.795 126.956 158.79 127.248C157.784 127.54 157.368 130.826 158.744 131.759C160.119 132.692 160.557 135.63 160.259 137.222C159.962 138.815 161.996 140.762 163.803 141.185C165.609 141.609 168.914 146.86 169.064 146.845C169.213 146.83 172.952 145.374 172.952 145.374Z"
        fill="#96ABFF" />
    <path
        d="M209.853 156.497C209.738 156.952 172.548 190.863 168.371 203.602C164.193 216.341 190.55 240.217 192.68 248.163C192.68 248.163 214.321 244.195 213.762 239.229C213.203 234.262 198.827 228.923 195.676 220.998C192.526 213.074 201.419 207.68 208.408 201.767C215.397 195.854 222.658 191.66 225.215 186.286C226.895 182.572 228.212 178.703 229.147 174.735L209.853 156.497Z"
        fill="url(#paint6_linear)" />
    <path
        d="M240.523 143.328C240.523 143.328 251.75 154.852 254.771 165.183C257.792 175.513 253.32 186.516 240.337 194.582C227.353 202.648 212.04 214.315 208.432 218.458C204.824 222.6 182.525 261.834 175.347 265.558C168.168 269.281 158.585 256.444 158.585 256.444C158.585 256.444 176.726 216.85 185.984 206.617C195.242 196.383 216.903 176.691 215.349 172.38C213.796 168.069 204.388 163.317 204.388 163.317L240.523 143.328Z"
        fill="url(#paint7_linear)" stroke="white" stroke-width="0.87" stroke-miterlimit="10" />
    <path
        d="M181.589 148.635C181.913 142.556 182.999 136.541 184.819 130.732C185.633 128.164 186.677 125.675 187.939 123.295C189.166 121.011 190.601 118.846 192.227 116.826L204.785 121.257C204.785 121.257 204.64 118.726 206.497 125.724C208.354 132.722 207.781 135.324 207.705 139.354C207.74 142.631 207.421 145.902 206.754 149.111C206.109 151.766 212.251 151.616 204.787 151.686C197.323 151.756 193.95 150.766 193.081 150.904C192.212 151.041 181.589 148.635 181.589 148.635Z"
        fill="white" />
    <path
        d="M170.561 139.411C170.561 139.411 176.254 144.926 188.913 144.867C201.571 144.808 201.333 148.844 201.336 151.014C201.34 153.184 197.411 166.611 186.427 166.68C181.2 166.715 174.994 166.247 170.945 162.532C165.851 157.859 166.544 149.931 168.24 143.902C168.884 142.342 169.66 140.839 170.561 139.411Z"
        fill="white" />
    <path
        d="M257.269 131.074L232.18 145.384C232.18 145.384 221.091 161.568 211.341 164.48C201.591 167.393 198.506 160.573 200.414 150.775C202.322 140.978 199.812 124.1 192.258 116.821C192.258 116.821 198.075 108.308 210.448 102.8C222.82 97.2919 244.962 89.0408 259.317 109.852C273.672 130.664 250.329 135.782 250.329 135.782L257.269 131.074Z"
        fill="white" />
    <path
        d="M196.373 93.7978C196.373 93.7978 190.214 93.0073 189.557 86.6272C188.9 80.2472 196.303 79.1632 196.303 79.1632C196.303 79.1632 196.126 76.6271 200.746 75.0417C205.366 73.4563 209.382 79.4285 209.382 79.4285C209.382 79.4285 211.253 78.9181 211.988 82.2927C212.723 85.6673 214.858 93.2268 209.824 95.0041C204.791 96.7815 202.061 95.9363 201.375 95.4238C199.748 94.7651 198.076 94.2217 196.373 93.7978V93.7978Z"
        fill="#382A8C" />
    <path
        d="M201.306 94.1777L209.681 92.8474C209.681 92.8474 214.228 99.3179 216.778 100.417C219.328 101.516 214.339 112.759 211.342 112.73C208.344 112.701 202.537 98.6851 202.537 98.6851L201.306 94.1777Z"
        fill="#96ABFF" />
    <path
        d="M220.449 158.744C220.449 158.744 216.835 173.304 224.349 173.713C231.863 174.121 224.267 158.411 224.267 158.411L220.449 158.744Z"
        fill="url(#paint8_linear)" />
    <path
        d="M193.316 90.3702C193.316 90.3702 198.698 101.821 199.669 102.224C200.64 102.627 203.792 102.255 206.027 99.1673C207.43 97.1822 208.64 95.0679 209.642 92.8533C209.642 92.8533 214.034 89.8662 213.035 86.9117C212.037 83.9571 206.67 85.2637 207.815 90.5162L205.915 91.2747L202.811 84.5796C202.811 84.5796 200.752 83.3875 197.917 86.8812C195.082 90.3749 193.316 90.3702 193.316 90.3702Z"
        fill="#96ABFF" />
    <path d="M197.834 125.895C197.834 125.895 202.293 136.874 200.723 148.896" stroke="#3756D4"
        stroke-width="0.87" stroke-linecap="round" stroke-linejoin="round" />
    <path d="M181.633 144.226C184.746 144.857 187.928 145.084 191.099 144.901" stroke="#3756D4"
        stroke-width="0.87" stroke-linecap="round" stroke-linejoin="round" />
    <path
        d="M197.975 92.1768C197.975 92.1768 199.087 96.5217 199.631 96.8555C200.174 97.1892 202.065 95.6613 202.065 95.6613"
        stroke="#382A8C" stroke-width="0.52" stroke-linecap="round" stroke-linejoin="round" />
    <path d="M204.002 97.4524C204.002 97.4524 203.394 100.325 199.984 99.4733" stroke="#382A8C"
        stroke-width="0.52" stroke-linecap="round" stroke-linejoin="round" />
    <path
        d="M200.955 92.6543C201.456 92.5692 201.793 92.0942 201.708 91.5933C201.623 91.0923 201.148 90.7552 200.647 90.8402C200.146 90.9252 199.809 91.4002 199.894 91.9012C199.979 92.4021 200.454 92.7393 200.955 92.6543Z"
        fill="#382A8C" />
    <path
        d="M196.666 94.5693C197.167 94.4843 197.504 94.0093 197.419 93.5083C197.334 93.0074 196.859 92.6702 196.358 92.7552C195.857 92.8403 195.52 93.3153 195.605 93.8162C195.69 94.3172 196.165 94.6543 196.666 94.5693Z"
        fill="#382A8C" />
    <path
        d="M203.145 88.9356C202.42 88.581 201.631 88.3786 200.826 88.3408C200.02 88.3031 199.216 88.4307 198.462 88.7161"
        stroke="#382A8C" stroke-width="0.52" stroke-linecap="round" stroke-linejoin="round" />
    <path
        d="M196.183 89.8734C195.629 90.1193 195.144 90.4988 194.772 90.9778C194.4 91.4569 194.153 92.0207 194.052 92.6187"
        stroke="#382A8C" stroke-width="0.52" stroke-linecap="round" stroke-linejoin="round" />
    <path
        d="M237.464 150.582C237.464 150.582 245.205 149.755 245.215 154.835C245.225 159.915 238.166 154.358 238.166 154.358L237.464 150.582Z"
        fill="url(#paint9_linear)" />
    <path
        d="M238.063 163.201C237.59 163.688 237.044 164.099 236.444 164.419V164.419C232.321 166.66 225.789 164.99 221.279 161.424C218.925 159.713 217.226 157.25 216.463 154.442C214.615 146.063 215.908 136.593 213.009 134.569C210.109 132.546 221.325 130.379 221.325 130.379C221.325 130.379 222.574 135.35 231.003 142.399C239.431 149.448 243.675 157.481 238.063 163.201Z"
        fill="url(#paint10_linear)" />
    <path
        d="M208.963 125.903C210.819 122.139 215.808 120.278 219.784 121.531C226.8 123.728 226.406 133.775 219.377 136.409C213.656 138.556 206.969 133.697 208.412 127.437C208.539 126.907 208.724 126.393 208.963 125.903V125.903Z"
        fill="url(#paint11_linear)" />
    <path
        d="M217.392 124.24C217.392 124.24 220.604 105.63 228.094 106.195C235.584 106.759 220.867 125.171 220.867 125.171L217.392 124.24Z"
        fill="url(#paint12_linear)" />
    <path
        d="M211.751 125.542C211.751 125.542 198.534 114.122 193.529 118.938C188.524 123.753 209.818 128.253 209.818 128.253L211.751 125.542Z"
        fill="url(#paint13_linear)" />
    <path
        d="M217.224 143.986C217.224 143.986 206.064 145.88 205.988 150.873C205.913 155.866 216.404 151.347 216.996 148.498C217.366 147.023 217.444 145.49 217.224 143.986Z"
        fill="url(#paint14_linear)" />
    <path
        d="M222.297 141.544C222.297 141.544 224.64 129.41 229.82 129.454C235.001 129.498 229.926 140.837 226.961 141.411C225.431 141.772 223.845 141.817 222.297 141.544V141.544Z"
        fill="url(#paint15_linear)" />
    <path
        d="M237.494 132.827C238.451 133.049 239.354 133.461 240.149 134.039C240.944 134.617 241.615 135.348 242.122 136.19C243.267 137.782 243.938 139.665 244.058 141.622C241.48 143.572 238.648 145.162 235.64 146.348C230.658 148.309 227.172 147.907 226.421 147.608C224.242 146.72 224.972 145.643 224.972 145.643C224.972 145.643 223.573 144.693 223.752 143.476C223.886 142.591 225.235 142.413 225.235 142.413C225.03 142.196 224.899 141.921 224.86 141.625C224.821 141.33 224.875 141.029 225.016 140.767C225.552 139.976 229.034 140.531 230.695 139.864C231.622 139.485 232.515 139.028 233.364 138.498C233.364 138.498 230.744 138.06 231.081 136.999C231.419 135.937 233.36 135.963 234.857 134.978C235.802 134.346 236.685 133.626 237.494 132.827Z"
        fill="#96ABFF" />
    <path
        d="M237.913 132.857C237.913 132.857 235.452 143.874 241.884 147.824C248.315 151.773 265.002 145.087 266.258 131.515C266.665 127.615 266.249 123.672 265.04 119.942C263.83 116.211 261.853 112.775 259.235 109.855C259.235 109.855 244.34 132.294 237.913 132.857Z"
        fill="white" />
    <path d="M237.914 132.858C243.473 129.554 248.277 125.121 252.015 119.845" stroke="#3756D4"
        stroke-width="0.87" stroke-linecap="round" stroke-linejoin="round" />
    <path d="M233.248 114.509C233.248 114.509 242.474 121.057 243.777 128.738" stroke="#3756D4"
        stroke-width="0.87" stroke-linecap="round" stroke-linejoin="round" />
    <path
        d="M218.936 123.349C218.936 123.349 221.74 112.558 224.547 109.738C227.355 106.919 228.666 107.71 228.099 110.048C227.532 112.386 220.683 123.367 220.683 123.367C220.598 123.21 220.473 123.079 220.32 122.987C220.168 122.896 219.993 122.846 219.815 122.844C219.637 122.842 219.461 122.888 219.306 122.977C219.152 123.066 219.024 123.194 218.936 123.349V123.349Z"
        fill="url(#paint16_linear)" />
    <path
        d="M210.337 125.64C210.337 125.64 201.158 118.648 197.191 118.581C193.223 118.514 194.098 121.814 196.852 122.564C199.607 123.313 209.744 127.283 209.744 127.283C209.744 127.283 208.181 125.722 210.337 125.64Z"
        fill="url(#paint17_linear)" />
    <path
        d="M217.556 131.631C218.34 131.248 218.818 130.616 218.624 130.219C218.43 129.822 217.637 129.811 216.853 130.194C216.069 130.577 215.591 131.209 215.785 131.606C215.979 132.003 216.772 132.015 217.556 131.631Z"
        fill="url(#paint18_linear)" />
    <path
        d="M218.284 127.958C218.653 127.824 218.773 127.224 218.553 126.616C218.333 126.009 217.856 125.624 217.487 125.758C217.118 125.892 216.998 126.492 217.218 127.1C217.438 127.707 217.916 128.091 218.284 127.958Z"
        fill="url(#paint19_linear)" />
    <path
        d="M214.293 129.4C214.662 129.267 214.782 128.666 214.562 128.058C214.342 127.451 213.864 127.067 213.496 127.2C213.127 127.334 213.007 127.935 213.227 128.542C213.447 129.15 213.924 129.534 214.293 129.4Z"
        fill="url(#paint20_linear)" />
    <path
        d="M236.445 164.419C232.321 166.66 225.79 164.99 221.28 161.424C220.151 156.869 219.15 150.314 221.807 147.56C225.644 143.572 233.552 156.045 236.445 164.419Z"
        fill="url(#paint21_linear)" />
    <path
        d="M231.571 154.352C231.571 154.352 234.743 172.68 240.54 173.491C246.338 174.302 243.394 165.805 241.133 162.76C238.872 159.716 235.299 153.607 235.299 153.607L231.571 154.352Z"
        fill="url(#paint22_linear)" />
    <path
        d="M216.901 134.79C217.261 134.746 217.593 134.571 217.831 134.297C218.006 134.075 218.115 133.808 218.146 133.526C218.177 133.245 218.129 132.961 218.008 132.705C218.124 132.992 218.323 133.237 218.58 133.409C218.837 133.58 219.14 133.671 219.449 133.668C219.83 133.636 220.185 133.46 220.44 133.175"
        stroke="white" stroke-width="0.87" stroke-linecap="round" stroke-linejoin="round" />
    <path
        d="M140.758 199.929L135.132 239.275C135.85 239.495 136.583 239.658 137.325 239.765L139.789 240.118C148.884 241.414 157.526 233.588 159.136 222.634C159.931 217.543 158.932 212.335 156.311 207.899C155.178 205.927 153.62 204.232 151.749 202.939C149.878 201.646 147.742 200.786 145.497 200.423L143.033 200.071C142.28 199.962 141.519 199.914 140.758 199.929V199.929Z"
        fill="#96ABFF" />
    <path
        d="M123.677 217.565C122.239 227.617 127.259 236.817 135.122 239.276C135.839 239.495 136.572 239.659 137.315 239.766C146.41 241.062 155.052 233.236 156.662 222.282C158.272 211.328 152.1 201.381 143.025 200.081C142.285 199.975 141.537 199.929 140.79 199.943C132.506 200.081 125.114 207.503 123.677 217.565Z"
        fill="white" />
    <path
        d="M153.57 221.724C154.853 212.736 149.848 204.586 142.391 203.521C134.933 202.456 127.847 208.879 126.563 217.868C125.28 226.856 130.285 235.006 137.742 236.071C145.2 237.136 152.286 230.713 153.57 221.724Z"
        fill="#96ABFF" />
    <path
        d="M136.251 229.153L132.795 228.769C132.282 228.712 131.815 228.427 131.498 227.976C131.18 227.525 131.038 226.945 131.103 226.364L131.538 222.454C131.602 221.873 131.868 221.338 132.277 220.968C132.685 220.598 133.203 220.422 133.717 220.479L136.896 220.832C137.116 220.857 137.316 220.979 137.452 221.172C137.588 221.366 137.649 221.614 137.621 221.863C137.603 222.029 137.643 222.195 137.734 222.324C137.825 222.452 137.958 222.534 138.105 222.55L138.934 222.642L138.795 223.894L137.965 223.802C137.574 223.757 137.214 223.557 136.947 223.238C136.68 222.918 136.525 222.5 136.508 222.056L133.577 221.73C133.357 221.706 133.136 221.781 132.96 221.94C132.785 222.099 132.671 222.328 132.644 222.577L132.209 226.487C132.181 226.736 132.242 226.984 132.378 227.178C132.514 227.371 132.714 227.493 132.934 227.518L136.39 227.902C136.61 227.926 136.832 227.851 137.007 227.692C137.182 227.534 137.296 227.305 137.324 227.056L137.585 224.709L138.691 224.832L138.43 227.179C138.365 227.759 138.099 228.294 137.691 228.664C137.282 229.034 136.764 229.21 136.251 229.153Z"
        fill="white" />
    <path
        d="M144.682 230.09L141.226 229.706C140.713 229.649 140.247 229.363 139.929 228.912C139.612 228.461 139.47 227.881 139.535 227.301L139.935 223.703C139.962 223.454 140.076 223.225 140.251 223.066C140.426 222.908 140.648 222.832 140.868 222.857C141.015 222.873 141.163 222.823 141.28 222.717C141.397 222.611 141.472 222.458 141.491 222.292L141.595 221.354L142.701 221.477L142.597 222.415C142.547 222.858 142.36 223.271 142.069 223.58C141.779 223.89 141.403 224.077 141.009 224.107L140.641 227.424C140.613 227.672 140.674 227.921 140.81 228.114C140.946 228.307 141.146 228.43 141.366 228.454L144.822 228.839C145.042 228.863 145.264 228.788 145.439 228.629C145.614 228.47 145.728 228.241 145.755 227.992L146.19 224.082C146.218 223.833 146.157 223.584 146.021 223.391C145.885 223.198 145.685 223.075 145.465 223.051L143.392 222.82L143.531 221.569L145.604 221.8C146.118 221.857 146.584 222.142 146.901 222.593C147.219 223.044 147.361 223.624 147.296 224.205L146.861 228.115C146.797 228.696 146.531 229.23 146.122 229.601C145.714 229.971 145.196 230.147 144.682 230.09Z"
        fill="white" />
    <path
        d="M145.744 220.549L142.564 220.195C142.345 220.171 142.145 220.049 142.009 219.855C141.873 219.662 141.812 219.414 141.839 219.165C141.858 218.999 141.817 218.833 141.727 218.704C141.636 218.575 141.503 218.494 141.356 218.477L140.527 218.385L140.666 217.134L141.495 217.226C141.886 217.271 142.247 217.47 142.514 217.79C142.78 218.109 142.936 218.528 142.952 218.972L145.883 219.298C146.103 219.322 146.325 219.247 146.5 219.088C146.675 218.929 146.789 218.7 146.817 218.451L147.252 214.541C147.279 214.292 147.219 214.043 147.083 213.85C146.947 213.657 146.747 213.534 146.527 213.51L143.071 213.126C142.851 213.101 142.629 213.177 142.454 213.335C142.278 213.494 142.165 213.723 142.137 213.972L141.876 216.318L140.77 216.195L141.031 213.849C141.096 213.268 141.361 212.734 141.77 212.364C142.179 211.993 142.696 211.817 143.21 211.874L146.666 212.259C147.179 212.316 147.646 212.601 147.963 213.052C148.28 213.503 148.422 214.083 148.358 214.664L147.923 218.574C147.858 219.155 147.592 219.689 147.184 220.06C146.775 220.43 146.257 220.606 145.744 220.549Z"
        fill="white" />
    <path
        d="M137.865 219.672L136.759 219.549L136.864 218.61C136.914 218.168 137.101 217.755 137.391 217.446C137.682 217.136 138.057 216.949 138.451 216.918L138.82 213.602C138.848 213.353 138.787 213.105 138.651 212.912C138.515 212.718 138.315 212.596 138.095 212.572L134.639 212.187C134.419 212.163 134.197 212.238 134.022 212.397C133.847 212.556 133.733 212.785 133.705 213.034L133.27 216.944C133.243 217.193 133.304 217.441 133.44 217.635C133.576 217.828 133.776 217.95 133.996 217.975L136.069 218.205L135.93 219.457L133.856 219.226C133.343 219.169 132.876 218.884 132.559 218.433C132.242 217.982 132.1 217.402 132.165 216.821L132.599 212.911C132.664 212.33 132.93 211.795 133.338 211.425C133.747 211.055 134.265 210.879 134.778 210.936L138.234 211.32C138.747 211.377 139.214 211.663 139.531 212.114C139.849 212.565 139.991 213.144 139.926 213.725L139.526 217.323C139.498 217.572 139.384 217.801 139.209 217.959C139.034 218.118 138.812 218.194 138.592 218.169C138.446 218.153 138.298 218.203 138.181 218.309C138.064 218.415 137.988 218.567 137.97 218.733L137.865 219.672Z"
        fill="white" />
    <path d="M237.068 148.61C237.068 148.61 240.581 152.751 240.692 156.992" stroke="white"
        stroke-width="0.87" stroke-linecap="round" stroke-linejoin="round" />
    <path d="M234.898 153.036C234.898 153.036 237.54 157.426 239.894 161.013" stroke="white"
        stroke-width="0.87" stroke-linecap="round" stroke-linejoin="round" />
    <path d="M215.283 144.325L215.827 150.694" stroke="white" stroke-width="0.87"
        stroke-linecap="round" stroke-linejoin="round" />
    <path d="M224.154 135.386C224.154 135.386 222.85 139.117 222.411 141.017" stroke="white"
        stroke-width="0.87" stroke-linecap="round" stroke-linejoin="round" />
    <path
        d="M202.295 107.358C202.295 107.358 207.041 121.879 213.941 117.35C220.841 112.822 221.005 102.377 219.97 99.084"
        stroke="#3756D4" stroke-width="0.87" stroke-linecap="round" stroke-linejoin="round" />
    <path d="M240.917 131.546C240.917 131.546 245.626 147.341 257.288 145.473" stroke="#3756D4"
        stroke-width="0.87" stroke-linecap="round" stroke-linejoin="round" />
    <path d="M174.596 141.97C174.596 141.97 169.619 160.453 181.764 166.993" stroke="#3756D4"
        stroke-width="0.87" stroke-linecap="round" stroke-linejoin="round" />
    <path
        d="M170.83 147.691C171.707 147.543 172.297 146.711 172.148 145.835C171.999 144.958 171.168 144.368 170.291 144.517C169.415 144.666 168.825 145.497 168.974 146.373C169.122 147.25 169.954 147.84 170.83 147.691Z"
        fill="url(#paint23_linear)" />
    <path
        d="M170.631 153.213C171.508 153.064 172.098 152.233 171.949 151.356C171.8 150.479 170.969 149.889 170.092 150.038C169.216 150.187 168.625 151.018 168.774 151.895C168.923 152.772 169.754 153.362 170.631 153.213Z"
        fill="url(#paint24_linear)" />
    <path
        d="M240.171 138.144C241.048 137.996 241.638 137.164 241.489 136.288C241.34 135.411 240.509 134.821 239.632 134.97C238.756 135.119 238.166 135.95 238.314 136.827C238.463 137.703 239.294 138.293 240.171 138.144Z"
        fill="url(#paint25_linear)" />
    <path
        d="M241.559 142.503C242.435 142.354 243.025 141.523 242.877 140.646C242.728 139.77 241.897 139.179 241.02 139.328C240.143 139.477 239.553 140.308 239.702 141.185C239.851 142.062 240.682 142.652 241.559 142.503Z"
        fill="url(#paint26_linear)" />
    <path d="M37.6469 167.134L16.5677 106.824" stroke="white" stroke-width="0.87"
        stroke-linejoin="round" />
    <g clip-path="url(#clip0)">
        <path
            d="M136.214 100.35L136.234 100.428C136.247 100.579 136.202 100.729 136.107 100.847C136.012 100.966 135.876 101.043 135.726 101.064L132.626 101.413C131.7 101.519 130.767 101.291 129.995 100.769C129.224 100.247 128.664 99.4657 128.419 98.5671L128.295 98.0827C128.116 97.4295 127.703 96.8649 127.135 96.4964C126.567 96.1279 125.883 95.9813 125.213 96.0842L124.69 96.2181C123.808 96.3515 122.906 96.1799 122.135 95.7317C121.363 95.2835 120.768 94.5855 120.447 93.753L119.59 91.5361C119.541 91.3924 119.549 91.2354 119.611 91.0969C119.673 90.9583 119.786 90.8485 119.926 90.7897C120.067 90.7362 120.223 90.7407 120.361 90.8022C120.498 90.8638 120.606 90.9772 120.66 91.1179L121.519 93.3445C121.746 93.9321 122.166 94.425 122.71 94.7416C123.255 95.0583 123.891 95.1799 124.514 95.0864L125.05 95.001C125.997 94.859 126.963 95.0678 127.767 95.5881C128.571 96.1084 129.158 96.9045 129.416 97.8267L129.54 98.3111C129.712 98.9465 130.106 99.4988 130.652 99.8672C131.197 100.236 131.857 100.396 132.51 100.317L135.611 99.968C135.74 99.9534 135.87 99.9833 135.98 100.053C136.089 100.122 136.172 100.227 136.214 100.35V100.35Z"
            fill="#3756D4" />
    </g>
    <path
        d="M171.443 28.0563L171.413 28.1301C171.332 28.2586 171.206 28.3514 171.059 28.3891C170.912 28.4267 170.756 28.4064 170.624 28.3323L167.937 26.7468C167.134 26.275 166.526 25.5312 166.224 24.65C165.921 23.7688 165.944 22.8085 166.288 21.9428L166.481 21.4813C166.731 20.8518 166.74 20.1524 166.508 19.5162C166.276 18.8801 165.818 18.3516 165.221 18.0312L164.723 17.8235C163.938 17.3994 163.321 16.7201 162.974 15.898C162.627 15.0758 162.571 14.16 162.815 13.3017L163.465 11.0156C163.512 10.8714 163.612 10.7504 163.745 10.6772C163.878 10.604 164.034 10.5839 164.182 10.6211C164.326 10.6631 164.449 10.7608 164.521 10.8927C164.594 11.0246 164.612 11.18 164.571 11.325L163.918 13.6203C163.745 14.2262 163.785 14.8727 164.029 15.4532C164.274 16.0337 164.709 16.5135 165.263 16.8135L165.742 17.0674C166.584 17.5237 167.23 18.2718 167.56 19.1711C167.889 20.0705 167.879 21.0591 167.531 21.9514L167.338 22.4129C167.093 23.0237 167.076 23.7022 167.29 24.3246C167.504 24.9469 167.935 25.4715 168.504 25.8023L171.191 27.3878C171.303 27.4538 171.389 27.556 171.435 27.6776C171.481 27.7992 171.484 27.9328 171.443 28.0563V28.0563Z"
        fill="#3756D4" />
</svg>
