<svg width="16" height="16" viewBox="0 0 16 16" fill="none" xmlns="http://www.w3.org/2000/svg">
<path d="M13.5625 2.5H12.125V1.875C12.125 1.80625 12.0688 1.75 12 1.75H4C3.93125 1.75 3.875 1.80625 3.875 1.875V2.5H2.4375C2.25516 2.5 2.0803 2.57243 1.95136 2.70136C1.82243 2.8303 1.75 3.00516 1.75 3.1875V5.5C1.75 6.77656 2.6875 7.8375 3.90937 8.03125C4.15 9.84688 5.60938 11.2781 7.4375 11.4766V13.1203H4.375C4.09844 13.1203 3.875 13.3438 3.875 13.6203V14.125C3.875 14.1938 3.93125 14.25 4 14.25H12C12.0688 14.25 12.125 14.1938 12.125 14.125V13.6203C12.125 13.3438 11.9016 13.1203 11.625 13.1203H8.5625V11.4766C10.3906 11.2781 11.85 9.84688 12.0906 8.03125C13.3125 7.8375 14.25 6.77656 14.25 5.5V3.1875C14.25 3.00516 14.1776 2.8303 14.0486 2.70136C13.9197 2.57243 13.7448 2.5 13.5625 2.5ZM3.875 6.86875C3.29531 6.68281 2.875 6.13906 2.875 5.5V3.625H3.875V6.86875ZM13.125 5.5C13.125 6.14062 12.7047 6.68438 12.125 6.86875V3.625H13.125V5.5Z" fill="#3A4C78"/>
</svg>
