<svg width="19" height="21" viewBox="0 0 19 21" fill="none" xmlns="http://www.w3.org/2000/svg">
    <mask id="path-1-inside-1" fill="white">
        <path fill-rule="evenodd" clip-rule="evenodd"
            d="M14.8654 5.71671C14.8654 8.81358 12.3835 11.2968 9.28589 11.2968C6.18931 11.2968 3.70635 8.81358 3.70635 5.71671C3.70635 2.61983 6.18931 0.137695 9.28589 0.137695C12.3835 0.137695 14.8654 2.61983 14.8654 5.71671ZM9.2864 20.8614C4.53245 20.8614 0.518555 20.0381 0.518555 16.862C0.518555 13.6846 4.55766 12.8906 9.2864 12.8906C14.0415 12.8906 18.0543 13.7138 18.0543 16.89C18.0543 20.0673 14.0151 20.8614 9.2864 20.8614Z" />
    </mask>
    <path
        d="M9.28589 12.7968C13.2123 12.7968 16.3654 9.64169 16.3654 5.71671H13.3654C13.3654 7.98547 11.5548 9.79677 9.28589 9.79677V12.7968ZM2.20635 5.71671C2.20635 9.64188 5.36075 12.7968 9.28589 12.7968V9.79677C7.01787 9.79677 5.20635 7.98529 5.20635 5.71671H2.20635ZM9.28589 -1.3623C5.36112 -1.3623 2.20635 1.79117 2.20635 5.71671H5.20635C5.20635 3.4485 7.0175 1.6377 9.28589 1.6377V-1.3623ZM16.3654 5.71671C16.3654 1.79136 13.2119 -1.3623 9.28589 -1.3623V1.6377C11.5552 1.6377 13.3654 3.44831 13.3654 5.71671H16.3654ZM-0.981445 16.862C-0.981445 18.0031 -0.609506 19.0001 0.0828272 19.805C0.749944 20.5806 1.64599 21.0999 2.59022 21.4562C4.45199 22.1586 6.86948 22.3614 9.2864 22.3614V19.3614C6.94937 19.3614 4.98294 19.1525 3.64927 18.6493C2.99578 18.4027 2.59123 18.1207 2.35718 17.8487C2.14835 17.6059 2.01855 17.309 2.01855 16.862H-0.981445ZM9.2864 11.3906C6.88499 11.3906 4.46921 11.5857 2.6061 12.279C1.66136 12.6305 0.76176 13.1449 0.0908789 13.9176C-0.606118 14.7204 -0.981445 15.718 -0.981445 16.862H2.01855C2.01855 16.4173 2.14812 16.1241 2.35623 15.8844C2.59045 15.6146 2.99618 15.3348 3.65231 15.0906C4.99093 14.5925 6.95907 14.3906 9.2864 14.3906V11.3906ZM19.5543 16.89C19.5543 15.749 19.1825 14.752 18.4902 13.9471C17.8232 13.1715 16.9272 12.6521 15.983 12.2958C14.1214 11.5934 11.7038 11.3906 9.2864 11.3906V14.3906C11.624 14.3906 13.5904 14.5995 14.9239 15.1027C15.5773 15.3492 15.9817 15.6312 16.2157 15.9032C16.4244 16.146 16.5543 16.4429 16.5543 16.89H19.5543ZM9.2864 22.3614C11.6878 22.3614 14.1036 22.1663 15.9667 21.473C16.9114 21.1215 17.811 20.6071 18.4819 19.8344C19.1789 19.0315 19.5543 18.034 19.5543 16.89H16.5543C16.5543 17.3347 16.4247 17.6279 16.2166 17.8676C15.9824 18.1374 15.5766 18.4172 14.9205 18.6614C13.5819 19.1595 11.6137 19.3614 9.2864 19.3614V22.3614Z"
        fill="#17181C" mask="url(#path-1-inside-1)" />
</svg>
