<svg width="167" height="42" viewBox="0 0 167 42" fill="none" xmlns="http://www.w3.org/2000/svg">
<path d="M21.5242 12.182V12.7416H22.0837H26.1747H26.7343V12.182C26.7343 6.02681 20.9096 1.20902 13.9482 1.20902C6.98506 1.20902 1.16214 6.07477 1.16214 12.182C1.16214 15.2686 2.35662 17.8653 4.55168 19.7644C6.73418 21.6527 9.86798 22.8204 13.7132 23.1529C15.2445 23.2901 17.231 23.6416 18.8189 24.5255C20.3768 25.3928 21.5242 26.7497 21.5242 28.9645C21.5242 32.0244 18.2812 34.7739 13.9482 34.7739C9.65659 34.7739 6.37222 32.0669 6.37222 28.9645V28.4049H5.81269H1.72168H1.16214V28.9645C1.16214 35.1197 6.98678 39.9375 13.9482 39.9375C20.9114 39.9375 26.7343 35.0717 26.7343 28.9645C26.7343 25.8779 25.5398 23.2811 23.3447 21.382C21.1622 19.4938 18.0284 18.326 14.1832 17.9936C12.6519 17.8564 10.6654 17.5049 9.07756 16.6209C7.52049 15.7541 6.37351 14.3983 6.37223 12.1858C6.41568 9.07331 9.66609 6.37261 13.9482 6.37261C18.2398 6.37261 21.5242 9.07963 21.5242 12.182Z" fill="white" stroke="white" stroke-width="1.11907"/>
<path d="M112.969 1.16166C102.512 1.16166 94.0464 9.88686 94.0464 20.5491C94.0464 31.2114 102.512 39.9366 112.969 39.9366C123.426 39.9366 131.892 31.2114 131.892 20.5491C131.892 9.88686 123.426 1.16166 112.969 1.16166ZM112.969 34.7265C105.438 34.7265 99.2565 28.3921 99.2565 20.5491C99.2565 12.7062 105.438 6.37173 112.969 6.37173C120.5 6.37173 126.682 12.7062 126.682 20.5491C126.682 28.3921 120.5 34.7265 112.969 34.7265Z" fill="white" stroke="white" stroke-width="1.11907"/>
<path d="M80.5219 7.02261H88.5163C89.9411 7.02261 91.1214 5.84233 91.1214 4.41757C91.1214 2.99282 89.9411 1.81253 88.5163 1.81253H67.3175C65.8927 1.81253 64.7124 2.99282 64.7124 4.41757C64.7124 5.84233 65.8927 7.02261 67.3175 7.02261H75.3119V38.9587V39.5182H75.8714H79.9624H80.5219V38.9587V7.02261Z" fill="white" stroke="white" stroke-width="1.11907"/>
<path d="M45.8338 3.46071L45.8337 3.46066L45.8292 3.47225L32.208 38.7572L31.9142 39.5182H32.73H37.0999H37.4835L37.6218 39.1604L48.2567 11.6427L53.7177 25.8007H46.1652H45.7816L45.6433 26.1586L44.0627 30.2496L43.7686 31.0108H44.5846H55.7307L58.8929 39.1611L59.0314 39.5182H59.4145H63.7844H64.6002L64.3064 38.7572L50.688 3.4794C50.3232 2.45672 49.3603 1.81253 48.2572 1.81253C47.1848 1.81253 46.2421 2.46907 45.8338 3.46071Z" fill="white" stroke="white" stroke-width="1.11907"/>
<path d="M165.801 35.0323L165.801 35.0323L165.797 35.0271L156.319 23.3113C161.215 21.9975 164.852 17.8096 164.852 12.7855C164.852 6.72153 159.543 1.81253 153.089 1.81253H143.094C141.669 1.81253 140.489 2.99282 140.489 4.41757V38.9587V39.5182H141.048H145.139H145.699V38.9587V7.02261H153.089C156.794 7.02261 159.642 9.66666 159.642 12.7855C159.642 15.9022 156.75 18.5485 153.089 18.5485H149.602H149.043V19.108V22.4552V22.6531L149.167 22.807L161.715 38.3291C161.716 38.33 161.716 38.3309 161.717 38.3318C162.611 39.4606 164.264 39.6309 165.383 38.747L165.386 38.7448C166.568 37.7988 166.679 36.1444 165.801 35.0323Z" fill="white" stroke="white" stroke-width="1.11907"/>
</svg>
