<svg width="137" height="200" viewBox="0 0 137 200" fill="none" xmlns="http://www.w3.org/2000/svg">
    <g clip-path="url(#clip0)">
        <g clip-path="url(#clip1)">
            <path
                d="M154.182 175.597L129.315 200.463C125.622 204.156 120.613 206.231 115.39 206.231C110.167 206.231 105.158 204.156 101.465 200.463L76.5989 175.597C72.9057 171.904 70.8309 166.895 70.8309 161.672C70.8309 156.449 72.9057 151.44 76.5989 147.747L99.4758 124.87C101.059 123.287 103.205 122.398 105.444 122.398C107.682 122.398 109.829 123.287 111.412 124.87C112.467 125.925 113.898 126.518 115.39 126.518C116.882 126.518 118.314 125.925 119.369 124.87L125.337 118.902L133.294 126.859L127.326 132.827C124.503 135.635 120.779 137.354 116.811 137.682C112.844 138.009 108.888 136.924 105.643 134.617L84.5561 155.704C82.9733 157.287 82.0841 159.433 82.0841 161.672C82.0841 163.91 82.9733 166.057 84.5561 167.64L109.422 192.506C111.005 194.089 113.152 194.978 115.39 194.978C117.629 194.978 119.775 194.089 121.358 192.506L146.224 167.64C147.807 166.057 148.696 163.91 148.696 161.672C148.696 159.433 147.807 157.287 146.224 155.704L131.305 140.784L139.262 132.827L154.182 147.747C157.875 151.44 159.949 156.449 159.949 161.672C159.949 166.895 157.875 171.904 154.182 175.597Z"
                fill="#2C488B" />
            <path
                d="M214.855 114.925L189.989 139.791C186.295 143.484 181.286 145.559 176.064 145.559C170.841 145.559 165.832 143.484 162.138 139.791L139.262 116.914C137.679 115.332 136.79 113.185 136.79 110.946C136.79 108.708 137.679 106.561 139.262 104.979C140.317 103.923 140.91 102.492 140.91 101C140.91 99.5077 140.317 98.0766 139.262 97.0214L133.294 91.0535L141.251 83.0963L147.219 89.0642C150.026 91.8869 151.746 95.6112 152.074 99.5789C152.401 103.547 151.316 107.503 149.009 110.748L170.096 131.834C171.678 133.417 173.825 134.306 176.064 134.306C178.302 134.306 180.449 133.417 182.031 131.834L206.898 106.968C208.48 105.385 209.37 103.238 209.37 101C209.37 98.7616 208.48 96.6149 206.898 95.0321L182.031 70.1659C180.449 68.5831 178.302 67.6939 176.064 67.6939C173.825 67.6939 171.678 68.5831 170.096 70.1659L155.176 85.0856L147.219 77.1284L162.138 62.2087C165.832 58.5155 170.841 56.4407 176.064 56.4407C181.286 56.4407 186.295 58.5155 189.989 62.2087L214.855 87.0749C218.548 90.7681 220.623 95.7771 220.623 101C220.623 106.223 218.548 111.232 214.855 114.925Z"
                fill="#2C488B" />
            <path
                d="M154.182 54.2532L131.305 77.1301C129.722 78.7129 127.575 79.6021 125.337 79.6021C123.098 79.6021 120.952 78.7129 119.369 77.1301C118.314 76.0749 116.882 75.4821 115.39 75.4821C113.898 75.4821 112.467 76.0749 111.412 77.1301L105.444 83.098L97.4865 75.1408L103.454 69.1729C106.277 66.3653 110.001 64.6458 113.969 64.3182C117.937 63.9906 121.893 65.076 125.138 67.3826L146.224 46.296C147.807 44.7132 148.696 42.5665 148.696 40.3281C148.696 38.0897 147.807 35.943 146.224 34.3602L121.358 9.49401C119.775 7.91123 117.629 7.02203 115.39 7.02203C113.152 7.02203 111.005 7.91123 109.422 9.49401L84.5561 34.3602C82.9733 35.943 82.0841 38.0897 82.0841 40.3281C82.0841 42.5665 82.9733 44.7132 84.5561 46.296L99.4758 61.2157L91.5186 69.1729L76.5989 54.2532C72.9057 50.56 70.8309 45.551 70.8309 40.3281C70.8309 35.1052 72.9057 30.0962 76.5989 26.403L101.465 1.53682C105.158 -2.15634 110.167 -4.23114 115.39 -4.23114C120.613 -4.23114 125.622 -2.15634 129.315 1.53682L154.182 26.403C157.875 30.0962 159.949 35.1052 159.949 40.3281C159.949 45.551 157.875 50.56 154.182 54.2532Z"
                fill="#2C488B" />
            <path
                d="M97.4863 110.946L89.5291 118.904L83.5612 112.936C80.7536 110.113 79.034 106.389 78.7064 102.421C78.3788 98.4533 79.4642 94.4974 81.7708 91.2524L60.6843 70.1659C59.1015 68.5831 56.9548 67.6939 54.7164 67.6939C52.478 67.6939 50.3313 68.5831 48.7485 70.1659L23.8823 95.0321C22.2995 96.6149 21.4103 98.7616 21.4103 101C21.4103 103.238 22.2995 105.385 23.8823 106.968L48.7485 131.834C50.3313 133.417 52.478 134.306 54.7164 134.306C56.9548 134.306 59.1015 133.417 60.6843 131.834L75.604 116.914L83.5612 124.872L68.6415 139.791C64.9483 143.484 59.9393 145.559 54.7164 145.559C49.4935 145.559 44.4845 143.484 40.7913 139.791L15.9251 114.925C12.2319 111.232 10.1571 106.223 10.1571 101C10.1571 95.7771 12.2319 90.7681 15.9251 87.0749L40.7913 62.2087C44.4845 58.5155 49.4935 56.4407 54.7164 56.4407C59.9393 56.4407 64.9483 58.5155 68.6415 62.2087L91.5184 85.0856C93.1012 86.6684 93.9904 88.8151 93.9904 91.0535C93.9904 93.2919 93.1012 95.4386 91.5184 97.0214C90.4632 98.0766 89.8704 99.5077 89.8704 101C89.8704 102.492 90.4632 103.923 91.5184 104.979L97.4863 110.946Z"
                fill="#2C488B" />
        </g>
    </g>
    <defs>
        <clipPath id="clip0">
            <rect width="137" height="200" fill="white" />
        </clipPath>
        <clipPath id="clip1">
            <rect width="160.358" height="160.358" fill="white"
                transform="translate(2 101) rotate(-45)" />
        </clipPath>
    </defs>
</svg>
