<svg width="1203" height="1203" viewBox="0 0 1203 1203" fill="none" xmlns="http://www.w3.org/2000/svg">
<rect width="1203" height="1203" fill="#BA398E"/>
<path d="M260.993 740.342V833.951C261.082 862.882 272.627 890.6 293.103 911.038C313.579 931.477 341.318 942.971 370.249 943.007H463.859C492.79 942.918 520.507 931.373 540.946 910.897C561.384 890.421 572.879 862.682 572.914 833.751V720.082H520.426V833.751C520.408 848.801 514.422 863.23 503.779 873.872C493.137 884.514 478.708 890.501 463.658 890.518H370.048C354.998 890.501 340.569 884.514 329.927 873.872C319.285 863.23 313.299 848.801 313.281 833.751V740.141C313.299 725.091 319.285 710.662 329.927 700.02C340.569 689.378 354.998 683.391 370.048 683.373H600.061V631.086H370.249C341.283 631.121 313.514 642.643 293.033 663.125C272.551 683.607 261.028 711.376 260.993 740.342H260.993Z" fill="#9E157B"/>
<path d="M833.751 631.086H720.082V683.574H833.751C848.801 683.592 863.23 689.578 873.872 700.221C884.514 710.863 890.501 725.292 890.519 740.342V833.952C890.501 849.002 884.514 863.431 873.872 874.073C863.23 884.715 848.801 890.702 833.751 890.719H740.141C725.091 890.702 710.662 884.715 700.02 874.073C689.378 863.431 683.391 849.002 683.374 833.952V603.739H631.086V833.751C631.121 862.717 642.644 890.486 663.125 910.968C683.607 931.449 711.376 942.972 740.342 943.007H833.952C862.882 942.919 890.6 931.373 911.039 910.897C931.477 890.421 942.972 862.682 943.007 833.751V740.141C942.919 711.21 931.373 683.493 910.897 663.054C890.421 642.616 862.682 631.121 833.751 631.086V631.086Z" fill="#9E157B"/>
<path d="M833.751 260.993H740.141C711.21 261.082 683.493 272.627 663.054 293.103C642.616 313.579 631.121 341.318 631.086 370.249V483.918H683.574V370.249C683.592 355.199 689.578 340.77 700.221 330.128C710.863 319.486 725.292 313.499 740.342 313.481H833.952C849.002 313.499 863.431 319.486 874.073 330.128C884.715 340.77 890.701 355.199 890.719 370.249V463.859C890.701 478.909 884.715 493.338 874.073 503.98C863.431 514.622 849.002 520.609 833.952 520.626H603.739V573.115H833.751C862.751 573.079 890.551 561.529 911.038 541.004C931.526 520.479 943.025 492.659 943.007 463.658V370.048C942.919 341.118 931.373 313.4 910.897 292.961C890.421 272.523 862.682 261.028 833.751 260.993Z" fill="#9E157B"/>
<path d="M370.249 572.914H483.918V520.426H370.249C355.199 520.408 340.77 514.422 330.128 503.779C319.486 493.137 313.499 478.708 313.481 463.658V370.048C313.499 354.998 319.486 340.569 330.128 329.927C340.77 319.285 355.199 313.299 370.249 313.281H463.859C478.909 313.299 493.338 319.285 503.98 329.927C514.622 340.569 520.609 354.998 520.626 370.048V600.061H573.115V370.249C573.079 341.249 561.529 313.449 541.004 292.962C520.479 272.474 492.659 260.975 463.658 260.993H370.048C341.118 261.082 313.4 272.627 292.961 293.103C272.523 313.579 261.028 341.318 260.993 370.249V463.859C261.082 492.79 272.627 520.507 293.103 540.946C313.579 561.384 341.318 572.879 370.249 572.914V572.914Z" fill="#9E157B"/>
<path d="M260.993 740.342V833.951C261.082 862.882 272.627 890.6 293.103 911.038C313.579 931.477 341.318 942.971 370.249 943.007H463.859C492.79 942.918 520.507 931.373 540.946 910.897C561.384 890.421 572.879 862.682 572.914 833.751V720.082H520.426V833.751C520.408 848.801 514.422 863.23 503.779 873.872C493.137 884.514 478.708 890.501 463.658 890.518H370.048C354.998 890.501 340.569 884.514 329.927 873.872C319.285 863.23 313.299 848.801 313.281 833.751V740.141C313.299 725.091 319.285 710.662 329.927 700.02C340.569 689.378 354.998 683.391 370.048 683.373H600.061V631.086H370.249C341.283 631.121 313.514 642.643 293.033 663.125C272.551 683.607 261.028 711.376 260.993 740.342H260.993Z" fill="white"/>
<path d="M833.751 631.086H720.082V683.574H833.751C848.801 683.592 863.23 689.578 873.872 700.221C884.514 710.863 890.501 725.292 890.519 740.342V833.952C890.501 849.002 884.514 863.431 873.872 874.073C863.23 884.715 848.801 890.702 833.751 890.719H740.141C725.091 890.702 710.662 884.715 700.02 874.073C689.378 863.431 683.391 849.002 683.374 833.952V603.739H631.086V833.751C631.121 862.717 642.644 890.486 663.125 910.968C683.607 931.449 711.376 942.972 740.342 943.007H833.952C862.882 942.919 890.6 931.373 911.039 910.897C931.477 890.421 942.972 862.682 943.007 833.751V740.141C942.919 711.21 931.373 683.493 910.897 663.054C890.421 642.616 862.682 631.121 833.751 631.086V631.086Z" fill="white"/>
<path d="M833.751 260.993H740.141C711.21 261.082 683.493 272.627 663.054 293.103C642.616 313.579 631.121 341.318 631.086 370.249V483.918H683.574V370.249C683.592 355.199 689.578 340.77 700.221 330.128C710.863 319.486 725.292 313.499 740.342 313.481H833.952C849.002 313.499 863.431 319.486 874.073 330.128C884.715 340.77 890.701 355.199 890.719 370.249V463.859C890.701 478.909 884.715 493.338 874.073 503.98C863.431 514.622 849.002 520.609 833.952 520.626H603.739V573.115H833.751C862.751 573.079 890.551 561.529 911.038 541.004C931.526 520.479 943.025 492.659 943.007 463.658V370.048C942.919 341.118 931.373 313.4 910.897 292.961C890.421 272.523 862.682 261.028 833.751 260.993Z" fill="white"/>
<path d="M370.249 572.914H483.918V520.426H370.249C355.199 520.408 340.77 514.422 330.128 503.779C319.486 493.137 313.499 478.708 313.481 463.658V370.048C313.499 354.998 319.486 340.569 330.128 329.927C340.77 319.285 355.199 313.299 370.249 313.281H463.859C478.909 313.299 493.338 319.285 503.98 329.927C514.622 340.569 520.609 354.998 520.626 370.048V600.061H573.115V370.249C573.079 341.249 561.529 313.449 541.004 292.962C520.479 272.474 492.659 260.975 463.658 260.993H370.048C341.118 261.082 313.4 272.627 292.961 293.103C272.523 313.579 261.028 341.318 260.993 370.249V463.859C261.082 492.79 272.627 520.507 293.103 540.946C313.579 561.384 341.318 572.879 370.249 572.914V572.914Z" fill="white"/>
</svg>
