<svg xmlns="http://www.w3.org/2000/svg" viewBox="0 0 114 114"><defs><style>.cls-1{fill:#ef43bb;}</style></defs><g id="Layer_2" data-name="Layer 2"><g id="Layer_1-2" data-name="Layer 1"><path class="cls-1" d="M39,114H14A14,14,0,0,1,0,100V75A14,14,0,0,1,14,61H37a6,6,0,0,1,6,6,4,4,0,0,0,4,4h6v8H47A12,12,0,0,1,35.2,69H14a6,6,0,0,0-6,6v25a6,6,0,0,0,6,6H39a6,6,0,0,0,6-6V85h8v15A14,14,0,0,1,39,114Z"/><path class="cls-1" d="M100,114H75a14,14,0,0,1-14-14V77a6,6,0,0,1,6-6,4,4,0,0,0,4-4V61h8v6A12,12,0,0,1,69,78.8V100a6,6,0,0,0,6,6h25a6,6,0,0,0,6-6V75a6,6,0,0,0-6-6H85V61h15a14,14,0,0,1,14,14v25A14,14,0,0,1,100,114Z"/><path class="cls-1" d="M100,53H77a6,6,0,0,1-6-6,4,4,0,0,0-4-4H61V35h6A12,12,0,0,1,78.8,45H100a6,6,0,0,0,6-6V14a6,6,0,0,0-6-6H75a6,6,0,0,0-6,6V29H61V14A14,14,0,0,1,75,0h25a14,14,0,0,1,14,14V39A14,14,0,0,1,100,53Z"/><path class="cls-1" d="M43,53H35V47A12,12,0,0,1,45,35.2V14a6,6,0,0,0-6-6H14a6,6,0,0,0-6,6V39a6,6,0,0,0,6,6H29v8H14A14,14,0,0,1,0,39V14A14,14,0,0,1,14,0H39A14,14,0,0,1,53,14V37a6,6,0,0,1-6,6,4,4,0,0,0-4,4Z"/></g></g></svg>