<svg width="25" height="28" viewBox="0 0 25 28" fill="none" xmlns="http://www.w3.org/2000/svg">
    <path
        d="M13.3912 25.565V24.3477V23.1303V21.9129V20.6955V19.4781V18.2607H12.1738V19.4781V20.6955V21.9129V23.1303V24.3477V25.565V26.7824V27.9998H13.3912V26.7824V25.565Z"
        fill="#00A651" />
    <path
        d="M12.1744 25.565V24.3477V23.1303V21.9129V20.6955V19.4781V18.2607H10.957V19.4781V20.6955V21.9129V23.1303V24.3477V25.565V26.7824V27.9998H12.1744V26.7824V25.565Z"
        fill="#64CF66" />
    <path
        d="M10.9566 25.5654V24.3481V23.1307V21.9133V20.6959V19.4785H9.73926V20.6959V21.9133V23.1307V24.3481V25.5654V26.7828V28.0002H10.9566V26.7828V25.5654Z"
        fill="#00A651" />
    <path
        d="M14.609 21.9133V20.6959V19.4785H13.3916V20.6959V21.9133V23.1307V24.3481V25.5654V26.7828V28.0002H14.609V26.7828V25.5654V24.3481V23.1307V21.9133Z"
        fill="#00A651" />
    <path
        d="M10.9563 19.4779V18.2606H12.1736H13.391V19.4779H14.6084V20.6953H15.8258V19.4779V18.2606V17.0432V15.8258H14.6084V14.6084H13.391H12.1736H10.9563H9.73887V15.8258H8.52148V17.0432V18.2606V19.4779V20.6953H9.73887V19.4779H10.9563Z"
        fill="#612850" />
    <path d="M20.6959 9.73926H19.4785V10.9566H20.6959V9.73926Z" fill="#612850" />
    <path d="M15.8258 9.73926H14.6084V10.9566H15.8258V9.73926Z" fill="#612850" />
    <path d="M9.73887 9.73926H8.52148V10.9566H9.73887V9.73926Z" fill="#612850" />
    <path d="M4.86973 9.73926H3.65234V10.9566H4.86973V9.73926Z" fill="#612850" />
    <path d="M18.2609 8.52148H17.0436H15.8262V9.73887H17.0436H18.2609H19.4783V8.52148H18.2609Z"
        fill="#612850" />
    <path d="M7.30391 9.73887H8.52129V8.52148H7.30391H6.08652H4.86914V9.73887H6.08652H7.30391Z"
        fill="#612850" />
    <path
        d="M23.1303 7.3043V6.08692H21.9129V3.65215H20.6955V2.43477H18.2608V1.21738H15.826V0H8.52169V1.21738H6.08692V2.43477H3.65215V3.65215H2.43477V6.08692H1.21738V8.52169H0V15.826H1.21738V18.2608H2.43477V20.6955H3.65215V21.9129H6.08692V23.1303H8.52169V24.3477H9.73907V20.6955H8.52169V15.826H9.73907V14.6086H14.6086V15.826H15.826V20.6955H14.6086V24.3477H15.826V23.1303H18.2608V21.9129H20.6955V20.6955H21.9129V18.2608H23.1303V15.826H24.3477V8.52169H23.1303V7.3043ZM20.6955 9.73907V10.9565H19.4781V9.73907H15.826V10.9565H14.6086V9.73907H15.826V8.52169H19.4781V9.73907H20.6955ZM4.86954 9.73907V8.52169H8.52169V9.73907H9.73907V10.9565H8.52169V9.73907H4.86954V10.9565H3.65215V9.73907H4.86954Z"
        fill="#FFA3CE" />
    <path
        d="M9.73887 23.8246V22.9602V22.0837V21.2194V20.3429V19.4785H8.52148V20.3429V21.2194V22.0837V22.9602V23.8246V24.7011V25.5654H9.73887V24.7011V23.8246Z"
        fill="#00A651" />
    <path
        d="M15.8258 23.1307V22.522V21.9133V21.3046V20.6959V20.0872V19.4785H14.6084V20.0872V20.6959V21.3046V21.9133V22.522V23.1307V23.7394V24.3481H15.8258V23.7394V23.1307Z"
        fill="#64CF66" />
    <path d="M8.52207 18.2607H7.30469V19.4781H8.52207V18.2607Z" fill="#612850" />
    <path d="M17.0436 18.2607H15.8262V19.4781H17.0436V18.2607Z" fill="#612850" />
</svg>
