<svg width="30" height="30" viewBox="0 0 30 30" fill="none" xmlns="http://www.w3.org/2000/svg">
    <path
        d="M22.5 22.5V21V19.5H21H19.5H18H16.5H15H13.5H12H10.5H9H7.5V21V22.5H9V24H10.5V25.5H12H13.5H15H16.5H18H19.5V24H21V22.5H22.5Z"
        fill="#612850" />
    <path d="M22.5 15H21V16.5H22.5V15Z" fill="#D9198C" />
    <path d="M9 15H7.5V16.5H9V15Z" fill="#D9198C" />
    <path d="M24 13.5H22.5V15H24V13.5Z" fill="#D9198C" />
    <path d="M21 13.5H19.5V15H21V13.5Z" fill="#D9198C" />
    <path d="M10.5 13.5H9V15H10.5V13.5Z" fill="#D9198C" />
    <path d="M7.5 13.5H6V15H7.5V13.5Z" fill="#D9198C" />
    <path d="M25.5 12H24V13.5H25.5V12Z" fill="#D9198C" />
    <path d="M19.5 12H18V13.5H19.5V12Z" fill="#D9198C" />
    <path d="M12 12H10.5V13.5H12V12Z" fill="#D9198C" />
    <path d="M6 12H4.5V13.5H6V12Z" fill="#D9198C" />
    <path d="M19.5 10.5H21V9H19.5H18V10.5V12H19.5V10.5Z" fill="#FFDFEE" />
    <path d="M12 12H13.5V10.5V9H12V10.5V12Z" fill="#D9198C" />
    <path d="M7.5 10.5H6V12V13.5H7.5V15H9V13.5H10.5V12H12V10.5V9H10.5H9V10.5H7.5Z" fill="#D9198C" />
    <path d="M4.5 12H6V10.5H7.5V9H6H4.5V10.5V12Z" fill="#FFDFEE" />
    <path d="M4.5 12V10.5V9H3V10.5V12H4.5Z" fill="#D9198C" />
    <path
        d="M28.5 9V7.5H27V4.5H25.5V3H22.5V1.5H19.5V0H10.5V1.5H7.5V3H4.5V4.5H3V7.5H1.5V10.5H0V19.5H1.5V22.5H3V25.5H4.5V27H7.5V28.5H10.5V30H19.5V28.5H22.5V27H25.5V25.5H27V22.5H28.5V19.5H30V10.5H28.5V9ZM19.5 24V25.5H10.5V24H9V22.5H7.5V19.5H22.5V22.5H21V24H19.5ZM3 9H4.5V7.5H7.5V9H9V7.5H12V9H13.5V12H12V13.5H10.5V15H9V16.5H7.5V15H6V13.5H4.5V12H3V9ZM27 12H25.5V13.5H24V15H22.5V16.5H21V15H19.5V13.5H18V12H16.5V9H18V7.5H21V9H22.5V7.5H25.5V9H27V12Z"
        fill="#FFA3CE" />
    <path d="M25.5 9V10.5V12H27V10.5V9H25.5Z" fill="#D9198C" />
    <path d="M25.5 9H24H22.5V10.5H21H19.5V12V13.5H21V15H22.5V13.5H24V12H25.5V10.5V9Z"
        fill="#D9198C" />
    <path d="M22.5 9H21V10.5H22.5V9Z" fill="#D9198C" />
    <path d="M18 9H16.5V10.5V12H18V10.5V9Z" fill="#D9198C" />
    <path d="M9 9H7.5V10.5H9V9Z" fill="#D9198C" />
    <path d="M25.5 9V7.5H24H22.5V9H24H25.5Z" fill="#D9198C" />
    <path d="M21 9V7.5H19.5H18V9H19.5H21Z" fill="#D9198C" />
    <path d="M12 9V7.5H10.5H9V9H10.5H12Z" fill="#D9198C" />
    <path d="M7.5 9V7.5H6H4.5V9H6H7.5Z" fill="#D9198C" />
</svg>
