<svg width="296" height="293" viewBox="0 0 296 293" fill="none" xmlns="http://www.w3.org/2000/svg">
    <defs>
        <linearGradient id="paint0_linear" x1="156.057" y1="269.95" x2="131.321" y2="35.5378"
            gradientUnits="userSpaceOnUse">
            <stop stop-color="#ED9FDC" />
            <stop offset="1" stop-color="#FFEFF7" />
        </linearGradient>
        <linearGradient id="paint1_linear" x1="72.8611" y1="204.037" x2="155.314" y2="204.037"
            gradientUnits="userSpaceOnUse">
            <stop offset="0.28" stop-color="#333333" />
            <stop offset="0.31" stop-color="#33353C" />
            <stop offset="0.48" stop-color="#354172" />
            <stop offset="0.64" stop-color="#364A9C" />
            <stop offset="0.79" stop-color="#3651BB" />
            <stop offset="0.91" stop-color="#3755CD" />
            <stop offset="1" stop-color="#3756D4" />
        </linearGradient>
        <linearGradient id="paint2_linear" x1="237.884" y1="97.2153" x2="204.495" y2="172.58"
            gradientUnits="userSpaceOnUse">
            <stop offset="0.07" stop-color="#CC5A89" />
            <stop offset="1" stop-color="#F0C3D8" />
        </linearGradient>
        <linearGradient id="paint3_linear" x1="104481" y1="138409" x2="105565" y2="143801"
            gradientUnits="userSpaceOnUse">
            <stop offset="0.07" stop-color="#CC5A89" />
            <stop offset="1" stop-color="#F0C3D8" />
        </linearGradient>
        <linearGradient id="paint4_linear" x1="44785.4" y1="42714.6" x2="45636.1" y2="42340.9"
            gradientUnits="userSpaceOnUse">
            <stop offset="0.28" stop-color="#333333" />
            <stop offset="0.31" stop-color="#33353C" />
            <stop offset="0.48" stop-color="#354172" />
            <stop offset="0.64" stop-color="#364A9C" />
            <stop offset="0.79" stop-color="#3651BB" />
            <stop offset="0.91" stop-color="#3755CD" />
            <stop offset="1" stop-color="#3756D4" />
        </linearGradient>
        <linearGradient id="paint5_linear" x1="88358.6" y1="46449.2" x2="96309.2" y2="42956.9"
            gradientUnits="userSpaceOnUse">
            <stop offset="0.28" stop-color="#333333" />
            <stop offset="0.31" stop-color="#33353C" />
            <stop offset="0.48" stop-color="#354172" />
            <stop offset="0.64" stop-color="#364A9C" />
            <stop offset="0.79" stop-color="#3651BB" />
            <stop offset="0.91" stop-color="#3755CD" />
            <stop offset="1" stop-color="#3756D4" />
        </linearGradient>
        <linearGradient id="paint6_linear" x1="114020" y1="129724" x2="117197" y2="129724"
            gradientUnits="userSpaceOnUse">
            <stop offset="0.28" stop-color="#333333" />
            <stop offset="0.31" stop-color="#33353C" />
            <stop offset="0.48" stop-color="#354172" />
            <stop offset="0.64" stop-color="#364A9C" />
            <stop offset="0.79" stop-color="#3651BB" />
            <stop offset="0.91" stop-color="#3755CD" />
            <stop offset="1" stop-color="#3756D4" />
        </linearGradient>
        <linearGradient id="paint7_linear" x1="3354.35" y1="3459.93" x2="3794.43" y2="3459.93"
            gradientUnits="userSpaceOnUse">
            <stop offset="0.07" stop-color="#CC5A89" />
            <stop offset="1" stop-color="#F0C3D8" />
        </linearGradient>
        <linearGradient id="paint8_linear" x1="37871.8" y1="49276.5" x2="38201.1" y2="49212.5"
            gradientUnits="userSpaceOnUse">
            <stop offset="0.28" stop-color="#333333" />
            <stop offset="0.31" stop-color="#33353C" />
            <stop offset="0.48" stop-color="#354172" />
            <stop offset="0.64" stop-color="#364A9C" />
            <stop offset="0.79" stop-color="#3651BB" />
            <stop offset="0.91" stop-color="#3755CD" />
            <stop offset="1" stop-color="#3756D4" />
        </linearGradient>
        <linearGradient id="paint9_linear" x1="44854.1" y1="44109" x2="45267.3" y2="44028.6"
            gradientUnits="userSpaceOnUse">
            <stop offset="0.28" stop-color="#333333" />
            <stop offset="0.31" stop-color="#33353C" />
            <stop offset="0.48" stop-color="#354172" />
            <stop offset="0.64" stop-color="#364A9C" />
            <stop offset="0.79" stop-color="#3651BB" />
            <stop offset="0.91" stop-color="#3755CD" />
            <stop offset="1" stop-color="#3756D4" />
        </linearGradient>
        <linearGradient id="paint10_linear" x1="86394.8" y1="25381.4" x2="89266.2" y2="24823"
            gradientUnits="userSpaceOnUse">
            <stop offset="0.28" stop-color="#333333" />
            <stop offset="0.31" stop-color="#33353C" />
            <stop offset="0.48" stop-color="#354172" />
            <stop offset="0.64" stop-color="#364A9C" />
            <stop offset="0.79" stop-color="#3651BB" />
            <stop offset="0.91" stop-color="#3755CD" />
            <stop offset="1" stop-color="#3756D4" />
        </linearGradient>
        <linearGradient id="paint11_linear" x1="6507.7" y1="4623.55" x2="6527.71" y2="4619.66"
            gradientUnits="userSpaceOnUse">
            <stop offset="0.07" stop-color="#CC5A89" />
            <stop offset="1" stop-color="#F0C3D8" />
        </linearGradient>
        <linearGradient id="paint12_linear" x1="6517.93" y1="4667.65" x2="6537.94" y2="4663.76"
            gradientUnits="userSpaceOnUse">
            <stop offset="0.07" stop-color="#CC5A89" />
            <stop offset="1" stop-color="#F0C3D8" />
        </linearGradient>
        <linearGradient id="paint13_linear" x1="6743.85" y1="16563.7" x2="6747.71" y2="16583.7"
            gradientUnits="userSpaceOnUse">
            <stop offset="0.07" stop-color="#CC5A89" />
            <stop offset="1" stop-color="#F0C3D8" />
        </linearGradient>
        <linearGradient id="paint14_linear" x1="6704.29" y1="16563.1" x2="6708.15" y2="16583.1"
            gradientUnits="userSpaceOnUse">
            <stop offset="0.07" stop-color="#CC5A89" />
            <stop offset="1" stop-color="#F0C3D8" />
        </linearGradient>
        <linearGradient id="paint15_linear" x1="6684.32" y1="4583" x2="6704.33" y2="4579.11"
            gradientUnits="userSpaceOnUse">
            <stop offset="0.07" stop-color="#CC5A89" />
            <stop offset="1" stop-color="#F0C3D8" />
        </linearGradient>
        <linearGradient id="paint16_linear" x1="6694.53" y1="4627.09" x2="6714.54" y2="4623.2"
            gradientUnits="userSpaceOnUse">
            <stop offset="0.07" stop-color="#CC5A89" />
            <stop offset="1" stop-color="#F0C3D8" />
        </linearGradient>
        <linearGradient id="paint17_linear" x1="6901.94" y1="16566.5" x2="6905.8" y2="16586.5"
            gradientUnits="userSpaceOnUse">
            <stop offset="0.07" stop-color="#CC5A89" />
            <stop offset="1" stop-color="#F0C3D8" />
        </linearGradient>
        <linearGradient id="paint18_linear" x1="6862.4" y1="16565.9" x2="6866.26" y2="16585.9"
            gradientUnits="userSpaceOnUse">
            <stop offset="0.07" stop-color="#CC5A89" />
            <stop offset="1" stop-color="#F0C3D8" />
        </linearGradient>
    </defs>
    <path
        d="M9.39891 165.324C10.7798 186.966 23.4001 205.829 43.4384 214.091C55.3094 218.984 65.7138 226.173 72.8322 237.042C81.4812 250.261 84.4998 263.287 99.261 271.721C107.343 276.335 116.388 278.921 125.593 280.541C172.778 288.91 236.586 271.785 256.527 223.437C285.097 154.122 241.135 160.066 263.56 122.952C285.985 85.8375 266.193 48.5408 222.681 53.3048C183.325 57.6138 156.435 -16.9997 84.9154 14.9079C47.372 31.6576 6.46671 119.546 9.39891 165.324Z"
        fill="url(#paint0_linear)" />
    <path
        d="M87.116 67.3574C87.116 67.3574 68.522 94.3674 96.8275 111.384C125.133 128.4 159.677 89.9216 159.677 89.9216"
        stroke="#382A8C" stroke-width="0.87" stroke-linecap="round" stroke-linejoin="round" />
    <path
        d="M146.984 254.019C147.957 255.275 148.86 256.583 149.689 257.937C152.645 262.73 153.799 264.528 155.518 265.535C156.648 266.206 157.549 266.218 159.124 265.463C161.608 263.995 163.943 262.289 166.095 260.37C168.571 258.752 171.624 257.662 175.266 254.019C176.951 252.212 178.237 250.073 179.04 247.74C178.404 246.202 177.253 244.931 175.783 244.145C173.475 243.737 170.747 246.541 165.59 247.632C161.872 247.832 158.145 247.452 154.545 246.505C152.418 249.375 149.869 251.908 146.984 254.019V254.019Z"
        fill="#96ABFF" />
    <path
        d="M146.167 253.048C147.139 254.302 148.038 255.61 148.859 256.967C151.828 261.76 152.982 263.545 154.701 264.564C155.818 265.223 156.732 265.247 158.306 264.492C160.751 263.033 163.049 261.344 165.169 259.447C167.645 257.829 170.698 256.739 174.34 253.096C176.021 251.286 177.306 249.148 178.114 246.817C177.484 245.276 176.331 244.004 174.857 243.222C172.549 242.803 169.821 245.619 164.653 246.709C160.934 246.909 157.208 246.529 153.607 245.583C151.517 248.429 149.009 250.946 146.167 253.048V253.048Z"
        fill="#382A8C" />
    <path
        d="M154.497 249.837C154.442 249.846 154.39 249.867 154.344 249.898C154.298 249.929 154.26 249.97 154.231 250.017C154.203 250.065 154.185 250.118 154.179 250.173C154.173 250.228 154.178 250.284 154.196 250.336C154.214 250.389 154.242 250.437 154.28 250.477C154.318 250.517 154.364 250.549 154.416 250.57C154.467 250.591 154.523 250.6 154.578 250.598C154.633 250.595 154.688 250.581 154.737 250.556C156.067 249.923 157.147 248.864 157.802 247.548C158.006 247.212 158.191 246.863 158.355 246.505L157.574 246.397C157.453 246.637 157.321 246.889 157.153 247.164C156.578 248.316 155.647 249.253 154.497 249.837V249.837Z"
        fill="white" />
    <path
        d="M158.883 251.562C158.802 251.618 158.746 251.704 158.728 251.8C158.71 251.897 158.732 251.996 158.787 252.077C158.845 252.159 158.933 252.215 159.032 252.233C159.131 252.251 159.233 252.229 159.316 252.173C160.421 251.203 161.166 249.891 161.431 248.447C161.576 247.903 161.684 247.351 161.756 246.793H160.999C160.934 247.298 160.837 247.798 160.71 248.291C160.459 249.545 159.82 250.689 158.883 251.562Z"
        fill="white" />
    <path
        d="M163.511 250.34C163.479 250.378 163.455 250.422 163.441 250.468C163.426 250.515 163.421 250.565 163.425 250.614C163.43 250.663 163.444 250.71 163.467 250.754C163.49 250.797 163.521 250.836 163.559 250.867C163.597 250.899 163.64 250.923 163.688 250.937C163.735 250.952 163.784 250.957 163.833 250.953C163.882 250.948 163.93 250.934 163.974 250.911C164.017 250.888 164.056 250.857 164.088 250.82C164.886 249.582 165.246 248.114 165.109 246.649V246.649L164.713 246.745H164.364C164.467 248.003 164.168 249.261 163.511 250.34Z"
        fill="white" />
    <path
        d="M168.054 248.387C168.023 248.481 168.029 248.583 168.072 248.672C168.114 248.762 168.19 248.831 168.283 248.866C168.378 248.897 168.482 248.889 168.572 248.844C168.662 248.799 168.731 248.721 168.763 248.627C169.021 247.595 168.987 246.513 168.667 245.499L167.97 245.787C168.211 246.634 168.24 247.526 168.054 248.387V248.387Z"
        fill="white" />
    <path
        d="M77.741 150.508L93.943 169.801C93.943 169.801 152.513 233.204 154.989 241.316C157.465 249.429 145.374 257.565 145.374 257.565C145.374 257.565 111.311 225.079 96.5031 208.351C81.6953 191.622 78.2458 188.423 76.2747 180.298C74.3035 172.173 72.2601 168.243 73.0294 166.278C73.7986 164.312 77.741 150.508 77.741 150.508Z"
        fill="url(#paint1_linear)" stroke="white" stroke-width="0.87" stroke-linecap="round"
        stroke-linejoin="round" />
    <path
        d="M91.744 68.3281C41.5498 90.0046 13.9575 130.078 20.6462 161.546C23.4961 174.955 34.2561 194.817 51.8561 200.027C73.9579 206.586 89.8711 184.909 106.959 193.34C120.918 200.224 116.661 217.761 128.933 232.507C138.576 244.066 159.62 255.311 211.594 247.624"
        stroke="white" stroke-width="0.87" stroke-linecap="round" stroke-linejoin="round" />
    <path
        d="M121.852 143.462C121.852 143.462 135.266 138.525 135.686 137.243C136.107 135.96 133.992 131.623 133.451 131.251C132.91 130.88 129.845 131.251 129.845 131.251C129.155 131.32 128.472 131.444 127.802 131.623C125.987 131.964 124.299 132.793 122.922 134.019C120.818 135.901 121.023 135.217 119.316 137.099C117.609 138.98 121.852 143.462 121.852 143.462Z"
        fill="#96ABFF" />
    <path
        d="M273.053 176.436H273.173C274.25 176.154 275.367 176.049 276.478 176.124C277.532 176.19 278.564 176.454 279.519 176.903C280.096 177.167 280.793 177.586 280.961 178.186L282.44 184.177C282.511 184.448 282.497 184.735 282.4 184.998C282.304 185.262 282.129 185.489 281.899 185.651C281.805 185.728 281.729 185.823 281.673 185.93C281.617 186.037 281.584 186.154 281.574 186.274C281.574 187.233 283.629 188.946 283.629 188.946L285.937 198.185C286.598 201.306 286.292 204.553 285.06 207.496C285.002 207.655 284.9 207.793 284.764 207.894C284.629 207.995 284.467 208.054 284.298 208.065C284.129 208.075 283.961 208.036 283.815 207.952C283.668 207.868 283.549 207.743 283.473 207.592C282.769 206.242 282.139 204.853 281.586 203.434C280.609 201.113 279.455 198.87 278.137 196.723C278.779 195.328 279.146 193.823 279.218 192.29C279.218 190.456 276.694 186.562 274.266 183.518C273.551 182.501 273.07 181.338 272.86 180.113C272.651 178.888 272.716 177.632 273.053 176.436V176.436Z"
        fill="#333333" />
    <path
        d="M273.293 171.643C273.064 173.197 273.008 174.773 273.124 176.34V176.34H273.004C272.681 177.521 272.621 178.759 272.829 179.966C273.036 181.173 273.507 182.32 274.206 183.326C276.61 186.37 279.182 190.264 279.158 192.098C279.086 193.631 278.718 195.136 278.076 196.532C275.588 192.11 268.798 180.007 268.052 178.557C267.199 176.867 266.382 175.309 265.648 173.907C267.719 173.484 269.752 172.899 271.73 172.158C272.343 172.05 272.884 171.846 273.293 171.643Z"
        fill="#96ABFF" />
    <path
        d="M216.93 180.959L217.023 180.933C218.015 181.128 218.967 181.488 219.839 181.997C220.665 182.472 221.393 183.097 221.987 183.84C222.196 184.054 222.361 184.308 222.472 184.585C222.583 184.863 222.638 185.16 222.634 185.459L221.445 190.884C221.393 191.135 221.264 191.363 221.077 191.539C220.891 191.715 220.655 191.83 220.401 191.868C220.19 191.921 220.009 192.055 219.895 192.24C219.463 192.999 220.48 195.233 220.48 195.233L218.637 203.651C217.92 206.444 216.368 208.954 214.188 210.849C214.078 210.955 213.939 211.027 213.789 211.055C213.638 211.084 213.483 211.068 213.342 211.01C213.2 210.952 213.079 210.855 212.992 210.729C212.905 210.603 212.857 210.455 212.853 210.303C212.836 208.927 212.887 207.55 213.007 206.179C213.145 203.905 213.114 201.624 212.912 199.355V199.355C213.998 198.483 214.899 197.405 215.565 196.184C216.328 194.704 215.827 190.53 215.087 187.095C214.923 186 215.004 184.883 215.322 183.823C215.641 182.762 216.19 181.784 216.93 180.959V180.959Z"
        fill="#333333" />
    <path
        d="M219.052 177.152C218.237 178.325 217.558 179.586 217.027 180.911L217.044 180.972L216.952 180.998C216.215 181.829 215.672 182.812 215.36 183.876C215.048 184.941 214.976 186.06 215.148 187.155C215.888 190.591 216.389 194.765 215.626 196.245C214.96 197.466 214.059 198.544 212.973 199.416C212.736 194.838 212.092 182.308 212.083 180.833C212.062 179.118 212.034 177.537 211.989 176.094C213.839 176.564 215.721 176.898 217.621 177.095C218.113 177.114 218.594 177.135 219.052 177.152Z"
        fill="#96ABFF" />
    <path
        d="M242.62 83.2549C242.62 83.2549 210.528 104.741 206.261 110.481C201.994 116.22 196.213 158.869 200.336 170.852C204.458 182.835 211.682 186.262 227.812 174.782C227.812 174.782 220.901 144.441 225.672 130.828C230.444 117.215 259.23 107.365 259.23 107.365L262.223 89.1626L242.62 83.2549Z"
        fill="url(#paint2_linear)" stroke="white" stroke-width="0.87" stroke-linecap="round"
        stroke-linejoin="round" />
    <path
        d="M231.213 86.6939C231.213 86.6939 240.096 91.6788 240.096 97.4787C240.096 103.279 230.877 126.562 232.199 132.362C233.521 138.161 254.242 169.977 255.781 174.686C257.319 179.396 277.055 178.401 283.197 162.547C283.197 162.547 262.199 146.358 258.089 130.289C258.089 130.289 269.11 114.375 275.024 100.594C280.937 86.8137 269.435 68.108 258.089 68.5993C246.742 69.0906 248.473 67.7844 243.557 70.9C238.641 74.0156 231.213 86.6939 231.213 86.6939Z"
        fill="url(#paint3_linear)" stroke="white" stroke-width="0.87" stroke-linecap="round"
        stroke-linejoin="round" />
    <path
        d="M255.588 79.7314C255.937 79.7314 257.331 80.0072 259.747 82.4158C260.757 83.3302 261.554 84.4553 262.079 85.7112C262.137 85.9122 262.186 86.1161 262.223 86.3222C260.291 88.3155 258.095 90.0369 255.696 91.439C251.73 93.7518 248.713 93.8357 248.04 93.7158C246.057 93.2605 246.55 92.2419 246.55 92.2419C246.55 92.2419 245.228 91.6188 245.228 90.5643C245.228 89.7973 246.345 89.4738 246.345 89.4738C246.14 89.3197 245.989 89.1038 245.915 88.8579C245.842 88.612 245.849 88.3491 245.937 88.1078C246.297 87.3648 249.362 87.3648 250.648 86.5979C251.383 86.1544 252.079 85.6492 252.728 85.088C252.728 85.088 250.444 85.0879 250.636 84.1053C250.829 83.1227 252.439 82.9071 253.581 81.9005C254.289 81.2393 254.933 80.5131 255.504 79.7314H255.588V79.7314Z"
        fill="#96ABFF" />
    <path
        d="M223.425 44.9927C223.425 44.9927 211.237 41.1343 217.872 27.7491C217.872 27.7491 213.785 24.6934 217.956 19.1691C222.127 13.6449 235.757 10.4334 236.117 17.7791C236.117 17.7791 253.245 7.98882 260.925 16.5807C268.606 25.1727 273.485 42.4763 248.473 48.5877C223.461 54.6991 223.425 44.9927 223.425 44.9927Z"
        fill="#382A8C" />
    <mask id="path-20-inside-1" fill="white">
        <path fill-rule="evenodd" clip-rule="evenodd"
            d="M254.789 52.9577C255.559 57.897 256.702 63.1148 258.161 63.842C259.499 64.5091 260.953 65.7977 262.121 66.9804C263.336 64.9991 264.27 62.839 264.88 60.5585C263.45 58.24 261.452 56.3226 259.074 54.9865C258.138 54.4854 256.594 53.7642 254.789 52.9577ZM254.784 78.0404C255.473 81.998 257.625 88.0898 264.339 87.5686C274.219 86.8017 284.772 68.5273 280.348 56.2326C275.925 43.9379 263.233 34.0997 251.502 32.9973C245.374 32.3382 239.207 33.5622 233.819 36.48C232.216 37.2021 230.568 38.0522 229.065 38.9672C228.777 39.079 228.48 39.2058 228.173 39.3485C217.103 44.4893 207.74 61.9847 207.74 61.9847L215.192 81.2296L225.856 62.9611C226.772 64.5057 227.912 65.9428 229.314 67.1852C233.574 70.9602 231.767 76.2988 230.189 80.9623C228.721 85.2991 227.451 89.052 231.442 90.4205C236.326 92.0955 246.917 84.5297 254.784 78.0404Z" />
    </mask>
    <path fill-rule="evenodd" clip-rule="evenodd"
        d="M254.789 52.9577C255.559 57.897 256.702 63.1148 258.161 63.842C259.499 64.5091 260.953 65.7977 262.121 66.9804C263.336 64.9991 264.27 62.839 264.88 60.5585C263.45 58.24 261.452 56.3226 259.074 54.9865C258.138 54.4854 256.594 53.7642 254.789 52.9577ZM254.784 78.0404C255.473 81.998 257.625 88.0898 264.339 87.5686C274.219 86.8017 284.772 68.5273 280.348 56.2326C275.925 43.9379 263.233 34.0997 251.502 32.9973C245.374 32.3382 239.207 33.5622 233.819 36.48C232.216 37.2021 230.568 38.0522 229.065 38.9672C228.777 39.079 228.48 39.2058 228.173 39.3485C217.103 44.4893 207.74 61.9847 207.74 61.9847L215.192 81.2296L225.856 62.9611C226.772 64.5057 227.912 65.9428 229.314 67.1852C233.574 70.9602 231.767 76.2988 230.189 80.9623C228.721 85.2991 227.451 89.052 231.442 90.4205C236.326 92.0955 246.917 84.5297 254.784 78.0404Z"
        fill="white" />
    <path
        d="M258.161 63.842L257.715 64.7369L257.715 64.7369L258.161 63.842ZM254.789 52.9577L255.197 52.0447L253.517 51.2947L253.801 53.1118L254.789 52.9577ZM262.121 66.9804L261.41 67.6832L262.307 68.591L262.974 67.503L262.121 66.9804ZM264.88 60.5585L265.846 60.8169L265.957 60.4006L265.731 60.0337L264.88 60.5585ZM259.074 54.9865L259.564 54.1146L259.555 54.1097L259.546 54.1049L259.074 54.9865ZM254.784 78.0404L255.769 77.8688L255.474 76.1749L254.148 77.269L254.784 78.0404ZM264.339 87.5686L264.261 86.5716L264.261 86.5716L264.339 87.5686ZM280.348 56.2326L281.289 55.8941L281.289 55.8941L280.348 56.2326ZM251.502 32.9973L251.395 33.9916L251.408 33.9929L251.502 32.9973ZM233.819 36.48L234.23 37.3917L234.263 37.3767L234.295 37.3593L233.819 36.48ZM229.065 38.9672L229.427 39.8995L229.51 39.8675L229.586 39.8213L229.065 38.9672ZM228.173 39.3485L228.594 40.2555L228.594 40.2555L228.173 39.3485ZM207.74 61.9847L206.858 61.5129L206.641 61.9177L206.807 62.3458L207.74 61.9847ZM215.192 81.2296L214.259 81.5907L215.009 83.5266L216.055 81.7337L215.192 81.2296ZM225.856 62.9611L226.716 62.451L225.849 60.9892L224.992 62.457L225.856 62.9611ZM229.314 67.1852L228.651 67.9336L228.651 67.9336L229.314 67.1852ZM230.189 80.9623L229.242 80.6417L229.242 80.6417L230.189 80.9623ZM231.442 90.4205L231.117 91.3664L231.117 91.3664L231.442 90.4205ZM258.607 62.947C258.607 62.947 258.539 62.9097 258.418 62.7547C258.302 62.6053 258.17 62.3881 258.026 62.0926C257.739 61.5006 257.454 60.6901 257.179 59.7094C256.631 57.7537 256.16 55.2603 255.777 52.8037L253.801 53.1118C254.188 55.5944 254.673 58.1795 255.254 60.2494C255.543 61.2814 255.865 62.2203 256.227 62.9655C256.561 63.6551 257.028 64.3948 257.715 64.7369L258.607 62.947ZM262.833 66.2775C261.652 65.0827 260.102 63.6921 258.607 62.947L257.715 64.7369C258.896 65.326 260.254 66.5127 261.41 67.6832L262.833 66.2775ZM263.913 60.3002C263.329 62.4867 262.434 64.5579 261.269 66.4577L262.974 67.503C264.238 65.4403 265.211 63.1912 265.846 60.8169L263.913 60.3002ZM258.584 55.8583C260.815 57.1114 262.688 58.9095 264.028 61.0833L265.731 60.0337C264.212 57.5705 262.09 55.5337 259.564 54.1146L258.584 55.8583ZM254.381 53.8708C256.187 54.6775 257.701 55.3857 258.602 55.8681L259.546 54.1049C258.575 53.5851 257.002 52.851 255.197 52.0447L254.381 53.8708ZM253.799 78.212C254.154 80.2519 254.9 82.9461 256.502 85.0837C258.147 87.2783 260.68 88.8556 264.416 88.5656L264.261 86.5716C261.283 86.8027 259.384 85.5948 258.102 83.8843C256.778 82.117 256.103 79.7866 255.769 77.8688L253.799 78.212ZM264.416 88.5656C267.172 88.3516 269.88 86.9298 272.287 84.8316C274.703 82.726 276.881 79.8843 278.589 76.6955C281.985 70.3519 283.631 62.4041 281.289 55.8941L279.407 56.5711C281.489 62.3559 280.07 69.6926 276.826 75.7515C275.213 78.764 273.177 81.4031 270.973 83.3239C268.761 85.252 266.445 86.4021 264.261 86.5716L264.416 88.5656ZM281.289 55.8941C276.742 43.2539 263.732 33.1423 251.596 32.0017L251.408 33.9929C262.733 35.0572 275.109 44.6219 279.407 56.5711L281.289 55.8941ZM251.609 32.003C245.279 31.3222 238.909 32.5865 233.343 35.6006L234.295 37.3593C239.506 34.5379 245.469 33.3542 251.395 33.9915L251.609 32.003ZM233.408 35.5682C231.774 36.3047 230.088 37.1736 228.545 38.1131L229.586 39.8213C231.048 38.9308 232.659 38.0995 234.23 37.3917L233.408 35.5682ZM228.704 38.0349C228.394 38.155 228.077 38.2904 227.751 38.4416L228.594 40.2555C228.883 40.1213 229.16 40.003 229.427 39.8995L228.704 38.0349ZM227.751 38.4416C221.975 41.1239 216.742 46.9606 213.002 51.9983C211.118 54.5365 209.584 56.9102 208.522 58.6495C207.991 59.5197 207.577 60.2322 207.294 60.7288C207.153 60.977 207.045 61.1714 206.972 61.3045C206.935 61.371 206.907 61.4223 206.888 61.4573C206.879 61.4748 206.871 61.4883 206.866 61.4976C206.864 61.5023 206.862 61.5059 206.86 61.5084C206.86 61.5097 206.859 61.5107 206.859 61.5114C206.859 61.5118 206.858 61.5122 206.858 61.5124C206.858 61.5127 206.858 61.5129 207.74 61.9847C208.621 62.4566 208.621 62.4567 208.621 62.4567C208.621 62.4566 208.621 62.4566 208.622 62.4564C208.622 62.4561 208.622 62.4555 208.622 62.4547C208.623 62.453 208.625 62.4502 208.627 62.4464C208.631 62.4389 208.637 62.4272 208.646 62.4114C208.663 62.38 208.689 62.3323 208.723 62.2695C208.793 62.1438 208.897 61.9573 209.033 61.7171C209.306 61.2368 209.71 60.5423 210.229 59.6919C211.268 57.9902 212.768 55.6688 214.608 53.1905C218.317 48.1954 223.3 42.714 228.594 40.2555L227.751 38.4416ZM206.807 62.3458L214.259 81.5907L216.124 80.8685L208.672 61.6236L206.807 62.3458ZM216.055 81.7337L226.719 63.4652L224.992 62.457L214.328 80.7255L216.055 81.7337ZM224.995 63.4712C225.959 65.0952 227.164 66.6153 228.651 67.9336L229.978 66.4368C228.661 65.2703 227.585 63.9161 226.716 62.451L224.995 63.4712ZM228.651 67.9336C230.505 69.5762 231.047 71.5326 230.942 73.6919C230.834 75.9159 230.041 78.2793 229.242 80.6417L231.136 81.2828C231.915 78.9818 232.815 76.3441 232.94 73.7893C233.067 71.1697 232.384 68.5691 229.978 66.4368L228.651 67.9336ZM229.242 80.6417C228.528 82.7509 227.771 84.9507 227.769 86.8032C227.767 87.7644 227.965 88.7138 228.531 89.5402C229.1 90.3709 229.969 90.9726 231.117 91.3664L231.766 89.4746C230.919 89.1842 230.451 88.8036 230.181 88.4102C229.909 88.0125 229.768 87.496 229.769 86.8058C229.771 85.3555 230.382 83.5105 231.136 81.2828L229.242 80.6417ZM231.117 91.3664C232.642 91.8894 234.472 91.6563 236.347 91.058C238.249 90.4513 240.348 89.4196 242.501 88.1541C246.81 85.6212 251.472 82.0684 255.42 78.8119L254.148 77.269C250.229 80.5016 245.661 83.9764 241.487 86.4299C239.399 87.6577 237.443 88.609 235.739 89.1526C234.009 89.7046 232.683 89.7891 231.766 89.4746L231.117 91.3664Z"
        fill="#382A8C" mask="url(#path-20-inside-1)" />
    <path
        d="M226.73 31.5716L232.644 28.6357C233.448 31.2947 235.145 33.5965 237.451 35.1545C237.451 35.1545 235.853 40.9783 232.836 41.901C232.397 42.0851 231.916 42.147 231.445 42.0801C230.973 42.0132 230.529 41.82 230.159 41.5211C229.789 41.2223 229.507 40.829 229.343 40.3831C229.18 39.9372 229.141 39.4554 229.23 38.9891C229.434 37.7308 229.038 33.2133 228.557 32.5423C228.06 32.0429 227.423 31.7046 226.73 31.5716V31.5716Z"
        fill="#96ABFF" />
    <path
        d="M226.37 40.3072C226.37 40.3072 227.752 48.6953 234.278 45.7475C240.805 42.7996 239.855 34.04 239.855 34.04"
        stroke="#3756D4" stroke-width="0.87" stroke-linecap="round" stroke-linejoin="round" />
    <path d="M254.627 76.772C257.337 74.3336 259.761 71.5147 261.839 68.3838" stroke="#382A8C"
        stroke-linecap="round" stroke-linejoin="round" />
    <path d="M253.653 170.433C253.653 170.433 270.613 173.309 276.045 162.32" stroke="white"
        stroke-width="0.87" stroke-linecap="round" stroke-linejoin="round" />
    <path d="M226.369 167.449C226.369 167.449 219.254 177.575 206.585 173.968" stroke="white"
        stroke-width="0.87" stroke-linecap="round" stroke-linejoin="round" />
    <path d="M251.177 126.503L256.213 129.127" stroke="white" stroke-width="0.87"
        stroke-linecap="round" stroke-linejoin="round" />
    <path d="M256.213 131.199L246.898 132.541" stroke="white" stroke-width="0.87"
        stroke-linecap="round" stroke-linejoin="round" />
    <path
        d="M231.009 27.1979V24.909C231.188 24.4466 231.533 24.0675 231.978 23.8459C232.423 23.6242 232.934 23.576 233.413 23.7107C235.36 24.1182 234.987 27.7851 232.583 28.6119C232.583 28.6119 230.372 33.8725 229.05 34.7233C227.728 35.5741 225.913 36.365 224.963 35.9216C224.014 35.4783 221.129 29.4986 220.961 28.2284C220.792 26.9582 221.658 23.1716 223.124 23.0877C224.59 23.0038 225.372 25.9038 227.8 23.8187C227.8 23.8187 228.353 27.9409 229.783 27.7252C231.213 27.5095 231.009 27.1979 231.009 27.1979Z"
        fill="#96ABFF" />
    <path
        d="M223.701 27.2217C223.701 27.2217 223.809 31.2601 224.362 31.4877C224.915 31.7154 225.672 30.6608 225.672 30.6608"
        stroke="#382A8C" stroke-width="0.52" stroke-linecap="round" stroke-linejoin="round" />
    <path
        d="M225.672 33.6573C226.196 33.6487 226.701 33.4587 227.1 33.1198C227.499 32.781 227.768 32.3143 227.86 31.7998"
        stroke="#382A8C" stroke-width="0.52" stroke-linecap="round" stroke-linejoin="round" />
    <path d="M224.47 25.9277C224.47 25.9277 224.59 25.0529 226.874 24.8252" stroke="#382A8C"
        stroke-width="0.52" stroke-linecap="round" stroke-linejoin="round" />
    <path
        d="M222.643 26.7783C222.249 26.8915 221.898 27.1219 221.639 27.4388C221.379 27.7556 221.222 28.1438 221.189 28.5518"
        stroke="#382A8C" stroke-width="0.52" stroke-linecap="round" stroke-linejoin="round" />
    <path
        d="M223.172 30.6132C223.564 30.6132 223.881 30.2967 223.881 29.9062C223.881 29.5158 223.564 29.1992 223.172 29.1992C222.78 29.1992 222.463 29.5158 222.463 29.9062C222.463 30.2967 222.78 30.6132 223.172 30.6132Z"
        fill="#382A8C" />
    <path
        d="M226.381 28.8398C226.773 28.8398 227.091 28.5233 227.091 28.1328C227.091 27.7423 226.773 27.4258 226.381 27.4258C225.99 27.4258 225.672 27.7423 225.672 28.1328C225.672 28.5233 225.99 28.8398 226.381 28.8398Z"
        fill="#382A8C" />
    <path
        d="M192.538 118.166L205.266 147.153L199.016 149.873L191.985 133.864L178.223 139.867L185.266 155.889L179.016 158.609L166.275 129.622L192.538 118.166Z"
        fill="url(#paint4_linear)" />
    <path
        d="M201.839 56.6145L114.355 94.8111C112.664 95.5491 111.894 97.5137 112.634 99.199L135.189 150.548C135.93 152.233 137.9 153.001 139.591 152.263L227.075 114.067C228.765 113.329 229.536 111.364 228.795 109.679L206.24 58.3297C205.5 56.6444 203.529 55.8765 201.839 56.6145Z"
        fill="#382A8C" />
    <path d="M206.438 58.7791L112.832 99.6484L134.997 150.109L228.603 109.239L206.438 58.7791Z"
        fill="url(#paint5_linear)" />
    <path d="M213.76 142.254L169.412 161.616L172.064 167.653L216.412 148.291L213.76 142.254Z"
        fill="#382A8C" />
    <path
        d="M119.833 134.319C119.833 134.319 123.51 132.294 123.739 130.089C124 128.522 124.403 126.982 124.941 125.487C125.009 125.286 125.139 125.111 125.313 124.987C125.487 124.863 125.695 124.796 125.908 124.796C126.122 124.796 126.33 124.863 126.504 124.987C126.677 125.111 126.807 125.286 126.876 125.487C127.12 125.969 127.232 126.505 127.203 127.044C127.173 127.582 127.002 128.103 126.708 128.555C125.145 130.556 129.027 132.689 125.217 136.045C121.407 139.4 122.345 138.597 122.345 138.597C121.649 137.093 120.808 135.66 119.833 134.319V134.319Z"
        fill="#96ABFF" />
    <path
        d="M54.8561 238.369C53.4405 239.095 51.9882 239.746 50.5051 240.322C45.2286 242.36 43.2935 243.174 41.9594 244.672C41.106 245.655 40.9257 246.542 41.3705 248.267C42.3815 250.925 43.6368 253.485 45.1205 255.912C46.3224 258.633 46.8032 261.82 49.7479 266.038C51.2333 268 53.1122 269.633 55.2649 270.831C56.8871 270.481 58.3363 269.579 59.3634 268.279C60.1807 266.086 57.9451 262.923 57.7408 257.65C58.2155 253.968 59.2618 250.382 60.8419 247.021C58.4242 244.451 56.4065 241.535 54.8561 238.369V238.369Z"
        fill="#96ABFF" />
    <path
        d="M55.9617 237.733C54.5496 238.466 53.097 239.118 51.6107 239.687C46.3463 241.724 44.3992 242.539 43.065 244.049C42.2116 245.031 42.0314 245.918 42.4881 247.643C43.4937 250.298 44.7451 252.854 46.2261 255.277C47.428 257.997 47.9208 261.184 50.8535 265.414C52.3355 267.384 54.22 269.018 56.3824 270.208C58.0018 269.859 59.4477 268.956 60.469 267.655C61.2863 265.474 59.0507 262.299 58.8584 257.026C59.3234 253.344 60.3657 249.757 61.9473 246.397C59.5287 243.824 57.5111 240.904 55.9617 237.733Z"
        fill="#382A8C" />
    <path
        d="M57.6329 246.481C57.625 246.433 57.6075 246.386 57.5815 246.344C57.5555 246.302 57.5213 246.265 57.4811 246.236C57.441 246.207 57.3956 246.187 57.3473 246.175C57.2991 246.164 57.2491 246.162 57.2002 246.17C57.1512 246.178 57.1043 246.195 57.0621 246.221C57.0199 246.247 56.9833 246.281 56.9543 246.321C56.9253 246.361 56.9044 246.406 56.8929 246.455C56.8815 246.503 56.8798 246.552 56.8877 246.601C57.2645 248.033 58.1106 249.299 59.2915 250.196C59.6281 250.472 59.9286 250.711 60.217 250.915L60.4694 250.172C60.2312 250.001 60.0026 249.817 59.7844 249.621C58.7443 248.835 57.9891 247.733 57.6329 246.481Z"
        fill="white" />
    <path
        d="M55.1566 250.436C55.137 250.391 55.1088 250.35 55.0734 250.316C55.038 250.282 54.9961 250.255 54.9503 250.237C54.9045 250.22 54.8555 250.211 54.8063 250.212C54.7572 250.213 54.7088 250.224 54.6639 250.244C54.5719 250.286 54.5002 250.362 54.4642 250.456C54.4282 250.55 54.4308 250.655 54.4715 250.747C55.2405 251.999 56.4023 252.964 57.7768 253.491C58.2837 253.738 58.8103 253.943 59.3513 254.102C59.3513 253.863 59.4595 253.623 59.5196 253.371C59.0304 253.217 58.5526 253.028 58.0893 252.808C56.8869 252.343 55.8611 251.513 55.1566 250.436V250.436Z"
        fill="white" />
    <path
        d="M55.5172 255.229C55.4438 255.161 55.3472 255.123 55.2468 255.123C55.1464 255.123 55.0498 255.161 54.9764 255.229C54.9415 255.264 54.9137 255.305 54.8948 255.35C54.8759 255.395 54.8662 255.444 54.8662 255.493C54.8662 255.542 54.8759 255.59 54.8948 255.636C54.9137 255.681 54.9415 255.722 54.9764 255.756C56.0514 256.764 57.4362 257.381 58.9066 257.506V257.506C58.9066 257.374 58.9066 257.242 58.9066 257.099V256.751C57.6423 256.619 56.454 256.086 55.5172 255.229V255.229Z"
        fill="white" />
    <path
        d="M56.7194 260.046C56.6332 259.999 56.5318 259.987 56.4372 260.014C56.3427 260.041 56.2626 260.104 56.2145 260.19C56.1891 260.233 56.1727 260.281 56.1662 260.33C56.1597 260.38 56.1633 260.43 56.1768 260.478C56.1903 260.526 56.2133 260.571 56.2446 260.61C56.2758 260.649 56.3146 260.681 56.3587 260.705C57.3315 261.136 58.4028 261.297 59.4598 261.173C59.4598 260.933 59.3516 260.681 59.3035 260.43C58.4234 260.525 57.5336 260.392 56.7194 260.046V260.046Z"
        fill="white" />
    <path
        d="M90.5775 164.804C90.5775 164.804 84.5678 168.519 87.8251 176.176C91.0823 183.834 114.039 219.484 114.917 224.732C115.794 229.981 115.578 237.302 97.2602 241.784C86.1783 244.498 75.266 247.859 64.5797 251.85C64.5797 251.85 54.3752 244.301 53.3896 235.445C53.3896 235.445 80.0365 226.589 85.4212 222.755C85.4212 222.755 61.2864 199.028 54.3753 171.683C47.4642 144.337 90.5775 164.804 90.5775 164.804Z"
        fill="url(#paint6_linear)" stroke="white" stroke-width="0.87" stroke-linecap="round"
        stroke-linejoin="round" />
    <path
        d="M78.5103 143.259C78.5103 143.259 98.5826 157.363 105.265 156.92C111.948 156.476 125.89 146.542 126.215 144.936C126.54 143.331 121.72 132.953 118.871 132.57C116.023 132.186 107.898 140.886 105.818 141.21C103.739 141.533 94.4721 127.621 84.7364 125.152C75.0008 122.684 73.0176 141.653 73.0176 141.653L78.5103 143.259Z"
        fill="white" />
    <path
        d="M44.604 163.678C44.604 163.678 45.4092 183.75 55.7698 178.058C66.1305 172.366 70.9142 166.41 93.9432 169.849C93.9432 169.849 97.6452 164.684 90.2413 160.742C82.8374 156.8 85.5538 138.681 90.073 132.857C94.5923 127.033 81.275 123.187 70.746 122.072C60.2171 120.958 49.5198 131.419 49.5198 131.419C49.5198 131.419 37.9212 148.975 36.9356 153.241C35.9501 157.507 44.604 163.678 44.604 163.678Z"
        fill="white" />
    <path
        d="M51.0103 154.343C50.7939 154.595 50.0126 155.769 50.0607 159.136C50.0072 160.498 50.2619 161.853 50.8059 163.103C50.9066 163.289 51.019 163.47 51.1424 163.642C53.9205 163.639 56.6856 163.264 59.3636 162.528C63.7988 161.329 65.9863 159.22 66.3349 158.621C67.3926 156.884 66.3349 156.536 66.3349 156.536C66.3349 156.536 66.8037 155.17 66.0464 154.427C65.4936 153.888 64.4839 154.427 64.4839 154.427C64.4839 154.427 64.5681 153.456 63.7868 153.229C63.0055 153.001 60.8541 155.158 59.4118 155.542C58.581 155.76 57.7323 155.905 56.8757 155.973C56.8757 155.973 58.4502 154.331 57.6329 153.804C56.8156 153.277 55.5295 154.259 54.0271 154.355C53.056 154.417 52.0811 154.376 51.1184 154.235V154.235L51.0103 154.343Z"
        fill="#96ABFF" />
    <path
        d="M64.0869 121.737C58.4017 122.312 46.2262 124.613 36.3584 131.826C26.4905 139.04 18.75 162.671 26.5746 172.569C27.4729 173.771 28.6231 174.764 29.9454 175.478C31.2676 176.192 32.7301 176.61 34.2309 176.703C37.1233 176.691 39.9722 176.002 42.5482 174.69C46.2502 172.989 49.6397 170.7 53.2815 168.878C52.7372 167.993 52.2784 167.058 51.9113 166.086C51.5338 165.036 51.2758 163.947 51.142 162.839C51.0278 160.583 51.0278 158.324 51.142 156.068C51.142 155.481 51.142 154.87 51.142 154.319C48.8436 154.934 46.4201 154.909 44.1348 154.247L59.9282 134.571C59.9282 134.571 69.76 121.162 64.0869 121.737Z"
        fill="white" />
    <path
        d="M70.9378 111.216C70.877 114.441 71.0215 117.667 71.3705 120.874C71.5591 122.05 71.2768 123.253 70.5844 124.224C69.892 125.194 68.8448 125.855 67.6686 126.063C65.2648 126.518 60.998 124.409 61.8994 120.766C62.8009 117.123 64.1951 112.893 63.1014 110.377C62.0076 107.86 64.9161 110.676 64.9161 110.676L70.9378 111.216Z"
        fill="#96ABFF" />
    <path
        d="M60.7697 112.426C60.031 111.318 59.615 110.028 59.5678 108.699C59.4115 104.732 62.7889 102.252 63.1736 102.012C63.1736 102.012 64.1711 98.9206 68.5462 98.4173C72.9212 97.914 74.7603 98.7049 73.6064 102.168C73.6064 102.168 76.9117 99.3041 78.0535 103.007C78.2922 103.627 78.3938 104.291 78.3512 104.954C78.3086 105.617 78.1228 106.263 77.8067 106.848C77.4906 107.433 77.0516 107.943 76.5195 108.343C75.9875 108.743 75.375 109.024 74.7241 109.166C72.8972 109.55 71.2385 111.563 69.9164 113.768C69.102 115.103 67.8157 116.086 66.3106 116.524L65.1086 116.344C65.2878 115.547 65.1891 114.712 64.8286 113.978C64.468 113.244 63.8672 112.654 63.1254 112.306C62.3544 112.039 61.5094 112.082 60.7697 112.426V112.426Z"
        fill="#382A8C" />
    <path
        d="M63.2457 113.361C63.2457 113.361 65.4211 119.148 68.8706 119.688C72.3202 120.227 72.6807 119.328 73.0413 117.519C73.4019 115.709 74.4957 107.753 74.4957 107.753C74.1123 107.692 73.7452 107.555 73.4166 107.349C73.0881 107.143 72.8049 106.873 72.5846 106.554C72.4881 106.773 72.3418 106.966 72.1572 107.118C71.9726 107.27 71.7549 107.377 71.5214 107.431C71.288 107.485 71.0452 107.483 70.8125 107.426C70.5797 107.37 70.3633 107.26 70.1807 107.105C68.4379 105.907 68.3659 105.02 66.7913 105.5C65.2168 105.979 65.7096 107.105 65.7096 107.105C65.7096 107.105 67.5365 109.886 65.0725 111.18C62.6085 112.474 62.873 110.245 62.873 110.245C62.873 110.245 60.6255 108.459 59.7841 110.389C58.9428 112.318 60.4812 114.882 63.2457 113.361Z"
        fill="#96ABFF" />
    <path d="M52.6809 143.462L44.063 154.247C46.3615 154.812 48.7606 154.837 51.0703 154.319"
        stroke="#3756D4" stroke-width="0.87" stroke-linecap="round" stroke-linejoin="round" />
    <path d="M53.2817 168.818C53.2817 168.818 40.7695 176.811 34.7358 176.655" stroke="#3756D4"
        stroke-width="0.87" stroke-linecap="round" stroke-linejoin="round" />
    <path d="M88.5105 135.457C88.5105 135.457 85.085 143.222 85.686 150.891" stroke="#3756D4"
        stroke-width="0.87" stroke-linecap="round" stroke-linejoin="round" />
    <path d="M87.1162 224.181L90.9023 228.027" stroke="white" stroke-width="0.87"
        stroke-linecap="round" stroke-linejoin="round" />
    <path d="M88.0176 222.623L94.6883 221.796" stroke="white" stroke-width="0.87"
        stroke-linecap="round" stroke-linejoin="round" />
    <path
        d="M55.7456 123.199C58.3298 130.137 65.2289 133.3 70.1688 131.443C75.1087 129.586 76.3588 123.187 76.4069 122.875"
        stroke="#3756D4" stroke-width="0.87" stroke-linecap="round" stroke-linejoin="round" />
    <path
        d="M189.581 61.8423C189.581 61.8423 190.783 64.155 190.29 64.7901C189.797 65.4252 188.09 64.7901 188.09 64.7901C188.09 64.7901 188.872 67.0071 187.73 67.4384C186.588 67.8698 185.675 65.8446 185.675 65.8446C185.675 65.8446 186.312 67.8697 185.266 68.2412C184.22 68.6127 182.934 66.9471 182.934 66.9471C182.934 66.9471 183.848 68.9243 182.934 69.2119C182.021 69.4995 179.509 67.4744 178.92 65.9286C178.331 64.3827 181.251 59.8171 182.658 58.6547C184.064 57.4923 190.014 58.2233 192.069 58.6547C194.124 59.0861 194.04 59.853 194.04 59.853L189.581 61.8423Z"
        fill="#96ABFF" />
    <path
        d="M128.681 68.6526L132.527 57.1348C132.527 57.1348 137.059 69.8559 141.608 71.6201C141.608 71.6201 134.707 73.2034 130.745 69.9802C126.782 66.7569 128.681 68.6526 128.681 68.6526Z"
        fill="#382A8C" />
    <path
        d="M131.388 57.0214L132.421 57.0515L131.477 90.9533L126.395 90.8052L127.227 60.9404C127.257 59.8697 127.712 58.8553 128.493 58.1203C129.273 57.3854 130.315 56.99 131.388 57.0214V57.0214Z"
        fill="#382A8C" />
    <path
        d="M123.534 97.5366C127.263 98.1371 130.77 95.6099 131.366 91.8919C131.963 88.1739 129.424 84.6731 125.695 84.0726C121.965 83.4721 118.459 85.9994 117.862 89.7173C117.265 93.4353 119.804 96.9361 123.534 97.5366Z"
        fill="white" />
    <path
        d="M166.552 84.8643H170.098C175.255 84.8674 180.199 86.9112 183.846 90.5466C187.492 94.182 189.542 99.1118 189.545 104.253V104.253C189.545 109.398 187.495 114.333 183.846 117.971C180.196 121.61 175.247 123.654 170.086 123.654H166.54V84.8643H166.552Z"
        fill="url(#paint7_linear)" />
    <path
        d="M166.552 123.666C177.299 123.666 186.011 114.98 186.011 104.265C186.011 93.5503 177.299 84.8643 166.552 84.8643C155.805 84.8643 147.092 93.5503 147.092 104.265C147.092 114.98 155.805 123.666 166.552 123.666Z"
        fill="white" />
    <path d="M175.518 100.454L157.729 99.6875L165.963 115.433L175.518 100.454Z" fill="#3756D4" />
    <path
        d="M71.455 110.065C71.455 110.065 72.3444 114.439 72.0199 114.979C71.6953 115.518 69.3877 114.979 69.3877 114.979"
        stroke="#382A8C" stroke-width="0.52" stroke-linecap="round" stroke-linejoin="round" />
    <path
        d="M67.6567 115.506C67.6993 115.833 67.8121 116.146 67.9874 116.426C68.1628 116.705 68.3966 116.943 68.6728 117.124C68.9489 117.305 69.2609 117.424 69.5876 117.474C69.9142 117.523 70.2478 117.502 70.5655 117.411"
        stroke="#382A8C" stroke-width="0.52" stroke-linecap="round" stroke-linejoin="round" />
    <path
        d="M69.3874 112.223C69.779 112.223 70.0965 111.906 70.0965 111.516C70.0965 111.125 69.779 110.809 69.3874 110.809C68.9957 110.809 68.6782 111.125 68.6782 111.516C68.6782 111.906 68.9957 112.223 69.3874 112.223Z"
        fill="#382A8C" />
    <path
        d="M73.0172 112.078C73.4089 112.078 73.7264 111.762 73.7264 111.371C73.7264 110.981 73.4089 110.664 73.0172 110.664C72.6256 110.664 72.3081 110.981 72.3081 111.371C72.3081 111.762 72.6256 112.078 73.0172 112.078Z"
        fill="#382A8C" />
    <path
        d="M66.7915 110.365C67.1772 109.877 67.6584 109.472 68.206 109.176C68.7536 108.879 69.3561 108.697 69.9767 108.64"
        stroke="#382A8C" stroke-width="0.52" stroke-linecap="round" stroke-linejoin="round" />
    <path
        d="M71.9478 108.64C72.4164 108.627 72.8809 108.729 73.3002 108.938C73.7196 109.147 74.0808 109.457 74.3516 109.838"
        stroke="#382A8C" stroke-width="0.52" stroke-linecap="round" stroke-linejoin="round" />
    <path
        d="M188.41 211.974C186.908 213.684 185.126 215.124 183.141 216.231L180.96 212.242C187.392 208.75 191.58 198.886 190.517 193.221C189.981 190.337 188.307 189.823 187.028 189.656C178.913 188.735 175.13 206.269 175.111 206.424L170.647 205.527C171.424 201.976 172.593 198.521 174.132 195.227C178.526 186.073 183.868 184.646 187.579 185.077C189.446 185.26 191.194 186.072 192.538 187.383C193.881 188.693 194.741 190.423 194.977 192.292C196.084 197.927 193.466 206.313 188.41 211.974Z"
        fill="#382A8C" />
    <path
        d="M177.163 224.563C172.108 230.224 164.07 233.765 158.387 233.328C156.511 233.294 154.704 232.622 153.261 231.424C151.818 230.226 150.823 228.571 150.438 226.729C149.618 223.078 150.444 217.592 159.024 212.229C162.117 210.337 165.408 208.794 168.836 207.629L170.215 211.995C170.036 212.046 153.085 217.752 154.874 225.718C155.147 226.921 155.837 228.552 158.753 228.785C164.468 229.239 173.804 223.97 176.557 217.179L180.782 218.894C179.9 220.972 178.676 222.888 177.163 224.563V224.563Z"
        fill="#382A8C" />
    <path d="M187.887 219.128L184.008 223.469L194.326 232.752L198.204 228.411L187.887 219.128Z"
        fill="white" />
    <path
        d="M173.892 188.561L163.162 200.57L152.433 212.58C152.433 212.58 161.769 222.846 173.504 227.199C176.092 228.165 178.913 228.324 181.599 227.655C184.285 226.987 186.711 225.521 188.56 223.451V223.451C190.4 221.379 191.581 218.804 191.949 216.057C192.318 213.311 191.858 210.519 190.628 208.044C185.054 196.747 173.892 188.561 173.892 188.561Z"
        fill="white" />
    <path
        d="M207.383 225.978L193.205 241.861C191.114 239.981 189.857 237.342 189.708 234.524C189.559 231.706 190.532 228.939 192.412 226.833C194.292 224.727 196.926 223.454 199.733 223.293C202.541 223.133 205.293 224.099 207.383 225.978V225.978Z"
        fill="#382A8C" />
    <path
        d="M213.272 244.399L215.862 265.357L216.66 271.874C216.973 274.037 216.419 276.236 215.119 277.995C213.818 279.755 211.875 280.933 209.711 281.275C207.546 281.617 205.333 281.095 203.551 279.823C201.768 278.551 200.56 276.631 200.187 274.477C200.145 274.29 200.114 274.1 200.094 273.909L199.431 268.528L198.073 257.579V257.114C197.763 254.527 198.445 251.919 199.982 249.812C201.519 247.705 203.797 246.255 206.362 245.752L213.272 244.399Z"
        fill="url(#paint8_linear)" />
    <path
        d="M251.749 272.855C250.65 273.305 249.467 273.516 248.28 273.473C247.093 273.431 245.929 273.136 244.865 272.609C243.801 272.082 242.862 271.335 242.111 270.417C241.359 269.5 240.813 268.433 240.509 267.288L238.82 260.946L233.401 240.526L240.353 239.183C242.915 238.696 245.566 239.19 247.779 240.567C249.991 241.943 251.601 244.101 252.288 246.609V246.609L252.412 247.064L255.23 257.692L256.629 262.939C257.174 264.901 256.978 266.994 256.079 268.822C255.18 270.649 253.639 272.085 251.749 272.855V272.855Z"
        fill="url(#paint9_linear)" />
    <path
        d="M244.394 259.872L210.288 266.431C208.898 266.694 207.469 266.671 206.088 266.363C204.707 266.055 203.405 265.468 202.26 264.639C201.116 263.809 200.154 262.755 199.434 261.541C198.714 260.326 198.251 258.978 198.073 257.579V257.114C197.763 254.527 198.445 251.919 199.982 249.812C201.519 247.705 203.797 246.254 206.362 245.752L240.395 239.203C242.956 238.716 245.608 239.211 247.82 240.587C250.033 241.964 251.643 244.122 252.33 246.63L252.454 247.084C252.818 248.454 252.895 249.883 252.681 251.283C252.467 252.683 251.967 254.025 251.211 255.224C250.455 256.423 249.46 257.455 248.287 258.254C247.114 259.054 245.789 259.604 244.394 259.872Z"
        fill="url(#paint10_linear)" />
    <path
        d="M208.91 263.6C213.138 263.6 216.566 260.183 216.566 255.967C216.566 251.751 213.138 248.334 208.91 248.334C204.682 248.334 201.254 251.751 201.254 255.967C201.254 260.183 204.682 263.6 208.91 263.6Z"
        fill="white" />
    <path
        d="M241.772 257.279C246.001 257.279 249.429 253.861 249.429 249.646C249.429 245.43 246.001 242.013 241.772 242.013C237.544 242.013 234.116 245.43 234.116 249.646C234.116 253.861 237.544 257.279 241.772 257.279Z"
        fill="white" />
    <path
        d="M208.112 254.159C209.383 254.159 210.412 253.133 210.412 251.866C210.412 250.6 209.383 249.573 208.112 249.573C206.842 249.573 205.812 250.6 205.812 251.866C205.812 253.133 206.842 254.159 208.112 254.159Z"
        fill="url(#paint11_linear)" />
    <path
        d="M209.697 262.36C210.968 262.36 211.997 261.334 211.997 260.067C211.997 258.801 210.968 257.774 209.697 257.774C208.427 257.774 207.397 258.801 207.397 260.067C207.397 261.334 208.427 262.36 209.697 262.36Z"
        fill="url(#paint12_linear)" />
    <path
        d="M213.023 257.465C214.293 257.465 215.323 256.438 215.323 255.172C215.323 253.906 214.293 252.879 213.023 252.879C211.753 252.879 210.723 253.906 210.723 255.172C210.723 256.438 211.753 257.465 213.023 257.465Z"
        fill="url(#paint13_linear)" />
    <path
        d="M204.797 259.045C206.067 259.045 207.097 258.018 207.097 256.752C207.097 255.486 206.067 254.459 204.797 254.459C203.527 254.459 202.497 255.486 202.497 256.752C202.497 258.018 203.527 259.045 204.797 259.045Z"
        fill="url(#paint14_linear)" />
    <path
        d="M240.975 247.838C242.245 247.838 243.275 246.811 243.275 245.545C243.275 244.279 242.245 243.252 240.975 243.252C239.705 243.252 238.675 244.279 238.675 245.545C238.675 246.811 239.705 247.838 240.975 247.838Z"
        fill="url(#paint15_linear)" />
    <path
        d="M242.56 256.029C243.83 256.029 244.86 255.003 244.86 253.736C244.86 252.47 243.83 251.443 242.56 251.443C241.289 251.443 240.26 252.47 240.26 253.736C240.26 255.003 241.289 256.029 242.56 256.029Z"
        fill="url(#paint16_linear)" />
    <path
        d="M245.885 251.144C247.156 251.144 248.185 250.117 248.185 248.851C248.185 247.584 247.156 246.558 245.885 246.558C244.615 246.558 243.585 247.584 243.585 248.851C243.585 250.117 244.615 251.144 245.885 251.144Z"
        fill="url(#paint17_linear)" />
    <path
        d="M237.659 252.724C238.93 252.724 239.959 251.697 239.959 250.431C239.959 249.164 238.93 248.138 237.659 248.138C236.389 248.138 235.359 249.164 235.359 250.431C235.359 251.697 236.389 252.724 237.659 252.724Z"
        fill="url(#paint18_linear)" />
    <path d="M232.094 248.067L217.11 250.949L218.442 257.836L233.427 254.953L232.094 248.067Z"
        fill="#CD5B8A" />
    <path
        d="M77.5698 6.08091L115.807 25.6805C111.378 33.9475 107.379 42.4365 103.826 51.1141L103.825 51.1174C101.038 58.0636 98.6563 64.699 96.6456 70.9669C92.6203 70.7617 88.6827 69.7082 85.0931 67.8745L53.9886 51.926L77.5698 6.08091Z"
        fill="white" stroke="#122E71" />
    <path
        d="M97.0053 71.4826C92.7759 71.323 88.6324 70.2433 84.8657 68.319L53.3149 52.1417L54.5169 49.7451L97.0053 71.4826Z"
        fill="#382A8C" />
    <path
        d="M74.1806 35.9171C77.7888 27.0973 81.8608 18.4735 86.3801 10.0815L71.2238 2.31641C67.0079 10.8605 62.3419 19.1764 57.2453 27.2293C53.1948 33.6403 49.1082 39.512 45.0938 44.8684C47.6798 48.209 50.9716 50.9412 54.7355 52.8713C58.4993 54.8015 62.6431 55.8822 66.8728 56.0368C68.904 49.6618 71.308 42.9272 74.1806 35.9171Z"
        fill="#382A8C" />
    <path
        d="M60.5749 46.1386C63.1239 46.1386 65.1903 44.0784 65.1903 41.5371C65.1903 38.9957 63.1239 36.9355 60.5749 36.9355C58.0259 36.9355 55.9595 38.9957 55.9595 41.5371C55.9595 44.0784 58.0259 46.1386 60.5749 46.1386Z"
        fill="white" />
    <path d="M75.7801 15.0442L73.2896 13.7676L62.8309 34.048L65.3214 35.3246L75.7801 15.0442Z"
        fill="white" />
    <path d="M93.4115 17.9189C93.4115 17.9189 81.9811 33.9644 78.9883 53.8684" stroke="#3756D4"
        stroke-width="0.87" stroke-linecap="round" stroke-linejoin="round" />
    <path d="M102.366 22.2568C102.366 22.2568 90.9357 38.3023 87.9429 58.2063" stroke="#3756D4"
        stroke-width="0.87" stroke-linecap="round" stroke-linejoin="round" />
</svg>
