<svg width="768" height="1024" viewBox="0 0 768 1024" fill="none" xmlns="http://www.w3.org/2000/svg">
<g clip-path="url(#clip0)">
<rect width="1024" height="768" transform="matrix(4.37114e-08 1 1 -4.37114e-08 0 6.10352e-05)" fill="white"/>
<rect width="1024" height="768" transform="matrix(4.37114e-08 1 1 -4.37114e-08 0 6.10352e-05)" fill="url(#paint0_radial)"/>
<rect width="1024" height="768" transform="matrix(4.37114e-08 1 1 -4.37114e-08 0 6.10352e-05)" fill="url(#paint1_radial)"/>
<rect width="1024" height="768" transform="matrix(4.37114e-08 1 1 -4.37114e-08 0 6.10352e-05)" fill="url(#paint2_linear)"/>
<path d="M268.925 197.382C307.126 223.043 333.722 201.947 360.228 230.21C391.49 263.544 373.868 310.027 439.926 306.677C505.984 303.327 526.554 243.317 508.576 178.12C492.316 119.117 453.334 73.4227 396.216 61.1953C346.157 50.5079 314.452 65.7152 277.156 96.7601C248.895 120.284 230.724 171.721 268.925 197.382Z" stroke="url(#paint3_linear)" stroke-width="3.03283" stroke-miterlimit="10"/>
<path opacity="0.4" d="M223.863 206.877C273.633 240.568 308.465 213.142 342.949 250.177C383.621 293.857 360.39 354.48 446.677 350.414C532.964 346.348 560.108 268.072 536.933 182.842C515.975 105.708 465.278 45.8504 390.74 29.6144C325.414 15.4227 283.936 35.1349 235.083 75.5045C198.064 106.094 174.094 173.186 223.863 206.877Z" stroke="url(#paint4_linear)" stroke-width="3.03283" stroke-miterlimit="10"/>
<path opacity="0.3" d="M205.187 216.16C260.531 252.944 299.805 221.597 338.007 262.408C383.063 310.541 356.421 378.828 453.035 372.671C549.648 366.514 580.857 278.396 555.824 183.431C533.184 97.4865 477.079 31.4319 393.83 14.6464C320.868 -0.0223517 274.239 22.8132 219.135 68.9076C177.381 103.835 149.843 179.376 205.187 216.16Z" stroke="url(#paint5_linear)" stroke-width="3.03283" stroke-miterlimit="10"/>
<path opacity="0.2" d="M159.244 229.415C225.217 273.007 272.52 235.128 317.929 283.688C371.485 340.961 338.999 422.981 454.763 414.789C570.527 406.598 608.649 300.786 579.47 187.249C553.082 84.4958 486.445 5.84991 386.881 -13.5521C299.62 -30.5056 243.58 -2.75912 177.194 52.9185C126.891 95.1078 93.2706 185.823 159.244 229.415Z" stroke="url(#paint6_linear)" stroke-width="3.03283" stroke-miterlimit="10"/>
</g>
<defs>
<radialGradient id="paint0_radial" cx="0" cy="0" r="1" gradientUnits="userSpaceOnUse" gradientTransform="translate(-8.73528e-07 712) rotate(-45) scale(782.06 709.119)">
<stop stop-color="#DFA7F7"/>
<stop offset="1" stop-color="#EFF2FC" stop-opacity="0"/>
</radialGradient>
<radialGradient id="paint1_radial" cx="0" cy="0" r="1" gradientUnits="userSpaceOnUse" gradientTransform="translate(662 881.5) rotate(-92.3171) scale(692.566)">
<stop stop-color="#7DA9FC"/>
<stop offset="1" stop-color="#B3CBF8" stop-opacity="0"/>
</radialGradient>
<linearGradient id="paint2_linear" x1="1024" y1="3.38184e-05" x2="295" y2="729" gradientUnits="userSpaceOnUse">
<stop stop-color="#D6E5FD"/>
<stop offset="1" stop-color="white" stop-opacity="0"/>
</linearGradient>
<linearGradient id="paint3_linear" x1="346.832" y1="260.22" x2="499.624" y2="123.297" gradientUnits="userSpaceOnUse">
<stop stop-color="#B19DFF" stop-opacity="0.92"/>
<stop offset="1" stop-color="white"/>
</linearGradient>
<linearGradient id="paint4_linear" x1="325.315" y1="289.306" x2="525.499" y2="111.201" gradientUnits="userSpaceOnUse">
<stop stop-color="#B19DFF" stop-opacity="0.92"/>
<stop offset="1" stop-color="white"/>
</linearGradient>
<linearGradient id="paint5_linear" x1="317.857" y1="306.534" x2="544.399" y2="104.145" gradientUnits="userSpaceOnUse">
<stop stop-color="#B19DFF" stop-opacity="0.92"/>
<stop offset="1" stop-color="white"/>
</linearGradient>
<linearGradient id="paint6_linear" x1="293.422" y1="336.712" x2="566.869" y2="92.8376" gradientUnits="userSpaceOnUse">
<stop stop-color="#B19DFF" stop-opacity="0.92"/>
<stop offset="1" stop-color="white"/>
</linearGradient>
<clipPath id="clip0">
<rect width="1024" height="768" fill="white" transform="matrix(4.37114e-08 1 1 -4.37114e-08 0 6.10352e-05)"/>
</clipPath>
</defs>
</svg>
