<svg width="768" height="1024" viewBox="0 0 768 1024" fill="none"
    xmlns="http://www.w3.org/2000/svg">
    <defs>
        <clipPath id="clip0">
            <rect width="1024" height="768" fill="white" transform="translate(768) rotate(90)" />
        </clipPath>
    </defs>

    <g clip-path="url(#clip0)">
        <rect width="1024" height="768" transform="translate(768) rotate(90)" fill="#4D40E5" />
        <circle cx="863.5" cy="-204.5" r="481.5" fill="#DF48D9" />
        <circle cx="472.386" cy="676.386" r="54.2225" transform="rotate(5.75504 472.386 676.386)"
            fill="#23B480" />
        <circle cx="208.095" cy="408" r="29" fill="#DF48D9" />
        <circle cx="-3.05176e-05" cy="595" r="107" fill="#F0A637" />
        <path
            d="M-75.1875 164.685C-123.685 247.907 -95.5359 354.686 -12.3146 403.183L163.31 101.812C80.089 53.315 -26.6901 81.4642 -75.1875 164.685Z"
            fill="#23B480" />
        <path
            d="M784.078 1063.08C862.356 991.643 867.902 870.277 796.467 792L513 1050.69C584.435 1128.97 705.801 1134.51 784.078 1063.08Z"
            fill="#00BFD9" />
        <rect x="271" y="199.797" width="89.5929" height="89.5929"
            transform="rotate(-30 271 199.797)" fill="#F0A637" />
        <path
            d="M637.807 313.732C533.953 303.265 441.278 378.97 430.811 482.824C428.871 502.073 429.892 520.937 433.502 538.965L617.749 502.68L653.972 687.532C734.185 672.404 798.299 606.07 806.9 520.728C817.367 416.874 741.661 324.199 637.807 313.732Z"
            fill="#00BFD9" />
    </g>
</svg>
