<svg width="23" height="25" viewBox="0 0 23 25" fill="none" xmlns="http://www.w3.org/2000/svg">
<path d="M17.6296 6.80082C17.4231 6.44331 17.1256 6.14639 16.7673 5.93999C16.4089 5.73358 16.0024 5.62498 15.5885 5.62513C15.1746 5.62528 14.7681 5.73417 14.4099 5.94083C14.0518 6.1475 13.7545 6.44463 13.5482 6.80229L12.0145 4.15408C11.8059 3.79287 11.5046 3.49356 11.1416 3.28692C10.7785 3.08027 10.3668 2.97373 9.94875 2.97827C9.5307 2.98281 9.12141 3.09825 8.76295 3.31273C8.40448 3.5272 8.10978 3.83298 7.90913 4.19862C7.56081 3.79684 7.08624 3.52453 6.56279 3.42608C6.03934 3.32764 5.49787 3.40886 5.02666 3.65651C4.55544 3.90415 4.18226 4.30363 3.96796 4.7898C3.75365 5.27598 3.71086 5.82019 3.84655 6.33372C3.46602 6.38928 3.10493 6.53688 2.79482 6.76364C2.48471 6.9904 2.23501 7.28941 2.06754 7.63456C1.90007 7.9797 1.81993 8.36047 1.8341 8.74362C1.84828 9.12676 1.95634 9.50061 2.14886 9.83252L2.50388 10.4456C2.09004 10.445 1.68336 10.5531 1.32478 10.7591C0.966209 10.9651 0.66841 11.2616 0.46138 11.6188C0.254351 11.9761 0.145402 12.3814 0.145508 12.7939C0.145613 13.2065 0.254769 13.6118 0.461981 13.9689L4.0956 20.2432C4.8235 21.5003 5.89577 22.5246 7.18673 23.1959C8.4777 23.8673 9.93386 24.1579 11.3846 24.0336C12.8353 23.9094 14.2204 23.3755 15.3776 22.4945C16.5348 21.6136 17.4162 20.422 17.9184 19.0595C19.1683 17.8765 19.9838 16.3095 20.2341 14.6095C20.4845 12.9095 20.1552 11.1749 19.2991 9.68361L17.6296 6.80082ZM8.83501 5.02484C8.89533 4.80038 9.02106 4.59879 9.19631 4.44557C9.37155 4.29235 9.58844 4.19438 9.81954 4.16405C10.0506 4.13373 10.2856 4.1724 10.4946 4.27518C10.7037 4.37797 10.8774 4.54025 10.994 4.7415L13.2221 8.58884C12.8871 8.65054 12.5696 8.78415 12.2916 8.98041C12.0137 9.17668 11.7818 9.43089 11.6123 9.72541L10.0786 7.07711C9.84751 6.6772 9.50278 6.35451 9.08789 6.14976L8.95335 5.91753L8.95286 5.91635C8.87508 5.78289 8.82462 5.63538 8.8044 5.48236C8.78417 5.32933 8.79457 5.17383 8.83501 5.02484ZM4.9876 5.43045C5.04792 5.20599 5.17365 5.00441 5.3489 4.85119C5.52414 4.69797 5.74103 4.6 5.97212 4.56967C6.20322 4.53934 6.43815 4.57802 6.6472 4.6808C6.85625 4.78359 7.03003 4.94587 7.14656 5.14712L7.60685 5.9421C7.26379 6.00538 6.93915 6.14394 6.65645 6.34775C6.37374 6.55156 6.14005 6.81551 5.97231 7.12048C5.76854 6.88546 5.51977 6.69334 5.24058 6.55537L5.10535 6.32197C5.02756 6.18852 4.97709 6.041 4.95688 5.88797C4.93667 5.73494 4.94711 5.57943 4.9876 5.43045ZM13.9702 22.0208C12.481 22.8757 10.7125 23.1067 9.05263 22.6633C7.39277 22.2199 5.97709 21.1383 5.11615 19.6556L1.48254 13.3814C1.32626 13.1115 1.28392 12.7908 1.36481 12.4898C1.44571 12.1889 1.64322 11.9323 1.91391 11.7765C2.18459 11.6207 2.50626 11.5784 2.80817 11.6591C3.11007 11.7397 3.36747 11.9367 3.52375 12.2065L3.52384 12.2067L5.88078 16.2764C5.91919 16.3437 5.97058 16.4028 6.032 16.4503C6.09341 16.4978 6.16364 16.5326 6.23863 16.5529C6.31363 16.5732 6.39191 16.5786 6.46897 16.5686C6.54603 16.5586 6.62034 16.5335 6.68764 16.4948C6.75494 16.456 6.81388 16.4044 6.86109 16.3429C6.90829 16.2813 6.94282 16.2111 6.96268 16.1362C6.98254 16.0613 6.98735 15.9832 6.97682 15.9065C6.96629 15.8297 6.94064 15.7558 6.90134 15.689L3.16952 9.245C3.09092 9.11133 3.03961 8.96349 3.01856 8.80998C2.9975 8.65647 3.00711 8.50032 3.04684 8.35053C3.08656 8.20074 3.15562 8.06026 3.25002 7.93718C3.34443 7.8141 3.46232 7.71085 3.59692 7.63338C3.73151 7.55591 3.88015 7.50574 4.03427 7.48577C4.18839 7.4658 4.34495 7.47642 4.49493 7.51702C4.64492 7.55761 4.78537 7.62738 4.9082 7.72231C5.03103 7.81724 5.13381 7.93546 5.21063 8.07015L8.94245 14.5141C9.02059 14.649 9.14929 14.7475 9.30025 14.7878C9.4512 14.8282 9.61205 14.807 9.7474 14.7292C9.88274 14.6513 9.98151 14.5229 10.022 14.3725C10.0624 14.222 10.0412 14.0616 9.9631 13.9267L7.01693 8.83938C6.93833 8.70572 6.88702 8.55787 6.86597 8.40436C6.84491 8.25085 6.85453 8.09471 6.89425 7.94491C6.93398 7.79512 7.00303 7.65464 7.09743 7.53156C7.19184 7.40848 7.30973 7.30523 7.44433 7.22776C7.57892 7.15029 7.72756 7.10013 7.88168 7.08016C8.0358 7.06019 8.19236 7.0708 8.34234 7.1114C8.49233 7.15199 8.63278 7.22177 8.75561 7.3167C8.87844 7.41162 8.98122 7.52984 9.05804 7.66453L13.1827 14.7867C13.2614 14.9205 13.39 15.0178 13.5404 15.0575C13.6908 15.0971 13.8509 15.0759 13.9856 14.9983C14.1204 14.9207 14.2189 14.7932 14.2597 14.6435C14.3004 14.4938 14.2801 14.3341 14.2032 14.1992L12.6319 11.4861V11.486C12.5546 11.3524 12.5043 11.2049 12.4841 11.0519C12.4639 10.899 12.4742 10.7435 12.5142 10.5945C12.5951 10.2935 12.7926 10.0369 13.0633 9.88113C13.334 9.72534 13.6557 9.68312 13.9576 9.76377C14.2595 9.84442 14.5169 10.0413 14.6732 10.3112L16.3427 13.194C16.7683 13.9288 17.0445 14.7401 17.1556 15.5814C17.2667 16.4227 17.2105 17.2776 16.9902 18.0972C16.7699 18.9169 16.3898 19.6853 15.8716 20.3585C15.3535 21.0317 14.7074 21.5965 13.9702 22.0208ZM18.3915 16.5234C18.4109 15.149 18.0555 13.7952 17.3633 12.6065L15.6938 9.72375C15.4627 9.32383 15.118 9.00113 14.7031 8.7964L14.568 8.563C14.4157 8.29341 14.3762 7.97481 14.4582 7.67639C14.5401 7.37797 14.7368 7.12381 15.0056 6.96911C15.2743 6.8144 15.5935 6.77163 15.8937 6.85009C16.1939 6.92854 16.4509 7.12189 16.609 7.38815L18.2785 10.2709C18.8231 11.2196 19.119 12.2899 19.1387 13.3827C19.1585 14.4756 18.9015 15.5558 18.3915 16.5234ZM15.3373 2.44261L15.7441 0.929603C15.7845 0.779105 15.8833 0.650785 16.0186 0.572872C16.154 0.494958 16.3148 0.473834 16.4658 0.514146C16.6167 0.554458 16.7454 0.652904 16.8236 0.787827C16.9017 0.92275 16.9229 1.0831 16.8825 1.2336L16.4756 2.7467C16.4556 2.82122 16.4211 2.89108 16.374 2.95229C16.3269 3.0135 16.2681 3.06486 16.2011 3.10344C16.1341 3.14201 16.0601 3.16706 15.9834 3.17713C15.9067 3.18721 15.8287 3.18212 15.754 3.16216C15.6792 3.1422 15.6091 3.10776 15.5477 3.0608C15.4863 3.01384 15.4348 2.95529 15.3961 2.88848C15.3574 2.82167 15.3323 2.74792 15.3222 2.67144C15.3121 2.59495 15.3172 2.51723 15.3372 2.44271L15.3373 2.44261ZM17.8968 3.40726L18.798 2.12413C18.8424 2.06094 18.8988 2.00708 18.9641 1.96563C19.0293 1.92418 19.1022 1.89596 19.1784 1.88256C19.2546 1.86916 19.3327 1.87086 19.4082 1.88756C19.4838 1.90426 19.5553 1.93562 19.6187 1.97987C19.682 2.02412 19.7361 2.08038 19.7776 2.14544C19.8192 2.2105 19.8475 2.28309 19.861 2.35906C19.8744 2.43503 19.8727 2.5129 19.856 2.58821C19.8392 2.66353 19.8077 2.73481 19.7634 2.79801L18.8621 4.08114C18.7725 4.20876 18.6357 4.29566 18.4818 4.32271C18.3279 4.34977 18.1695 4.31476 18.0415 4.2254C17.9135 4.13604 17.8263 3.99964 17.7992 3.84621C17.772 3.69278 17.8071 3.53489 17.8968 3.40726ZM21.934 5.25041L20.6468 6.14888C20.5188 6.23824 20.3604 6.27324 20.2065 6.24619C20.0526 6.21913 19.9158 6.13224 19.8262 6.00461C19.7365 5.87699 19.7014 5.7191 19.7286 5.56567C19.7557 5.41224 19.8429 5.27584 19.9709 5.18648L21.258 4.28791C21.386 4.19855 21.5444 4.16355 21.6983 4.1906C21.8522 4.21766 21.989 4.30455 22.0786 4.43217C22.1683 4.5598 22.2034 4.71769 22.1762 4.87112C22.1491 5.02455 22.0619 5.16095 21.9339 5.25031L21.934 5.25041Z" fill="white"/>
</svg>
