<svg width="22" height="19" viewBox="0 0 22 19" fill="none" xmlns="http://www.w3.org/2000/svg">
<path fill-rule="evenodd" clip-rule="evenodd" d="M9.5 1.5H12.5C14.6527 1.5 16.1316 1.50259 17.2529 1.6388C18.3393 1.77076 18.8869 2.00874 19.2731 2.33858C19.4125 2.45766 19.5423 2.58751 19.6614 2.72693C19.9913 3.11312 20.2292 3.66075 20.3612 4.7471C20.4974 5.8684 20.5 7.34727 20.5 9.5C20.5 11.6527 20.4974 13.1316 20.3612 14.2529C20.2292 15.3393 19.9913 15.8869 19.6614 16.2731C19.5423 16.4125 19.4125 16.5423 19.2731 16.6614C18.8869 16.9913 18.3393 17.2292 17.2529 17.3612C16.1316 17.4974 14.6527 17.5 12.5 17.5H9.5C7.34727 17.5 5.8684 17.4974 4.7471 17.3612C3.66075 17.2292 3.11312 16.9913 2.72693 16.6614C2.58751 16.5423 2.45766 16.4125 2.33858 16.2731C2.00874 15.8869 1.77076 15.3393 1.6388 14.2529C1.50259 13.1316 1.5 11.6527 1.5 9.5C1.5 7.34727 1.50259 5.8684 1.6388 4.7471C1.77076 3.66075 2.00874 3.11312 2.33858 2.72693C2.45766 2.58751 2.58751 2.45766 2.72693 2.33858C3.11312 2.00874 3.66075 1.77076 4.7471 1.6388C5.8684 1.50259 7.34727 1.5 9.5 1.5ZM0 9.5C0 5.27027 0 3.1554 1.19797 1.75276C1.36808 1.55358 1.55358 1.36808 1.75276 1.19797C3.1554 0 5.27027 0 9.5 0H12.5C16.7297 0 18.8446 0 20.2472 1.19797C20.4464 1.36808 20.6319 1.55358 20.802 1.75276C22 3.1554 22 5.27027 22 9.5C22 13.7297 22 15.8446 20.802 17.2472C20.6319 17.4464 20.4464 17.6319 20.2472 17.802C18.8446 19 16.7297 19 12.5 19H9.5C5.27027 19 3.1554 19 1.75276 17.802C1.55358 17.6319 1.36808 17.4464 1.19797 17.2472C0 15.8446 0 13.7297 0 9.5ZM9.625 12.8938L14.125 10.1788C14.625 9.87709 14.625 9.12291 14.125 8.82123L9.625 6.10617C9.125 5.8045 8.5 6.18159 8.5 6.78494V12.2151C8.5 12.8184 9.125 13.1955 9.625 12.8938Z" fill="white"/>
</svg>
