<svg width="24" height="24" viewBox="0 0 24 24" fill="none" xmlns="http://www.w3.org/2000/svg">
<path d="M15 10C15 11.1046 14.1046 12 13 12C11.8954 12 11 11.1046 11 10C11 8.89543 11.8954 8 13 8C14.1046 8 15 8.89543 15 10Z" fill="#372A5E"/>
<path fill-rule="evenodd" clip-rule="evenodd" d="M10.697 15.7171C10.3057 16.0976 9.68007 16.0943 9.29289 15.7071C8.90237 15.3166 8.90237 14.6834 9.29289 14.2929L9.99994 14.9999C9.29289 14.2929 9.29289 14.2929 9.29289 14.2929L9.29432 14.2915L9.29585 14.2899L9.29922 14.2866L9.30713 14.2789L9.32778 14.2592C9.34368 14.2443 9.36387 14.2259 9.38837 14.2045C9.43735 14.1616 9.5037 14.1066 9.5875 14.0437C9.75496 13.9182 9.99328 13.7603 10.3028 13.6056C10.9251 13.2944 11.8272 13 13 13C14.1728 13 15.0749 13.2944 15.6972 13.6056C16.0067 13.7603 16.245 13.9182 16.4125 14.0437C16.4963 14.1066 16.5627 14.1616 16.6116 14.2045C16.6361 14.2259 16.6563 14.2443 16.6722 14.2592L16.6929 14.2789L16.7008 14.2866L16.7041 14.2899L16.7057 14.2915L16.7064 14.2922C16.7064 14.2922 16.7071 14.2929 16 15L16.7064 14.2922C17.0969 14.6827 17.0976 15.3166 16.7071 15.7071C16.3199 16.0943 15.6943 16.0976 15.303 15.7171C15.3015 15.7157 15.2987 15.7132 15.2946 15.7096C15.2811 15.6978 15.2537 15.6747 15.2125 15.6438C15.13 15.5818 14.9933 15.4897 14.8028 15.3944C14.4251 15.2056 13.8272 15 13 15C12.1728 15 11.5749 15.2056 11.1972 15.3944C11.0067 15.4897 10.87 15.5818 10.7875 15.6438C10.7463 15.6747 10.7189 15.6978 10.7054 15.7096C10.7013 15.7132 10.6985 15.7157 10.697 15.7171Z" fill="#372A5E"/>
<path fill-rule="evenodd" clip-rule="evenodd" d="M5 5C5 3.34315 6.34315 2 8 2H18C19.6569 2 21 3.34315 21 5V19C21 20.6569 19.6569 22 18 22H8C6.34315 22 5 20.6569 5 19V5ZM8 4C7.44772 4 7 4.44772 7 5V19C7 19.5523 7.44772 20 8 20H18C18.5523 20 19 19.5523 19 19V5C19 4.44772 18.5523 4 18 4H8Z" fill="#372A5E"/>
<path d="M3 7C3 6.44772 3.44772 6 4 6H5C5.55228 6 6 6.44772 6 7C6 7.55228 5.55228 8 5 8H4C3.44772 8 3 7.55228 3 7Z" fill="#372A5E"/>
<path d="M3 12C3 11.4477 3.44772 11 4 11H5C5.55228 11 6 11.4477 6 12C6 12.5523 5.55228 13 5 13H4C3.44772 13 3 12.5523 3 12Z" fill="#372A5E"/>
<path d="M3 17C3 16.4477 3.44772 16 4 16H5C5.55228 16 6 16.4477 6 17C6 17.5523 5.55228 18 5 18H4C3.44772 18 3 17.5523 3 17Z" fill="#372A5E"/>
</svg>
